<svg xmlns="http://www.w3.org/2000/svg" xmlns:xlink="http://www.w3.org/1999/xlink" width="90.582" height="46.993" viewBox="0 0 90.582 46.993"><defs><clipPath id="a"><rect width="90.582" height="46.993" fill="#f8e075"/></clipPath></defs><g transform="translate(-683.795 -666.4)"><g transform="translate(774.377 713.393) rotate(180)"><rect width="86.818" height="41.607" transform="translate(1.712 2.609)" fill="#f8e075"/><g clip-path="url(#a)"><path d="M.767.472c.19-.01.489-.014.814-.016L8.167.424C8.97.42,9.692.411,10.424.4c1.02-.019,2.12-.029,3.232-.028L19.79.345c.642,0,1.228-.013,1.795-.025L22.958.3,24.83.289,25.7.274c.993-.028,2.088-.031,3.2-.031.643,0,1.25,0,1.808.016s1.169.018,1.812.016L35.835.262c.47,0,.92-.01,1.285-.025l.338-.015c.732-.041,1.65-.066,2.853-.068.641,0,1.244-.01,1.828-.023l.9-.013L46.36.1c.49,0,.95,0,1.375.011.568.012,1.211.017,1.7.036.614.024,1.418.029,2.128.044.583.012,1.219.012,1.855.011.811,0,1.532-.014,2.272-.029,1.054-.021,2.165-.023,3.231,0C59.664.188,60.412.2,61.213.2L63.1.19c.144,0,.315-.005.408-.011.15-.009.067-.022-.188-.035L62.369.094c-.09,0-.186-.014-.143-.018s.237-.011.382-.013L64,.053,73.5.036c.641,0,1.254-.006,1.851-.018.289-.006.6-.011.908-.012L80.538,0c.487,0,.927.008,1.366.017s.89.016,1.372.016l1.9,0H90.5V.916l0,3.81c0,.362,0,.726,0,1.09,0,.454,0,.91,0,1.363q0,2.185-.005,4.365c0,.46-.011.905-.04,1.323-.017.258-.016.532-.017.8l0,8.459c0,1.169-.029,2.372.048,3.5l.008.814q.013,1.5.026,3c0,.177.008.362.018.525.027.425.037.865.039,1.325l.007,7.914q0,2.047.006,4.091c0,.361,0,.729,0,1.09q0,.821,0,1.638l0,.921-1.588,0-2.337.007c-.476,0-.917.008-1.35.017s-.869.017-1.346.018q-3.981.015-7.961,0c-.3,0-.611-.007-.889-.013-.573-.013-1.154-.023-1.793-.024l-7.031-.007-9.377,0c-.636,0-1.237-.007-1.814-.02-.438-.009-.9-.011-1.373-.012l-8.9-.014c-.465,0-.944,0-1.372-.011-.859-.022-1.787-.025-2.731-.026l-5.626-.005c-.943,0-1.865-.006-2.724-.028-.428-.011-.91-.011-1.375-.011l-7.03-.011c-.637,0-1.224-.01-1.811-.021l-.9-.01L10.934,46.75h-.469l-9.135.005H.064v-.738l0-6.217c0-.564-.015-1.085-.046-1.605a9.3,9.3,0,0,1,0-1.077c.026-.427.048-.852.049-1.325L.088,31.37l.069-8.29c0-.83.01-1.657.014-2.485,0-.365.007-.737.01-1.1.008-.457.022-.907.057-1.311.02-.231.036-.476.042-.763q.021-1.652.042-3.3c0-.366.007-.736.01-1.1,0-.271.013-.543.034-.78.035-.385.052-.822.058-1.289l.013-.824c0-.279.017-.535.033-.779C.494,9.011.5,8.656.513,8.291c.007-.27.015-.539.023-.808C.581,6.944.586,6.265.62,5.7c.03-.5.047-1.017.06-1.558.011-.261.022-.525.032-.768.019-.329.032-.667.04-1.033.006-.27.013-.542.019-.806s.027-.5.05-.67C.834.755.855.651.871.658a1.394,1.394,0,0,1,.281.168c.038.027.073.12.108.312.05.275.1.525.154.76a1.831,1.831,0,0,0,.082.259,2.71,2.71,0,0,1,.077.408c.049.337.092.744.134,1.161.072.7.168,1.119.24,1.839.014.14.033.251.051.353s.038.173.056.257.039.14.057.246a6.583,6.583,0,0,1,.075.9c.013.54.005,1.088.031,1.619s.06.981.093,1.512c.017.26.032.5.048.754a6,6,0,0,0,.124.985c.03.142.065.207.094.363a5.985,5.985,0,0,1,.084.889c.007.355.015.717.022,1.075,0,.458.021.892.054,1.307,0,.08.011.165.017.251.029.983.064,1.969.019,2.9,0,.158-.01.328-.015.5v1.065c0,.36-.007.694-.024,1.019-.007.239-.014.5-.022.755,0,.529,0,1.065-.034,1.542-.016.237-.012.515-.015.778l-.009.793c-.043.529-.041,1.182-.071,1.743-.026.5-.041,1-.046,1.538-.007.261-.015.52-.022.774s-.018.493-.027.766c0,.8-.005,1.607-.008,2.417q0,.808,0,1.616c0,.173-.009.348-.019.508-.02.33-.035.665-.036,1.03l-.008,1.615c0,.185-.007.353-.02.513-.031.4-.045.83-.045,1.288L2.35,41.122c0,.264-.012.533-.025.782-.018.343-.027.689-.026,1.053q-.006,1.533-.011,3.061l-.958-.558.782,0c.467,0,.9.01,1.328.021l2.131.047c.428.009.865.017,1.343.017h3.748l1.36-.015c.447-.007.869-.017,1.352-.017l5.156,0c.808,0,1.525.012,2.232.029.273.007.588.011.891.013q3.513.016,7.019,0l.9-.012c.724-.016,1.47-.023,2.266-.024L51.054,45.5l3.28,0c1.272,0,2.45.016,3.6.043,1.113.027,2.206.058,3.524.056.294,0,.609.006.887.012l2.539.059c.279.006.586.011.888.013l3.274.01c.32,0,.618,0,.907.01.717.017,1.479.023,2.271.023h8.908c.482,0,.924-.008,1.339-.018,1.118-.029,2.439-.027,3.53-.059h1.4l1.587.033-.564.328c.021-.365.043-.725.077-1.049a4.093,4.093,0,0,1,.081-.572,10.066,10.066,0,0,0,.241-1.4c.025-.206.052-.422.068-.666.057-.745.11-1.436.166-2.165a7.742,7.742,0,0,0-.007-1.054c-.052-.74-.118-1.416-.205-1.989-.038-.252-.076-.51-.114-.764s-.062-.58-.08-.927c-.016-.255-.031-.488-.048-.746,0-.259,0-.539,0-.81.035-.489.071-.981.1-1.465.025-.33.037-.676.041-1.043,0-.181.005-.363.008-.543.011-.54.083-1.588.133-1.94.029-.194.056-.377.085-.574a10.591,10.591,0,0,0,.092-1.182,3.178,3.178,0,0,1,.093-.81c.043-.158.1-.356.14-.517a2.545,2.545,0,0,0,.084-.549,5.78,5.78,0,0,1,.166-1.131,1.234,1.234,0,0,0,.032-.147,1.882,1.882,0,0,0,.027-.2c.049-.645.1-1.276.094-2.05,0-.18,0-.364,0-.545,0-.551-.007-1.091-.049-1.58-.014-.162-.018-.336-.021-.521-.012-.808,0-1.654-.073-2.37l-.02-.806c-.006-.267,0-.566-.022-.8-.05-.653-.048-1.422-.1-2.052-.015-.161-.02-.332-.02-.521V10.9c0-.37.015-.715.035-1.056.006-.167.012-.348.019-.523,0-.818.008-1.636.012-2.614,0-.659,0-1.478,0-2.3,0-.271,0-.546-.021-.8-.028-.414-.046-.843-.048-1.308L89.379.916V.686h-.39l-.894,0c-.649,0-1.251.011-1.712.033C85.569.76,84.569.782,83.6.805c-.288.007-.573.012-.894.012L68.152.829l-2.816,0c-.323,0-.63,0-.9-.011C63.317.781,62.081.773,60.815.773l-1.877,0c-.487,0-.937-.007-1.312-.021L55.413.672C54.375.638,53.286.608,51.949.61l-.936,0A5.356,5.356,0,0,1,49.895.548c0-.014.112-.029.084-.043a1.507,1.507,0,0,0-.469-.06c-.8-.043-1.8-.055-2.969-.04-.318,0-.556.013-.76.025-.384.022-.415.031-.129.055L45.885.5c.291.029.163.051-.422.076-.655.027-1.027.027-1.627,0-.362-.014-.651-.03-.942-.047s-.616-.032-.982-.045c-.494-.017-1.044-.032-1.7-.033l-2.834,0c-.806,0-1.544-.009-2.292-.02-.274,0-.655,0-.915,0-.871.017-1.761.03-2.707.035-.638,0-1.189.017-1.749.03-.441.01-.906.011-1.351,0-.727-.014-1.48-.019-2.285-.017L15.23.519c-.65,0-1.195.014-1.765.025-.747.013-1.51.013-2.278,0-.434-.006-.871-.013-1.36-.012l-2.833,0c-.639,0-1.253,0-1.837-.011C4.708.518,4.239.518,3.77.519H1.418C1.145.517.82.511.688.5.53.493.61.481.767.472M54.258,46.349a9.665,9.665,0,0,0-1.736-.094H50.772l-1.034,0a8.346,8.346,0,0,0-1.189.06c-.05.039,0,.076.127.114a5.055,5.055,0,0,0,.711.057c.489.021,1.039.033,1.679.034l1.387,0c.281,0,.633-.011.772-.022.322-.026.537-.055.791-.083a.5.5,0,0,0,.244-.067m-1.545-.21a4.758,4.758,0,0,0,.6-.013c.112-.014-.027-.028-.249-.037l-.3,0c-.082.005-.193.01-.24.016-.121.015-.047.028.194.037m11.1-.166c.628,0,1.243-.008,1.8-.023s1.2-.015,1.8-.023a5.017,5.017,0,0,0,.629-.025c-.047-.015-.383-.023-.7-.027l-.428-.009c-.556-.015-1.13-.026-1.772-.027l-3.279-.006c-.8,0-1.529-.013-2.22-.032-.28-.008-.574-.012-.895-.013l-4.683-.006-6.093,0-.907-.009-1.34-.019c-1.387-.01-2.8-.011-4.122-.04-.412-.009-.914-.008-1.379-.01l-2.806-.009c-.8,0-1.529-.013-2.248-.028-.438-.009-.909-.009-1.378-.009-.488,0-.961.006-1.247.025-.768.051-1.693.09-2.923.11-.281,0-.521.017-.763.026a2.845,2.845,0,0,0-.488.038,4.407,4.407,0,0,0,.6.028l.86.019c.307.008.592.011.878,0,.72-.017,1.492-.022,2.278-.022.464,0,.923,0,1.356.014.945.026,1.892.053,2.943.068a4.28,4.28,0,0,0,.9-.038.761.761,0,0,0-.236-.044c-.237-.026-.019-.046.453-.044l1.382.009c.451.006.879.021,1.322.022,1.46,0,2.72.031,3.961.063.987.025,2,.041,3.125.041l1.485,0H51.94c.946,0,1.831-.012,2.705-.032,1.032-.023,2.121-.02,3.168,0l.427.009.89.013q2.333.013,4.679,0m6.989.34c-.067-.006-.251-.01-.39-.011l-3.152-.013L64.5,46.3c-.239,0-.453.015-.678.023.172.013.4.022.685.027l.84.017c.7.017,1.432.024,2.2.022l1.815-.007c.449,0,.852-.015,1.184-.031.255-.012.364-.025.247-.035" transform="translate(0 0)" fill="#f8e075"/></g></g><text transform="translate(700 697)" fill="#ad144f" font-size="20" font-family="Montserrat-Bold, Montserrat" font-weight="700"><tspan x="0" y="0">Início</tspan></text></g></svg>