<svg id="Grupo_79" data-name="Grupo 79" xmlns="http://www.w3.org/2000/svg" xmlns:xlink="http://www.w3.org/1999/xlink" width="25" height="36" viewBox="0 0 25 36">
  <defs>
    <clipPath id="clip-path">
      <rect id="Retângulo_50" data-name="Retângulo 50" width="25" height="36" fill="none"/>
    </clipPath>
  </defs>
  <g id="Grupo_79-2" data-name="Grupo 79" transform="translate(0 0)" clip-path="url(#clip-path)">
    <path id="Caminho_180" data-name="Caminho 180" d="M12.017.337C5.638.337.466,4.867.466,11.185c0,8.034,10.665,23.347,10.665,23.347h1.183S23.567,19.219,23.567,11.185C23.567,4.867,18.4.337,12.017.337" transform="translate(0.553 0.393)" fill="#312068"/>
    <path id="Caminho_181" data-name="Caminho 181" d="M12.515.011A1.13,1.13,0,0,0,12.278,0,12.272,12.272,0,0,0,10.41.152c-.228.024-.433.054-.643.091a7.444,7.444,0,0,0-.908.188c-.553.2-1.116.351-1.647.6l-.488.182c-.12.048-.238.115-.357.175l-.481.249c-.048.024-.123.058-.23.108a6.862,6.862,0,0,0-.783.5,2.058,2.058,0,0,0-.392.334,4.259,4.259,0,0,1-.376.351,7.25,7.25,0,0,0-.693.65,3.078,3.078,0,0,1-.282.249l-.085.058a2.99,2.99,0,0,0-.591.6c-.109.147-.241.271-.341.409-.07.1-.125.173-.155.214-.168.273-.365.531-.51.819a3.368,3.368,0,0,0-.162.362c-.059.152-.136.318-.175.453-.085.292-.116.39-.171.581-.044.162-.109.331-.173.5-.088.214-.136.418-.212.62a3.3,3.3,0,0,0-.21.9c-.018.212-.037.422-.072.65a4.378,4.378,0,0,0-.066.533.542.542,0,0,1-.02.117c-.011.041-.026.017-.039-.054L.1,10.322c0-.026-.011-.054-.018-.041a.334.334,0,0,0-.024.108c-.011.154-.024.292-.031.4a13.416,13.416,0,0,0,.125,2.717c.018.121.037.243.079.511.018.11.028.2.037.253a11.811,11.811,0,0,0,.252,1.163c.024.071.068.193.123.355s.1.284.123.357l.149.5c.276.914.617,1.8.952,2.676l.2.472c.083.2.164.39.249.591.247.641.558,1.244.842,1.863.092.195.186.381.284.55.114.217.131.249.175.331q.883,1.768,1.822,3.5c.258.477.558.951.768,1.434l.182.331c.232.405.459.8.691,1.211.024.048.059.11.114.217a6.015,6.015,0,0,0,.293.542q.945,1.579,1.949,3.122c.346.526.663,1.01,1.046,1.595.107.156.184.266.291.425l.02.028.33.461h.56l1.183,0,.545,0,.33-.444.107-.145c.05-.061.125-.154.232-.288s.182-.227.23-.286q.637-.874,1.227-1.779c.024-.039.068-.115.123-.208a4.8,4.8,0,0,1,.245-.42l1.035-1.6,1.35-2.151a4.7,4.7,0,0,0,.234-.433c.1-.191.136-.249.177-.327.411-.691.816-1.384,1.2-2.093a3.675,3.675,0,0,0,.173-.329c.092-.217.214-.435.337-.661l.711-1.352a5.911,5.911,0,0,0,.315-.669,3.549,3.549,0,0,1,.153-.34l.823-1.729c.037-.1.1-.251.177-.464.039-.1.07-.182.088-.23.385-.851.731-1.731,1.039-2.622l.046-.119a18.575,18.575,0,0,0,1.194-5.38A7.487,7.487,0,0,0,25,11.151a3.309,3.309,0,0,0-.028-.526c-.02-.208-.059-.416-.1-.643a12.153,12.153,0,0,0-.481-2.112,10.858,10.858,0,0,0-1.98-3.542,10.8,10.8,0,0,0-.82-.906,3.581,3.581,0,0,0-.394-.377c-.175-.143-.35-.279-.521-.392-.147-.1-.256-.18-.313-.217a14.98,14.98,0,0,0-1.369-.867c-.166-.093-.311-.171-.473-.262a1.821,1.821,0,0,0-.359-.143,5.51,5.51,0,0,1-.6-.223A3.275,3.275,0,0,0,17.183.8L16.811.7c-.26-.071-.383-.106-.5-.136a3.524,3.524,0,0,0-.385-.089L15.054.334C14.68.3,14.479.282,14.293.266L13.917.238l-.505,0L13.022.227a2.035,2.035,0,0,0-.335.026c-.057.011-.112.026-.114.041a1.806,1.806,0,0,0,0,.266c0,.037.037.071.116.108L13,.828a.546.546,0,0,1,.1.08.474.474,0,0,0,.164.08c.138.052.311.093.486.143.291.1.446.206.742.305a.947.947,0,0,1,.138.061l.094.061.085.065a1.429,1.429,0,0,0,.363.141c.228.061.47.1.687.171l.6.262c.072.03.214.093.3.13a1.213,1.213,0,0,1,.339.245c.042.043.053.078.1.123a1.231,1.231,0,0,0,.313.2c.14.058.267.147.4.214a4.43,4.43,0,0,1,.468.288c.033.024.072.05.085.061.3.2.324.223,1.008.7l.175.123c.133.106.243.193.357.282.066.061.164.147.322.29l.245.212c.173.149.3.334.457.477s.162.18.221.247a2.209,2.209,0,0,1,.21.266c.236.308.284.368.459.6a5.294,5.294,0,0,1,.341.568c.042.067.105.178.171.288a2.111,2.111,0,0,1,.142.3,6.366,6.366,0,0,1,.357.977c.059.221.12.44.184.672.009.039.026.119.048.214.044.2.077.349.1.438a4.114,4.114,0,0,1,.085.693c0,.043.011.1.026.223a4.693,4.693,0,0,1,.061.561c-.02.269-.039.533-.059.819,0,.076-.007.188-.011.34a1.954,1.954,0,0,1-.033.461c-.1.507-.195.971-.308,1.538-.015.067-.042.175-.079.338-.039.2-.072.362-.109.546-.022.11-.046.223-.081.342a9,9,0,0,1-.313.934c-.031.071-.085.2-.142.329s-.116.26-.144.327c-.164.42-.313.847-.508,1.261a4.979,4.979,0,0,0-.208.552c-.039.106-.066.178-.081.221a17.7,17.7,0,0,1-.794,1.686l-.118.208c-.1.162-.195.338-.289.526q-1.168,2.272-2.476,4.476l-.444.752c-.173.292-.319.57-.455.847a8.207,8.207,0,0,1-.442.832c-.02.037-.061.115-.114.208-.1.2-.206.412-.3.611-.053.091-.094.167-.116.206-.162.258-.313.5-.466.743-.026.046-.055.093-.12.208a5.905,5.905,0,0,1-.315.522l-1.337,1.974c-.074.1-.149.195-.223.282-.2.225-.4.513-.6.728l-.2.279.341-.171h-.028c-.3.032-.637.048-.914.089a1.84,1.84,0,0,0-.241.046l.232.121L11.9,34.75a3.186,3.186,0,0,1-.5-.44,2.788,2.788,0,0,1-.208-.23l-.645-.771a2.674,2.674,0,0,1-.26-.409,7.349,7.349,0,0,1-.376-.847l-.125-.338a2.689,2.689,0,0,0-.182-.388c-.044-.089-.123-.243-.153-.308-.094-.154-.133-.217-.195-.318-.138-.178-.271-.353-.413-.537-.092-.121-.184-.253-.273-.4-.042-.063-.085-.13-.136-.21a7.554,7.554,0,0,0-.532-.724l-.184-.2a3.476,3.476,0,0,1-.33-.438,1.118,1.118,0,0,0-.241-.292l-.2-.16a.867.867,0,0,1-.173-.195,1.856,1.856,0,0,0-.357-.4l-.05-.05L6.3,27.028a6,6,0,0,1-.516-.8c-.044-.08-.079-.147-.12-.221a5.965,5.965,0,0,1-.315-.661c-.059-.121-.081-.169-.1-.219a6.8,6.8,0,0,1-.462-.994L4.631,23.8c-.048-.1-.063-.139-.153-.336-.105-.286-.269-.6-.363-.88a2.139,2.139,0,0,0-.088-.225l-.319-.687c-.072-.154-.149-.295-.225-.433-.053-.1-.092-.171-.114-.212-.168-.34-.308-.693-.488-1.109-.116-.282-.263-.63-.409-.981a2,2,0,0,1-.12-.349c-.048-.188-.1-.381-.175-.583-.094-.273-.195-.559-.291-.836a1.991,1.991,0,0,1-.114-.446c-.02-.223-.07-.49-.116-.75-.028-.121-.042-.188-.053-.234A16.029,16.029,0,0,1,.94,11.886a4.157,4.157,0,0,1,0-.756,1.811,1.811,0,0,0,0-.245,3.216,3.216,0,0,1,.053-.971l.081-.5c.009-.058.022-.152.05-.351s.037-.416.055-.6A3.106,3.106,0,0,1,1.4,7.546c.026-.067.057-.158.088-.24.059-.173.081-.3.046-.308-.018,0-.05.017-.063.006s-.033-.052-.013-.139A2.833,2.833,0,0,1,1.782,6.1a.738.738,0,0,1,.127-.178c.083-.082.1-.084.085-.006l-.011.065c-.009.082.035.061.153-.065a1.1,1.1,0,0,0,.247-.377c.026-.074.057-.158.085-.247a2.448,2.448,0,0,1,.1-.253,2.863,2.863,0,0,1,.256-.392,7.583,7.583,0,0,1,.5-.617c.088-.1.236-.266.427-.479a1.791,1.791,0,0,1,.179-.184c.284-.214.479-.366.615-.47a3.492,3.492,0,0,1,.409-.284A1.9,1.9,0,0,0,5.269,2.4a5.527,5.527,0,0,1,.51-.381A12.613,12.613,0,0,1,8.555.767a3.87,3.87,0,0,1,.49-.123A3.48,3.48,0,0,0,9.664.5c.16-.045.3-.087.361-.106.26-.056.523-.082.785-.123.177-.026.343-.058.5-.1A3.578,3.578,0,0,1,11.7.136C11.889.126,12,.119,12.355.1a.813.813,0,0,0,.2-.037c.039-.017.011-.037-.037-.048m5.559,27.708c-.046,0,.02-.234.144-.455.074-.123.129-.217.241-.405.015-.026.083-.134.147-.236.077-.126.193-.249.223-.243a.142.142,0,0,1,.1.1.387.387,0,0,1-.039.2,2.758,2.758,0,0,1-.2.409c-.063.1-.105.173-.195.318a.938.938,0,0,1-.129.167,2.113,2.113,0,0,1-.193.134c-.046.03-.068.015-.1.015m0-.481a.31.31,0,0,1-.094.13c-.031.017-.026-.022,0-.078l.039-.071.048-.045c.033-.019.035,0,.011.065m-1.724,2.437c-.094.141-.188.275-.284.392-.16.219-.19.264-.284.392-.05.069-.112.141-.116.126a.475.475,0,0,1,.074-.175l.053-.1c.068-.134.14-.271.232-.416l.464-.743a4.812,4.812,0,0,0,.282-.526c.061-.11.092-.169.116-.208l.645-1.075.825-1.4.112-.217c.05-.1.12-.249.158-.323.171-.327.357-.659.5-.979.1-.193.12-.238.166-.329.118-.23.234-.453.341-.665.1-.188.177-.366.254-.544.1-.206.12-.247.162-.329a1.42,1.42,0,0,1,.179-.282,3.745,3.745,0,0,0,.457-.643c.024-.035.077-.108.118-.171s.079-.1.1-.1-.009.078-.042.158-.048.132-.081.217a.946.946,0,0,1-.1.212c-.1.165-.2.349-.293.535a3.389,3.389,0,0,0-.155.327c-.112.277-.225.55-.3.732-.053.115-.131.212-.153.193s-.018-.039-.015-.078c0-.071-.046-.03-.1.082s-.092.188-.164.331c-.05.108-.085.219-.144.323a10.017,10.017,0,0,0-.457.958,7.218,7.218,0,0,1-.372.752c-.1.178-.188.329-.2.347-.184.3-.247.412-.311.52-.131.217-.265.414-.4.6a5.192,5.192,0,0,0-.438.728l-.053.1c-.039.076-.09.167-.112.21l-.661,1.066m-.687,1.787a.473.473,0,0,1,.048-.093c.153-.249.3-.485.448-.719.138-.21.26-.4.409-.62a1.221,1.221,0,0,1,.12-.139.907.907,0,0,1-.072.171c-.035.063-.066.123-.107.2a5.061,5.061,0,0,1-.3.511l-.271.407a1.676,1.676,0,0,1-.206.247c-.048.05-.079.065-.07.032" transform="translate(0.001 0)" fill="#312068"/>
  </g>
</svg>
