<svg xmlns="http://www.w3.org/2000/svg" xmlns:xlink="http://www.w3.org/1999/xlink" width="25" height="36" viewBox="0 0 25 36">
  <defs>
    <clipPath id="clip-path">
      <rect id="Retângulo_53" data-name="Retângulo 53" width="25" height="36" fill="none"/>
    </clipPath>
  </defs>
  <g id="Grupo_82" data-name="Grupo 82" transform="translate(0 0)">
    <g id="Grupo_82-2" data-name="Grupo 82" transform="translate(0 0)" clip-path="url(#clip-path)">
      <path id="Caminho_190" data-name="Caminho 190" d="M11.992.338C5.626.338.467,4.862.467,11.172c0,8.021,10.642,23.315,10.642,23.315h1.182S23.518,19.193,23.518,11.172C23.518,4.862,18.358.338,11.992.338" transform="translate(0.581 0.414)" fill="#e65c7b"/>
      <path id="Caminho_191" data-name="Caminho 191" d="M12.517.013A.97.97,0,0,0,12.279,0a12.207,12.207,0,0,0-1.864.151c-.229.022-.435.053-.644.089a7.69,7.69,0,0,0-.908.189c-.552.2-1.115.351-1.649.6-.1.04-.253.1-.487.185a3.748,3.748,0,0,0-.357.173c-.162.084-.3.156-.48.251-.047.022-.123.056-.231.107a6.682,6.682,0,0,0-.783.5,1.933,1.933,0,0,0-.39.333,4.157,4.157,0,0,1-.377.353,7.056,7.056,0,0,0-.693.649,2.741,2.741,0,0,1-.283.249l-.085.06a2.9,2.9,0,0,0-.592.6L2.115,4.9c-.072.1-.128.173-.157.211-.168.273-.366.534-.509.82a3.523,3.523,0,0,0-.164.362c-.058.151-.135.32-.173.454-.085.293-.114.391-.168.585-.045.16-.108.331-.173.5-.045.133-.114.336-.213.62a3.325,3.325,0,0,0-.211.9c-.016.209-.036.422-.07.649a3.9,3.9,0,0,0-.067.534.7.7,0,0,1-.018.116c-.013.042-.029.02-.04-.053l-.047-.271c0-.027-.011-.053-.018-.042a.29.29,0,0,0-.025.109c-.011.156-.022.293-.031.4a13.6,13.6,0,0,0,.123,2.721c.02.118.038.24.081.511l.036.251a10.966,10.966,0,0,0,.253,1.165c.022.069.065.191.121.353l.123.358.148.5c.274.912.617,1.794.949,2.674l.2.471c.083.2.164.389.247.589.247.64.556,1.245.841,1.863.092.193.184.38.285.549.117.218.132.251.175.331.588,1.176,1.2,2.339,1.819,3.493.258.478.559.952.767,1.434l.182.331c.229.4.455.8.686,1.209.025.044.058.111.114.216a5.583,5.583,0,0,0,.292.542c.63,1.049,1.276,2.092,1.945,3.119.345.525.662,1,1.045,1.592.108.158.182.267.292.425l.018.029.339.471.574,0,1.18,0,.559,0,.339-.454.11-.145c.047-.062.121-.153.231-.289s.182-.229.229-.287c.426-.582.832-1.174,1.225-1.774.022-.04.067-.116.121-.209.074-.138.15-.276.247-.42l1.032-1.594,1.346-2.152a3.885,3.885,0,0,0,.233-.431c.105-.193.137-.251.177-.327.41-.689.814-1.385,1.2-2.09a3.575,3.575,0,0,0,.17-.331,7.307,7.307,0,0,1,.336-.658l.709-1.352a5.56,5.56,0,0,0,.314-.669c.04-.111.1-.229.153-.342l.819-1.727c.038-.1.1-.251.177-.462.038-.1.07-.182.087-.229.384-.851.729-1.73,1.039-2.619.016-.047.029-.08.045-.12a18.494,18.494,0,0,0,1.193-5.378c.031-.276.034-.531.04-.785a3,3,0,0,0-.029-.527c-.02-.209-.058-.414-.1-.642a12.273,12.273,0,0,0-.48-2.114,10.844,10.844,0,0,0-1.981-3.544,10.552,10.552,0,0,0-.821-.907,3.284,3.284,0,0,0-.393-.376c-.175-.142-.35-.28-.523-.394-.146-.1-.256-.18-.312-.218a15.354,15.354,0,0,0-1.368-.865c-.168-.093-.31-.173-.473-.262a1.828,1.828,0,0,0-.361-.145,5.134,5.134,0,0,1-.6-.22A2.971,2.971,0,0,0,17.183.8L16.81.7c-.26-.069-.386-.1-.5-.133a3.448,3.448,0,0,0-.386-.089C15.46.4,15.413.4,15.056.338,14.679.3,14.477.287,14.293.273L13.919.244c-.24,0-.4,0-.5,0s-.227,0-.393-.007a2.164,2.164,0,0,0-.332.029c-.056.011-.11.027-.112.042a1.591,1.591,0,0,0,0,.273c0,.038.036.073.114.111L13,.851a.459.459,0,0,1,.1.082.489.489,0,0,0,.162.08c.139.053.312.1.487.145.289.1.444.213.738.313a1.008,1.008,0,0,1,.137.062l.094.062.085.064a1.338,1.338,0,0,0,.361.142c.227.06.469.093.684.171l.592.262c.072.031.211.093.292.131a1.2,1.2,0,0,1,.339.247,1.53,1.53,0,0,0,.1.122,1.207,1.207,0,0,0,.312.2c.141.058.265.147.4.213a4.377,4.377,0,0,1,.467.287c.034.024.072.051.083.062.294.2.314.216,1,.694l.173.122c.132.107.242.191.354.28l.323.289c.105.091.191.165.242.211.173.147.3.331.455.471.074.073.148.165.222.249a2.171,2.171,0,0,1,.209.265c.15.171.305.4.46.591a6.046,6.046,0,0,1,.341.567c.04.067.1.176.168.287a2.164,2.164,0,0,1,.144.3,6.393,6.393,0,0,1,.354.974c.061.22.119.438.182.667.009.04.027.12.049.216.045.2.079.349.1.436a4.221,4.221,0,0,1,.085.691c0,.042.011.1.027.222a5.111,5.111,0,0,1,.063.558c-.02.269-.04.534-.061.818,0,.073,0,.187-.009.34a1.887,1.887,0,0,1-.034.458c-.1.5-.193.965-.307,1.534-.013.067-.038.176-.076.338-.038.2-.072.362-.108.547a3.081,3.081,0,0,1-.081.34,9.252,9.252,0,0,1-.31.932c-.031.069-.087.2-.144.329s-.117.26-.146.327c-.164.42-.312.847-.507,1.256a5.01,5.01,0,0,0-.206.554c-.038.107-.065.18-.081.222a17.141,17.141,0,0,1-.79,1.681c-.027.047-.063.109-.119.209-.1.162-.2.338-.289.527q-1.164,2.264-2.472,4.466l-.442.751c-.173.293-.316.571-.453.847a8.365,8.365,0,0,1-.437.831c-.02.036-.063.113-.114.209-.1.2-.2.411-.3.609l-.114.207-.464.74-.121.211a5.252,5.252,0,0,1-.314.52l-1.332,1.97a3.425,3.425,0,0,1-.222.28c-.2.227-.4.514-.6.727l-.2.278.348-.176h-.027c-.3.033-.635.049-.913.093a1.474,1.474,0,0,0-.24.047l.24.124-.022-.016a4.752,4.752,0,0,1-.711-.665c-.191-.231-.44-.525-.644-.769a2.362,2.362,0,0,1-.26-.409,6.939,6.939,0,0,1-.372-.847l-.121-.34a3.13,3.13,0,0,0-.179-.387c-.045-.089-.123-.245-.155-.309-.1-.156-.132-.216-.2-.318-.137-.178-.269-.351-.413-.536a4.676,4.676,0,0,1-.274-.394c-.04-.064-.083-.131-.135-.211a7.175,7.175,0,0,0-.534-.72l-.184-.2a3.339,3.339,0,0,1-.332-.438,1.108,1.108,0,0,0-.242-.291l-.2-.158a.825.825,0,0,1-.173-.193,1.851,1.851,0,0,0-.359-.4l-.054-.049c-.022-.027-.047-.053-.061-.071a5.623,5.623,0,0,1-.518-.8c-.043-.082-.079-.147-.119-.22a6.039,6.039,0,0,1-.316-.66c-.056-.125-.079-.171-.1-.218a6.536,6.536,0,0,1-.46-1l-.155-.338c-.047-.1-.061-.136-.153-.336-.1-.285-.267-.6-.359-.878a1.726,1.726,0,0,0-.09-.225l-.316-.685c-.072-.156-.148-.3-.227-.434-.052-.1-.092-.171-.114-.213-.168-.34-.307-.691-.485-1.107-.119-.28-.262-.631-.408-.98a1.956,1.956,0,0,1-.121-.349c-.047-.189-.1-.38-.173-.582-.094-.271-.2-.558-.289-.834a1.98,1.98,0,0,1-.114-.447c-.018-.225-.067-.491-.112-.749-.029-.122-.043-.191-.054-.233a16.049,16.049,0,0,1-.659-3.844,4.252,4.252,0,0,1-.007-.756,1.744,1.744,0,0,0,0-.242,3.3,3.3,0,0,1,.049-.974l.081-.5c.009-.058.022-.151.049-.349s.036-.418.052-.6a3,3,0,0,1,.227-.918c.025-.067.056-.158.087-.242.058-.173.079-.3.043-.307-.018,0-.049.018-.063,0s-.036-.051-.016-.138a2.856,2.856,0,0,1,.323-.763.786.786,0,0,1,.13-.18c.085-.08.1-.082.087,0l-.013.062c-.007.084.038.062.155-.062A1.018,1.018,0,0,0,2.4,5.549c.027-.073.056-.158.087-.247a1.585,1.585,0,0,1,.1-.253,2.7,2.7,0,0,1,.253-.4,7.837,7.837,0,0,1,.5-.616c.087-.1.236-.265.426-.478a1.56,1.56,0,0,1,.179-.185l.615-.469a2.848,2.848,0,0,1,.41-.285,1.839,1.839,0,0,0,.312-.216,5.644,5.644,0,0,1,.507-.382A12.7,12.7,0,0,1,8.562.774,3.321,3.321,0,0,1,9.049.651,3.614,3.614,0,0,0,9.67.5L10.031.4c.258-.058.52-.082.781-.124.179-.027.345-.058.5-.093A3.5,3.5,0,0,1,11.7.14L12.355.1a.906.906,0,0,0,.2-.038c.04-.018.011-.038-.036-.049m5.556,27.694c-.047,0,.018-.236.141-.456.074-.122.128-.213.24-.4l.146-.236c.076-.125.2-.247.227-.24a.151.151,0,0,1,.1.1.383.383,0,0,1-.04.2,2.445,2.445,0,0,1-.2.409c-.065.1-.105.171-.2.318a1.029,1.029,0,0,1-.128.167c-.072.058-.13.089-.2.133-.047.031-.072.013-.1.013m0-.482a.3.3,0,0,1-.094.129c-.029.018-.025-.022,0-.078s.027-.049.038-.071l.049-.047c.034-.018.036.007.011.067m-1.723,2.43c-.094.14-.191.276-.285.391-.162.22-.193.265-.285.391-.052.069-.11.138-.117.124s.031-.1.074-.176l.052-.1a4.371,4.371,0,0,1,.231-.416l.462-.745a5.255,5.255,0,0,0,.28-.522c.063-.113.092-.171.114-.211l.644-1.072.823-1.4c.025-.047.067-.131.112-.216.049-.1.119-.249.155-.322.173-.329.357-.656.5-.98l.166-.327c.119-.229.233-.454.341-.665.1-.189.177-.367.251-.545.1-.207.121-.247.162-.329a1.543,1.543,0,0,1,.179-.28,3.773,3.773,0,0,0,.46-.64c.025-.033.074-.109.117-.171s.081-.1.1-.1-.009.078-.038.158-.052.131-.081.216a1.1,1.1,0,0,1-.1.213c-.1.162-.2.347-.292.534a2.69,2.69,0,0,0-.155.327c-.112.278-.224.551-.3.731-.052.113-.13.213-.153.191s-.018-.04-.018-.078c0-.071-.047-.031-.1.082s-.092.187-.162.331c-.052.109-.085.218-.144.322a8.646,8.646,0,0,0-.455.958,7.7,7.7,0,0,1-.37.751c-.1.176-.188.327-.2.345-.182.3-.245.411-.312.52-.13.216-.262.414-.4.6a5.177,5.177,0,0,0-.437.727c-.016.033-.038.073-.049.1-.043.076-.092.167-.114.209l-.657,1.065m-.677,1.792a.448.448,0,0,1,.047-.093l.446-.72c.139-.207.26-.391.408-.618a1.431,1.431,0,0,1,.123-.138.984.984,0,0,1-.074.173c-.031.06-.063.122-.105.2a4.917,4.917,0,0,1-.3.511c-.087.129-.162.24-.269.407a1.744,1.744,0,0,1-.206.245c-.052.049-.079.067-.072.033" transform="translate(0 0)" fill="#e65c7b"/>
    </g>
  </g>
</svg>
