<svg xmlns="http://www.w3.org/2000/svg" xmlns:xlink="http://www.w3.org/1999/xlink" width="25" height="36" viewBox="0 0 25 36">
  <defs>
    <clipPath id="clip-path">
      <rect id="Retângulo_51" data-name="Retângulo 51" width="25" height="36" fill="none"/>
    </clipPath>
  </defs>
  <g id="Grupo_80" data-name="Grupo 80" transform="translate(0 0)">
    <g id="Grupo_80-2" data-name="Grupo 80" transform="translate(0 0)" clip-path="url(#clip-path)">
      <path id="Caminho_183" data-name="Caminho 183" d="M12.017.338C5.638.338.466,4.868.466,11.186c0,8.032,10.667,23.347,10.667,23.347h1.181S23.567,19.218,23.567,11.186C23.567,4.868,18.4.338,12.017.338" transform="translate(0.553 0.394)" fill="#f27c08"/>
      <path id="Caminho_184" data-name="Caminho 184" d="M12.515.012A1.125,1.125,0,0,0,12.277,0a12,12,0,0,0-1.866.152c-.228.024-.433.054-.643.089A7.893,7.893,0,0,0,8.86.433c-.553.195-1.116.349-1.649.6-.1.039-.254.1-.486.184a3.877,3.877,0,0,0-.359.173l-.479.251c-.048.022-.123.058-.23.108a6.836,6.836,0,0,0-.783.5,2.068,2.068,0,0,0-.392.334,4.25,4.25,0,0,1-.376.353,6.986,6.986,0,0,0-.7.648,2.348,2.348,0,0,1-.28.249l-.085.061a2.971,2.971,0,0,0-.591.6c-.112.149-.241.271-.341.412-.07.1-.125.173-.155.212-.171.273-.365.533-.51.819-.066.128-.118.249-.164.362-.059.152-.133.321-.173.453-.085.292-.116.392-.171.583-.044.16-.109.331-.173.5-.088.217-.136.42-.212.62a3.319,3.319,0,0,0-.212.9c-.015.212-.035.422-.07.648a4.413,4.413,0,0,0-.066.535.521.521,0,0,1-.02.115c-.013.043-.026.019-.039-.052L.1,10.321c0-.026-.009-.052-.018-.039a.344.344,0,0,0-.022.108c-.013.154-.024.29-.031.4a13.26,13.26,0,0,0,.125,2.717c.018.119.037.243.079.511.018.11.028.2.037.251a11.254,11.254,0,0,0,.252,1.166l.123.355c.057.165.1.282.123.355l.149.5c.276.912.617,1.794.949,2.676l.2.472.249.589c.245.641.556,1.246.842,1.865a5.909,5.909,0,0,0,.284.55c.114.217.131.249.175.331q.883,1.765,1.82,3.5c.26.477.56.951.77,1.432l.182.334.691,1.211.114.214a5.538,5.538,0,0,0,.293.544q.945,1.576,1.947,3.122c.348.526.665,1.01,1.048,1.595.107.156.184.266.291.425l.02.028.33.459.56,0,1.181,0h.547l.33-.442.107-.145.232-.29c.1-.126.182-.227.23-.286.424-.583.831-1.174,1.227-1.777.024-.041.068-.115.12-.208.074-.139.151-.275.247-.42l1.035-1.6,1.348-2.151a4.507,4.507,0,0,0,.236-.433c.1-.191.136-.249.177-.327.411-.691.816-1.384,1.2-2.093.061-.11.127-.223.173-.329a7.249,7.249,0,0,1,.337-.661l.711-1.352a5.911,5.911,0,0,0,.315-.669c.039-.11.1-.227.153-.342l.82-1.727c.039-.1.1-.253.179-.464.039-.1.068-.182.088-.23.385-.854.731-1.731,1.039-2.622l.046-.121a18.486,18.486,0,0,0,1.192-5.38,6.92,6.92,0,0,0,.039-.78,3.278,3.278,0,0,0-.026-.526c-.022-.21-.059-.416-.1-.643a12.108,12.108,0,0,0-.481-2.112,10.836,10.836,0,0,0-1.98-3.542,10.8,10.8,0,0,0-.82-.906,3.39,3.39,0,0,0-.394-.377,6.071,6.071,0,0,0-.521-.392l-.313-.219a15.464,15.464,0,0,0-1.369-.867c-.166-.091-.311-.169-.473-.26a1.833,1.833,0,0,0-.359-.145,5.77,5.77,0,0,1-.6-.221A3.275,3.275,0,0,0,17.184.8C17.109.779,17,.749,16.809.7l-.5-.134a3.3,3.3,0,0,0-.385-.089L15.055.335C14.681.3,14.48.283,14.294.268L13.917.24,13.412.233c-.118,0-.228,0-.392,0a1.813,1.813,0,0,0-.333.026c-.057.009-.112.024-.114.041a1.806,1.806,0,0,0,0,.266c0,.035.037.071.116.108L13,.829a.4.4,0,0,1,.094.08.57.57,0,0,0,.164.08c.14.05.313.093.488.141.291.1.446.208.742.308a.834.834,0,0,1,.138.061l.094.061.085.065a1.479,1.479,0,0,0,.363.141c.228.058.47.093.687.171l.6.262c.072.03.212.093.3.13a1.171,1.171,0,0,1,.339.245c.042.043.053.078.1.121a1.121,1.121,0,0,0,.313.2c.14.058.267.149.4.217a4.428,4.428,0,0,1,.468.286c.033.026.072.052.085.061l1.008.7.175.123c.131.1.243.193.354.279l.324.29.245.214c.173.147.3.334.457.474l.221.249a2.051,2.051,0,0,1,.21.266c.236.305.282.368.459.6a5.329,5.329,0,0,1,.341.57c.042.067.105.175.171.288a2.111,2.111,0,0,1,.142.3,6.415,6.415,0,0,1,.354.975c.061.223.123.44.184.672.011.041.028.121.05.214.044.2.077.351.1.44a4.087,4.087,0,0,1,.085.693l.024.221a4.766,4.766,0,0,1,.063.563c-.02.269-.039.533-.061.819,0,.076,0,.188-.009.34a1.848,1.848,0,0,1-.035.461c-.1.5-.193.971-.306,1.536-.015.067-.042.178-.079.338-.039.2-.072.364-.109.548a3.223,3.223,0,0,1-.083.342,8.783,8.783,0,0,1-.311.932l-.142.331c-.055.119-.116.258-.147.325-.162.422-.313.849-.508,1.261a4.975,4.975,0,0,0-.206.555l-.083.221a17.126,17.126,0,0,1-.792,1.683l-.118.21c-.1.162-.195.338-.289.526q-1.168,2.272-2.476,4.474l-.446.754c-.171.292-.317.57-.453.845a8.228,8.228,0,0,1-.442.834c-.022.037-.061.113-.114.208l-.3.609c-.053.093-.094.167-.116.208-.162.256-.315.5-.466.743L15.2,30.9a5.385,5.385,0,0,1-.313.522l-1.337,1.972a3.2,3.2,0,0,1-.223.282c-.2.227-.4.516-.6.73l-.2.277.339-.169h-.028c-.3.03-.634.046-.914.089a1.555,1.555,0,0,0-.238.045l.232.121-.022-.015a3.014,3.014,0,0,1-.5-.442,2.742,2.742,0,0,1-.208-.227c-.193-.23-.442-.526-.645-.771a2.447,2.447,0,0,1-.26-.412,7.17,7.17,0,0,1-.376-.845l-.125-.338a2.947,2.947,0,0,0-.182-.388c-.044-.089-.123-.245-.155-.308-.094-.154-.131-.217-.193-.318l-.413-.539a4.469,4.469,0,0,1-.273-.394l-.136-.21a7.948,7.948,0,0,0-.532-.724l-.184-.2a3.278,3.278,0,0,1-.33-.438,1.075,1.075,0,0,0-.243-.292l-.2-.162a.8.8,0,0,1-.173-.193,2,2,0,0,0-.357-.4L6.364,27.1c-.022-.026-.046-.056-.061-.071a6,6,0,0,1-.516-.8c-.044-.082-.081-.147-.12-.223a6.185,6.185,0,0,1-.317-.659l-.1-.219a6.824,6.824,0,0,1-.464-.994l-.155-.34c-.046-.1-.061-.136-.151-.334-.107-.286-.269-.6-.363-.88a1.778,1.778,0,0,0-.09-.225l-.317-.687c-.072-.154-.149-.295-.228-.433-.05-.1-.09-.171-.114-.214-.168-.34-.308-.691-.486-1.107-.118-.282-.263-.633-.409-.984a2,2,0,0,1-.12-.349C2.3,18.4,2.247,18.2,2.174,18c-.092-.273-.193-.559-.289-.836a2.206,2.206,0,0,1-.116-.446c-.018-.225-.068-.49-.114-.75-.028-.121-.044-.191-.053-.236a15.887,15.887,0,0,1-.663-3.846,4.388,4.388,0,0,1-.007-.758,1.794,1.794,0,0,0,0-.243,3.209,3.209,0,0,1,.053-.971l.081-.5c.009-.056.022-.149.05-.349s.037-.416.053-.6a3.034,3.034,0,0,1,.23-.916c.026-.067.057-.158.088-.243.059-.171.079-.3.046-.305s-.05.017-.063,0-.033-.05-.015-.139a3,3,0,0,1,.326-.76.824.824,0,0,1,.129-.18c.083-.08.1-.082.085,0l-.011.063c-.009.082.035.063.151-.063a1.086,1.086,0,0,0,.249-.379c.024-.074.055-.158.085-.245a1.912,1.912,0,0,1,.1-.253,2.8,2.8,0,0,1,.256-.394,7.551,7.551,0,0,1,.5-.615c.088-.1.236-.266.427-.479a1.791,1.791,0,0,1,.179-.184l.615-.47a2.9,2.9,0,0,1,.409-.284A2,2,0,0,0,5.27,2.4a5.907,5.907,0,0,1,.508-.383A12.77,12.77,0,0,1,8.556.769a3.779,3.779,0,0,1,.49-.123A3.679,3.679,0,0,0,9.665.5l.361-.106c.26-.058.523-.082.783-.126.177-.026.346-.056.5-.093A3.061,3.061,0,0,1,11.7.138C11.889.127,12,.119,12.355.1a.819.819,0,0,0,.2-.039c.039-.017.011-.037-.037-.045m5.559,27.708c-.046,0,.02-.234.144-.455.072-.123.127-.217.241-.405.015-.026.081-.134.147-.238.077-.123.193-.247.223-.24a.143.143,0,0,1,.1.1.383.383,0,0,1-.042.2,2.516,2.516,0,0,1-.2.407l-.195.318a.961.961,0,0,1-.129.167,1.754,1.754,0,0,1-.193.134c-.046.033-.068.017-.1.017m0-.481a.3.3,0,0,1-.1.13c-.028.017-.024-.022,0-.078a.7.7,0,0,1,.039-.071l.048-.045c.033-.019.035,0,.011.065m-1.724,2.437c-.094.141-.188.275-.284.392l-.284.39c-.05.071-.112.141-.116.126s.033-.1.074-.173l.053-.1a4.281,4.281,0,0,1,.232-.416l.464-.745a5.2,5.2,0,0,0,.282-.524c.061-.11.092-.169.114-.21l.648-1.072.825-1.406.112-.214c.048-.1.12-.249.155-.323.173-.329.357-.659.5-.981.1-.191.12-.236.166-.327.118-.23.234-.455.341-.665.1-.191.177-.368.252-.546.1-.2.123-.247.162-.329a1.685,1.685,0,0,1,.182-.282,3.693,3.693,0,0,0,.457-.643c.024-.032.074-.106.118-.169s.079-.1.1-.1-.009.078-.042.158c-.024.065-.048.132-.081.217a.9.9,0,0,1-.1.212c-.1.165-.195.349-.291.535a3.162,3.162,0,0,0-.155.327l-.3.732c-.05.115-.129.212-.153.193s-.015-.041-.013-.08c0-.069-.046-.028-.1.084s-.092.188-.164.329c-.05.11-.085.221-.144.325a9.545,9.545,0,0,0-.457.958,7.436,7.436,0,0,1-.372.752c-.1.178-.188.327-.2.347-.182.3-.245.412-.311.52-.131.217-.263.414-.4.6a5.169,5.169,0,0,0-.438.726c-.018.035-.037.076-.053.1-.039.076-.09.167-.112.21-.252.4-.429.691-.661,1.066m-.687,1.787a.4.4,0,0,1,.046-.093c.155-.249.3-.485.451-.721.138-.208.26-.394.409-.617a1.244,1.244,0,0,1,.12-.141.918.918,0,0,1-.072.173c-.035.063-.066.123-.107.2a4.857,4.857,0,0,1-.3.513c-.088.13-.162.24-.271.405a1.7,1.7,0,0,1-.206.247c-.05.05-.079.067-.07.035" transform="translate(0 0.001)" fill="#f27c08"/>
    </g>
  </g>
</svg>
