<svg id="Grupo_80" data-name="Grupo 80" xmlns="http://www.w3.org/2000/svg" xmlns:xlink="http://www.w3.org/1999/xlink" width="34.95" height="50.816" viewBox="0 0 34.95 50.816">
  <defs>
    <clipPath id="clip-path">
      <rect id="Retângulo_51" data-name="Retângulo 51" width="34.95" height="50.816" fill="#fff"/>
    </clipPath>
  </defs>
  <g id="Grupo_80-2" data-name="Grupo 80" transform="translate(0 0)" clip-path="url(#clip-path)">
    <path id="Caminho_183" data-name="Caminho 183" d="M16.613.338C7.7.338.466,6.733.466,15.651c0,11.337,14.912,32.956,14.912,32.956h1.651S32.761,26.987,32.761,15.651c0-8.918-7.23-15.313-16.147-15.313" transform="translate(0.959 0.696)" fill="#fff"/>
    <path id="Caminho_184" data-name="Caminho 184" d="M17.5.017A1.557,1.557,0,0,0,17.163,0a16.615,16.615,0,0,0-2.609.214c-.318.034-.606.076-.9.125a10.942,10.942,0,0,0-1.269.269c-.774.275-1.56.492-2.306.841-.144.055-.355.138-.679.26a5.4,5.4,0,0,0-.5.245c-.226.119-.419.223-.67.355-.067.031-.171.083-.321.153a9.545,9.545,0,0,0-1.095.7,2.9,2.9,0,0,0-.547.471,5.965,5.965,0,0,1-.526.5,9.8,9.8,0,0,0-.973.914,3.293,3.293,0,0,1-.391.352l-.119.086a4.174,4.174,0,0,0-.826.844c-.156.211-.336.382-.477.581-.1.135-.174.245-.217.3-.239.385-.511.752-.713,1.156-.092.18-.165.352-.229.511-.083.214-.187.453-.242.639-.119.413-.162.554-.239.823-.061.226-.153.468-.242.706-.122.306-.19.593-.3.875A4.723,4.723,0,0,0,.48,13.2c-.021.3-.049.6-.1.914a6.287,6.287,0,0,0-.092.755.742.742,0,0,1-.028.162c-.018.061-.037.028-.055-.073l-.064-.385c0-.037-.012-.073-.024-.055a.49.49,0,0,0-.031.153c-.018.217-.034.41-.043.566A18.9,18.9,0,0,0,.22,19.067c.024.168.052.343.11.722.024.156.04.287.052.355a16.018,16.018,0,0,0,.352,1.645l.171.5c.08.232.138.4.171.5l.208.706c.385,1.288.862,2.532,1.327,3.777l.281.667c.116.278.229.547.349.832.343.905.777,1.758,1.177,2.633a8.37,8.37,0,0,0,.4.777c.159.306.183.352.245.468Q6.3,35.143,7.606,37.588c.364.673.783,1.343,1.076,2.021l.254.471L9.9,41.79c.034.064.083.156.159.3a7.842,7.842,0,0,0,.41.768q1.321,2.225,2.722,4.407c.486.743.93,1.425,1.465,2.251.15.22.257.376.407.6l.028.04.462.648.783,0,1.651.006h.765l.462-.624.15-.2.324-.41c.141-.177.254-.321.321-.4.593-.823,1.162-1.658,1.716-2.508.034-.058.095-.162.168-.294.1-.2.211-.388.346-.593l1.447-2.254,1.884-3.037a6.381,6.381,0,0,0,.33-.612c.144-.269.19-.352.248-.462.575-.976,1.141-1.954,1.679-2.954.086-.156.177-.315.242-.465a10.271,10.271,0,0,1,.471-.933l.994-1.908a8.381,8.381,0,0,0,.44-.945c.055-.156.138-.321.214-.483l1.147-2.437c.055-.141.138-.358.251-.654.055-.147.095-.257.122-.324.538-1.2,1.021-2.444,1.453-3.7l.064-.171a26.309,26.309,0,0,0,1.667-7.594,9.862,9.862,0,0,0,.055-1.1A4.672,4.672,0,0,0,34.909,15c-.031-.3-.083-.587-.141-.908A17.232,17.232,0,0,0,34.1,11.11a15.337,15.337,0,0,0-2.768-5,15.189,15.189,0,0,0-1.147-1.278,4.76,4.76,0,0,0-.55-.532,8.5,8.5,0,0,0-.728-.554c-.2-.144-.361-.254-.437-.309a21.589,21.589,0,0,0-1.914-1.223c-.232-.128-.434-.239-.661-.367a2.548,2.548,0,0,0-.5-.2,8.017,8.017,0,0,1-.841-.312,4.551,4.551,0,0,0-.526-.2c-.1-.028-.263-.07-.523-.144-.361-.1-.535-.147-.7-.19a4.583,4.583,0,0,0-.538-.125c-.648-.1-.716-.116-1.217-.2-.523-.049-.8-.073-1.064-.095-.116-.009-.3-.021-.526-.04-.333,0-.554-.006-.706-.009s-.318,0-.547-.006a2.511,2.511,0,0,0-.465.037c-.08.012-.156.034-.159.058a2.574,2.574,0,0,0,0,.376c0,.049.052.1.162.153l.431.223a.558.558,0,0,1,.132.113.794.794,0,0,0,.229.113c.2.07.437.132.682.2.407.144.624.294,1.037.434a1.16,1.16,0,0,1,.193.086l.132.086.119.092a2.055,2.055,0,0,0,.508.2c.318.083.658.132.96.242L23,3.1c.1.043.3.132.413.183a1.638,1.638,0,0,1,.474.346c.058.061.073.11.141.171a1.566,1.566,0,0,0,.437.278c.2.083.373.211.563.306a6.179,6.179,0,0,1,.654.4c.046.037.1.073.119.086l1.41.988.245.174c.183.147.339.272.5.395l.453.41.343.3c.242.208.425.471.639.67l.309.352a2.892,2.892,0,0,1,.294.376c.33.431.395.52.642.841a7.538,7.538,0,0,1,.477.8c.058.095.147.248.239.407a2.993,2.993,0,0,1,.2.422,9.113,9.113,0,0,1,.5,1.376c.086.315.171.621.257.948.015.058.04.171.07.3.061.287.107.5.135.621a5.822,5.822,0,0,1,.119.979l.034.312a6.79,6.79,0,0,1,.089.8c-.028.379-.055.752-.086,1.156,0,.107-.006.266-.012.48a2.634,2.634,0,0,1-.049.651c-.141.713-.269,1.37-.428,2.168-.021.095-.058.251-.11.477-.055.278-.1.514-.153.774a4.586,4.586,0,0,1-.116.483,12.482,12.482,0,0,1-.434,1.315l-.2.468c-.076.168-.162.364-.2.459-.226.6-.437,1.2-.71,1.78a7.066,7.066,0,0,0-.287.783l-.116.312a24.28,24.28,0,0,1-1.107,2.376c-.037.067-.086.153-.165.3-.141.229-.272.477-.4.743Q26.527,34.28,24.7,37.389l-.624,1.064c-.239.413-.443.8-.633,1.193a11.654,11.654,0,0,1-.618,1.177c-.031.052-.086.159-.159.294l-.425.859c-.073.132-.132.235-.162.294-.226.361-.44.706-.651,1.049-.037.064-.076.132-.171.294a7.618,7.618,0,0,1-.437.737l-1.869,2.783a4.505,4.505,0,0,1-.312.4c-.278.321-.56.728-.841,1.031l-.281.391.474-.239h-.04c-.419.043-.887.064-1.278.125a2.155,2.155,0,0,0-.333.064l.324.171-.031-.021a4.226,4.226,0,0,1-.694-.624,3.857,3.857,0,0,1-.291-.321c-.269-.324-.618-.743-.9-1.089a3.459,3.459,0,0,1-.364-.581,10.171,10.171,0,0,1-.526-1.193l-.174-.477a4.178,4.178,0,0,0-.254-.547c-.061-.125-.171-.346-.217-.434-.132-.217-.183-.306-.269-.45-.193-.254-.379-.5-.578-.762a6.31,6.31,0,0,1-.382-.557l-.19-.3a11.214,11.214,0,0,0-.743-1.021l-.257-.281a4.624,4.624,0,0,1-.462-.618,1.513,1.513,0,0,0-.339-.413L9.71,39.16a1.122,1.122,0,0,1-.242-.272,2.812,2.812,0,0,0-.5-.566L8.9,38.254c-.031-.037-.064-.08-.086-.1a8.473,8.473,0,0,1-.722-1.128c-.061-.116-.113-.208-.168-.315a8.768,8.768,0,0,1-.443-.93l-.141-.309a9.676,9.676,0,0,1-.648-1.4l-.217-.48c-.064-.144-.086-.193-.211-.471-.15-.4-.376-.85-.508-1.242a2.524,2.524,0,0,0-.125-.318l-.443-.969c-.1-.217-.208-.416-.318-.612-.07-.135-.125-.242-.159-.3-.235-.48-.431-.976-.679-1.563-.165-.4-.367-.893-.572-1.388a2.84,2.84,0,0,1-.168-.492c-.067-.263-.147-.535-.248-.82-.128-.385-.269-.789-.4-1.18a3.139,3.139,0,0,1-.162-.63c-.024-.318-.095-.691-.159-1.058-.04-.171-.061-.269-.073-.333a22.622,22.622,0,0,1-.927-5.428,6.253,6.253,0,0,1-.009-1.07,2.556,2.556,0,0,0,0-.343A4.573,4.573,0,0,1,1.379,14l.113-.713c.012-.08.031-.211.07-.492.024-.275.052-.587.073-.844a4.316,4.316,0,0,1,.321-1.294c.037-.095.08-.223.122-.343.083-.242.11-.419.064-.431-.028-.009-.07.024-.089.006s-.046-.07-.021-.2a4.262,4.262,0,0,1,.456-1.073,1.162,1.162,0,0,1,.18-.254c.116-.113.141-.116.119-.006l-.015.089c-.012.116.049.089.211-.089a1.534,1.534,0,0,0,.349-.535c.034-.1.076-.223.119-.346a2.715,2.715,0,0,1,.138-.358,3.955,3.955,0,0,1,.358-.557,10.639,10.639,0,0,1,.7-.869c.122-.141.33-.376.6-.676a2.517,2.517,0,0,1,.251-.26c.395-.306.67-.517.859-.664a4.059,4.059,0,0,1,.572-.4,2.792,2.792,0,0,0,.437-.306,8.265,8.265,0,0,1,.71-.541A17.768,17.768,0,0,1,11.96,1.085,5.241,5.241,0,0,1,12.646.91,5.1,5.1,0,0,0,13.511.7c.22-.064.413-.122.5-.15C14.38.47,14.747.436,15.11.375c.248-.037.483-.08.7-.132a4.239,4.239,0,0,1,.538-.049c.269-.015.428-.028.921-.058a1.135,1.135,0,0,0,.275-.055C17.6.057,17.563.03,17.5.017m7.771,39.112c-.064,0,.028-.33.2-.642.1-.174.177-.306.336-.572.021-.037.113-.19.2-.336.107-.174.269-.349.312-.339a.2.2,0,0,1,.138.135.545.545,0,0,1-.058.281,3.567,3.567,0,0,1-.275.575l-.272.45a1.354,1.354,0,0,1-.18.235,2.452,2.452,0,0,1-.269.19c-.064.046-.095.024-.138.024m0-.679a.417.417,0,0,1-.135.183c-.04.024-.034-.031,0-.11a.991.991,0,0,1,.055-.1l.067-.064c.046-.028.049.006.015.092m-2.41,3.441c-.132.2-.263.388-.4.554l-.4.55c-.07.1-.156.2-.162.177s.046-.141.1-.245l.073-.144A6.059,6.059,0,0,1,22.4,42.2l.648-1.052a7.359,7.359,0,0,0,.395-.74c.086-.156.128-.239.159-.3l.905-1.514,1.153-1.985.156-.3c.067-.147.168-.352.217-.456.242-.465.5-.93.7-1.385.135-.269.168-.333.232-.462.165-.324.327-.642.477-.939.138-.269.248-.52.352-.771.141-.287.171-.349.226-.465a2.381,2.381,0,0,1,.254-.4,5.212,5.212,0,0,0,.639-.908c.034-.046.1-.15.165-.239s.11-.144.135-.138-.012.11-.058.223c-.034.092-.067.187-.113.306a1.281,1.281,0,0,1-.141.3c-.141.232-.272.492-.407.755a4.483,4.483,0,0,0-.217.462l-.419,1.034c-.07.162-.18.3-.214.272-.018-.018-.021-.058-.018-.113,0-.1-.064-.04-.144.119-.07.141-.128.266-.229.465-.07.156-.119.312-.2.459a13.531,13.531,0,0,0-.639,1.352,10.538,10.538,0,0,1-.52,1.061c-.144.251-.263.462-.278.489-.254.428-.343.581-.434.734-.183.306-.367.584-.563.853a7.311,7.311,0,0,0-.612,1.025c-.024.049-.052.107-.073.147-.055.107-.125.235-.156.3-.352.569-.6.976-.924,1.5m-.96,2.523a.564.564,0,0,1,.064-.132c.217-.352.425-.685.63-1.018.193-.294.364-.557.572-.872a1.751,1.751,0,0,1,.168-.2,1.3,1.3,0,0,1-.1.245c-.049.089-.092.174-.15.281a6.873,6.873,0,0,1-.419.725c-.122.183-.226.339-.379.572a2.393,2.393,0,0,1-.287.349c-.07.07-.11.095-.1.049" transform="translate(0 0.001)" fill="#fff"/>
  </g>
</svg>
