<svg id="Grupo_157" data-name="Grupo 157" xmlns="http://www.w3.org/2000/svg" xmlns:xlink="http://www.w3.org/1999/xlink" width="13.245" height="21.477" viewBox="0 0 13.245 21.477">
  <defs>
    <clipPath id="clip-path">
      <rect id="Retângulo_41" data-name="Retângulo 41" width="13.245" height="21.477" fill="none"/>
    </clipPath>
  </defs>
  <rect id="Retângulo_39" data-name="Retângulo 39" width="3.122" height="14.804" transform="translate(0.128 10.628) rotate(-45.001)" fill="#ad144f"/>
  <g id="Grupo_43" data-name="Grupo 43">
    <g id="Grupo_42" data-name="Grupo 42" clip-path="url(#clip-path)">
      <path id="Caminho_157" data-name="Caminho 157" d="M12.615,116.519c-.019-.016-.044-.039-.069-.063l-.506-.5c-.061-.06-.12-.115-.18-.171-.084-.078-.171-.161-.253-.244-.153-.154-.31-.307-.467-.461-.049-.048-.1-.093-.144-.136s-.073-.068-.109-.1l-.146-.141-.071-.066c-.085-.075-.167-.157-.251-.24-.048-.048-.092-.093-.128-.135s-.08-.087-.129-.135l-.252-.248c-.036-.035-.072-.069-.105-.1l-.031-.025a2.741,2.741,0,0,1-.237-.213c-.048-.048-.1-.093-.144-.136l-.072-.067-.251-.247c-.037-.036-.07-.071-.1-.1s-.085-.091-.115-.128-.1-.107-.145-.161-.087-.092-.135-.139-.119-.114-.179-.169c-.085-.078-.169-.16-.243-.241-.052-.056-.1-.113-.165-.173l-.144-.141a.428.428,0,0,0-.034-.03c-.014-.011-.011,0,0,.017l.057.075c.005.007.01.015.005.012a.334.334,0,0,1-.032-.028l-.107-.1-.715-.706c-.048-.048-.1-.093-.143-.136-.023-.021-.048-.044-.071-.066l-.322-.317c-.037-.036-.067-.07-.1-.1s-.063-.068-.1-.1l-.142-.142-.785-.778-.142-.142-.177-.177-.569-.567c-.06-.06-.117-.119-.167-.176-.031-.035-.067-.071-.1-.106l-1.1-1.1c-.153-.152-.306-.312-.462-.45l-.107-.105-.373-.367H2.51l-.021.021c-.023.024-.047.049-.067.071-.053.059-.11.118-.17.179l-1.043,1.045c-.18.18-.361.358-.539.54l-.144.144-.216.216v-.363l.181.178c.037.036.072.069.107.1s.07.064.107.1q.308.3.611.611c.023.023.046.048.066.071.041.047.084.093.133.142l.538.541.719.721c.049.049.094.1.135.143s.067.072.1.108l.681.686c.036.036.072.073.1.108.062.07.132.142.2.215l.431.433c.072.073.142.144.2.215.031.035.068.072.1.108l.537.542c.049.049.092.1.135.143.021.023.044.048.067.071l.788.794.036.036,1.513,1.509c.073.073.143.139.214.2a1.935,1.935,0,0,1,.14.14c.053.059.106.117.168.178l.576.576,1.079,1.081q.161.163.324.322l.144.144c.059.06.117.12.167.178.028.033.059.067.1.105l.012.012H10.46l.4-.4.138-.136c.034-.033.069-.066.1-.095.055-.046.113-.1.172-.156l.105-.1c.036-.034.07-.065.1-.1s.093-.083.141-.128l.107-.1c.079-.066.166-.15.247-.22s.142-.127.214-.195l.107-.1c.048-.042.095-.085.144-.131l.109-.1c.037-.034.072-.064.1-.087a.221.221,0,0,1,.042-.03.336.336,0,0,1,.063,0c.008,0,.006.01-.008.033s-.038.062-.054.09a.083.083,0,0,0-.01.029.243.243,0,0,1-.031.05c-.03.042-.072.1-.116.15-.073.092-.1.146-.181.244-.015.019-.025.034-.034.048s-.014.023-.02.035a.311.311,0,0,1-.018.033,1.082,1.082,0,0,1-.1.126c-.071.076-.149.154-.217.229l-.188.216-.094.108a.979.979,0,0,0-.111.144c-.013.021-.015.032-.031.056a1.052,1.052,0,0,1-.109.131l-.15.155c-.065.066-.124.128-.178.19-.01.012-.021.025-.033.037-.1.1-.191.2-.288.292l-.2.19-.184-.19c-.038-.04-.075-.08-.111-.12-.02-.023-.042-.047-.065-.07l-.141-.145c-.048-.049-.092-.1-.133-.142s-.064-.07-.1-.106c-.07-.072-.141-.145-.2-.214-.03-.035-.067-.072-.1-.108l-.1-.109c-.066-.078-.153-.166-.225-.246s-.129-.141-.2-.214l-.1-.107c-.033-.035-.063-.069-.1-.107l-.321-.326-.215-.216c-.023-.023-.045-.048-.066-.071-.042-.047-.085-.094-.133-.143l-.214-.217c-.025-.025-.046-.048-.066-.071-.05-.057-.106-.116-.167-.178l-.25-.253c-.035-.036-.07-.073-.1-.107s-.089-.1-.137-.143l-.465-.469c-.035-.036-.067-.071-.1-.106l-.154-.173c-.031-.035-.063-.07-.1-.107l-.288-.287c-.035-.035-.072-.069-.107-.1s-.07-.063-.107-.1l-.4-.395c-.062-.062-.115-.119-.166-.177-.02-.022-.043-.047-.066-.071q-.267-.273-.54-.538c-.024-.023-.049-.047-.071-.067-.059-.052-.117-.108-.179-.169l-1.477-1.474-.251-.252c-.1-.1-.185-.191-.268-.285s-.158-.181-.259-.282c-.023-.022-.046-.048-.066-.07l-.183-.206c-.02-.023-.043-.047-.066-.071l-.249-.253c-.024-.025-.047-.048-.068-.072-.052-.058-.109-.118-.17-.179l-.684-.684c-.037-.037-.072-.069-.106-.1-.091-.08-.192-.182-.283-.259l-.108-.108-.115-.128L0,108.267l.064-.058c.05-.046.1-.091.147-.13a.877.877,0,0,1,.085-.066,2.14,2.14,0,0,0,.212-.157c.03-.024.062-.05.1-.08l.3-.267a1.689,1.689,0,0,0,.138-.14c.092-.1.173-.2.239-.286l.088-.114c.03-.039.069-.083.113-.131s.06-.069.093-.1.071-.071.107-.107l.205-.181c.046-.041.093-.085.142-.133l.073-.071c.054-.052.148-.137.215-.194l.018-.016.013.016.047.056.066.085c.039.049.085.1.145.166a.674.674,0,0,1,.1.117c.014.025.037.058.052.084a.533.533,0,0,0,.062.081,1.2,1.2,0,0,1,.129.167l.015.023c.006.009.013.018.023.029.079.09.155.178.258.279l.071.072c.072.072.144.142.213.2.023.02.046.042.071.066.107.1.217.217.32.3l.108.1c.036.034.075.074.107.1.092.081.193.182.283.259.023.02.046.042.071.067l.215.215c.049.049.092.1.134.142.02.023.043.047.066.07l.342.344.3.3c.036.035.072.071.108.1.058.052.117.107.179.168l.253.249a1.87,1.87,0,0,0,.139.126c.072.057.153.131.234.2.024.021.047.042.072.067l1.117,1.112.214.216c.025.025.048.048.066.07.076.088.168.183.264.279l.144.143c.037.037.069.072.094.1l.142.173c.069.081.141.164.244.266l.07.071c.049.05.076.086.066.087s-.018-.007-.02,0,0,.012.016.037a1.883,1.883,0,0,0,.21.225c.025.024.046.042.066.057.036.028.042.031.029.009l-.011-.018c-.012-.023.005-.014.058.03a.793.793,0,0,1,.125.123c.023.028.039.05.055.072s.035.047.058.075.067.079.116.128l.212.214c.061.061.113.116.165.173.019.021.048.049.069.069.072.066.144.133.217.2.049.048.1.09.143.133s.072.069.1.1c.049.054.1.111.165.172l.827.819c.05.049.1.091.144.135s.12.115.172.172c.03.032.059.064.1.1l.213.214q.072.072.132.137c.03.033.065.068.1.1.06.059.121.119.176.177a.559.559,0,0,1,.046.053c.007.011-.006,0-.022-.01m-9.757-5.645c-.013,0,.043.078.115.151l.134.134.08.079a.365.365,0,0,0,.1.079c.011,0,.015-.015.013-.032a.235.235,0,0,0-.043-.066,1.766,1.766,0,0,0-.122-.136l-.107-.106a.677.677,0,0,0-.064-.055c-.03-.02-.052-.03-.077-.044a.038.038,0,0,0-.032-.005m.077.16a.2.2,0,0,0-.048-.043c-.011-.006,0,.008.012.026l.022.024.022.015c.012.006.009,0-.008-.022m-.884-.819c-.049-.048-.1-.094-.143-.134s-.1-.089-.143-.134c-.026-.024-.054-.048-.053-.043a.306.306,0,0,0,.048.059l.031.035c.04.046.082.092.131.141l.251.253c.061.062.115.12.164.177.02.023.042.046.066.071l.358.361.467.468.068.071.1.107c.1.108.212.217.308.324.03.033.069.072.1.108l.214.217c.061.062.115.12.167.178.032.036.068.072.1.108a.942.942,0,0,0,.1.091,2.536,2.536,0,0,1,.246.2c.023.021.043.037.064.053s.041.032.045.03-.017-.026-.04-.052l-.062-.07a.723.723,0,0,0-.067-.068c-.059-.052-.119-.11-.179-.171-.036-.036-.07-.071-.1-.107-.067-.078-.135-.156-.213-.239-.034-.037-.074-.069-.077-.062s0,.014.009.027-.008.011-.043-.026l-.1-.108c-.034-.036-.063-.072-.1-.106-.112-.112-.2-.215-.292-.316-.071-.081-.146-.162-.232-.248l-.114-.114-.174-.174c-.073-.072-.143-.138-.214-.2a3.057,3.057,0,0,1-.243-.244l-.031-.035-.066-.071q-.177-.182-.358-.36m-.47-.6a.31.31,0,0,0,.028.032l.239.244.213.21c.019.018.038.032.056.048a.531.531,0,0,0-.047-.058l-.061-.068c-.05-.057-.105-.115-.165-.173l-.141-.138c-.035-.034-.068-.062-.1-.085s-.033-.023-.026-.012" transform="translate(0 -97.645)" fill="#ad144f"/>
      <rect id="Retângulo_40" data-name="Retângulo 40" width="14.804" height="3.122" transform="translate(0.189 10.468) rotate(-45)" fill="#ad144f"/>
      <path id="Caminho_158" data-name="Caminho 158" d="M12.467.627c-.016.019-.038.044-.063.069l-.5.506c-.06.061-.115.12-.171.18-.078.084-.161.171-.244.253-.154.153-.307.31-.461.467-.048.049-.093.1-.136.144s-.068.073-.1.109l-.141.145-.066.071c-.075.085-.157.167-.24.251-.048.048-.093.092-.135.128s-.087.08-.135.129l-.248.251c-.035.036-.069.072-.1.105l-.025.031a2.705,2.705,0,0,1-.213.237c-.048.048-.092.1-.136.144-.021.023-.044.048-.067.072l-.247.251c-.037.037-.071.07-.1.1s-.091.085-.128.115-.107.1-.161.145-.092.087-.139.135-.114.119-.169.179c-.078.085-.16.169-.241.243-.056.052-.113.1-.173.165l-.141.144c-.011.011-.023.025-.03.034s0,.012.017,0l.075-.057c.007-.005.015-.01.012-.005a.333.333,0,0,1-.028.032l-.1.107-.706.715c-.048.048-.093.1-.136.143-.021.023-.044.048-.066.071l-.318.322c-.036.037-.07.067-.1.1s-.068.063-.1.1l-.142.142-.778.785-.142.142L5.06,8.2l-.567.569c-.06.06-.119.117-.176.167-.035.031-.071.067-.106.1l-1.1,1.1c-.152.153-.312.306-.45.462l-.105.107-.367.373v-.348l.021.021c.024.023.049.047.071.067.059.053.118.11.179.17L3.5,12.034c.18.18.359.361.54.539l.144.144.216.216H4.04l.178-.181c.036-.037.069-.072.1-.107s.064-.07.1-.107q.3-.308.611-.611c.023-.023.048-.046.071-.066.047-.041.093-.084.142-.133l.541-.538.721-.719c.049-.049.1-.094.143-.135s.072-.067.108-.1l.686-.681c.036-.036.072-.072.108-.1.07-.062.142-.132.215-.2L8.2,8.814c.073-.072.144-.142.215-.2.035-.031.072-.068.108-.1L9.06,7.97c.049-.049.1-.092.143-.135.023-.021.048-.044.071-.067l.794-.788.036-.036,1.509-1.513c.073-.073.139-.143.2-.214a1.937,1.937,0,0,1,.14-.14c.059-.053.117-.106.178-.168l.576-.576,1.081-1.079q.163-.161.322-.324l.144-.144c.06-.059.12-.117.178-.167.033-.028.068-.059.105-.1l.012-.012v.272l-.4-.4-.136-.138c-.033-.034-.066-.069-.095-.1-.046-.055-.1-.113-.156-.172l-.1-.105c-.034-.036-.066-.07-.1-.1s-.083-.093-.128-.141l-.1-.107c-.066-.079-.15-.166-.221-.247S13,1.12,12.93,1.047l-.1-.107C12.791.893,12.748.845,12.7.8L12.6.687c-.034-.037-.064-.072-.087-.1a.224.224,0,0,1-.03-.042.344.344,0,0,1,0-.064c0-.008.01-.006.033.008s.062.038.09.054a.082.082,0,0,0,.029.01.24.24,0,0,1,.05.031c.043.031.1.072.15.116.092.073.146.1.244.181a.579.579,0,0,0,.048.034c.014.009.023.014.035.02A.314.314,0,0,1,13.2.953a1.1,1.1,0,0,1,.126.1c.076.071.154.149.229.217l.216.188.108.094a.978.978,0,0,0,.144.111c.021.013.032.015.056.031a1.046,1.046,0,0,1,.131.109l.155.15c.066.065.128.124.19.178l.037.033c.1.1.2.191.292.288l.19.2-.19.183c-.04.038-.08.075-.12.111l-.07.065-.145.141c-.049.048-.1.092-.142.133s-.071.064-.106.1c-.072.07-.145.141-.214.2-.035.03-.072.067-.108.1l-.109.1c-.078.066-.166.153-.246.225s-.141.129-.214.2l-.107.1c-.035.033-.069.063-.107.1l-.326.321-.216.215c-.023.023-.048.045-.07.066-.047.042-.094.085-.143.133l-.217.214c-.025.025-.048.046-.071.066-.057.05-.116.106-.178.167l-.253.25c-.036.035-.072.07-.107.1s-.1.089-.143.137L11,6.555c-.036.035-.071.067-.106.1l-.173.154c-.035.031-.07.063-.107.1l-.287.288c-.035.035-.069.072-.1.107s-.064.07-.1.107l-.395.4c-.062.062-.119.115-.177.166-.022.02-.047.043-.071.066q-.273.267-.538.54c-.023.024-.047.049-.066.071-.052.059-.108.117-.169.179L7.234,10.3l-.253.251c-.1.1-.191.185-.285.268s-.181.158-.281.259c-.023.023-.048.046-.07.066l-.206.183c-.023.02-.047.043-.071.066l-.253.249c-.025.024-.048.047-.072.068-.058.052-.118.109-.179.17l-.684.684c-.037.037-.069.072-.1.106-.08.091-.182.193-.259.283l-.108.108-.128.115-.071.064-.058-.064c-.046-.05-.091-.1-.13-.147a.87.87,0,0,1-.066-.085,2.145,2.145,0,0,0-.157-.212c-.024-.03-.05-.062-.08-.1l-.267-.3a1.689,1.689,0,0,0-.14-.138c-.1-.092-.2-.173-.286-.239l-.114-.088c-.039-.03-.083-.069-.131-.113s-.069-.06-.1-.093-.071-.071-.107-.107L2.4,11.352c-.041-.046-.085-.094-.133-.142l-.071-.072c-.052-.054-.137-.148-.194-.215L1.982,10.9,2,10.891l.056-.047.085-.066c.049-.039.1-.085.166-.145a.673.673,0,0,1,.117-.1c.025-.014.058-.037.083-.052a.535.535,0,0,0,.081-.062,1.2,1.2,0,0,1,.167-.129l.023-.015.029-.023c.09-.079.178-.155.279-.258l.072-.071c.072-.072.142-.144.2-.213.02-.023.042-.046.066-.071.1-.107.217-.217.3-.32l.1-.108c.034-.036.074-.075.1-.107.081-.092.182-.193.259-.283.02-.023.042-.046.067-.071l.215-.215c.049-.049.1-.092.142-.134.023-.02.047-.043.07-.066l.344-.342.3-.3c.035-.036.071-.072.1-.108.052-.058.107-.117.168-.179l.249-.253a1.871,1.871,0,0,0,.126-.139c.057-.072.131-.153.2-.234.021-.024.042-.047.067-.071L7.36,5.592l.216-.214c.025-.025.048-.048.07-.066.088-.076.183-.168.279-.264L8.068,4.9c.037-.037.072-.069.1-.094l.173-.142c.081-.068.165-.141.266-.244l.071-.07c.05-.049.086-.076.087-.066s-.007.018,0,.02.012,0,.037-.016a1.893,1.893,0,0,0,.225-.21c.024-.025.042-.046.057-.066.028-.036.031-.042.009-.029L9.071,4c-.023.012-.014-.005.03-.058a.79.79,0,0,1,.123-.125c.028-.023.05-.039.072-.055s.047-.035.075-.058.079-.067.128-.116l.214-.212c.061-.061.116-.113.173-.165.021-.019.049-.048.069-.069.066-.072.133-.144.2-.217.048-.049.09-.1.133-.143a1.432,1.432,0,0,1,.1-.1c.054-.049.111-.1.172-.165l.819-.827c.049-.05.091-.1.135-.144s.115-.12.172-.172c.032-.03.064-.059.1-.1l.214-.213c.048-.048.094-.092.137-.132s.068-.065.1-.1c.059-.06.119-.121.177-.176a.549.549,0,0,1,.053-.046c.011-.007,0,.006-.01.022M6.822,10.384c0,.013.078-.043.152-.115l.134-.134.079-.08a.36.36,0,0,0,.079-.1c0-.011-.015-.015-.032-.013a.231.231,0,0,0-.066.044,1.733,1.733,0,0,0-.135.122l-.106.107a.661.661,0,0,0-.055.064c-.02.03-.03.052-.044.077a.039.039,0,0,0-.005.032m.16-.077a.2.2,0,0,0-.043.048c-.006.011.008,0,.026-.012l.024-.022C6.994,10.313,7,10.3,7,10.3s0-.009-.022.008m-.819.884c-.048.049-.094.1-.134.143s-.089.1-.134.143c-.024.026-.048.054-.043.053a.3.3,0,0,0,.059-.048l.035-.031c.045-.04.092-.082.141-.131l.253-.25c.062-.061.12-.115.177-.164.023-.02.046-.042.071-.066l.361-.358.469-.467.071-.068.107-.1c.108-.1.217-.213.324-.309.033-.03.072-.069.108-.1l.217-.214c.062-.061.12-.115.178-.167.036-.032.072-.068.108-.1a.955.955,0,0,0,.091-.1,2.55,2.55,0,0,1,.2-.246c.021-.023.037-.043.053-.064s.032-.041.03-.045-.026.017-.052.04l-.07.062a.736.736,0,0,0-.068.067c-.052.059-.11.119-.17.179-.036.036-.071.07-.107.1-.078.067-.156.135-.239.213-.037.034-.069.074-.062.077s.014,0,.027-.009.01.008-.026.043l-.108.1c-.036.034-.072.063-.106.1-.112.112-.215.2-.316.292-.081.071-.162.146-.248.232l-.114.114-.174.174c-.072.073-.138.143-.2.214a3.053,3.053,0,0,1-.244.243l-.035.031-.071.066q-.182.177-.36.358m-.6.47a.3.3,0,0,0,.032-.028l.244-.239.21-.213c.018-.019.032-.038.048-.056a.542.542,0,0,0-.058.047l-.068.061c-.057.05-.115.105-.173.165l-.138.141c-.034.035-.062.068-.085.1s-.023.033-.012.026" transform="translate(-1.825 -0.439)" fill="#ad144f"/>
    </g>
  </g>
</svg>
