<svg xmlns="http://www.w3.org/2000/svg" xmlns:xlink="http://www.w3.org/1999/xlink" width="10.778" height="17.477" viewBox="0 0 10.778 17.477">
  <defs>
    <rect id="rect-1" width="10.778" height="17.477" x="0" y="0"/>
    <mask id="mask-2" maskContentUnits="userSpaceOnUse" maskUnits="userSpaceOnUse">
      <rect width="10.778" height="17.477" x="0" y="0" fill="black"/>
      <use fill="white" xlink:href="#rect-1"/>
    </mask>
    <path id="path-4" fill-rule="evenodd" d="M0 0v17.47699928h10.77799988V0H0z"/>
    <mask id="mask-5" maskContentUnits="userSpaceOnUse" maskUnits="userSpaceOnUse">
      <rect width="10.778" height="17.477" x="0" y="0" fill="black"/>
      <use fill="white" xlink:href="#path-4"/>
    </mask>
  </defs>
  <g transform="matrix(-1 0 0 1 10.778 0)">
    <use fill="none" xlink:href="#rect-1"/>
    <g mask="url(#mask-2)">
      <rect width="2.541" height="12.047" x="3.991" y="5.986" fill="rgb(183,209,103)" rx="0" ry="0" transform="rotate(-45.001016 5.26169551 12.00978851)"/>
      <g>
        <use fill="none" xlink:href="#path-4"/>
        <g mask="url(#mask-5)">
          <path fill="rgb(183,209,103)" fill-rule="evenodd" d="M10.21000004 15.30699968c.0199995.02000046.03999996.03800011.05599975.0510006l-.00599956-.0019989c.00899982.0039997.01500034.00824928.0180006.01037407l.00222778.00135994-.00222873-.0037346c-.01142979-.01509094-.02377987-.02944946-.0369997-.04299926-.04300023-.04400063-.09500027-.09600067-.1430006-.144001-.02899934-.02799989-.05699921-.05699921-.08199979-.08399964-.03199958-.03466988-.06766986-.07167053-.1069994-.11100006l-.17400073-.17400027c-.02999974-.03100013-.0539999-.0570011-.07800007-.08300018-.03999996-.04599953-.10099983-.10400009-.1399994-.14000034-.0390005-.03600025-.07700061-.0699997-.11700057-.10999966l-.67299938-.66699982c-.0500002-.05000019-.09399987-.09600067-.13399983-.14000034-.02400017-.02699947-.04500007-.04799938-.08300018-.08300018-.0380001-.03499985-.07600021-.0689993-.11600018-.1079998-.06000042-.05799961-.11800003-.11200047-.17700004-.16599942-.0170002-.01600074-.03999996-.0390005-.05599976-.0560007-.04199982-.04500008-.08400059-.09100056-.13399982-.14000035l-.17300034-.17399979c-.03999996-.0359993-.07700014-.07699966-.09500027-.10000038-.01799964-.0229988-.03399992-.04299926-.04699993-.06099891-.013-.0180006-.02699995-.0360012-.04500007-.05900002-.02956963-.03690052-.06309986-.07043075-.0999999-.10000038-.04699994-.03600025-.0569997-.04300022-.04699994-.02499962l.00899983.0149994c.01100015.01799964-.0079999.0050001-.02299977-.00699998-.01499986-.01200008-.03200006-.02700043-.05299997-.04599953-.06189013-.05624008-.11908007-.11744022-.171-.18300056-.01300002-.02000046-.01499987-.02400017-.01300002-.02999973.00113345-.00339985.00355101-.00262547.00707102-.00149727.0026946.00086307.00603008.00193119.0099287.00149727.0090003-.0010004-.013-.02999974-.05299997-.0710001l-.05699968-.05800057c-.08500004-.08199882-.14400006-.14999962-.20000029-.2159996l-.1159997-.1409998c-.01900005-.02299976-.046-.05200004-.07600021-.08199977l-.1170001-.11600018c-.079-.07800007-.1539998-.15600014-.21499968-.22700023-.01500034-.01799965-.03399992-.0369997-.05400038-.05699921l-.17499971-.1760006-.90899992-.90499973c-.01999998-.01900005-.03900003-.03700066-.05800009-.0539999-.06500006-.05900002-.13199997-.11900044-.19000006-.16500092-.03929996-.03144931-.07701015-.06481933-.11299991-.09999942l-.20599985-.19999981c-.04500008-.04899979-.09700012-.09399987-.14499998-.13600064-.02900029-.02600002-.05900002-.05499935-.0880003-.08399963l-.24599981-.24499989L3.99 9.0319996l-.0539999-.0569992c-.03400016-.03800012-.069-.07500077-.1090002-.11499978l-.17499996-.17500019c-.01999998-.02000046-.03900003-.0380001-.05799985-.0539999-.0730002-.06300068-.1550002-.14500046-.23000002-.21100044-.02600002-.02299977-.05800009-.0550003-.08700013-.08300019l-.08800006-.08399963c-.0849998-.0699997-.17399979-.1619997-.26099992-.24699974-.01999998-.02000046-.03900003-.0380001-.05800008-.05400038-.056-.04799986-.11399985-.10500002-.17299986-.16400003L2.63899993 7.73c-.08399986-.08199977-.1459999-.1539998-.21000003-.22699975l-.01899981-.02400017-.01300002-.01900005c-.02934002-.04814005-.06280016-.09363985-.10000014-.13599968-.01907992-.0203104-.03616-.04241038-.05099988-.06599999C2.23399997 7.237 2.21499991 7.21000004 2.204 7.19000006c-.0220399-.0362401-.04821992-.0697999-.07800007-.0999999-.03461004-.03602982-.06323982-.06856013-.08834005-.09866l.00334-.00334024h-.00612997c-.0093999-.01131964-.01830983-.02230978-.02687001-.033L1.954 6.88600016l-.038-.046-.01100003-.01300002L1.89 6.84000015c-.05400002.046-.13100005.11600018-.17499996.158l-.05900001.05700016c-.03999996.03900003-.07800007.0749998-.11600006.1079998l-.16699993.14699983L1.286 7.39700031c-.028.02799988-.03999996.04500008-.07599997.08399964-.03600002.03900003-.06800008.07600021-.092.10700035l-.07099999.09299993C.99400002 7.75.927 7.829.853 7.91300011.81757999 7.95316029.77985 7.99123.74 8.02700043l-.248.217c-.02800002.02499962-.053.04500008-.078.06499959C.35903 8.35519028.30125 8.39793968.241 8.43700027c-.02409.0165701-.04713.03460026-.069.0539999-.038.03100014-.079.06799985-.12.1050005L0 8.64299965l.06.05300045.094.10000038.087.08799934C.314 8.9470005.397 9.0300007.47099999 9.09500027c.02800002.02400016.057.05099964.08700004.08100033l.55599993.55599975c.04900003.04599953.09600008.09799957.13800001.1459999.01700008.01900006.03499997.03800012.05500007.05799962l.19999993.20600033c.018.02000046.03700006.03999996.05299997.0579996L1.709 10.36800004c.01600003.01799965.03499997.03899956.05299997.05700016.08300007.08199978.14300001.15299988.21100009.2290001.06799984.0760002.13899994.15199947.21799993.23199939l.20000005.20499992 1.20000005 1.20000077c.04499984.04999923.09699988.09499931.14499998.13800048l.05799985.05399895c.148.144001.29432988.29000092.4389999.43799973l.05400037.05800056c.04199982.04400063.08399963.09399986.13499975.14400005l.32299996.3210001c.0300002.02999974.05900001.0550003.08699989.08199978.02800035.02699948.05800009.0550003.08700037.08300019l.23399973.2340002c.0300002.02999973.05600023.05900002.08100033.0869999l.12599992.14099979c.0250001.02799988.05099964.05700016.07999993.08599949l.3789997.38199997c.04000045.04000091.08600045.0890007.11200047.11700058.02599955.02799988.05499983.05800056.0829997.0869999l.2000003.20599984c.0499997.05000115.09599971.09800148.13599967.14500046.01600028.019001.03399992.0380001.0539999.05800056l.17400027.17700005c.03900003.039999.07399988.07799911.1079998.11599922.01600027.01799965.03399992.0380001.05299997.05700112l.1750002.17599868.26100015.2650013c.02999973.02999878.0539999.05799866.08099985.0869999l.08199978.08699989c.05800009.05900001.10500002.10899925.1630001.17399978.0580001.06500054.1290002.13699913.1830001.19999886l.08500003.08800125c.02799988.02999878.05900002.05999947.08300019.08799934.04899978.05700112.10699987.11600113.16399955.17500115.02799988.02899933.04600048.04799843.07999993.08599853.0340004.03800011.06900024.07600022.10800075.11600113l.11499977.11800003c.01900006.0189991.02299977.02199936.0529995.05699921.03000069.03499985.06000042.0680008.09100056.10000038l.14900017.15500069.1609993-.15500069c.07999992-.07600021.15700054-.15699959.2350006-.23800087l.02699948-.02999878c.04500007-.05400085.092-.10099983.14500046-.15400123l.12199974-.12599945c.03252983-.03318978.06229019-.06896973.08899974-.10700036.0130005-.0189991.01399994-.02799987.02500058-.04500007.02627945-.04203987.05640983-.08153916.0899992-.11800003l.07700061-.08799935.15299988-.17499923c.0550003-.06100083.11800003-.12400055.17599964-.18600083.03077984-.03116989.05920029-.06459999.08500004-.10000038.0055399-.00868988.0105505-.0177002.01500034-.02700043.00500012-.00899887.00899983-.01699829.0159998-.02799987.00699997-.01099968.0159998-.02299881.02799988-.03899956.06300067-.08099938.0880003-.125.1470003-.19999886.03600026-.04400062.0699997-.08699989.09500028-.12200165.01029968-.01255989.01902961-.02632904.02600002-.04099845.00113964-.00843048.00385952-.01657105.00799942-.02400017.01300049-.02300072.03200054-.05400086.04400062-.07299996.01199913-.019001.01399994-.02700042.00699997-.02700042-.01729011-.00164986-.03470993-.00164986-.05200004 0-.01222038.00667-.02363014.014719-.0340004.02400016-.02400017.0189991-.05200004.04299927-.08199978.07099915l-.08899975.08300018c-.03999996.03700066-.07800006.0720005-.11700058.1060009l-.08699989.07899857c-.05900001.05800056-.1090002.10100174-.17399979.15800095-.06500053.0569992-.13500022.125-.1999998.17900085l-.0869999.08099937c-.0390005.0319996-.08700084.07600022-.11500072.10000039-.02799988.02400016-.05599976.04899978-.08500004.07699966l-.08599949.08199882c-.04800033.04600144-.09500027.09000016-.14000034.12700081-.02799988.02300072-.05599976.04999924-.08399964.07699967l-.11200046.11100006-.20870972.20680046c-.03421974-.03947067-.07769012-.08234978-.11828995-.12380028l-.11699962-.11700058c-.08867073-.08599853-.17667008-.1733284-.2640009-.26199913l-.87799978-.8789997-.46799993-.46899987c-.04999972-.05000115-.09399987-.09700012-.13700009-.14500046-.03602981-.0399208-.07407999-.0779705-.11399984-.1140008-.05699968-.05200004-.11399984-.10499954-.17399979-.16499996l-1.23200035-1.22799968-.0289998-.02900029-.6409998-.6459999-.0550003-.05799962c-.03499985-.0380001-.0699997-.07600021-.10999966-.11600017l-.43700027-.44099999c-.02900005-.02999973-.05900002-.06000042-.08399988-.0880003-.05000019-.05800056-.1070001-.11599922-.16600012-.17499923l-.35099984-.3520012c-.05800008-.059-.11600017-.11800002-.16600012-.17499923-.0250001-.02900028-.05500007-.05900001-.08399988-.0880003l-.55400013-.5579996c-.02900005-.0300007-.04999996-.0500002-.08399988-.0880003-.03400016-.03800011-.07000017-.07600022-.11000013-.11600018l-.58499992-.58600044-.43800008-.43999958c-.03999996-.03999996-.074-.07800007-.10799992-.11600018l-.0530001-.0579996c-.16599994-.16866971-.33266997-.33533002-.49999994-.5-.03000003-.0290003-.05800002-.05500031-.087-.08100034-.02783001-.02495002-.05473-.0508194-.08337-.0784893l.02436998-.02451038.11700004-.11699963c.144-.14800072.29099995-.29400063.43799996-.44000053l.84899998-.8499999c.02526999-.0237198.04974997-.04903985.07342005-.0745802l.15358007.15358019.0869999.08599996c.12700008.11299992.25099992.24399996.37599992.3670001L3.421 8.6409998c.02799987.02800084.05699992.05700016.08299994.08600045.04100013.04300022.08700013.09399986.13600015.14299965l.46300006.46200084.14400006.1439991.11499977.11499977L5 10.22399998l.1329999.11699962c.02900028.03000069.0550003.05800057.07999992.085001.0250001.02699947.0500002.05499935.0800004.08399963l.2619996.25799942c.01900006.019001.03900004.03700066.0580001.05400085.03900003.03499985.07800006.07199955.1170001.11100006l.58199978.57499981.08700037.08399964c.00816965.00821018.01686.01589012.02600002.02299976.00474405.00118637.00386143-.0004406.002357-.00321388-.00103235-.00190258-.002357-.00434494-.002357-.00678635l-.046-.06099891c-.0090003-.0130005-.01100016-.02200032 0-.0130005l.02799987.02400018.1170001.11499977c.0489998.04899978.09200002.09500026.13399983.14100074.0619998.0689993.13000012.13699913.19999981.19999886.046.04400063.10700035.09900093.14600039.13700104.03900003.0380001.0699997.06899929.10999965.11299896.03999997.04400063.09400034.1050005.11800003.13100052.02400017.02600002.07000018.0739994.09299994.10000038.02300024.02599907.05000019.05399895.0800004.08399963l.1999998.19999981.0580001.0539999c.03900003.03600026.07800007.0720005.1170001.11100006.06092978.06134987.12537003.11911965.19299984.17300034l.0250001.0209999c.02600002.02199937.05599975.0489998.08500003.07800008L8.283 13.4130001c.03499985.03899956.07499981.07699967.10000038.11000062.02499962.03299904.06099987.0699997.09999943.10899925.06400013.0720005.13100052.13899994.19999981.20000076l.05800057.0529995.11800003.11400032c.02999973.02799988.05099964.04899979.08899974.08399963.03800011.03499985.07699967.0710001.11699963.11000061.12800026.125.25500011.25.38000011.375.0670004.0689993.13700009.13699913.20600033.19999886.04699993.04500008.09700012.09000063.14700032.13900041l.4119997.39999962zM1.301 9.7670002c-.00825-.00813008-.01593995-.01681996-.023-.02600002l.00100004.00199985c-.00600004-.00899982-.00200009-.00799942.02099991.01000023s.05000007.04199982.079.06900024l.11400008.11199952c.04799998.04800033.09299994.09500026.13399994.14099979l.05000008.0550003c.01374995.01476002.02644991.03046036.03799998.04699994-.01499998-.01299954-.03100001-.02400017-.046-.03899956L1.49600005 9.967 1.301 9.7670002zm.36199999.46299934c-.04000008-.03899956-.079-.07600021-.11600006-.1090002-.03699994-.033-.07700002-.07199955-.11599994-.10900021-.02100002-.0199995-.04400003-.03899956-.04299998-.03499985.01094997.01756.02405.03369046.03899992.04800034l.02499997.02799988c.03200007.0369997.06700003.0749998.10600007.11499977l.19999993.20600033c.05000007.05000019.09300005.10000038.13400006.14400005.01600003.01900005.03399992.0380001.05400002.05799961l.291.29400063.38000012.38099956.05499983.05800057.0810001.08699989c.0849998.08799934.17300009.17700004.25099992.26399994.02399993.02699947.056.0579996.08500004.08799934L3.263 11.92499924c.04999995.05000019.09299994.10000038.13600016.14500045.02600002.02899933.05499983.05799962.08499956.08799935.02552032.02661037.05292034.0513401.08200025.07400036.07005978.05076027.1368599.1058607.19999981.16499996.01800013.0170002.03500033.03000069.05200005.04400062.0170002.01399994.03399992.02599907.03700018.02400017.00299978-.0020008-.01399994-.02100086-.033-.04200077l-.05100011-.05700016c-.0167799-.01948929-.03482008-.03786945-.0539999-.05499935-.04799986-.04200077-.0999999-.09000015-.14599991-.1390009-.02900028-.02899932-.05700016-.0579996-.08200026-.08699989-.05499982-.06299972-.1099999-.12699985-.17299986-.19499969-.02799987-.02999973-.05999994-.05599976-.06200003-.0500002-.0020001.00600053 0 .01100064.00800013.02200032.0079999.01099968-.00600004.00899983-.03500008-.0209999l-.08500004-.0880003c-.02699995-.02899933-.05200005-.05799962-.079-.0859995-.09099984-.092-.16499996-.17500018-.23699998-.25800037-.05799985-.06599998-.11899996-.13199997-.1889999-.1999998l-.092-.09300042-.14100027-.1409998c-.05899978-.059-.1159997-.1119995-.1739998-.16399955-.0704-.06282043-.13718008-.12960052-.20000004-.1999998l-.0250001-.02800084-.05299997-.05799961c-.09599995-.09867-.19332993-.19633007-.29199993-.29300022l.00300002-.00199986zm.65560186.53649616c-.00055838-.00227165-.00013209-.00349617.00139808-.00349617l-.00139808.00349617zm.00031805.00109387l-.00091982.00041008.00060177-.00150395.00031805.00109482zm0 9.5e-7c.00802993-.0033903.0171399-.00326061.02507996.00041008.02100015.01099968.03900004.0199995.06299997.0359993.01826.01390076.03561997.02893066.05200004.04500008L2.546 10.93500042c.0352099.03491974.06857992.07162952.0999999.10999966.01453997.01558971.02637006.03349971.0350001.05300045.00199985.01399994-.00100017.02600002-.01.02600002-.03164005-.01650047-.06009006-.03851032-.0840001-.06500053l-.06500006-.06400013-.10899997-.10899926c-.04869986-.0503807-.0889299-.10286045-.09407997-.1184101zm.0230801.0954094c.01480985.00946998.02798987.02128982.03900004.03499984l.00099993-.00099945c.01300001.01799965.01600003.02299977.00600004.01799965l-.01800012-.01200008-.0179999-.01900006c-.00318789-.00478172-.00627445-.00864982-.00870823-.01169967-.00520086-.00651646-.00742269-.00930023-.00129175-.00930023z"/>
          <rect width="12.047" height="2.541" x="-.713" y="3.887" fill="rgb(183,209,103)" rx="0" ry="0" transform="rotate(-45.000016 5.31063686 5.15712147)"/>
          <path fill="rgb(183,209,103)" fill-rule="evenodd" d="M8.60900009.21c.0199995-.02.0380001-.04.05099964-.056V.149c.00400066-.00899991.00825023-.01499988.01037502-.01799992l.0013609-.00222855L8.6680001.131c-.01510048.01141-.02945995.02377-.04300022.037C8.58100021.211 8.52900016.263 8.48099983.31100002 8.45299995.34 8.43200004.361 8.39700019.393c-.03499984.03200001-.07299995.068-.11200046.107l-.17399979.17400005c-.03100014.02999997-.05700016.05399996-.08300018.07800001-.04599953.03999996-.10399962.10099995-.13999987.13999999-.03599977.03899997-.0699997.07699996-.11000013.11699992l-.66699982.67299998c-.04999971.05000007-.09599972.09399998-.13999986.13400006-.02903986.02625-.0567503.05395997-.08300019.08299995-.03499985.03799998-.06899977.07599997-.1079998.11600017-.05800009.05999983-.11299992.11799968-.16599989.1769997-.01600027.01699995-.03900003.03999995-.05600023.05599999-.04500008.04200005-.09100008.0840001-.13999987.13400006l-.17400026.1730001c-.03599978.03999996-.07699967.0769999-.0999999.09499979-.02299977.01800012-.04299975.03400015-.06099988.04700017-.01800012.013-.03600025.02699995-.05900001.04499983-.03691006.0295601-.07043982.06309009-.0999999.10000015-.03600026.04699993-.04300023.05699992-.0250001.04699993l.01499987-.00900007c.01800012-.01099991.00500011.00800014-.00699997.023-.01200009.01500011-.02699995.03200007-.046.05299998-.05626012.0618701-.11745978.11906004-.1830001.171-.01999998.01300002-.02399969.0150001-.02999973.01300002-.00339985-.0011332-.00262546-.00355101-.00149774-.0070715.00086355-.00269675.00193119-.00603104.00149774-.00992846-.00099993-.00900007-.0300002.013-.0710001.05299997l-.05800009.05700016c-.08199977.0849998-.1500001.14399981-.21600008.1999998l-.14099979.11600018c-.02300024.01899982-.05200005.046-.08200026.07599998l-.1159997.11699986c-.07800006.07800007-.15600013.15400005-.22700023.21500016-.01799965.01499986-.0369997.03399992-.05699968.05400014l-.17600012.17499995-.90500021.90899992c-.01999998.01999998-.03700018.03900003-.0539999.05800009C3.48599994 5.21800008 3.426 5.28499999 3.38 5.34300008c-.03145028.03929997-.0648203.07701016-.0999999.11299992l-.2000003.20600033c-.04899978.0449996-.09399986.09699964-.13600015.14499998-.02599955.0289998-.05499983.05900001-.08399964.08799982l-.24500036.24599981-.27999973.27800036-.05700016.0539999c-.0369997.03399992-.07499981.06899976-.11499977.10899973l-.17499995.17500019c-.01999999.01999998-.038.03900003-.05400002.05800008-.06299997.07299996-.14499999.15499974-.21099997.23000002-.023.02600003-.05500007.0580001-.08300006.0869999l-.084.08799982c-.07000005.08500004-.16199994.17400026-.24699997.26100015-.01999999.01999998-.038.03900004-.05400002.0580001-.04799998.05599975-.10500002.11399984-.16399992.17299985l-.05800009.05800009c-.08200001.0840001-.15399998.1459999-.227.21000004l-.02399998.01900005-.019.01300001c-.04813003.0293603-.09363001.06281996-.13600004.0999999C.60668004 8.13106982.58458 8.14815012.561 8.16299979.53999996 8.17499986.51300001 8.1939999.493 8.20500055c-.03624001.02203941-.06980002.04821968-.1.07799911-.051.04900074-.09500002.08600045-.13499998.11800003L.189 8.45500055l-.046.03799915-.013.01100063.013.0149994c.046.0539999.116.13100051.158.17500018l.05699998.05900002c.039.03999996.07500002.07800007.10800001.11600018l.14700005.16699981.08699995.0869999c.028.02799987.04500001.03999996.08399999.0760002.03900003.03600026.07600003.06799985.107.09200002l.09299999.0710001c.069.0529995.148.11999988.232.19400024.04017006.03540993.07823001.07314968.11400007.11299992l.21700001.24800014c.02499998.02799988.04499996.0529995.06499994.07800007.04618.05497932.08893.11275959.12800002.17299938.01655996.02408981.03459.04714012.05400002.06900025.03199995.0380001.069.07899952.10599995.11999988l.04700005.05200005.05800008-.05200005.0999999-.09399986.08699978-.0869999c.0630002-.07299995.14599991-.15600013.21099997-.2300005.02400017-.02799987.05100012-.0569992.08100033-.08699988l.55599975-.55599976c.046-.04899979.09800005-.09599972.14599991-.13800049.01900005-.01699924.0380001-.03499985.05800009-.05499935l.20599985-.1999998.05800009-.05300046L3.676 8.70799985c.01799965-.0159998.03900003-.03499984.05699968-.0529995.08200026-.08300018.15300036-.1430006.2290001-.21100044.0760002-.06799984.15199994-.13899993.23200034-.21799945l.20499993-.20000029 1.1999998-1.20000029c.0500002-.0449996.09500027-.09699964.13800002-.14499998l.0539999-.0579996c.14400005-.14800025.29000044-.29433013.4380002-.43900014l.05700016-.0539999c.04399967-.0420003.09399987-.0840001.14400006-.13500023l.32099962-.32299995c.0300002-.03000021.0550003-.05900002.08200025-.0869999.02699995-.02799987.05499983-.05800008.08299971-.08699989l.2340002-.2340002c.03000022-.03000021.05900002-.05599976.0869999-.08099986l.14100027-.12599992c.02799988-.0250001.05699968-.05100012.08599997-.0800004l.38199997-.37899971c.03999996-.04400015.08500003-.08900023.11299991-.11400032.02799988-.02499962.05800009-.0539999.08699942-.08199978l.20600033-.19999981c.05000019-.0500002.09899997-.09500027.14500045-.13600016.01900006-.01600027.03800011-.03399992.05799961-.05400014l.17700005-.17400002c.03999996-.03900004.07800007-.07400012.11600018-.10800004.01799964-.01600003.0380001-.03400016.05700016-.05299998l.17599964-.17500019.26500034-.26099991c.02999973-.02999998.05799961-.0539999.0869999-.0810001l.08699989-.08199977c.05900001-.05800009.1090002-.10500002.17399978-.1630001.06500054-.0580001.13700009-.12899996.19999981-.1830001l.0880003-.08500004c.02999973-.02799987.06000042-.05899977.0880003-.08299994.05599975-.04900002.11499977-.10699987.17399978-.16400003.02900029-.02799988.04800034-.046.08600045-.07999993.03799915-.03399992.07599926-.069.11599922-.10800004l.11800003-.115.05700016-.05299998c.03499985-.02999985.06799984-.05999982.10000038-.09099984l.15499973-.14900005-.15499973-.15999997c-.07600021-.08000004-.15700054-.15699994-.23799992-.23500001L10.35299957 1.382c-.0539999-.04500008-.09999943-.09200001-.15399933-.14499998l-.1260004-.12199998c-.03318024-.03254009-.0689602-.06230009-.1069994-.08899999-.01900006-.01300001-.02800083-.01400006-.04500008-.0250001-.04204082-.02627992-.0815401-.05640989-.11800003-.0899999l-.0880003-.07700003-.17500019-.153c-.06099987-.055-.1239996-.11799997-.18599987-.17600003C9.32279003.47425002 9.28937042.44585001 9.2539996.42000001 9.24530971.41446001 9.23628986.40945002 9.22700012.405L9.19900024.389C9.18552959.38034 9.17251956.37099 9.15999973.361c-.08099938-.063-.125-.088-.19999981-.147-.04399967-.03600001-.0869999-.07-.12199974-.095-.0125599-.0103-.02633-.01903-.04100037-.026C8.7885598.09191 8.7804097.08919 8.77299964.085 8.74999988.072 8.71899974.053 8.6999997.041 8.68099964.029 8.67300022.027 8.67300022.034c-.0016098.0173-.0016098.0347 0 .052.00667.01221.0147295.02362.02400016.034C8.71600044.144 8.73999965.172 8.76799953.202l.08400059.08900002c.0369997.03999999.07199955.078.10599994.11700001l.08399964.084c.05800056.06.10099983.11.15799999.175.05700016.065.125.135.1789999.2l.08100033.087c.03200054.03900004.07600021.08700002.10000038.11500001.02400017.028.04899979.056.07699966.08499992L9.72000015 1.244c.04599952.04799997.09000015.09500002.12699985.13999998.02299977.028.0500002.056.07699967.084l.11100006.11199998.20840072.21033001c-.03991031.03443003-.08339023.07852006-.12540054.11967003l-.11699962.11699999c-.08600045.0886699-.17333031.17666995-.26200009.26399982l-.87900066.87800002-.46899987.46799993c-.04500007.0500002-.09700012.0940001-.1449995.13700009-.04026031.03600001-.07865047.07404995-.11499977.11400008-.052001.05699992-.1050005.11399984-.16500044.17400002L6.73599994 5.29199996l-.0289998.02900029-.64599991.64099979-.05800009.05499983c-.0380001.03500032-.07600021.07000017-.11600018.11000013l-.44099998.43700028c-.03000021.0289998-.05900002.05900001-.08799982.08399963-.05700016.0500002-.11600018.10700035-.1750002.16600037l-.35199975.35099983C4.77200019 7.2230002 4.71300018 7.28100028 4.656 7.331c-.0289998.0250001-.059.0550003-.08799981.0840001l-.55800009.55399991c-.03000021.02900028-.0500002.0500002-.0880003.08400011-.0380001.0340004-.07599973.0699997-.1159997.10999966l-.58700037.58500004-.44000005.43800067c-.03999997.03999997-.0779996.0739994-.1159997.1079998l-.05800009.0529995c-.16933012.16600037-.33599997.33267021-.49999988.5-.02900004.03000069-.05500007.05800057-.08099985.0869999-.02470017.0275402-.05030012.05418014-.0776502.08248996l-.02434992-.0244894-.1170001-.11700058c-.148-.1439991-.29399991-.29099941-.43999994-.43799973l-.85000002-.84899997c-.02469999-.02684975-.05113-.05255032-.07775-.07724953l.15675-.15675068.082-.08299923c.112-.1270008.24299998-.25099993.36600007-.3760004l.89999997-.9000001c.028-.02799988.05699992-.05800009.08599985-.0829997.04300022-.04100037.0940001-.08700037.143-.13600016l.4619999-.4630003.14400005-.14399957.11500025-.11500025.63999987-.63800001.11499977-.11499977c.0300002-.02900029.05800008-.05500031.08500003-.0800004.02699996-.02499962.05500031-.04999972.08400012-.07999993l.2579999-.2619996c.01800012-.01900006.03700017-.03900004.0539999-.0580001q.05250024-.05850028.11100053-.1170001l.57499981-.58200025.08400011-.0869999c.0082097-.00816988.01589966-.01685023.02299976-.02599978.00118638-.00474453-.00044107-.00386143-.00321388-.002357-.00190258.00103235-.00434446.002357-.00678587.002357l-.06100034.04599977c-.01399994.0090003-.02299977.01100015-.01399994 0L4.86 4.02699986l.11499978-.1170001c.04900026-.04899979.09500026-.09200001.14100027-.13399983.06899976-.06200003.13700008-.13100004.1999998-.20000005.04400015-.046.09800006-.1070001.13700009-.1459999.03900003-.03900004.06900024-.07000018.11299992-.11000014.04400014-.03999996.10500001-.0940001.13100004-.11800003.02600002-.02399993.07399988-.06999993.0999999-.09299993.02600003-.023.05400038-.04999996.08400011-.07999993l.20000029-.20000005.0539999-.05800008c.03599977-.03900004.07200003-.07800007.11100006-.11699987.06043959-.06519007.11687994-.13398003.16899967-.20600009l.02100039-.0250001c.02199983-.02699994.04899978-.05699991.07799959-.08599996l.20000029-.20000005c.03900003-.03499984.07599973-.07399988.10999965-.0999999.0340004-.0259999.0710001-.06099987.11000014-.0999999.07200002-.06400002.13899994-.13099993.20000028-.19999993l.05299998-.0580001L7.301 1.56100003c.02799988-.0300001.04899979-.051.08400011-.08899999.03499985-.0380001.0710001-.07700002.10999966-.1170001.125-.1279999.25-.255.375-.37999988C7.939.90800002 8.00699985.83800003 8.06999957.76900002c.04500008-.04699999.09000016-.097.1390009-.14699995l.39999962-.41200008zm-5.079 8.54399938c-.03900003.03999996-.07600021.07900047-.1090002.11600018-.033.0369997-.07200003.07699966-.10899973.11600017-.01999999.02099991-.03900004.04399967-.03500033.04299927.01757002-.0109396.0337-.02403927.04800034-.03899956l.02799987-.02499962c.03700018-.03200054.07499981-.06700039.11499978-.10599994l.20600032-.19999981c.04999972-.0500002.0999999-.09300041.14400006-.13400078.01899957-.0159998.03799963-.03399944.0579996-.0539999l.29400016-.29199982L4.551 7.79899993l.05800009-.05499982.08699989-.09000016c.08799982-.08500004.17700005-.17299986.26399994-.25099992.02699995-.02400017.05800009-.05599976.08799982-.08500004l.17700005-.17399979c.05000019-.05000019.0999999-.09299993.14499998-.13600016.02900028-.02600002.05800008-.05499982.0880003-.08500003.02657985-.02553988.05130958-.0529499.07399988-.08199978.05077982-.07004023.10588026-.13684035.16499996-.20000029.01699972-.01800012.0300002-.03499985.04400015-.05200004.01399994-.01699973.02400016-.03499985.02199983-.03499985-.00200033 0-.0209999.01399994-.0420003.03299999l-.05699967.05100012c-.01946974.01679993-.03784037.0348401-.05499983.0539999-.0420003.04799986-.09000016.0999999-.13899994.1459999-.02900028.02900029-.05800057.05700017-.08700037.08200026-.0630002.05499983-.12699986.10999966-.19500017.17299986-.02999974.02799988-.05599976.05999995-.04999972.0619998.00600004.00200033.01100016 0 .02199984-.0079999.01100015-.0079999.00800037.00600005-.02099991.03500033l-.09299994.0869999c-.0289998.02699994-.05800008.05200004-.08599996.07899999-.09100008.09100008-.1750002.16499996-.2579999.23699999-.06599998.0579996-.13199997.11899995-.20000028.18900012l-.09299994.09200001-.1409998.1409998c-.059.05899954-.11199998.1159997-.16400003.1739993-.06280994.07040978-.12959003.13718987-.1999998.19999982l-.02800036.02500057-.05299997.04799938c-.09867001.09600067-.19633008.19332981-.29299975.29200077v.00799942zm.65999985-.75399923l.1090002-.1090002.06400013-.06499959c.02659989-.02381039.04862976-.05227041.06499958-.08400011 0-.0090003-.0119996-.01200008-.02600002-.01000023-.0195198.0085802-.03744984.02041006-.05299997.03500033-.0383997.0313797-.07511997.06475973-.10999966.0999999l-.08700037.0869999c-.01608992.0163598-.03111982.03372001-.0449996.05199956-.01600027.0239997-.0250001.0420003-.03600025.0630002-.0037098.00802994-.00380993.01725007-.0002904.02534008l-.00070285.00016308-.00300694-.00150299c0 .00141907.0010481.00188542.00300694.001503l.00099325.00049686-.00028992-.00065995c.01433993-.00380992.0679102-.0446806.11928988-.09433984zm-.02400017.07099962c.00951004-.01478005.02132988-.02795029.03499985-.03900051l-.00099993-.0010004c.01800013-.01299906.01999998-.0099988.01800013-.0059991-.00199986.00399972-.01200009.01199961-.01200009.01799918l-.01900005.0180006c-.00478172.00318813-.0086484.00627422-.01169825.008708-.0065174.00520134-.00930166.0074234-.00930166.00129223zM3.06499994 9.1049992c-.00811005.00827027-.01679993.0159607-.02600002.02300072l.00200033-.0010004c-.0090003.00600051-.00800038.00199985.00999975-.02099991.01800012-.02299977.0420003-.0500002.06900024-.07899952l.112-.11400032c.04799985-.04800034.09499978-.09300041.14099979-.13399983l.05499982-.05000019c.01478005-.01373005.03048039-.02641964.04700041-.0380001-.013.01500034-.02400017.03100013-.03900003.04599952l-.171.17300034-.2000003.1949997z"/>
        </g>
      </g>
    </g>
  </g>
</svg>
