<svg xmlns="http://www.w3.org/2000/svg" xmlns:xlink="http://www.w3.org/1999/xlink" width="532" height="11" viewBox="0 0 532 11">
  <defs>
    <rect id="rect-1" width="532" height="11" x="0" y="0"/>
    <mask id="mask-2" maskContentUnits="userSpaceOnUse" maskUnits="userSpaceOnUse">
      <rect width="532" height="11" x="0" y="0" fill="black"/>
      <use fill="white" xlink:href="#rect-1"/>
    </mask>
    <path id="path-3" fill-rule="evenodd" d="M0 .49900007V7.8390007h531.99811321V.49900007H0zm0 9.0130005v.98799895l532.00411721.00600052v-.86499977l-4.26400085-.01300049h-9.32500148c-7.26529406.0319996-16.06335303.03100014-23.50328371.05999947-2.76839332.01099968-5.70643014.01799965-8.91850647.01799965h-59.30875423c-5.26979263 0-10.34485363-.00599861-15.11977612-.02299881-1.92323905-.01000023-3.91071473-.01000023-6.03870228-.01000023l-21.80286641-.01000023-5.91623303-.01300049-16.90149242-.05900001C359.16195217 9.58599997 357.19959525 9.579 355.34261458 9.579h-.33827614c-7.50110404.00085449-13.90583562-.02241516-20.2411843-.04543496-1.07398-.00390243-2.1459689-.00779724-3.22092916-.01156616-7.64872268-.02799988-15.492177-.04399872-23.96200734-.04399872h-21.8400238l-127.98066286.00899887c-5.2908832.00100136-10.26355463.00800133-15.08165381.02400017l-5.97242859.01200104c-23.33965951.01799965-46.72750416 0-46.72750416 0-2.0155658-.00100136-4.11846522-.00600052-5.93027043-.01300049-4.7096903-.0170002-9.47860114-.02899933-14.86282196-.02899933H34.85591258c-3.21708093 0-6.02362145.00999832-9.00180808.0170002l-9.05701765.01399994H0zm330.73618859.3959999l2.8446992.01000023 5.92223702.01199913s15.54235325.01399994 31.1520064 0c4.18169097 0 8.27908095-.00799942 11.98700767-.02299881 3.77017222-.0150013 7.99000082-.0150013 11.98602742-.02200127 2.05174294 0 4.20374647-.01362037 4.20374647-.02442169 0-.00053406-.00523818-.00106049-.01602087-.00157738-.313188-.01499939-2.5565993-.02300071-4.64945123-.02799988l-2.84972295-.00900077c-3.70391385-.01399994-7.5282752-.02599907-11.7942978-.02700043l-21.82997629-.00599861c-5.34606788 0-10.17723188-.01300049-14.78355237-.03199959-1.8720213-.00700188-3.8193376-.01200104-5.95936377-.01200104l-31.17908564-.00600052h-40.56740477l-6.04568652-.00899887-8.92552135-.02000046c-9.23468116-.01000022-18.6299692-.01199913-27.4400668-.04000091-2.74430076-.00899887-6.09086965-.00799942-9.17946585-.01099968l-18.68216722-.00799942c-5.3199842 0-10.17421456-.01300049-14.96621475-.02899933-2.918968-.01000023-6.05273202-.01000023-9.17948116-.01000023-3.24920308 0-6.39702747.00599861-8.30619083.02599907-5.10618376.05200005-11.27034197.09000015-19.45708086.11100006-1.87503861.00500107-3.4640144.0170002-5.07907388.02600098-1.66525104.01000023-3.17894714.0229988-3.2522204.03899956-.07187946.01569557 1.78522374.02176857 3.87518089.02860069l.12182597.00039864 5.72952714.01799964c2.0416648.00800133 3.94079597.01200104 5.84294446 0 4.79702393-.01799964 9.9312978-.02199935 15.16495925-.02199935 3.0885962 0 6.14709584 0 9.02690004.01399993 6.29263146.02600098 12.59831243.05200005 19.5925843.0680008 3.09562638.00699997 6.18422258-.01200104 6.00355133-.03899956-.107398-.0150013-.69560576-.02900124-1.5718981-.04400063-1.57592629-.02600097-.12547125-.04599952 3.01131008-.04300117l9.19654354.00900078c3.00527544.00499916 5.85398752.02199936 8.8000501.02199936 9.72953598 0 18.11803669.03100013 26.3800859.06300163 6.57367053.02599907 13.3360687.04199982 20.80715277.04199982h24.95370811c6.29966166 0 12.1887848-.0130005 18.0146822-.0320015 3.23713383-.01099968 6.55961016-.01599884 9.89715775-.01599884 3.75108809.01000023 7.51522568.01599884 11.20106627.02899933l-.00101087-.00399971zm-33.95654622.19400024c-1.60300554-.00800132-2.09285193-.0209999-1.28984816-.03700065l.00101088.00300026c.32020288-.00500107 1.0539769-.01000023 1.59902329-.01600075h1.99648167c1.47554316.00900078 2.4000053.02300072 1.65621441.03700066-.88430276.01300048-2.60576468.02000045-3.9628821.01300048zm-27.72810543.18499947c.23286925-.02700043 4.30918398-.06100082 7.91672757-.06100082h18.54664845c6.29564879.0039997 12.12154619.06100082 11.55141167.09399986-.38946326.02200126-.33025038.04600143-1.62110942.06700134-1.68733716.02799988-3.11671695.05799866-5.26277776.08399963-.92547302.01099968-3.26926745.02199936-5.14128874.02199936h-9.23469649c-4.24994047-.00099945-7.92374244-.01300048-11.17597815-.0340004-2.43213894-.01499938-4.19875335-.03399848-4.73378287-.0569992-.86926214-.0380001-1.17941752-.07600021-.84515426-.11499977zm106.2209425-.02199936c-1.59399953 0-3.01131007.01399994-4.5169651.02299881 1.14431253.01300049 2.68608344.02200127 4.56413936.02799988l5.58898464.0170002c4.62638486.01800155 9.53581523.02400016 14.66509599.02200126l12.0873908-.00699997c2.98018732 0 5.66930339-.0150013 7.88260282-.03100013 1.69637379-.01200104 2.42711518-.02499962 1.64518666-.03499985-.44867613-.00500107-1.66926391-.01000023-2.5957478-.01100159l-20.98782403-.01299858-18.33286333.00699997z"/>
  </defs>
  <g>
    <use fill="none" xlink:href="#rect-1"/>
    <g mask="url(#mask-2)">
      <use fill="rgb(173,20,79)" xlink:href="#path-3"/>
      <use fill-opacity="0" stroke="rgb(0,0,0)" stroke-dasharray="0 0 0 0" stroke-linecap="butt" stroke-linejoin="miter" stroke-opacity="0" stroke-width="1" xlink:href="#path-3"/>
    </g>
  </g>
</svg>
