<svg xmlns="http://www.w3.org/2000/svg" xmlns:xlink="http://www.w3.org/1999/xlink" width="54.046" height="54.343" viewBox="0 0 54.046 54.343"><defs><clipPath id="a"><rect width="54.046" height="54.343" fill="#b7d167"/></clipPath></defs><rect width="50.281" height="48.957" transform="translate(1.712 2.608)" fill="#b7d167"/><g clip-path="url(#a)"><path d="M.458.546C.571.535.75.53.943.528L4.873.49c.479,0,.91-.015,1.346-.03C6.828.439,7.484.427,8.147.427L11.808.4c.383,0,.733-.015,1.071-.029L13.7.352,14.815.335l.519-.018C15.926.284,16.579.281,17.245.28c.383,0,.746,0,1.079.018s.7.021,1.081.018L21.381.3c.281,0,.549-.012.767-.029l.2-.017a16.3,16.3,0,0,1,1.7-.079c.383,0,.742-.012,1.09-.027l.536-.016L27.661.121c.293,0,.567,0,.82.013.339.014.723.019,1.013.041.366.028.846.034,1.27.051.348.014.727.014,1.107.013.484,0,.914-.016,1.356-.033.629-.024,1.292-.027,1.928,0,.444.016.89.027,1.368.026L37.65.22c.086,0,.188-.006.243-.013.089-.01.04-.025-.112-.041L37.212.109C37.159.1,37.1.093,37.127.088a1.965,1.965,0,0,1,.228-.015l.832-.013L43.856.042c.382,0,.748-.007,1.1-.02.173-.007.359-.013.542-.014L48.053,0c.29,0,.553.009.815.019s.531.018.818.018l1.132,0,2.276,0H54V5.465c0,.418,0,.84,0,1.26,0,.525,0,1.052,0,1.576q0,2.526,0,5.047c0,.532-.007,1.047-.024,1.53-.01.3-.009.615-.01.929l0,9.782c0,1.352-.018,2.743.029,4.045l0,.942Q54,32.308,54,34.04c0,.205,0,.419.011.607.016.492.022,1,.023,1.532l0,9.151q0,2.367,0,4.731c0,.417,0,.843,0,1.261q0,.949,0,1.894v1.065l-.947.005-1.394.008c-.284,0-.547.009-.806.019s-.519.019-.8.021q-2.376.017-4.75,0c-.181,0-.364-.008-.531-.015-.342-.015-.689-.027-1.07-.027l-4.2-.009-5.595-.006c-.38,0-.738-.008-1.082-.023-.261-.011-.54-.013-.819-.014l-5.312-.016c-.277,0-.563,0-.819-.013-.513-.026-1.066-.029-1.629-.03l-3.357-.006c-.563,0-1.113-.007-1.626-.032-.255-.013-.543-.012-.82-.013l-4.194-.013c-.38,0-.73-.011-1.081-.024l-.539-.012-6.149-.02h-.28l-5.45.006H.038v-.854l0-7.19c0-.652-.009-1.255-.027-1.856C0,43.778,0,43.33.011,42.924c.016-.494.029-.986.029-1.533l.013-5.115L.094,26.69c0-.96.006-1.916.008-2.874,0-.422,0-.852.006-1.276,0-.529.013-1.049.034-1.516.012-.267.022-.55.025-.883q.012-1.91.025-3.822c0-.424,0-.851.006-1.274,0-.313.008-.628.02-.9.021-.445.031-.95.035-1.491L.262,11.7c0-.323.01-.619.02-.9.013-.379.02-.79.025-1.211,0-.312.009-.623.013-.934C.346,8.03.35,7.245.37,6.592.388,6.013.4,5.416.406,4.79c.006-.3.013-.607.019-.889.011-.381.019-.772.024-1.194,0-.312.008-.627.011-.933S.477,1.2.49,1A.869.869,0,0,1,.52.761.972.972,0,0,1,.687.956a1.091,1.091,0,0,1,.064.36c.03.318.061.607.092.878.016.134.033.211.049.3s.032.279.046.472c.029.39.055.861.08,1.342.043.806.1,1.294.143,2.127.008.162.02.291.03.409s.023.2.034.3.023.162.034.285c.022.259.039.6.045,1.043.008.624,0,1.258.018,1.872s.036,1.134.056,1.749c.01.3.019.574.029.872.015.543.044.861.074,1.139.018.164.039.24.056.42.024.248.044.592.05,1.028,0,.411.009.829.013,1.243,0,.53.012,1.031.032,1.512,0,.093.006.191.01.29.017,1.137.038,2.278.011,3.35,0,.183-.006.379-.009.574v1.232c0,.417,0,.8-.014,1.179,0,.277-.008.576-.013.873,0,.611,0,1.231-.02,1.783-.01.274-.007.6-.009.9l-.005.917c-.025.612-.024,1.367-.042,2.016-.016.575-.024,1.158-.027,1.779,0,.3-.009.6-.013.9s-.011.57-.016.886c0,.93,0,1.858,0,2.795q0,.934,0,1.868c0,.2-.005.4-.011.588-.012.381-.021.77-.022,1.191l0,1.868c0,.214,0,.409-.012.593-.018.461-.027.959-.027,1.49q0,1.092,0,2.184c0,.305-.007.616-.015.9-.011.4-.016.8-.016,1.218q0,1.772-.006,3.539l-.572-.645.467,0c.278,0,.538.012.792.024l1.271.055c.256.011.516.02.8.02H6.361l.811-.017c.266-.008.519-.019.807-.019l3.076-.005c.482,0,.91.014,1.332.034.163.008.351.013.531.015q2.1.019,4.188-.006l.535-.014c.432-.019.877-.027,1.352-.028l11.468-.01,1.957,0c.759,0,1.462.018,2.147.05.664.031,1.316.067,2.1.065.175,0,.363.007.529.014l1.515.069c.166.007.35.013.53.015l1.954.012c.191,0,.369,0,.541.012.428.019.883.027,1.355.027h5.315c.288,0,.551-.009.8-.021.667-.033,1.455-.032,2.106-.069h.836l.947.038-.336.379c.012-.422.026-.838.046-1.213.014-.259.027-.519.049-.661.058-.379.1-.977.144-1.619.015-.239.031-.488.041-.77.034-.862.066-1.66.1-2.5.014-.37.011-.82,0-1.219-.031-.856-.071-1.637-.123-2.3-.023-.292-.045-.59-.068-.883s-.037-.67-.048-1.072c-.01-.294-.019-.564-.029-.862s0-.624,0-.937c.021-.565.042-1.134.063-1.694.015-.382.022-.781.024-1.206,0-.21,0-.42,0-.628.006-.625.05-1.836.08-2.244.017-.225.034-.436.051-.663.027-.388.047-.826.055-1.367a6.984,6.984,0,0,1,.056-.937c.025-.182.058-.412.083-.6a5.537,5.537,0,0,0,.05-.635,12.61,12.61,0,0,1,.1-1.308c.007-.046.014-.1.019-.17s.013-.14.016-.23c.029-.746.062-1.475.056-2.371,0-.208,0-.42,0-.631,0-.638,0-1.261-.029-1.827-.008-.188-.011-.388-.013-.6-.007-.934,0-1.912-.044-2.74l-.012-.932c0-.309,0-.654-.013-.92-.03-.755-.028-1.644-.062-2.373-.009-.186-.012-.384-.012-.6V12.605c0-.427.009-.826.021-1.221,0-.193.007-.4.011-.605,0-.946,0-1.892.007-3.023,0-.762,0-1.709,0-2.655,0-.313,0-.631-.013-.924-.017-.478-.027-.975-.029-1.512l-.006-1.607V.794h-.233l-.533,0c-.387,0-.746.013-1.021.038-.485.044-1.081.069-1.663.1-.172.009-.342.014-.533.014L40.663.958l-1.68,0c-.192,0-.376,0-.539-.012C37.778.9,37.041.894,36.285.894l-1.12,0c-.29,0-.559-.008-.783-.024l-1.32-.1C32.443.738,31.793.7,31,.706l-.559,0A1.692,1.692,0,0,1,29.77.634c0-.016.067-.033.05-.049s-.086-.049-.28-.069A14.294,14.294,0,0,0,27.768.47c-.19,0-.332.015-.453.028-.229.025-.247.036-.077.064l.14.022c.174.034.1.059-.252.087a5.4,5.4,0,0,1-.971,0c-.216-.016-.388-.035-.562-.054S25.225.584,25.007.57c-.295-.02-.623-.037-1.014-.038L22.3.529c-.481,0-.921-.011-1.368-.023-.164,0-.391,0-.546,0-.52.02-1.051.035-1.615.041-.381,0-.71.02-1.044.034-.263.011-.541.012-.806,0C16.49.568,16.04.562,15.56.565L9.087.6C8.7.6,8.374.616,8.034.628c-.445.016-.9.016-1.359,0C6.416.623,6.155.616,5.863.616l-1.69,0c-.381,0-.747,0-1.1-.013C2.809.6,2.529.6,2.249.6H.846C.683.6.489.59.41.581.316.571.364.556.458.546M32.373,53.6a3.048,3.048,0,0,0-1.036-.109H30.293l-.617,0a2.614,2.614,0,0,0-.71.07c-.03.045,0,.088.076.132a1.61,1.61,0,0,0,.424.066c.292.024.62.038,1,.039l.828,0c.168,0,.378-.013.46-.025.192-.03.32-.064.472-.1a.215.215,0,0,0,.145-.077m-.922-.243a1.472,1.472,0,0,0,.355-.015c.067-.016-.016-.033-.149-.042l-.179,0c-.049.006-.115.012-.143.019-.072.017-.028.032.116.042m6.62-.192c.375,0,.742-.009,1.074-.026s.716-.018,1.074-.027a1.564,1.564,0,0,0,.375-.029,2.209,2.209,0,0,0-.417-.032l-.255-.011c-.332-.017-.674-.03-1.057-.031L36.91,53c-.479,0-.912-.015-1.325-.037-.167-.009-.342-.014-.534-.015l-2.794-.007-3.635,0-.541-.011-.8-.022c-.828-.012-1.67-.013-2.459-.046-.246-.01-.546-.01-.823-.012l-1.674-.011c-.477,0-.912-.015-1.341-.033-.262-.011-.542-.011-.822-.011a6.887,6.887,0,0,0-.744.029c-.458.059-1.01.1-1.744.128-.168.006-.311.019-.455.03a.909.909,0,0,0-.291.044,1.379,1.379,0,0,0,.358.033l.513.021c.183.009.353.012.524,0,.43-.02.89-.026,1.359-.025.277,0,.551,0,.809.016.564.03,1.129.061,1.756.079a1.345,1.345,0,0,0,.538-.044c-.01-.018-.062-.034-.141-.051-.141-.03-.011-.053.27-.05l.824.011c.269.007.524.025.789.025.871,0,1.623.036,2.364.073.589.029,1.2.048,1.864.048l.886,0H30.99c.564,0,1.092-.014,1.614-.037.615-.027,1.265-.023,1.89,0l.255.011.531.015q1.392.015,2.791,0m4.17.393a2.175,2.175,0,0,0-.233-.012l-1.881-.015-1.642.008c-.142,0-.27.017-.4.026a3.874,3.874,0,0,0,.409.032l.5.02c.415.02.854.028,1.314.025l1.083-.008c.268,0,.508-.017.707-.036.152-.014.217-.029.147-.04" transform="translate(0 0)" fill="#b7d167"/></g></svg>