<svg xmlns="http://www.w3.org/2000/svg" xmlns:xlink="http://www.w3.org/1999/xlink" width="117.713" height="54.343" viewBox="0 0 117.713 54.343"><defs><clipPath id="a"><rect width="117.713" height="54.343" fill="#f8e075"/></clipPath></defs><rect width="113.948" height="48.957" transform="translate(1.712 2.608)" fill="#f8e075"/><g clip-path="url(#a)"><path d="M1,.546C1.244.535,1.633.53,2.055.528L10.613.49c1.044,0,1.981-.015,2.933-.03C14.871.439,16.3.427,17.745.427L25.717.4c.834,0,1.6-.015,2.332-.029L29.834.352,32.267.335,33.4.316C34.688.284,36.11.281,37.56.28c.835,0,1.624,0,2.35.018s1.519.021,2.354.018L46.568.3c.611,0,1.2-.012,1.67-.029l.439-.017C49.629.209,50.822.18,52.385.178,53.218.177,54,.166,54.76.151L55.929.135,60.245.121c.637,0,1.234,0,1.786.013.738.014,1.574.019,2.207.041.8.028,1.843.034,2.766.051.758.014,1.584.014,2.411.013,1.054,0,1.991-.016,2.952-.033,1.37-.024,2.814-.027,4.2,0,.968.016,1.939.027,2.98.026L82,.22c.187,0,.41-.006.53-.013.194-.01.087-.025-.244-.041L81.049.109C80.932.1,80.807.093,80.863.088c.074-.007.308-.013.5-.015L83.172.061,95.519.042c.833,0,1.629-.007,2.406-.02C98.3.015,98.707.008,99.1.007L104.66,0c.633,0,1.2.009,1.775.019s1.156.018,1.783.018l2.466,0,4.957,0h1.969V1.059l0,4.406c0,.418,0,.84-.006,1.26,0,.525,0,1.052-.006,1.576q0,2.526-.007,5.047c0,.532-.015,1.047-.052,1.53-.022.3-.02.615-.022.929l0,9.782c.006,1.352-.038,2.743.062,4.045l.011.942q.017,1.732.034,3.465c0,.205.01.419.023.607.035.492.048,1,.05,1.532l.01,9.151q0,2.367.008,4.731c0,.417,0,.843,0,1.261q0,.949,0,1.894l0,1.065-2.064.005-3.037.008c-.618,0-1.191.009-1.755.019s-1.13.019-1.749.021q-5.174.017-10.346,0c-.394,0-.794-.008-1.156-.015-.744-.015-1.5-.027-2.33-.027l-9.137-.009-12.186-.006c-.827,0-1.607-.008-2.357-.023-.569-.011-1.175-.013-1.784-.014l-11.57-.016c-.6,0-1.226,0-1.783-.013-1.117-.026-2.322-.029-3.549-.03l-7.311-.006c-1.225,0-2.424-.007-3.54-.032-.556-.013-1.182-.012-1.786-.013l-9.135-.013c-.828,0-1.59-.011-2.353-.024L27.6,54.082l-13.392-.02H13.6l-11.871.006H.083v-.854l0-7.19c0-.652-.019-1.255-.06-1.856a9.576,9.576,0,0,1,.005-1.246c.034-.494.062-.986.064-1.533l.028-5.115L.2,26.69c.006-.96.013-1.916.018-2.874,0-.422.009-.852.013-1.276.011-.529.029-1.049.074-1.516.025-.267.047-.55.054-.883q.027-1.91.055-3.822c0-.424.01-.851.013-1.274.006-.313.017-.628.044-.9.045-.445.068-.95.076-1.491L.57,11.7c.006-.323.022-.619.043-.9.029-.379.043-.79.054-1.211.009-.312.019-.623.029-.934.058-.624.065-1.409.11-2.062.04-.579.061-1.176.078-1.8.014-.3.028-.607.042-.889.025-.381.042-.772.052-1.194C.986,2.4.995,2.08,1,1.775S1.038,1.2,1.067,1c.018-.127.044-.247.066-.239A1.87,1.87,0,0,1,1.5.956c.049.031.095.139.14.36.065.318.132.607.2.878a1.955,1.955,0,0,0,.107.3,2.83,2.83,0,0,1,.1.472c.063.39.119.861.174,1.342.093.806.218,1.294.312,2.127.018.162.043.291.066.409s.049.2.073.3.051.162.074.285a6.8,6.8,0,0,1,.1,1.043c.017.624.007,1.258.04,1.872S2.961,11.475,3,12.09c.022.3.041.574.062.872A6.216,6.216,0,0,0,3.227,14.1c.04.164.084.24.122.42a6.185,6.185,0,0,1,.11,1.028c.01.411.019.829.029,1.243.006.53.027,1.031.071,1.512.006.093.014.191.022.29.038,1.137.083,2.278.025,3.35-.006.183-.013.379-.019.574v1.232c0,.417-.01.8-.031,1.179-.009.277-.018.576-.029.873-.006.611,0,1.231-.044,1.783-.021.274-.016.6-.019.9l-.011.917c-.055.612-.053,1.367-.092,2.016-.034.575-.053,1.158-.059,1.779-.01.3-.019.6-.028.9s-.023.57-.035.886c0,.93-.007,1.858-.011,2.795q0,.934,0,1.868c0,.2-.011.4-.024.588-.025.381-.045.77-.047,1.191l-.01,1.868c0,.214-.009.409-.025.593-.04.461-.058.959-.059,1.49q0,1.092-.01,2.184c0,.305-.015.616-.032.9-.024.4-.036.8-.034,1.218q-.008,1.772-.014,3.539l-1.245-.645,1.017,0c.607,0,1.171.012,1.725.024l2.769.055c.557.011,1.124.02,1.745.02h4.871l1.767-.017c.58-.008,1.13-.019,1.757-.019l6.7-.005c1.051,0,1.981.014,2.9.034.354.008.764.013,1.158.015q4.565.019,9.121-.006l1.165-.014c.94-.019,1.911-.027,2.944-.028l24.978-.01,4.263,0c1.653,0,3.184.018,4.677.05,1.447.031,2.867.067,4.579.065.382,0,.791.007,1.153.014l3.3.069c.363.007.762.013,1.154.015l4.255.012c.415,0,.8,0,1.179.012.931.019,1.922.027,2.951.027H105.43c.627,0,1.2-.009,1.741-.021,1.453-.033,3.169-.032,4.587-.069h1.82l2.062.038-.733.379c.027-.422.056-.838.1-1.213a4.247,4.247,0,0,1,.106-.661,10.485,10.485,0,0,0,.313-1.619c.032-.239.068-.488.089-.77.075-.862.143-1.66.216-2.5a7.969,7.969,0,0,0-.009-1.219c-.068-.856-.154-1.637-.267-2.3-.049-.292-.1-.59-.148-.883a10.377,10.377,0,0,1-.1-1.072c-.021-.294-.041-.564-.062-.862,0-.3,0-.624,0-.937.046-.565.092-1.134.136-1.694.032-.382.048-.781.053-1.206,0-.21.007-.42.011-.628.014-.625.108-1.836.173-2.244.038-.225.073-.436.111-.663a10.928,10.928,0,0,0,.119-1.367,3.293,3.293,0,0,1,.121-.937c.055-.182.125-.412.182-.6a2.646,2.646,0,0,0,.109-.635,6,6,0,0,1,.215-1.308,1.292,1.292,0,0,0,.042-.17,1.952,1.952,0,0,0,.036-.23,22.507,22.507,0,0,0,.122-2.371c0-.208,0-.42,0-.631,0-.638-.01-1.261-.063-1.827-.018-.188-.024-.388-.027-.6-.015-.934,0-1.912-.095-2.74l-.025-.932c-.008-.309-.006-.654-.028-.92-.064-.755-.062-1.644-.135-2.373a5.909,5.909,0,0,1-.026-.6V12.605c0-.427.019-.826.045-1.221.008-.193.016-.4.024-.605.005-.946.01-1.892.016-3.023,0-.762,0-1.709,0-2.655,0-.313,0-.631-.027-.924-.037-.478-.06-.975-.062-1.512l-.014-1.607,0-.265h-.507l-1.161,0c-.844,0-1.625.013-2.225.038-1.056.044-2.355.069-3.621.1-.374.009-.744.014-1.161.014L88.564.958,84.9.954c-.419,0-.819,0-1.175-.012C82.28.9,80.675.894,79.03.894L76.591.9C75.958.9,75.373.89,74.885.874L72.01.777C70.661.738,69.246.7,67.508.706L66.292.7A7.805,7.805,0,0,1,64.838.634c0-.016.145-.033.109-.049a2.182,2.182,0,0,0-.609-.069C63.3.466,62,.452,60.48.47c-.413,0-.723.015-.988.028-.5.025-.539.036-.168.064l.3.022c.378.034.212.059-.549.087-.852.032-1.334.032-2.115,0C56.494.66,56.119.641,55.741.621S54.94.584,54.464.57c-.642-.02-1.356-.037-2.208-.038l-3.683,0c-1.047,0-2.006-.011-2.979-.023-.356,0-.851,0-1.189,0-1.131.02-2.288.035-3.518.041-.829,0-1.546.02-2.273.034-.573.011-1.177.012-1.755,0-.944-.016-1.923-.022-2.97-.019L19.792.6c-.844,0-1.553.016-2.294.028-.97.016-1.962.016-2.96,0C13.974.623,13.406.616,12.771.616l-3.682,0c-.83,0-1.628,0-2.387-.013C6.118.6,5.509.6,4.9.6H1.843C1.488.6,1.066.59.894.581.688.571.793.556,1,.546M70.509,53.6a14.087,14.087,0,0,0-2.255-.109H65.979l-1.344,0a12.171,12.171,0,0,0-1.546.07c-.064.045,0,.088.165.132a7.364,7.364,0,0,0,.924.066c.635.024,1.351.038,2.181.039l1.8,0c.365,0,.823-.013,1-.025.419-.03.7-.064,1.028-.1a.7.7,0,0,0,.317-.077M68.5,53.355a6.945,6.945,0,0,0,.773-.015c.146-.016-.036-.033-.324-.042l-.389,0c-.106.006-.25.012-.312.019-.157.017-.061.032.252.042m14.419-.192c.816,0,1.616-.009,2.34-.026s1.559-.018,2.339-.027a7.32,7.32,0,0,0,.817-.029c-.061-.017-.5-.026-.908-.032l-.556-.011c-.723-.017-1.468-.03-2.3-.031L80.389,53c-1.043,0-1.986-.015-2.885-.037-.364-.009-.745-.014-1.163-.015l-6.086-.007-7.918,0-1.179-.011L59.417,52.9c-1.8-.012-3.637-.013-5.356-.046-.536-.01-1.188-.01-1.792-.012l-3.646-.011c-1.038,0-1.986-.015-2.922-.033-.57-.011-1.181-.011-1.791-.011-.635,0-1.249.007-1.621.029-1,.059-2.2.1-3.8.128-.366.006-.677.019-.991.03a4.142,4.142,0,0,0-.635.044,6.428,6.428,0,0,0,.78.033l1.118.021c.4.009.769.012,1.14,0,.936-.02,1.939-.026,2.96-.025.6,0,1.2,0,1.762.016,1.228.03,2.459.061,3.824.079a6.24,6.24,0,0,0,1.172-.044,1.1,1.1,0,0,0-.306-.051c-.308-.03-.024-.053.588-.05l1.8.011c.586.007,1.142.025,1.718.025,1.9,0,3.535.036,5.148.073,1.283.029,2.6.048,4.061.048l1.93,0H67.5c1.229,0,2.379-.014,3.516-.037,1.34-.027,2.756-.023,4.117,0l.555.011,1.156.015q3.032.015,6.08,0M92,53.556c-.087-.007-.326-.012-.507-.012l-4.1-.015-3.577.008c-.31,0-.589.017-.881.026.224.015.524.026.89.032l1.091.02c.9.02,1.861.028,2.862.025l2.359-.008c.583,0,1.107-.017,1.539-.036.331-.014.473-.029.321-.04" transform="translate(0 0)" fill="#f8e075"/></g></svg>