<svg xmlns="http://www.w3.org/2000/svg" xmlns:xlink="http://www.w3.org/1999/xlink" width="25.279" height="25.279" viewBox="0 0 25.279 25.279"><defs><clipPath id="a"><rect width="17.875" height="17.875" fill="#ad144f"/></clipPath></defs><g transform="translate(12.64 0) rotate(45)"><rect width="17.445" height="5.501" transform="translate(0.112 5.967)" fill="#ad144f"/><g transform="translate(0 0)"><g clip-path="url(#a)"><path d="M17.387,42.761a.8.8,0,0,1-.11.007l-.836.012c-.1,0-.2.005-.293.011-.135.008-.276.012-.414.011-.256,0-.514,0-.773.008-.081,0-.158.005-.233.011-.058,0-.117.005-.177.007l-.238.006c-.039,0-.079,0-.114.007-.134.012-.27.013-.409.013-.08,0-.154,0-.219-.008a2.1,2.1,0,0,0-.22-.008l-.416,0a1.428,1.428,0,0,0-.168.011l-.047.007a2.15,2.15,0,0,1-.375.03c-.08,0-.157,0-.233.01-.037,0-.077.005-.115.006l-.415.005c-.061,0-.117,0-.168-.005-.067-.005-.146-.008-.2-.016s-.169-.013-.254-.02c-.07-.005-.149-.005-.229-.005-.1,0-.194.006-.29.013a2.983,2.983,0,0,1-.4,0c-.09-.006-.181-.01-.282-.01l-.237,0a.34.34,0,0,0-.053.005c-.02,0-.012.01.017.016l.109.022c.01,0,.02.006.014.009a.284.284,0,0,1-.05.006l-.175.005L8.2,42.949c-.08,0-.157,0-.233.009-.037,0-.076.006-.115.006l-.533.005c-.061,0-.114,0-.168-.007s-.109-.007-.169-.007H6.742l-1.3.008H4.909l-.947,0c-.1,0-.2,0-.286-.01-.055,0-.115,0-.174,0l-1.837,0c-.254,0-.515-.008-.76.014l-.177,0-.616.007.29-.433V42.6c0,.058,0,.119,0,.173.005.14.007.284.007.435v2.6c0,.448,0,.9,0,1.344,0,.118,0,.239,0,.358,0,.18,0,.359,0,.538l-.3-.452.3,0c.061,0,.117,0,.173-.008s.111-.008.172-.009c.339,0,.679-.005,1.018,0,.039,0,.078,0,.114.006.073.007.148.011.229.012l.9,0,1.2,0c.081,0,.158,0,.232.01.056,0,.116.005.176.006l1.139.007c.059,0,.121,0,.175.006.11.011.229.012.349.013l.72,0c.121,0,.239,0,.349.014.055.005.116.005.176.006l.9.005c.081,0,.157,0,.232.01.037,0,.077,0,.116.005l1.318.008h.06l2.519-.005c.122,0,.235-.005.347-.014a1.54,1.54,0,0,1,.234,0c.093.007.186.013.288.013h.96l1.8,0q.27,0,.539,0h.239c.1,0,.2,0,.287.014.051.006.106.01.168.011h.02l-.227.339c0-.332,0-.664,0-1,0-.113,0-.228,0-.341,0-.084,0-.169.007-.247.008-.125.012-.264.013-.41l0-.257c0-.087,0-.169.008-.249.005-.107.008-.22.011-.335,0-.086,0-.171.006-.257.011-.181.013-.395.022-.583.008-.167.012-.335.016-.509,0-.086.006-.173.009-.254,0-.111.008-.224.011-.342,0-.088,0-.176.006-.263s.007-.169.011-.234a.593.593,0,0,1,.01-.089.564.564,0,0,1,.054-.078c.007-.009.014,0,.02.051.009.067.02.125.03.178a.179.179,0,0,0,.016.048.638.638,0,0,1,.016.1c.01.091.019.209.028.332.015.205.036.31.053.529,0,.043.007.074.011.1s.008.046.013.068.009.034.013.064a2.8,2.8,0,0,1,.018.287c0,.184,0,.378.01.555l.023.5c0,.086.008.167.012.252a2.525,2.525,0,0,0,.028.318c.007.043.014.059.021.107a2.739,2.739,0,0,1,.019.3c0,.126,0,.254,0,.38,0,.163,0,.315.01.458,0,.028,0,.057,0,.087,0,.242.006.485,0,.723l-.006.483-.312-.009c-.065,0-.129-.005-.193-.011-.036,0-.074-.006-.112-.007l-.238,0c-.081,0-.156-.005-.23-.011-.054,0-.112-.008-.17-.01-.118,0-.238,0-.347-.016-.054-.006-.116-.005-.175-.007l-.177-.005c-.12-.014-.266-.016-.393-.026s-.225-.014-.345-.017L15,48.4c-.057,0-.11-.008-.172-.009l-.538-.006h-.36c-.038,0-.078,0-.114-.006-.074-.006-.149-.011-.23-.012l-.359,0a1.123,1.123,0,0,1-.114-.006c-.089-.009-.185-.013-.287-.014l-.419,0c-.059,0-.118,0-.174-.007-.076-.005-.153-.008-.234-.008l-.779-.005c-.06,0-.115,0-.17-.01l-.273-.023c-.055,0-.111-.009-.172-.009h-.479c-.059,0-.117,0-.174.007s-.111.008-.173.008l-.659,0a2.808,2.808,0,0,1-.285-.014c-.035,0-.075-.005-.114-.006q-.45-.008-.9,0c-.039,0-.079,0-.115.006-.093.008-.188.011-.29.012l-2.459,0-.42,0c-.163,0-.313-.008-.46-.021a4.348,4.348,0,0,0-.451-.027c-.037,0-.078,0-.113-.006L3.2,48.211c-.036,0-.075-.006-.114-.006l-.419,0c-.041,0-.079,0-.116,0-.092-.008-.189-.011-.29-.011H1.117a1.711,1.711,0,0,0-.171.009c-.143.014-.312.013-.451.029H.315l-.2-.016L0,48.2l.005-.151c0-.12.008-.238.015-.345,0-.074.008-.147.015-.188.019-.108.033-.278.046-.46,0-.068.01-.139.013-.219.011-.244.021-.472.032-.712,0-.105,0-.233,0-.346-.01-.243-.023-.465-.039-.653l-.021-.251c-.008-.085-.012-.19-.015-.3,0-.084-.008-.16-.009-.245s0-.177,0-.266c.007-.16.013-.322.02-.481,0-.108.007-.222.008-.343,0-.06,0-.119,0-.178,0-.132.01-.356.017-.509l0-.043.025,0,.086.012.126.024a1.807,1.807,0,0,0,.259.026.546.546,0,0,1,.178.026c.032.014.079.026.112.04a.438.438,0,0,0,.12.024.985.985,0,0,1,.246.047l.032.009a.32.32,0,0,0,.043.008,3.664,3.664,0,0,0,.447.026h.119a3.2,3.2,0,0,0,.346-.014c.036,0,.074-.005.114-.006a4.852,4.852,0,0,0,.52-.021l.177-.005c.059,0,.124,0,.175-.006.144-.014.312-.014.452-.03a1.017,1.017,0,0,1,.115-.006h.359c.081,0,.156,0,.23.009.036,0,.075,0,.114.005l.572,0h.5c.059,0,.12,0,.176-.006.092-.008.187-.013.289-.014l.419,0a1.5,1.5,0,0,0,.221-.016c.107-.018.237-.028.364-.039.037,0,.074-.006.115-.006l1.857-.006.359,0a1.089,1.089,0,0,1,.113,0,4.187,4.187,0,0,0,.453.018h.239a1.172,1.172,0,0,1,.163.009l.263.038a3.146,3.146,0,0,0,.425.028l.118,0c.083,0,.135.012.127.026s-.021.013-.021.019.008.019.044.027a1.5,1.5,0,0,0,.363.018.744.744,0,0,0,.1-.011c.054-.01.061-.014.031-.025l-.025-.009c-.029-.013-.007-.023.074-.034a.624.624,0,0,1,.207,0c.042.006.074.014.106.021s.068.015.111.02a1.507,1.507,0,0,0,.2.015H12.8c.1,0,.191,0,.281.01a1.028,1.028,0,0,0,.115,0c.115-.008.231-.013.351-.016.081,0,.155-.008.23-.013a1.158,1.158,0,0,1,.17,0c.086.007.179.009.28.009l1.372-.01c.082,0,.156-.006.232-.011a2.34,2.34,0,0,1,.287,0c.051,0,.1.006.165.006h.356c.08,0,.155,0,.224.006.053,0,.111,0,.17,0,.1,0,.2,0,.294,0a.436.436,0,0,1,.082.008c.015,0,0,.011-.026.014M4.554,47.884c-.011.016.1.043.222.046H5l.132,0a.305.305,0,0,0,.152-.029.055.055,0,0,0-.016-.056.2.2,0,0,0-.091-.028,1.393,1.393,0,0,0-.215-.017H4.785a.531.531,0,0,0-.1.011.93.93,0,0,0-.1.04c-.025.01-.024.022-.031.033m.2.1a.162.162,0,0,0-.076.006c-.014.007,0,.014.032.018l.038,0A.242.242,0,0,0,4.777,48c.016-.007.006-.014-.025-.018m-1.419.081c-.08,0-.159,0-.23.011s-.153.008-.23.011c-.041,0-.085.007-.08.012a.245.245,0,0,0,.089.014l.055,0c.071.007.145.012.227.013l.419,0a2.779,2.779,0,0,1,.284.015c.036,0,.073.006.115.006l.6,0,.779,0,.116,0,.172.009c.177,0,.358.006.527.019.053,0,.117,0,.176,0l.359,0c.1,0,.2.006.287.014.056,0,.116,0,.176,0a.756.756,0,0,0,.159-.012,2.032,2.032,0,0,1,.374-.054c.036,0,.067-.008.1-.013s.061-.011.062-.019-.036-.011-.077-.014l-.11-.009a.562.562,0,0,0-.112,0c-.092.008-.191.011-.291.011a1.714,1.714,0,0,1-.173-.007c-.121-.013-.242-.026-.376-.033-.06,0-.119.006-.115.018s.013.014.03.021,0,.022-.058.021l-.177,0c-.058,0-.113-.01-.169-.011-.187,0-.348-.015-.507-.031a3.946,3.946,0,0,0-.4-.02H4.851c-.121,0-.234.006-.346.016a2.429,2.429,0,0,1-.405,0l-.055,0-.114-.006q-.3-.006-.6,0M2.439,47.9a.24.24,0,0,0,.05.005l.4.006.352,0a.782.782,0,0,0,.087-.011.421.421,0,0,0-.088-.014l-.107-.008a2.691,2.691,0,0,0-.282-.011l-.232,0a1.014,1.014,0,0,0-.151.015c-.033.006-.047.012-.032.017" transform="translate(0 -36.578)" fill="#ad144f"/><rect width="5.501" height="17.445" transform="translate(5.967 0.318)" fill="#ad144f"/><path d="M42.761.488a.8.8,0,0,1,.007.11l.012.836c0,.1.005.2.011.293.008.135.012.276.011.414,0,.256,0,.514.008.773,0,.081.005.158.011.233,0,.058.005.117.007.177,0,.079,0,.159.006.238,0,.039,0,.079.007.114.012.134.013.27.013.409,0,.08,0,.154-.008.219a2.1,2.1,0,0,0-.008.22l0,.416a1.428,1.428,0,0,0,.011.168l.007.047a2.151,2.151,0,0,1,.03.375c0,.08,0,.157.01.233,0,.037.005.077.006.115l.005.415c0,.061,0,.117-.005.168-.005.067-.008.146-.016.2s-.013.169-.02.254c-.005.07-.005.149-.005.229,0,.1.006.194.013.29a2.984,2.984,0,0,1,0,.4c-.006.09-.01.181-.01.282l0,.237a.341.341,0,0,0,.005.053c0,.02.01.012.016-.017l.022-.109c0-.01.006-.02.009-.014a.284.284,0,0,1,.006.05c0,.058,0,.117.005.175l.011,1.185c0,.08,0,.157.009.233,0,.037.006.076.006.115l.005.533c0,.061,0,.114-.007.168s-.007.109-.007.169v.236l.008,1.3c0,.078,0,.157,0,.236,0,.1,0,.2,0,.3q0,.474,0,.947c0,.1,0,.2-.01.286,0,.055,0,.115,0,.174l0,1.837c0,.254-.008.515.014.76l0,.177.007.616-.433-.29H42.6l.173,0c.14-.005.284-.007.435-.007h2.6c.448,0,.9,0,1.344,0h.9l-.452.3,0-.3c0-.061,0-.117-.008-.173s-.008-.111-.009-.172c0-.339-.005-.679,0-1.018,0-.039,0-.078.006-.114.007-.073.011-.148.012-.229l0-.9,0-1.2c0-.081,0-.158.01-.232,0-.056.005-.116.006-.176l.007-1.139c0-.059,0-.121.006-.175.011-.11.012-.229.013-.349l0-.72c0-.121,0-.239.014-.349.005-.055.005-.116.006-.176l.005-.9c0-.081,0-.157.01-.232,0-.037,0-.077.005-.116l.008-1.318V7.72L47.683,5.2c0-.122-.005-.235-.014-.347a1.54,1.54,0,0,1,0-.234c.007-.093.013-.186.013-.288v-.96l0-1.8q0-.27,0-.539V.794c0-.1,0-.2.014-.287.006-.051.01-.106.011-.168V.318l.339.227-1,0-.341,0c-.084,0-.169,0-.247-.007C46.335.525,46.2.521,46.051.52l-.257,0c-.087,0-.169,0-.249-.008C45.438.5,45.325.5,45.21.5L44.953.491C44.771.48,44.558.478,44.37.469,44.2.461,44.035.457,43.861.452L43.607.444c-.111,0-.224-.009-.342-.011L43,.427c-.088,0-.169-.007-.234-.011a.574.574,0,0,1-.089-.01A.564.564,0,0,1,42.6.352c-.009-.007,0-.014.051-.02.067-.009.125-.02.178-.03a.175.175,0,0,0,.048-.016.611.611,0,0,1,.1-.015c.091-.01.209-.019.332-.028.205-.015.31-.036.529-.053.043,0,.074-.007.1-.011s.046-.008.068-.013.034-.009.064-.013a2.8,2.8,0,0,1,.287-.018c.184,0,.378,0,.555-.01L45.42.1,45.673.09a2.525,2.525,0,0,0,.318-.028c.043-.007.059-.014.107-.021a2.739,2.739,0,0,1,.3-.019l.38,0c.163,0,.315,0,.458-.01l.087,0c.242,0,.485-.006.723,0l.483.006L48.52.318c0,.065-.005.129-.011.193,0,.036-.006.074-.007.112l0,.238c0,.081-.005.156-.011.23,0,.054-.008.112-.01.17,0,.118,0,.238-.016.347-.006.054-.005.116-.007.175l-.005.177c-.014.12-.016.266-.026.393s-.014.225-.017.345c0,.058-.005.116-.008.173s-.008.11-.009.172c0,.179,0,.358-.006.538v.36c0,.038,0,.078-.006.114-.006.074-.011.149-.012.23l0,.359a1.123,1.123,0,0,1-.006.114c-.009.089-.013.185-.014.287q0,.21,0,.419c0,.059,0,.118-.007.174-.005.076-.008.153-.008.234q0,.39-.005.779c0,.06,0,.115-.01.17-.007.089-.015.182-.023.273,0,.055-.009.111-.009.172v.479c0,.059,0,.117.007.174s.008.111.008.173l0,.659a2.809,2.809,0,0,1-.014.285c0,.035-.005.075-.006.114q-.008.45,0,.9c0,.039,0,.079.006.115.008.093.011.188.012.29l0,2.459,0,.42c0,.163-.008.313-.021.46a4.349,4.349,0,0,0-.027.451c0,.037,0,.078-.006.113-.01.109-.019.216-.029.325,0,.036-.006.075-.006.114q0,.209,0,.419c0,.041,0,.079,0,.116-.008.092-.011.189-.011.29v1.139a1.713,1.713,0,0,0,.009.171c.014.143.013.312.029.451v.179c-.005.066-.01.135-.016.2l-.009.112-.151-.005c-.12,0-.238-.008-.345-.015-.074,0-.147-.008-.188-.015-.108-.019-.278-.033-.46-.046-.068,0-.139-.01-.219-.013l-.712-.031c-.105,0-.233,0-.346,0-.243.01-.465.023-.653.039l-.251.021c-.085.008-.19.012-.3.015-.084,0-.16.008-.245.009s-.177,0-.266,0l-.481-.02c-.108,0-.222-.007-.343-.008l-.178,0c-.132,0-.356-.01-.509-.017l-.043,0,0-.025c0-.036.008-.066.012-.086l.024-.126a1.805,1.805,0,0,0,.026-.259.546.546,0,0,1,.026-.178c.014-.032.026-.079.04-.112a.438.438,0,0,0,.024-.12.984.984,0,0,1,.047-.246.237.237,0,0,0,.009-.032.321.321,0,0,0,.008-.043,3.664,3.664,0,0,0,.026-.447c0-.039,0-.079,0-.119a3.2,3.2,0,0,0-.014-.346c0-.036-.005-.074-.006-.114a4.848,4.848,0,0,0-.021-.52l-.005-.177c0-.059,0-.124-.006-.175-.014-.144-.014-.312-.03-.452a1.016,1.016,0,0,1-.006-.115v-.359c0-.081,0-.156.009-.23,0-.036,0-.075.005-.114,0-.179,0-.358,0-.572,0-.144,0-.323,0-.5,0-.059,0-.12-.006-.176-.008-.092-.013-.187-.014-.289l0-.419a1.5,1.5,0,0,0-.016-.221c-.018-.107-.028-.237-.039-.364,0-.037-.006-.074-.006-.115L42.584,8.88l0-.359a1.089,1.089,0,0,1,0-.113,4.189,4.189,0,0,0,.018-.453V7.716a1.173,1.173,0,0,1,.009-.163l.038-.263a3.147,3.147,0,0,0,.028-.425l0-.118c0-.083.012-.135.026-.127s.013.021.019.021.019-.008.027-.044a1.5,1.5,0,0,0,.018-.363.746.746,0,0,0-.011-.1c-.01-.054-.014-.061-.025-.031l-.008.024c-.013.029-.023.007-.034-.073a.624.624,0,0,1,0-.207c.006-.042.014-.074.021-.106s.015-.068.02-.111a1.5,1.5,0,0,0,.015-.2V5.072c0-.1,0-.191.01-.281a1.026,1.026,0,0,0,0-.115c-.008-.115-.013-.231-.016-.351,0-.081-.008-.155-.013-.23a1.158,1.158,0,0,1,0-.17c.007-.086.009-.179.009-.28l-.01-1.372c0-.082-.006-.156-.011-.232a2.338,2.338,0,0,1,0-.287c0-.051.006-.1.006-.165V1.233c0-.08,0-.155.006-.224,0-.053,0-.111,0-.17,0-.1,0-.2,0-.294a.438.438,0,0,1,.009-.082c0-.015.011,0,.014.026m5.123,12.833c.016.011.043-.1.046-.222,0-.059,0-.119,0-.224,0-.014,0-.073,0-.132a.3.3,0,0,0-.029-.152.055.055,0,0,0-.056.016.2.2,0,0,0-.028.091,1.4,1.4,0,0,0-.017.215c0,.059,0,.12,0,.177a.531.531,0,0,0,.011.1.927.927,0,0,0,.04.1c.01.025.022.024.033.031m.1-.2a.162.162,0,0,0,.006.076c.007.014.014,0,.018-.032,0-.009,0-.026,0-.038A.243.243,0,0,0,48,13.1c-.007-.016-.014-.006-.018.025m.081,1.419c0,.08,0,.159.011.23s.008.153.011.23c0,.041.007.085.012.08a.245.245,0,0,0,.014-.089c0-.019,0-.037,0-.055.007-.071.012-.145.013-.227l0-.419a2.781,2.781,0,0,1,.015-.284c0-.036.006-.073.006-.115l0-.6,0-.779c0-.039,0-.078,0-.116l.009-.172c0-.177.006-.358.019-.527,0-.053,0-.117,0-.176l0-.359c0-.1.006-.2.014-.287,0-.056,0-.116,0-.176a.758.758,0,0,0-.012-.16,2.028,2.028,0,0,1-.054-.374c0-.036-.008-.067-.013-.1s-.011-.061-.019-.062-.011.036-.014.077l-.009.11a.562.562,0,0,0,0,.112c.008.092.011.191.011.291a1.715,1.715,0,0,1-.007.173c-.013.121-.026.242-.033.376,0,.06.006.119.018.115s.014-.013.021-.03.022,0,.021.058,0,.119,0,.177-.01.113-.011.169c0,.187-.015.348-.031.507a3.945,3.945,0,0,0-.02.4c0,.1,0,.18,0,.19v.29c0,.121.006.234.016.346a2.429,2.429,0,0,1,0,.405c0,.018,0,.036,0,.055,0,.038,0,.075-.006.114q-.006.3,0,.6m-.166.894a.241.241,0,0,0,.005-.05c0-.135,0-.271.006-.4s0-.236,0-.352a.781.781,0,0,0-.011-.087.421.421,0,0,0-.014.088l-.008.107a2.69,2.69,0,0,0-.011.282c0,.077,0,.156,0,.232a1.015,1.015,0,0,0,.015.151c.006.033.012.047.017.032" transform="translate(-36.578 0)" fill="#ad144f"/></g></g></g></svg>