<svg xmlns="http://www.w3.org/2000/svg" xmlns:xlink="http://www.w3.org/1999/xlink" width="208.581" height="211.4" viewBox="0 0 208.581 211.4">
  <defs>
    <clipPath id="clip-path">
      <rect id="Retângulo_15" data-name="Retângulo 15" width="208.581" height="211.4" fill="none"/>
    </clipPath>
  </defs>
  <g id="Grupo_14" data-name="Grupo 14" transform="translate(208.581 211.4) rotate(180)">
    <g id="Grupo_13" data-name="Grupo 13" transform="translate(0 0)" clip-path="url(#clip-path)">
      <path id="Caminho_50" data-name="Caminho 50" d="M46.305,28.189c.007.329.007.659,0,.992-.007.216-.007.439,0,.655.021.822.011,1.644.007,2.465l.011,4.771a5.8,5.8,0,0,0,.05.8c.011.1.018.209.021.319l.028,1.8.011.492a16.02,16.02,0,0,1,.064,2.111q.021,2.545,0,5.1a3.564,3.564,0,0,1-.025.482,6.394,6.394,0,0,0-.05.8c-.007.878-.018,1.753-.007,2.632l0,.818,0,.659c0,1.208,0,2.409,0,3.616l-.007.659a4.036,4.036,0,0,1-.035.475,3.248,3.248,0,0,0-.039.471l.007,1.481c0,.106.014.216.025.315a5.385,5.385,0,0,1,.035.641l.011,3.291c0,.159.007.322.014.482a.366.366,0,0,0,.028.135c.007.014.028-.018.043-.046l.106-.322c.032-.089.06-.113.081-.064a.77.77,0,0,1,.025.145l0,.655a6.231,6.231,0,0,1-.057.79,4.761,4.761,0,0,0,0,1.123,6.3,6.3,0,0,1,.053.793,4.122,4.122,0,0,1-.035.638,6.565,6.565,0,0,1-.11.726,5.4,5.4,0,0,0-.092.581,2.786,2.786,0,0,0-.039.471l.007,1.151a2.23,2.23,0,0,0,.025.315,5.255,5.255,0,0,1,.043.638,2.869,2.869,0,0,0,.138,1.006l.032.12a1.8,1.8,0,0,1,.05.453l0,.719.007,1.569h1.559l.475,0a4.634,4.634,0,0,1,.684.05,4.6,4.6,0,0,0,.691.053,6.674,6.674,0,0,0,1.236-.071c.1-.014.216-.025.336-.032l.715-.039c.181-.011.361-.018.524-.043.216-.032.439-.05.687-.064.776-.035,1.548-.078,2.341-.1a9.741,9.741,0,0,0,1.208-.092c.216-.032.432-.057.662-.074l.06,0a1.128,1.128,0,0,1,.294.05,2.713,2.713,0,0,0,.517.064c.149.007.3.011.46.011.351,0,.694,0,1.038.014,1.141.042,2.3.057,3.454.081l1.845.035a3.044,3.044,0,0,1,.535.06,1.365,1.365,0,0,0,.45.007,4.134,4.134,0,0,1,.694-.046l2.71.014v.117h1.559l.475,0a4.634,4.634,0,0,1,.684.05,4.6,4.6,0,0,0,.691.053,6.674,6.674,0,0,0,1.236-.071c.1-.014.216-.025.336-.032l.135-.007a2.173,2.173,0,0,0,.344.035l1.736.028a1.461,1.461,0,0,1,.333.025,3.194,3.194,0,0,0,.673.06l1.318.014,1.768.014,0-.588h0l2.444-.152a.944.944,0,0,0,.28-.046c.05-.018.06-.046-.014-.067a1.61,1.61,0,0,0-.3-.025c-.294,0-.584.011-.875.025a5.1,5.1,0,0,1-.521,0c-.23-.011-.464-.014-.7-.007l-.319.007.007-.882h1.845V74.2c.032.092.06.174.092.273a.679.679,0,0,0,.131.283c.117.12.23.244.347.347.021.021.046-.021.064-.078a1.619,1.619,0,0,0,.06-.368l.014-.478c.007-.22.025-.414.046-.6a4.3,4.3,0,0,0,.035-.446c.014-.322.035-.627.064-.91.043-.319.046-.733.1-1.031l.025-.482c.007-.216.021-.425.043-.613a4.217,4.217,0,0,0,.035-.457l.011-.5a4.579,4.579,0,0,1,.067-.751,4.281,4.281,0,0,0,.032-.46l.007-.669c0-.68.018-1.342.039-2a2.994,2.994,0,0,1,.046-.446,6.852,6.852,0,0,0,.06-.769c.007-.22.011-.45.007-.673,0-.514,0-1.017.014-1.52q.037-2.524.081-5.048l.028-2.7a6.606,6.606,0,0,1,.064-.79c.011-.078.014-.166.018-.251l1.491.014a5.639,5.639,0,0,1,.825.053,2.6,2.6,0,0,0,.414.028l1.537.018,1.856.021.021-1.9.014-1.126a2.978,2.978,0,0,1,.025-.4,3.186,3.186,0,0,0,.043-.528l.014-2.752.014-2.058a3.133,3.133,0,0,1,.05-.524c.011-.085.025-.174.028-.259q.032-1.169,0-2.338a3.441,3.441,0,0,0-.039-.393,2.319,2.319,0,0,1-.035-.393l-.014-.687-.042-2-1.934.028c-.273,0-.545,0-.822,0-.184-.007-.368-.007-.553,0-.684.025-1.367.011-2.058.011h-.7l.007-.684a3.68,3.68,0,0,1,.028-.492,7.747,7.747,0,0,0,.06-.978l.018-2.03a6.206,6.206,0,0,1,.057-.978,3.254,3.254,0,0,0,.025-.5L84.935,29a3.809,3.809,0,0,1,.025-.5c.014-.1.025-.205.032-.315l.117-1.806-2.065-.135c-.106-.011-.216-.014-.329-.014l-3.291-.011-2.469-.014a5.04,5.04,0,0,1-.627-.053,2.912,2.912,0,0,0-.312-.028c-.932-.025-1.863-.021-2.791,0-.17,0-.322.021-.475.039a3.357,3.357,0,0,1-.475.035l-.818.018-2,.032.021,1.938c.007.329.007.659,0,.992-.007.216-.007.439,0,.655.021.822.011,1.644.007,2.465l.011,4.771a5.8,5.8,0,0,0,.05.8l.007.1c-.092,0-.177,0-.266,0l-.684-.007-.549-.007c-1.009,0-2.015,0-3.021.007l-.549-.007a2.847,2.847,0,0,1-.4-.035,2.754,2.754,0,0,0-.4-.035l-1.233.007c-.089,0-.181.014-.262.021a3.783,3.783,0,0,1-.538.035h-.128l.011-.762a3.681,3.681,0,0,1,.028-.492,7.748,7.748,0,0,0,.06-.978l.018-2.03a6.207,6.207,0,0,1,.057-.978,3.253,3.253,0,0,0,.025-.5L61.759,29a3.813,3.813,0,0,1,.025-.5c.014-.1.025-.205.032-.315l.117-1.806-2.065-.135c-.106-.011-.216-.014-.329-.014l-3.291-.011-2.465-.014a5.039,5.039,0,0,1-.631-.053,2.912,2.912,0,0,0-.312-.028c-.932-.025-1.863-.021-2.791,0-.17,0-.322.021-.475.039a3.357,3.357,0,0,1-.475.035l-.818.018-2,.032ZM61.2,62.533l.5-.011a2.534,2.534,0,0,0,.528-.064,1.627,1.627,0,0,1,.322-.025h.932c.4,0,.73.011,1.063.014a1.023,1.023,0,0,1,.209.025,2.376,2.376,0,0,0,.429.043h.662a.752.752,0,0,0,.209-.025c.259-.074.57-.071.836-.131a2.872,2.872,0,0,1,.322-.028l.322-.021a4.045,4.045,0,0,1,.963-.092.966.966,0,0,0,.209-.025,2.543,2.543,0,0,1,.641-.064l.223,0,0,.886H61.193c0-.163,0-.322,0-.485m10.074.142a1.165,1.165,0,0,1,.159.131l.028.018v.195h-.191l0-.34Zm.188-1.516-.195.007-.014-3.585a1.8,1.8,0,0,0-.028-.315,7.438,7.438,0,0,0-.174-.978,2.412,2.412,0,0,1-.071-.6l-.018-1.148a6.117,6.117,0,0,0-.06-.79,3.565,3.565,0,0,1-.025-.482v-.482l.081-.007.5,0ZM69.577,56.7l0,.659a4.036,4.036,0,0,1-.035.475,3.249,3.249,0,0,0-.039.471l.007,1.481c0,.106.014.216.025.315a5.388,5.388,0,0,1,.035.641l0,.489c-1.091.011-2.178.007-3.266,0a1.4,1.4,0,0,1-.326-.021,2.635,2.635,0,0,0-.535-.05c-.592-.007-1.183-.021-1.771-.007-.184,0-.368,0-.553-.007l-.443-.007c-.485,0-.974,0-1.463,0q.037-2.168.071-4.332l.028-2.7a6.607,6.607,0,0,1,.064-.79,2.923,2.923,0,0,0,.007-.659v-.025c.336,0,.669,0,1,.011,1.4.039,2.823.057,4.24.078l2.267.035a5.405,5.405,0,0,1,.666.06h.014v.262c0,1.208,0,2.409,0,3.616m1.782-17.123c0-.085.018-.163.025-.237h.074v.5h-.131a1.363,1.363,0,0,0,.032-.266M89.445,45.29a.3.3,0,0,1,.025-.117c.021-.032.046,0,.071.074a1.305,1.305,0,0,1,.071.344c0,.181.007.358.014.535a3.137,3.137,0,0,1-.05.641c-.014.089-.025.166-.039.248a.529.529,0,0,1-.057.2.917.917,0,0,1-.046-.195c-.007-.266-.011-.535-.018-.808.011-.3.021-.613.028-.921m-.1,5.239c.007-.276.131-.535.2-.51.05.018.1.014.142.071a1.732,1.732,0,0,1,.181.23.818.818,0,0,1,.046.23c.011.131.007.269.007.4a1.563,1.563,0,0,1-.039.351l-.248,1.2-.793-.159a1.434,1.434,0,0,1-.145-.039.345.345,0,0,1-.213-.12.419.419,0,0,1-.035-.244c.014-.057.191-.124.351-.128l.043,0,.524-.014-.011-.492-.007-.262Zm-.354-.159c.018-.064.05-.1.074-.071a.178.178,0,0,1,.028.17c-.018.074-.042.1-.074.06a.331.331,0,0,1-.035-.071.644.644,0,0,1,.007-.089M85.9,39.757l.45.085h-1.36c.124-.025.244-.053.379-.078a1.578,1.578,0,0,1,.531-.007m-2.345-10.35c.011-.337.131-.645.2-.613.05.021.1.018.142.089a1.692,1.692,0,0,1,.181.283,1.135,1.135,0,0,1,.046.276c.011.159.007.329.007.5a2.589,2.589,0,0,1-.074.592.42.42,0,0,1-.12.251.352.352,0,0,1-.244.035c-.057-.014-.124-.234-.128-.429,0-.159-.007-.326-.007-.365Zm-.354-.2c.018-.074.05-.124.078-.085a.3.3,0,0,1,.028.213c-.018.081-.046.11-.078.064a.323.323,0,0,1-.035-.085.888.888,0,0,1,.007-.106m-5.271-1.721a1.924,1.924,0,0,1,.414-.064l.638-.014a4.993,4.993,0,0,1,.776.046l.294.035a.916.916,0,0,1,.241.06,1.4,1.4,0,0,1-.237.046c-.322.007-.641.011-.967.014-.365-.007-.737-.018-1.105-.025a.566.566,0,0,1-.138-.021c-.043-.021,0-.05.085-.078m-6.556,4.229c.028-.181.06-.361.089-.538v1.629c-.028-.149-.057-.294-.081-.453a2.566,2.566,0,0,1-.007-.638M64.3,39.637a1.982,1.982,0,0,0,.262-.028,6.115,6.115,0,0,0,.818-.177,1.721,1.721,0,0,1,.5-.067l.96-.018a3.883,3.883,0,0,0,.659-.064,2.5,2.5,0,0,1,.4-.025c.411,0,.822,0,1.155,0,.191,0,.361.007.531.007l.011.581H61.5c0-.039.007-.078.007-.12l0-.074Zm-3.921-10.23c.011-.337.131-.645.2-.613.05.021.1.018.145.089a1.945,1.945,0,0,1,.177.283,1.135,1.135,0,0,1,.046.276c.007.159.007.329.007.5a2.589,2.589,0,0,1-.074.592.42.42,0,0,1-.12.251.352.352,0,0,1-.244.035c-.057-.014-.124-.234-.128-.429,0-.159-.007-.326-.007-.365Zm-.354-.2c.018-.074.05-.124.078-.085a.3.3,0,0,1,.028.213c-.018.081-.046.11-.078.064a.323.323,0,0,1-.035-.085.886.886,0,0,1,.007-.106M54.75,27.488a1.924,1.924,0,0,1,.414-.064l.641-.014a4.973,4.973,0,0,1,.772.046l.294.035a.852.852,0,0,1,.237.06,1.3,1.3,0,0,1-.234.046c-.319.007-.641.011-.971.014-.361-.007-.733-.018-1.1-.025a.566.566,0,0,1-.138-.021c-.043-.021,0-.05.085-.078m-6.556,4.229c.028-.181.06-.361.089-.538v1.629c-.028-.149-.057-.294-.081-.453a2.748,2.748,0,0,1-.007-.638m-.978,37.408c.043-.106.089-.138.138-.149.032-.007.064.035.1.039.071.007.128-.149.135-.379,0-.11.007-.22.011-.326a5.337,5.337,0,0,1,.142-1.2c.06-.269.131-.5.191-.758a1.974,1.974,0,0,0,.046-.457l0-.659a7.077,7.077,0,0,1,.089-1.257,1.792,1.792,0,0,0,.025-.319l.011-.985-.021-5.1a1.8,1.8,0,0,0-.028-.315,7.437,7.437,0,0,0-.174-.978,2.413,2.413,0,0,1-.071-.6l-.018-1.148a6.113,6.113,0,0,0-.06-.79,3.564,3.564,0,0,1-.025-.482V51.889c0-.592.011-1.084.014-1.58,0-.106.011-.213.021-.312a5.3,5.3,0,0,0,.043-.638v-.985a1.725,1.725,0,0,0-.025-.315c-.067-.383-.067-.847-.128-1.24a4.039,4.039,0,0,1-.028-.478l-.021-.482a8.443,8.443,0,0,1-.1-1.431,2.188,2.188,0,0,0-.025-.315,5.452,5.452,0,0,1-.057-.949v-.333A6.321,6.321,0,0,1,47.51,41.6a.821.821,0,0,1,.035-.12l.039-.089a1.913,1.913,0,0,0,.205-.68.972.972,0,0,1,.1-.333c.064-.1.117-.223.177-.312a.951.951,0,0,0,.113-.489,3.263,3.263,0,0,1,.1-.638v35.6h2.6l.046.652a.474.474,0,0,0,.039.181c.018.025.043.025.064-.028a.9.9,0,0,0,.032-.216c.007-.2,0-.39-.014-.588h.939l-.053.025a.653.653,0,0,0-.234.135c-.124.113-.244.234-.354.347-.018.021,0,.05.039.06a.591.591,0,0,0,.23.06l.319.021a3.006,3.006,0,0,1,.393.046c.092.014.191.028.294.035a4.882,4.882,0,0,1,.6.067c.209.043.489.046.68.1.106.007.213.018.322.025a2.748,2.748,0,0,1,.407.046c.05.011.113.014.177.021-1.2.032-2.4.064-3.6.081a5.464,5.464,0,0,1-.85-.05,2.387,2.387,0,0,0-.5,0,4.711,4.711,0,0,1-.655.067c-.319.011-.623.032-.924.064l-1,.106-.142-1.254-.011-.085a1.371,1.371,0,0,1,0-.319,6.965,6.965,0,0,0,.057-.793l.021-.981a2.865,2.865,0,0,1,.081-.581,2.806,2.806,0,0,1,.113-.333,2.923,2.923,0,0,0,.11-.315.923.923,0,0,0,0-.57c-.057-.205-.1-.259-.174-.163a.562.562,0,0,0-.046.078c-.053.092-.074.078-.124-.06a1.163,1.163,0,0,1-.053-.269,2.507,2.507,0,0,1,.1-1.024" transform="translate(117.659 66.375)" fill="#99003f"/>
      <path id="Caminho_51" data-name="Caminho 51" d="M40.506,102.975c.159.014.3.025.422.028l.393.011a6.374,6.374,0,0,1,.754.05l1.059.128c.2,0,.4.011.588,0s.354-.043.538-.057a4.513,4.513,0,0,0,.673-.1l.553-.142c.266-.067.57-.124.893-.174h1.973l.9.117c.177.021.333.053.482.085a4.733,4.733,0,0,1,1.013.3,1.953,1.953,0,0,0,.414.1c.234.039.5.067.762.092l.616.06.081-.758.067-.669v-.592c-.067-.457-.064-1.013-.124-1.484a4.018,4.018,0,0,1-.039-.563V95.654a7.516,7.516,0,0,1,.05-.953c.014-.12.018-.248.021-.383l.021-1.378c0-.128.014-.255.028-.375l.124-1.066a3.35,3.35,0,0,0,.028-.375,11.022,11.022,0,0,1,.117-1.484,12.189,12.189,0,0,0,.092-1.516l.007-1.381L53,78.648a9.129,9.129,0,0,0-.05-.956c-.014-.113-.021-.248-.025-.375-.028-.985-.035-1.969-.011-2.954,0-.128.014-.262.028-.379a7.071,7.071,0,0,0,.06-.935l-.011-2.175c0-.2-.018-.379-.032-.57s-.032-.379-.032-.57l0-1.576a4.644,4.644,0,0,1,.039-.567l.1-.9a5.575,5.575,0,0,0,.046-.563c.018-.85.021-1.707.018-2.561,0-.266.011-.521.035-.772.018-.184.028-.375.032-.57l.014-1.381a6.584,6.584,0,0,1,.06-.942c.014-.12.021-.244.025-.379l.014-1.183a7.341,7.341,0,0,1,.053-.758c.014-.117.025-.244.028-.372l.007-1.183c0-.6.011-1.183.025-1.775,0-.2.025-.375.039-.563s.032-.379.035-.57c.014-.4.035-.765.074-1.137.046-.418.05-.9.117-1.293l.021-.584c.007-.195.007-.4.028-.574.05-.358.057-.751.071-1.141.007-.191.021-.386.043-.563.025-.241.043-.489.046-.754l.021-.786q.011-.191.032-.372A9.787,9.787,0,0,0,54,44.58l-.028-2.125-2.047.053c-.3.007-.6.011-.907.018-.067,0-.138.014-.2.021a9.258,9.258,0,0,1-1.073.064c-.3,0-.6.011-.893.025a2.23,2.23,0,0,0-.691.12,2.537,2.537,0,0,0-.241.138,2.3,2.3,0,0,1-.723.184c-.191.025-.386.046-.577.071-.411.042-.747.106-1.144.152s-.854.039-1.275.067a2.1,2.1,0,0,0-.638.12.835.835,0,0,0-.124.081.762.762,0,0,1-.131.085,1.015,1.015,0,0,1-.216.074c-.468.113-.662.248-1.087.351a5.83,5.83,0,0,0-.673.188c-.085.032-.17.064-.184.1a.151.151,0,0,1-.06.1,1.6,1.6,0,0,1-.163.106h-.414v56.652l-.014.085-.106.414a9.336,9.336,0,0,0-.138.985l-.021.23ZM52.018,85.538A10.213,10.213,0,0,1,52.1,84.22a11.967,11.967,0,0,0,.135-1.668c0-.188.035-.365.046-.556l.021-.581c.007-.2-.035-.29-.092-.191-.032.057-.06.092-.1.1s-.092-.184-.078-.379c.035-.443.089-.843.145-1.24a4.294,4.294,0,0,0,.028-.574,7.036,7.036,0,0,0-.046-.956,1.465,1.465,0,0,1,.007-.372l.043-.361c.011-.135.028-.255.057-.251s.064.1.085.205a2.549,2.549,0,0,1,.053.322,5.135,5.135,0,0,0,.237,1.233,1.913,1.913,0,0,1,.05.521,4.452,4.452,0,0,1-.018.581c-.032.3-.057.613-.06.949L52.6,82.18c0,.195,0,.407-.025.581-.057.556-.06,1.151-.081,1.736-.007.195-.028.379-.042.563-.007.128-.018.259-.021.386l-.007,2.565-.014,1.973a3.134,3.134,0,0,1-.025.375,6.9,6.9,0,0,0-.067.935L52.3,92.675a6.1,6.1,0,0,1-.057.747l-.018.177c-.011.131-.028.276-.06.294s-.046-.128-.057-.266c-.014-.251-.018-.517-.046-.758a6.341,6.341,0,0,1-.05-.758c-.014-.655-.011-1.314.007-1.969,0-.128.018-.251.028-.375l.021-.177a6.237,6.237,0,0,0,.007-1.335,10.655,10.655,0,0,1-.071-1.141v-.953l.007-.623" transform="translate(102.259 107.926)" fill="#99003f"/>
      <path id="Caminho_52" data-name="Caminho 52" d="M10.886,74.531h.7l.074.018.344.106a7.019,7.019,0,0,0,1.165.166l.326.007a4.924,4.924,0,0,1,.627.053l.882.131c.159,0,.329.007.485,0s.294-.043.45-.06a2.853,2.853,0,0,0,.556-.1l.46-.142c.22-.067.475-.124.74-.177h1.626c.251.046.5.089.762.12a2.934,2.934,0,0,1,.4.085,3.381,3.381,0,0,1,.843.3,1.408,1.408,0,0,0,.34.1c.2.043.414.071.634.1l.6.067.1-.772c.025-.181.046-.365.071-.553v-.492c-.071-.379-.067-.843-.128-1.233a3.158,3.158,0,0,1-.039-.468V68.668a5.713,5.713,0,0,1,.05-.793,2.28,2.28,0,0,0,.021-.315L23,66.412a2.911,2.911,0,0,1,.028-.312l.124-.889a2.164,2.164,0,0,0,.028-.3,8.1,8.1,0,0,1,.117-1.236,8.4,8.4,0,0,0,.1-1.261l.007-1.144-.021-6.723a5.714,5.714,0,0,0-.05-.793,2.848,2.848,0,0,1-.025-.315c-.025-.815-.032-1.636-.011-2.451a2.752,2.752,0,0,1,.028-.312,4.561,4.561,0,0,0,.06-.783l-.011-1.8c0-.166-.018-.315-.032-.471s-.032-.319-.032-.478l0-1.311a3.241,3.241,0,0,1,.039-.468c.032-.248.067-.5.1-.747a3.811,3.811,0,0,0,.046-.464c.018-.708.021-1.417.018-2.129a6.306,6.306,0,0,1,.035-.641,4.16,4.16,0,0,0,.032-.475l.014-1.148a4.589,4.589,0,0,1,.06-.783,2.148,2.148,0,0,0,.025-.315l.018-.981a5.84,5.84,0,0,1,.05-.627,2.91,2.91,0,0,0,.028-.312l.007-.981c0-.5.011-.985.025-1.474,0-.17.028-.315.043-.471s.028-.312.035-.475c.011-.326.032-.634.071-.942.05-.347.053-.744.117-1.073l.021-.485c.007-.163.007-.329.028-.475a7.427,7.427,0,0,0,.071-.949c.007-.159.021-.322.043-.468a5,5,0,0,0,.05-.63l0-.135.043-1.923-2.019-.05-.584-.018c-.117,0-.237-.014-.347-.028a12.343,12.343,0,0,0-2.015-.007,1.225,1.225,0,0,0-.17.025,5.324,5.324,0,0,1-.886.067q-.377.011-.744.032A1.582,1.582,0,0,0,17,26.4c-.089.043-.106.1-.181.138a1.465,1.465,0,0,1-.577.181c-.166.021-.308.057-.471.074-.34.039-.609.1-.935.145s-.7.039-1.052.064a1.3,1.3,0,0,0-.514.117.256.256,0,0,0-.092.078.439.439,0,0,1-.1.078.826.826,0,0,1-.166.074c-.375.106-.517.237-.857.337a3.986,3.986,0,0,0-.531.181c-.067.032-.131.064-.138.1a.156.156,0,0,1-.032.106,1.147,1.147,0,0,1-.12.1h-.344ZM22.4,60.263a6.715,6.715,0,0,1,.089-1.095,8.673,8.673,0,0,0,.131-1.381c0-.156.039-.3.05-.464l.021-.485c0-.163-.039-.237-.1-.156-.028.046-.06.078-.092.081-.053.011-.1-.152-.081-.315.035-.368.089-.7.145-1.027a3,3,0,0,0,.028-.475,4.916,4.916,0,0,0-.046-.8,1.1,1.1,0,0,1,.007-.3l.043-.3c.011-.113.032-.213.06-.209s.06.081.081.17a1.957,1.957,0,0,1,.053.266,3.7,3.7,0,0,0,.237,1.024,1.351,1.351,0,0,1,.053.436,3.575,3.575,0,0,1-.021.482,6.818,6.818,0,0,0-.06.79l-.018.978c0,.163,0,.34-.021.485-.06.46-.064.953-.085,1.442-.007.159-.028.312-.039.468a3.073,3.073,0,0,0-.021.319l-.007,2.129-.014,1.64a2.123,2.123,0,0,1-.028.312,4.8,4.8,0,0,0-.067.779l-.011,1.144a4.181,4.181,0,0,1-.06.62l-.018.149c-.011.11-.028.227-.06.244s-.046-.106-.053-.22c-.018-.209-.018-.432-.05-.627a4.511,4.511,0,0,1-.05-.634c-.011-.545-.007-1.091.007-1.636,0-.1.018-.209.028-.312l.021-.149a4.125,4.125,0,0,0,.007-1.105,7.437,7.437,0,0,1-.067-.949V60.78c0-.021,0-.244,0-.517" transform="translate(27.673 66.386)" fill="#99003f"/>
      <path id="Caminho_53" data-name="Caminho 53" d="M43.8,66.79c.17.018.329.028.45.035l.393.007c.266.007.514.021.751.05l1.059.135c.195,0,.4.007.584,0s.354-.043.538-.06a4.95,4.95,0,0,0,.666-.1l.553-.142a9.042,9.042,0,0,1,.893-.177h1.966c.3.043.6.078.9.12.177.018.333.053.482.081a4.824,4.824,0,0,1,1.01.3,1.914,1.914,0,0,0,.411.1c.234.039.5.067.758.1l.62.06.078-.762.071-.666v-.588c-.067-.46-.067-1.013-.124-1.484a3.892,3.892,0,0,1-.039-.56V59.5a8.2,8.2,0,0,1,.05-.953c.011-.124.018-.248.018-.383l.021-1.374c0-.128.014-.255.028-.375l.128-1.063c.011-.12.025-.251.025-.375a11.04,11.04,0,0,1,.12-1.481,12.729,12.729,0,0,0,.1-1.512l.007-1.374-.021-8.072a8.176,8.176,0,0,0-.05-.949c-.014-.117-.025-.248-.028-.379q-.042-1.472-.011-2.947c0-.128.014-.259.028-.372.011-.071.014-.138.021-.209L78.569,59.989v6.546h.659l.074.018.344.106a7.18,7.18,0,0,0,1.169.166l.329.007a5.834,5.834,0,0,1,.63.05l.882.135c.163,0,.333.007.489,0s.3-.043.45-.06a3.555,3.555,0,0,0,.56-.1l.46-.142a6.277,6.277,0,0,1,.747-.177h1.629c.252.046.5.085.762.12a3.691,3.691,0,0,1,.4.081,3.528,3.528,0,0,1,.843.3,1.463,1.463,0,0,0,.347.1c.195.039.414.067.63.1l.6.071.1-.772c.021-.184.046-.368.071-.556v-.492c-.067-.379-.064-.847-.128-1.24a2.773,2.773,0,0,1-.039-.468V60.652a5.729,5.729,0,0,1,.05-.8,2.294,2.294,0,0,0,.021-.319l.021-1.151c0-.1.014-.213.025-.312l.131-.893a2.191,2.191,0,0,0,.021-.312,7.637,7.637,0,0,1,.124-1.233,9.61,9.61,0,0,0,.092-1.265l.007-1.151-.021-6.748a5.731,5.731,0,0,0-.05-.8,2.877,2.877,0,0,1-.021-.315c-.032-.818-.035-1.644-.011-2.462A2.231,2.231,0,0,1,91,42.583a4.912,4.912,0,0,0,.06-.783l-.011-1.806c0-.17-.021-.319-.035-.478s-.028-.315-.028-.478l0-1.314a3.863,3.863,0,0,1,.035-.471c.035-.248.071-.5.1-.751a3.222,3.222,0,0,0,.043-.464c.021-.712.025-1.424.021-2.136a6.373,6.373,0,0,1,.035-.645c.018-.152.028-.315.032-.475l.014-1.151a5.453,5.453,0,0,1,.06-.786,2.19,2.19,0,0,0,.025-.315l.018-.988a5.769,5.769,0,0,1,.05-.627,2.307,2.307,0,0,0,.025-.312l.007-.988c0-.5.014-.988.028-1.477,0-.166.028-.315.043-.471s.028-.315.035-.475c.011-.333.032-.641.071-.949.046-.347.053-.747.113-1.077l.025-.485a4.2,4.2,0,0,1,.028-.482,8.126,8.126,0,0,0,.071-.949c.007-.159.021-.322.039-.468a5.156,5.156,0,0,0,.053-.634l0-.177L92,18.047l-2.026-.053-.535-.014c-.12,0-.237-.014-.351-.028a12.043,12.043,0,0,0-2.023-.007c-.057,0-.113.014-.17.021a6.29,6.29,0,0,1-.893.071c-.244,0-.5.014-.744.032a1.625,1.625,0,0,0-.563.124c-.085.043-.106.092-.181.135a1.358,1.358,0,0,1-.581.181c-.166.021-.308.057-.471.078-.34.035-.613.1-.939.145s-.708.035-1.056.06a1.354,1.354,0,0,0-.514.12c-.053.021-.064.05-.1.078a.372.372,0,0,1-.1.078.826.826,0,0,1-.166.074c-.375.106-.521.237-.861.336a3.8,3.8,0,0,0-.538.181c-.064.032-.131.064-.135.1a.185.185,0,0,1-.032.1.891.891,0,0,1-.124.106h-.34V42.3l-4.6-4.58a5.713,5.713,0,0,0-.6-.524c-.078-.064-.163-.135-.241-.209-.6-.56-1.183-1.133-1.753-1.732a3.008,3.008,0,0,1-.2-.244,4.8,4.8,0,0,0-.514-.6l-1.286-1.272a3.669,3.669,0,0,0-.361-.312c-.12-.1-.244-.2-.358-.315l-.932-.928a4.644,4.644,0,0,1-.308-.361c-.152-.2-.3-.4-.457-.6a3.363,3.363,0,0,0-.3-.358c-.485-.517-.988-1.027-1.491-1.527-.156-.156-.3-.315-.432-.478-.1-.12-.2-.244-.312-.358l-.808-.825a4.643,4.643,0,0,1-.514-.6,2.4,2.4,0,0,0-.2-.237l-.687-.708a5.6,5.6,0,0,1-.411-.482,2.1,2.1,0,0,0-.2-.237l-.694-.7c-.347-.347-.687-.7-1.024-1.063-.117-.124-.2-.244-.3-.365s-.2-.241-.312-.361c-.223-.241-.429-.475-.616-.723-.213-.276-.492-.563-.684-.839l-.326-.361a4.238,4.238,0,0,1-.319-.361,8.14,8.14,0,0,0-.623-.719c0-.372.007-.74.018-1.109,0-.2.025-.375.042-.563s.025-.375.032-.57c.011-.393.035-.765.074-1.13.042-.418.05-.9.113-1.293L57,14.073c.007-.191.007-.4.032-.574.046-.354.053-.751.067-1.137.007-.195.021-.383.043-.56.028-.244.046-.489.053-.754l.014-.783c.007-.128.018-.251.032-.368a9.948,9.948,0,0,0,.057-1.3l-.028-2.125-2.051.05-.939.021c-.067,0-.138.014-.2.021a9.256,9.256,0,0,1-1.073.064c-.294,0-.6.011-.889.025a2.2,2.2,0,0,0-.687.12,2.539,2.539,0,0,0-.241.138,2.327,2.327,0,0,1-.719.184c-.195.021-.386.046-.577.074-.411.039-.747.106-1.141.149s-.85.039-1.275.067a2.071,2.071,0,0,0-.631.12.536.536,0,0,0-.124.081.8.8,0,0,1-.135.085.94.94,0,0,1-.209.074c-.471.11-.662.248-1.087.351a5.752,5.752,0,0,0-.669.188c-.089.032-.17.064-.184.1a.166.166,0,0,1-.06.1,1.113,1.113,0,0,1-.166.106H43.8v56.5l-.018.081-.106.414a9.037,9.037,0,0,0-.131.949l-.025.23ZM55.977,43.936a8.784,8.784,0,0,0-.06.946L55.9,46.058c0,.195,0,.407-.021.581-.06.553-.064,1.148-.085,1.729-.007.191-.028.372-.043.563-.007.124-.018.251-.018.383l-.007,2.557-.014,1.966a3.084,3.084,0,0,1-.025.375,6.871,6.871,0,0,0-.071.932L55.6,56.522a5.4,5.4,0,0,1-.053.744l-.021.177c-.011.138-.025.276-.06.294s-.043-.128-.05-.262c-.018-.251-.018-.517-.053-.758a7.035,7.035,0,0,1-.05-.754c-.014-.655-.011-1.311.011-1.962,0-.128.018-.255.028-.375l.018-.177a5.585,5.585,0,0,0,.007-1.332,10.61,10.61,0,0,1-.067-1.137v-.949c0-.032,0-.3,0-.623a10.18,10.18,0,0,1,.089-1.314,13.043,13.043,0,0,0,.135-1.665c0-.184.035-.361.046-.553l.021-.581c0-.2-.035-.29-.092-.191-.032.057-.064.092-.092.1-.057.011-.1-.181-.085-.379.035-.439.092-.836.145-1.236a4.177,4.177,0,0,0,.032-.567,7.542,7.542,0,0,0-.05-.956,1.463,1.463,0,0,1,.011-.372l.039-.358c.014-.135.032-.259.064-.255s.057.1.078.205a2.765,2.765,0,0,1,.057.322,5.192,5.192,0,0,0,.234,1.226,1.805,1.805,0,0,1,.057.524,5.214,5.214,0,0,1-.021.581m34.1,8.278a7.141,7.141,0,0,1,.089-1.1,9.2,9.2,0,0,0,.131-1.389c0-.156.035-.3.05-.464l.021-.485c0-.166-.039-.241-.1-.159a.171.171,0,0,1-.092.085c-.057.007-.1-.156-.081-.319.032-.372.089-.7.145-1.034a2.974,2.974,0,0,0,.028-.475,5.862,5.862,0,0,0-.046-.8.986.986,0,0,1,.011-.3c.014-.106.021-.205.035-.3s.035-.216.064-.213.06.085.078.174a1.954,1.954,0,0,1,.057.266,3.876,3.876,0,0,0,.234,1.027,1.258,1.258,0,0,1,.057.439,3.574,3.574,0,0,1-.021.482,6.185,6.185,0,0,0-.057.79l-.021.985c0,.163,0,.34-.021.485-.064.464-.064.96-.085,1.449-.007.159-.028.312-.039.471a3.065,3.065,0,0,0-.021.315l-.011,2.139-.014,1.644a1.778,1.778,0,0,1-.025.315,5.226,5.226,0,0,0-.067.776l-.014,1.155a3.727,3.727,0,0,1-.057.62l-.021.149c-.007.113-.025.234-.057.248s-.046-.11-.053-.22c-.018-.209-.018-.436-.053-.634a5.785,5.785,0,0,1-.046-.63c-.011-.549-.011-1.1.011-1.644,0-.1.018-.209.025-.312l.021-.149a4.179,4.179,0,0,0,.007-1.112,7.438,7.438,0,0,1-.067-.949v-.8c0-.025,0-.248,0-.521M72.77,37.437a1.412,1.412,0,0,1,.227.152,3.747,3.747,0,0,0,.893.556,1.433,1.433,0,0,1,.351.273,4.373,4.373,0,0,1,.326.358,7.716,7.716,0,0,0,.514.6l.687.712a4.2,4.2,0,0,1,.322.358c.29.368.638.723.967,1.08.106.117.2.244.3.365.064.078.135.163.209.237l1,1v.57c-.106-.1-.209-.188-.312-.287-.113-.12-.234-.234-.56-.563-.021-.021-.177-.177-.368-.372a7.51,7.51,0,0,1-.712-.836,8.724,8.724,0,0,0-.889-1.08c-.106-.11-.191-.244-.294-.361l-.329-.358c-.113-.12-.195-.145-.181-.046.011.057.014.1-.007.124-.028.046-.174-.042-.28-.166-.237-.283-.432-.56-.627-.832a3.676,3.676,0,0,0-.315-.358,5.857,5.857,0,0,0-.6-.531,1,1,0,0,1-.213-.227l-.188-.241c-.067-.085-.128-.174-.106-.191s.106.014.181.064" transform="translate(110.64 16.443)" fill="#99003f"/>
      <path id="Caminho_54" data-name="Caminho 54" d="M34.349,40.381c.145.025.287.05.436.071h.383c.3-.067.659-.067.963-.128a1.7,1.7,0,0,1,.365-.039h2.433a3.488,3.488,0,0,1,.62.05,1.376,1.376,0,0,0,.248.021l.893.021a1.775,1.775,0,0,1,.244.028c.23.039.464.085.694.128a1.789,1.789,0,0,0,.241.025,4.644,4.644,0,0,1,.96.12,5.845,5.845,0,0,0,.985.092l.9.007,5.249-.021a3.819,3.819,0,0,0,.616-.046,1.83,1.83,0,0,1,.248-.028c.638-.028,1.275-.032,1.916-.011a1.841,1.841,0,0,1,.244.028,2.985,2.985,0,0,0,.609.06L55,40.749c.131,0,.248-.021.368-.032a3.292,3.292,0,0,1,.372-.032l1.024,0a2.059,2.059,0,0,1,.368.039c.1.014.205.035.308.053V74.531h.7l.071.018.344.11a7.15,7.15,0,0,0,1.169.163l.322.007a5.039,5.039,0,0,1,.631.053l.878.131c.163,0,.333.007.485,0s.3-.043.45-.057a3.124,3.124,0,0,0,.556-.1l.46-.142c.22-.067.475-.124.744-.177h1.622c.251.046.5.089.762.124a2.953,2.953,0,0,1,.4.081,3.328,3.328,0,0,1,.843.3,1.255,1.255,0,0,0,.344.1c.195.043.411.071.631.1l.6.067.1-.772c.025-.181.046-.365.071-.553v-.489c-.071-.383-.067-.847-.124-1.236a2.729,2.729,0,0,1-.042-.468V68.668a5.125,5.125,0,0,1,.053-.79,3.15,3.15,0,0,0,.021-.319l.018-1.148a2.765,2.765,0,0,1,.028-.308l.124-.889a2.266,2.266,0,0,0,.028-.308,8.1,8.1,0,0,1,.117-1.236,8.349,8.349,0,0,0,.1-1.257l.007-1.148-.018-6.723a5.741,5.741,0,0,0-.053-.793,2.841,2.841,0,0,1-.025-.315c-.025-.815-.032-1.636-.011-2.451a2.751,2.751,0,0,1,.028-.312,4.9,4.9,0,0,0,.064-.783l-.011-1.8c0-.17-.021-.319-.035-.475s-.032-.319-.032-.478l0-1.311a3.241,3.241,0,0,1,.039-.468c.035-.248.067-.5.1-.747a3.816,3.816,0,0,0,.046-.464q.027-1.063.021-2.129a5.425,5.425,0,0,1,.035-.641c.018-.152.028-.315.032-.475l.011-1.148a4.589,4.589,0,0,1,.06-.783,2.121,2.121,0,0,0,.028-.312l.014-.985a5.836,5.836,0,0,1,.05-.627,2.926,2.926,0,0,0,.028-.308l.007-.985c0-.492.011-.985.025-1.474.007-.17.028-.315.043-.471s.032-.312.035-.471a8.973,8.973,0,0,1,.074-.946c.046-.347.05-.744.113-1.073l.021-.482a4.063,4.063,0,0,1,.032-.478,8.144,8.144,0,0,0,.067-.949c.007-.159.021-.322.042-.468a4.993,4.993,0,0,0,.05-.627l0-.135.042-1.923-2.019-.053-.581-.018c-.12,0-.237-.014-.351-.028a12.341,12.341,0,0,0-2.015-.007,1.255,1.255,0,0,0-.166.025,5.8,5.8,0,0,1-.889.071c-.248.007-.5.014-.74.028a1.518,1.518,0,0,0-.563.128c-.089.039-.106.092-.181.135a1.465,1.465,0,0,1-.577.181c-.166.021-.3.057-.471.074-.34.039-.609.1-.935.145s-.7.039-1.052.064a1.3,1.3,0,0,0-.514.117.344.344,0,0,0-.092.078.58.58,0,0,1-.1.081.975.975,0,0,1-.166.071c-.375.106-.517.241-.857.337a3.8,3.8,0,0,0-.531.184c-.067.028-.131.06-.135.1a.182.182,0,0,1-.035.106c-.032.035-.078.071-.117.106H57.44v.089H34.349v3.046l-.014.057c-.035.089-.071.184-.106.269a4.7,4.7,0,0,0-.166.91l-.011.255A2.726,2.726,0,0,1,34,33.3l-.128.684c0,.128-.011.259,0,.383s.043.23.06.347a1.8,1.8,0,0,0,.1.436l.142.361a3.967,3.967,0,0,1,.174.577v1.268c-.039.195-.081.393-.117.6a2.2,2.2,0,0,1-.085.312,2.156,2.156,0,0,1-.3.659.9.9,0,0,0-.1.269,4.042,4.042,0,0,0-.1.492l-.085.574Zm16.421-.262a1.576,1.576,0,0,1-.205.053,2.41,2.41,0,0,0-.8.237.835.835,0,0,1-.34.053,2.184,2.184,0,0,1-.375-.021,4.233,4.233,0,0,0-.613-.057l-.769-.021a3.114,3.114,0,0,1-.375-.021c-.361-.06-.747-.06-1.126-.085-.124-.007-.241-.028-.365-.043-.081-.007-.166-.018-.248-.018l-1.665-.011-1.279-.014a1.328,1.328,0,0,1-.244-.025,3.235,3.235,0,0,0-.606-.067l-.9-.014a2.274,2.274,0,0,1-.482-.057c-.039-.007-.078-.014-.12-.018-.085-.011-.177-.025-.188-.06s.081-.046.17-.053c.163-.018.336-.018.492-.05a3.048,3.048,0,0,1,.492-.05c.425-.011.854-.011,1.275.011.085,0,.166.018.244.028a1.152,1.152,0,0,0,.117.018,2.531,2.531,0,0,0,.864.007,4.566,4.566,0,0,1,.74-.067h.616c.021,0,.195,0,.407,0a4.679,4.679,0,0,1,.854.085,5.33,5.33,0,0,0,1.08.135c.12,0,.237.035.361.05s.251.014.375.021.191-.039.124-.092a.169.169,0,0,1-.064-.1c-.007-.053.12-.1.248-.081.287.035.546.089.8.145a1.615,1.615,0,0,0,.372.032,3.246,3.246,0,0,0,.623-.05.6.6,0,0,1,.237.011c.081.014.159.025.237.039s.166.028.163.06-.064.06-.135.081M69.614,55.708a6.157,6.157,0,0,0-.064.79l-.014.978a4.231,4.231,0,0,1-.025.485c-.06.464-.064.953-.085,1.442-.007.159-.028.312-.039.468-.007.1-.018.209-.021.319l-.007,2.129-.014,1.64a1.727,1.727,0,0,1-.028.312,4.8,4.8,0,0,0-.067.779l-.011,1.144a4.194,4.194,0,0,1-.057.62l-.021.149c-.011.11-.028.227-.06.244s-.043-.106-.053-.216c-.014-.213-.018-.432-.05-.63a4.014,4.014,0,0,1-.046-.634c-.014-.545-.011-1.087,0-1.636,0-.1.018-.205.028-.312L69,63.628a3.985,3.985,0,0,0,.007-1.105,7.438,7.438,0,0,1-.067-.949v-.79l.007-.521a6.649,6.649,0,0,1,.085-1.091,9.183,9.183,0,0,0,.135-1.385c0-.156.035-.3.046-.464l.021-.485c.007-.163-.035-.237-.1-.156-.032.046-.057.078-.092.081-.053.011-.1-.152-.081-.315.035-.368.092-.7.145-1.027a3,3,0,0,0,.028-.475,4.848,4.848,0,0,0-.046-.8,1.287,1.287,0,0,1,.007-.308l.043-.3c.011-.113.032-.213.06-.209s.06.085.081.17a1.944,1.944,0,0,1,.057.266,3.712,3.712,0,0,0,.234,1.024,1.271,1.271,0,0,1,.053.436,3.079,3.079,0,0,1-.018.482" transform="translate(85.328 66.386)" fill="#99003f"/>
      <path id="Caminho_55" data-name="Caminho 55" d="M17.935,38.833c.184.025.368.046.556.071h.489c.383-.067.843-.067,1.236-.128a2.743,2.743,0,0,1,.468-.039H23.8a5.678,5.678,0,0,1,.793.05,2.3,2.3,0,0,0,.319.021l1.144.021a2.913,2.913,0,0,1,.312.028l.886.128a3,3,0,0,0,.312.021,7.966,7.966,0,0,1,1.229.124,9.506,9.506,0,0,0,1.261.092l1.148.007,6.719-.021a5.714,5.714,0,0,0,.793-.05c.1-.011.205-.021.315-.025q1.222-.042,2.455-.011a2.764,2.764,0,0,1,.308.028,4.946,4.946,0,0,0,.783.06l1.141-.007L21.466,61.453l-.418-.089a13.024,13.024,0,0,0-1.636-.166l-.457-.011c-.312,0-.606-.021-.882-.05l-.057-.007L17.7,61.1l-.043.39-.124,1.176c0,.23-.007.468,0,.687s.043.411.06.623a5.456,5.456,0,0,0,.1.783l.142.645c.067.312.124.669.177,1.045v2.3c-.043.351-.081.694-.12,1.052-.021.205-.053.386-.085.56a6,6,0,0,1-.3,1.18,2.566,2.566,0,0,0-.1.482c-.043.273-.071.577-.1.886l-.053.634.754.064.776.074h.687c.535-.071,1.183-.067,1.732-.128a5.383,5.383,0,0,1,.655-.039h4.371c.39,0,.765.014,1.116.046a4.435,4.435,0,0,0,.446.021l1.6.021c.149,0,.3.014.436.028l1.247.128c.138.011.29.025.436.025a14.991,14.991,0,0,1,1.729.12,16.442,16.442,0,0,0,1.764.092l1.612.007,9.429-.018c.39,0,.758-.014,1.112-.05.138-.014.29-.025.439-.028q1.721-.042,3.443-.011c.149,0,.3.014.439.028a8.838,8.838,0,0,0,1.095.064l2.529-.011c.237,0,.443-.021.662-.035s.446-.032.669-.032l1.838,0a6.4,6.4,0,0,1,.659.039c.347.035.7.067,1.045.1a6.274,6.274,0,0,0,.652.046c.992.021,1.991.025,2.986.021.312,0,.606.011.9.032.213.018.443.028.669.032l1.608.014a9.769,9.769,0,0,1,1.1.064,4.143,4.143,0,0,0,.439.025l1.374.014c.312,0,.6.025.882.05.138.014.29.025.436.028l1.378.007c.694,0,1.381.014,2.065.028.237,0,.443.025.659.039s.443.028.666.035c.46.011.893.035,1.325.074.485.043,1.041.05,1.505.113l.68.025c.227.007.464,0,.669.028.418.046.875.053,1.332.067.223.007.446.025.652.043.283.028.574.046.882.05l.917.021c.145,0,.294.014.429.028a19.35,19.35,0,0,0,2.487.035,1.988,1.988,0,0,0,.209-.018,7.081,7.081,0,0,1,.744-.05l2-.043L89.62,72.9c0-.135,0-.269,0-.411,0-.344,0-.694-.014-1.031a3.047,3.047,0,0,0-.113-.822c-.043-.135-.1-.177-.138-.294a2.932,2.932,0,0,1-.181-.861c-.025-.227-.05-.457-.074-.68-.039-.485-.106-.886-.152-1.353s-.039-1-.067-1.491a2.934,2.934,0,0,0-.124-.758,1.016,1.016,0,0,0-.089-.156,1.8,1.8,0,0,1-.085-.166,2.142,2.142,0,0,1-.078-.259c-.113-.56-.255-.808-.361-1.314-.064-.308-.124-.6-.191-.815-.035-.1-.064-.205-.1-.227a.231.231,0,0,1-.106-.085c-.039-.064-.074-.142-.11-.213v-.478H39.124l4.339-4.364A6.138,6.138,0,0,0,44,56.505a2.231,2.231,0,0,1,.213-.244c.581-.62,1.176-1.222,1.792-1.806.078-.078.166-.149.244-.213a5.107,5.107,0,0,0,.616-.524l1.314-1.328c.124-.124.216-.248.322-.375s.209-.248.326-.368l.96-.963a3.245,3.245,0,0,1,.368-.312l.62-.478a4.044,4.044,0,0,0,.368-.308q.8-.76,1.576-1.544a5.774,5.774,0,0,1,.492-.446c.124-.1.251-.209.368-.322l.85-.832a5.212,5.212,0,0,1,.62-.531,1.869,1.869,0,0,0,.244-.213l.733-.708a5.313,5.313,0,0,1,.5-.422,2.686,2.686,0,0,0,.244-.213l.726-.712c.361-.361.73-.712,1.1-1.063.128-.117.248-.209.372-.315s.251-.205.372-.319c.248-.234.492-.443.744-.638.287-.223.581-.514.868-.7l.372-.344a4.475,4.475,0,0,1,.368-.329l.011-.011a3.363,3.363,0,0,1,.393.028,8.011,8.011,0,0,0,.946.071c.159.007.319.025.468.039a5.824,5.824,0,0,0,.627.053l.131,0,1.923.042.053-2.023.018-.584c0-.12.014-.237.028-.347a12.386,12.386,0,0,0,.007-2.019c0-.057-.014-.113-.021-.163a6.354,6.354,0,0,1-.074-.889c0-.251-.014-.5-.032-.74a1.643,1.643,0,0,0-.12-.567c-.046-.085-.092-.1-.138-.177a1.428,1.428,0,0,1-.181-.577c-.021-.163-.057-.3-.074-.471-.039-.337-.106-.609-.145-.932s-.039-.7-.064-1.056a1.28,1.28,0,0,0-.117-.51c-.021-.05-.053-.064-.078-.1a.469.469,0,0,1-.081-.1.687.687,0,0,1-.071-.166c-.106-.372-.237-.514-.337-.854a3.867,3.867,0,0,0-.184-.535c-.032-.064-.064-.131-.1-.135a.2.2,0,0,1-.106-.032c-.035-.035-.071-.081-.106-.12v-.34H17.935v.7l-.014.071-.106.344A7.187,7.187,0,0,0,17.648,29l-.011.329a4.367,4.367,0,0,1-.05.627l-.131.878c0,.163-.007.333,0,.489s.043.294.057.45a3.188,3.188,0,0,0,.1.556l.138.457a6.053,6.053,0,0,1,.177.744V35.16c-.043.248-.081.5-.117.758a2.92,2.92,0,0,1-.089.4,3.253,3.253,0,0,1-.3.843,1.255,1.255,0,0,0-.1.344,5.42,5.42,0,0,0-.1.627l-.071.6Zm21.026-.266a1.842,1.842,0,0,1-.266.057,3.7,3.7,0,0,0-1.024.237,1.351,1.351,0,0,1-.436.053,3.6,3.6,0,0,1-.482-.021,6.125,6.125,0,0,0-.786-.057l-.981-.021c-.163,0-.336,0-.482-.021-.464-.064-.956-.064-1.442-.085-.159-.007-.312-.028-.468-.043-.106-.007-.213-.018-.319-.018l-2.129-.011-1.64-.014A2.179,2.179,0,0,1,28.2,38.6a5.23,5.23,0,0,0-.776-.067l-1.148-.014a3.767,3.767,0,0,1-.62-.057L25.5,38.44c-.11-.011-.227-.021-.244-.057s.106-.046.22-.053c.213-.018.432-.018.63-.053a5.79,5.79,0,0,1,.63-.046c.545-.011,1.091-.011,1.633.011.11,0,.209.018.312.028l.152.014a3.853,3.853,0,0,0,1.105.007,8.15,8.15,0,0,1,.946-.064h.793c.025,0,.248,0,.517,0a7.583,7.583,0,0,1,1.095.085,8.7,8.7,0,0,0,1.385.135c.156,0,.3.035.46.05l.485.021c.166,0,.241-.039.159-.1a.158.158,0,0,1-.085-.092c-.007-.057.152-.1.315-.081.368.032.7.089,1.031.145a2.953,2.953,0,0,0,.471.028,5.273,5.273,0,0,0,.8-.046,1,1,0,0,1,.308.011c.1.014.2.025.3.035s.213.032.209.064-.081.06-.17.078m8.558,34.766a3.651,3.651,0,0,1-.375.057,6.975,6.975,0,0,0-1.435.234,2.43,2.43,0,0,1-.613.057c-.23,0-.46,0-.677-.021-.354-.032-.712-.06-1.1-.06l-1.378-.021c-.227,0-.475,0-.677-.021-.648-.06-1.339-.06-2.023-.085-.223-.007-.436-.028-.655-.039-.149-.011-.3-.021-.446-.021l-2.99-.011-2.3-.011a4.259,4.259,0,0,1-.439-.025,9.343,9.343,0,0,0-1.087-.071l-1.608-.014a8.225,8.225,0,0,1-.871-.053l-.209-.021a.81.81,0,0,1-.344-.06c-.018-.025.149-.046.308-.05.294-.018.606-.018.886-.053s.574-.042.882-.05c.765-.011,1.53-.011,2.3.011.149,0,.294.018.436.028l.209.018a8.146,8.146,0,0,0,1.555.007c.429-.043.864-.064,1.328-.067H37.3c.039,0,.351,0,.73,0a13.82,13.82,0,0,1,1.534.089,17.839,17.839,0,0,0,1.945.135c.216,0,.425.032.648.046l.677.021c.234,0,.34-.035.223-.092a.239.239,0,0,1-.117-.092c-.011-.057.216-.1.443-.085.517.035.981.089,1.445.145a5.089,5.089,0,0,0,.666.032,10.309,10.309,0,0,0,1.116-.05,1.977,1.977,0,0,1,.432.011c.138.011.28.025.422.039s.3.032.294.06-.117.06-.237.081M43.771,55.906a2.677,2.677,0,0,1-.156.234,3.762,3.762,0,0,0-.581.917,1.442,1.442,0,0,1-.283.358,3.6,3.6,0,0,1-.368.337,7.543,7.543,0,0,0-.616.535l-.733.7c-.124.117-.251.244-.368.34-.383.294-.744.652-1.116,1-.124.11-.248.209-.372.315a2.85,2.85,0,0,0-.248.216l-.63.627h-.592L38.192,61c.021-.018.184-.177.386-.375a7.674,7.674,0,0,1,.861-.74,9.26,9.26,0,0,0,1.112-.921c.113-.11.248-.195.368-.3l.368-.336c.124-.12.152-.205.05-.184a.16.16,0,0,1-.124,0c-.046-.035.046-.181.174-.29.294-.244.574-.446.857-.652a3.429,3.429,0,0,0,.368-.322,5.839,5.839,0,0,0,.549-.62,1.068,1.068,0,0,1,.234-.22l.244-.195c.092-.071.181-.131.2-.11s-.018.106-.067.184" transform="translate(43.638 67.933)" fill="#99003f"/>
      <path id="Caminho_56" data-name="Caminho 56" d="M24.174,102.777c.17.018.326.028.45.035l.393.007c.266.007.514.021.751.05l1.059.131c.195,0,.4.007.584,0s.354-.039.535-.057a4.924,4.924,0,0,0,.669-.1l.553-.142a8.648,8.648,0,0,1,.893-.177h1.966c.3.039.6.078.9.12.177.018.333.053.482.081a4.825,4.825,0,0,1,1.009.3,1.858,1.858,0,0,0,.411.1c.234.039.5.067.758.1l.62.06.078-.762.071-.666v-.588c-.071-.46-.067-1.013-.128-1.484a4.528,4.528,0,0,1-.039-.56V95.48a8.176,8.176,0,0,1,.05-.949,3.342,3.342,0,0,0,.021-.386l.025-1.371a3.232,3.232,0,0,1,.025-.375l.124-1.063a3.285,3.285,0,0,0,.028-.375,11.038,11.038,0,0,1,.12-1.481,12.754,12.754,0,0,0,.092-1.512l.007-1.374-.021-8.072a8.177,8.177,0,0,0-.05-.949c-.014-.117-.021-.251-.025-.379-.025-.981-.032-1.962-.007-2.947a3.072,3.072,0,0,1,.025-.372,6.411,6.411,0,0,0,.053-.754L58.936,95.4v5.678l-.014.081-.106.414a8.86,8.86,0,0,0-.135.949l-.021.23.276.025c.17.018.329.028.45.035l.393.007c.266.007.514.021.754.05l1.056.131c.195,0,.4.007.584,0s.354-.039.538-.057a5.011,5.011,0,0,0,.669-.1l.549-.142a8.919,8.919,0,0,1,.9-.177h1.962c.3.039.6.078.9.12.177.018.333.053.482.081a4.759,4.759,0,0,1,1.009.3,1.913,1.913,0,0,0,.411.1c.237.039.5.067.758.1l.62.06.081-.762.067-.666v-.588c-.067-.46-.064-1.013-.124-1.484a3.925,3.925,0,0,1-.039-.56V95.48a8.174,8.174,0,0,1,.05-.949c.014-.124.018-.248.021-.386l.021-1.371c0-.128.014-.255.025-.375l.128-1.063a2.642,2.642,0,0,0,.025-.375,11.035,11.035,0,0,1,.12-1.481,12.047,12.047,0,0,0,.092-1.512l.007-1.374-.018-8.072a8.175,8.175,0,0,0-.05-.949c-.014-.117-.021-.251-.025-.379-.028-.981-.035-1.962-.011-2.947a3.07,3.07,0,0,1,.025-.372,7.067,7.067,0,0,0,.064-.939l-.011-2.164c0-.205-.021-.383-.035-.567s-.028-.383-.032-.574V68.054c0-.195.018-.379.035-.563l.1-.893a5.532,5.532,0,0,0,.042-.556c.021-.85.025-1.707.025-2.561a6.9,6.9,0,0,1,.032-.769c.018-.177.028-.375.032-.57l.011-1.374a7.165,7.165,0,0,1,.064-.942c.014-.117.021-.237.025-.372l.014-1.18a7.135,7.135,0,0,1,.053-.754c.011-.12.025-.251.025-.375l.007-1.18c0-.6.014-1.18.028-1.768,0-.2.025-.375.039-.563s.032-.375.035-.57c.011-.393.035-.765.074-1.13.046-.418.053-.9.113-1.293l.025-.581c.007-.195,0-.4.028-.574a10.667,10.667,0,0,0,.067-1.137c.007-.195.025-.386.046-.56.025-.244.042-.489.05-.754l.018-.783q.011-.191.032-.372a9.872,9.872,0,0,0,.053-1.3L72.4,42.455l-2.054.05-.935.021c-.071,0-.138.014-.205.021a9.133,9.133,0,0,1-1.066.064c-.3,0-.6.011-.889.021a2.218,2.218,0,0,0-.694.124,1.9,1.9,0,0,0-.237.138,2.221,2.221,0,0,1-.719.181c-.191.025-.386.05-.577.078-.411.039-.747.106-1.141.149s-.85.039-1.272.071a1.9,1.9,0,0,0-.634.117.536.536,0,0,0-.124.081.8.8,0,0,1-.135.085,1.162,1.162,0,0,1-.209.074c-.471.11-.659.248-1.087.351a6.63,6.63,0,0,0-.669.184c-.085.035-.17.067-.181.106a.2.2,0,0,1-.06.1,1.649,1.649,0,0,1-.166.106h-.411V77.713l-4.463-4.442a6.14,6.14,0,0,0-.616-.542c-.081-.064-.166-.135-.248-.213q-.924-.866-1.8-1.789a3.233,3.233,0,0,1-.209-.248,4.821,4.821,0,0,0-.528-.613l-1.325-1.314c-.124-.124-.248-.216-.372-.322s-.251-.209-.368-.326l-.963-.956a3.74,3.74,0,0,1-.315-.372l-.475-.616a3.616,3.616,0,0,0-.308-.368c-.5-.531-1.02-1.056-1.544-1.573-.159-.163-.3-.322-.443-.492-.1-.124-.209-.251-.326-.372l-.829-.847a5.214,5.214,0,0,1-.531-.62,2.135,2.135,0,0,0-.209-.244l-.708-.73c-.159-.166-.294-.329-.425-.5a2.216,2.216,0,0,0-.209-.248l-.712-.723c-.365-.361-.712-.726-1.059-1.1-.12-.124-.209-.248-.315-.368s-.209-.252-.322-.375a9.582,9.582,0,0,1-.638-.744c-.22-.283-.507-.577-.7-.864l-.344-.368c-.11-.124-.234-.248-.326-.372-.067-.092-.149-.184-.227-.276,0-.195,0-.39.007-.584s.028-.375.042-.563.028-.375.035-.57c.011-.393.032-.765.074-1.13.046-.418.05-.9.113-1.293l.021-.581c.007-.195.007-.4.028-.574a10.645,10.645,0,0,0,.071-1.137c.007-.195.021-.386.043-.56a7.294,7.294,0,0,0,.05-.754l.021-.783c0-.127.018-.251.032-.372a9.876,9.876,0,0,0,.05-1.3l-.025-2.125-2.051.05-.935.021c-.071,0-.138.014-.205.021a9.147,9.147,0,0,1-1.07.064c-.294,0-.6.011-.889.021a2.213,2.213,0,0,0-.691.124,1.9,1.9,0,0,0-.237.138,2.247,2.247,0,0,1-.723.181c-.188.025-.383.05-.574.078-.411.039-.747.106-1.141.149s-.854.039-1.272.071a1.92,1.92,0,0,0-.638.117.627.627,0,0,0-.124.081.644.644,0,0,1-.131.085,1.114,1.114,0,0,1-.213.074c-.468.11-.659.248-1.084.351a6.377,6.377,0,0,0-.669.184c-.089.035-.17.067-.184.106a.2.2,0,0,1-.06.1,1.6,1.6,0,0,1-.163.106h-.411v56.5l-.018.081-.106.414a9.031,9.031,0,0,0-.131.949l-.025.23ZM36.348,79.923a8.754,8.754,0,0,0-.064.942l-.018,1.176c0,.2,0,.411-.021.584-.06.553-.064,1.148-.085,1.729-.007.191-.028.372-.039.563-.011.124-.021.251-.021.379l-.007,2.561-.014,1.966a3.057,3.057,0,0,1-.028.375,7.524,7.524,0,0,0-.067.932l-.011,1.378a6.765,6.765,0,0,1-.057.744l-.021.177a.65.65,0,0,1-.06.294c-.021.014-.046-.128-.053-.262-.014-.251-.018-.517-.05-.758a7.036,7.036,0,0,1-.05-.754c-.011-.655-.007-1.311.011-1.962,0-.128.014-.255.025-.375l.021-.181a5.982,5.982,0,0,0,.007-1.332,10.543,10.543,0,0,1-.067-1.133v-.949c0-.032,0-.3,0-.623a9.584,9.584,0,0,1,.089-1.314,13.04,13.04,0,0,0,.135-1.665c0-.184.035-.365.046-.553l.021-.581c0-.2-.039-.29-.1-.191-.032.057-.06.092-.092.1-.053.011-.1-.181-.081-.379.035-.439.089-.836.145-1.236a4.217,4.217,0,0,0,.028-.567,7.575,7.575,0,0,0-.043-.956,1.314,1.314,0,0,1,.007-.372l.039-.361c.011-.135.032-.255.06-.251s.06.1.081.205a2.661,2.661,0,0,1,.053.322,5.4,5.4,0,0,0,.237,1.226,1.805,1.805,0,0,1,.053.524c0,.195,0,.393-.018.581m34.1,5.469a10.2,10.2,0,0,1,.085-1.314,13.013,13.013,0,0,0,.138-1.665c0-.184.032-.365.043-.553l.021-.581c.007-.2-.035-.29-.092-.191-.032.057-.06.092-.1.1-.053.011-.1-.181-.078-.379.032-.439.089-.836.142-1.236a3.7,3.7,0,0,0,.032-.567,8.28,8.28,0,0,0-.046-.956,1.459,1.459,0,0,1,.007-.372l.039-.361c.014-.135.032-.255.06-.251s.06.1.081.205a2.635,2.635,0,0,1,.057.322,5.419,5.419,0,0,0,.234,1.226,1.92,1.92,0,0,1,.057.524,5.241,5.241,0,0,1-.021.581c-.032.3-.057.609-.06.942l-.018,1.176c0,.2,0,.411-.021.584-.06.553-.064,1.148-.085,1.729-.007.191-.032.372-.043.563-.007.124-.018.251-.018.379l-.011,2.561-.014,1.966a3.083,3.083,0,0,1-.025.375,6.872,6.872,0,0,0-.071.932l-.011,1.378a5.992,5.992,0,0,1-.057.744l-.021.177a.616.616,0,0,1-.057.294c-.025.014-.046-.128-.057-.262-.014-.251-.018-.517-.046-.758a5.58,5.58,0,0,1-.05-.754c-.014-.655-.011-1.311.007-1.962,0-.128.018-.255.028-.375l.021-.181a6.2,6.2,0,0,0,.007-1.332,9.686,9.686,0,0,1-.071-1.133v-.949l.007-.623M53.258,72.963a2.06,2.06,0,0,1,.234.156,3.862,3.862,0,0,0,.914.581,1.417,1.417,0,0,1,.358.28,4.1,4.1,0,0,1,.34.368,6.854,6.854,0,0,0,.531.616l.7.733c.117.124.244.251.336.368.3.379.655.744,1,1.112.113.124.209.251.315.375.071.081.142.166.216.244l.733.737v.592l-.014-.014c-.12-.12-.241-.237-.577-.577-.021-.021-.181-.184-.379-.383a7.279,7.279,0,0,1-.737-.861,9.605,9.605,0,0,0-.921-1.112c-.11-.113-.195-.248-.3-.368l-.337-.372c-.12-.124-.2-.149-.184-.046a.16.16,0,0,1,0,.124c-.032.046-.181-.043-.29-.174-.244-.29-.446-.574-.648-.854a3.516,3.516,0,0,0-.326-.368,5.809,5.809,0,0,0-.616-.549,1.153,1.153,0,0,1-.22-.234l-.195-.248c-.071-.089-.131-.177-.106-.195s.1.018.181.067" transform="translate(60.741 107.926)" fill="#99003f"/>
      <path id="Caminho_57" data-name="Caminho 57" d="M9.785,74.209c.156.025.3.046.464.071h.411c.319-.071.7-.067,1.031-.124a1.936,1.936,0,0,1,.39-.039l2.607,0a3.638,3.638,0,0,1,.662.053,2.12,2.12,0,0,0,.266.021h.138v16.7h.7l.071.018.344.106a7.118,7.118,0,0,0,1.169.167l.326.007a4.986,4.986,0,0,1,.627.053l.882.131c.159,0,.329.007.485,0s.294-.043.45-.06a2.9,2.9,0,0,0,.556-.1l.457-.142c.223-.067.478-.124.744-.177h1.626c.251.046.5.089.762.12a3.054,3.054,0,0,1,.4.085,3.3,3.3,0,0,1,.839.3,1.394,1.394,0,0,0,.344.1c.2.042.414.071.634.1l.6.067.1-.772c.025-.181.046-.365.071-.553v-.492c-.071-.379-.067-.843-.128-1.233a2.743,2.743,0,0,1-.039-.468V85.026a5.714,5.714,0,0,1,.05-.793,2.28,2.28,0,0,0,.021-.315l.021-1.148a2.911,2.911,0,0,1,.028-.312l.124-.889a2.163,2.163,0,0,0,.028-.3,7.676,7.676,0,0,1,.117-1.236,8.892,8.892,0,0,0,.1-1.261l.007-1.144-.011-3.135c.4,0,.808,0,1.215.011a1.925,1.925,0,0,1,.259.028,3.416,3.416,0,0,0,.652.064l1.509-.011a3.452,3.452,0,0,0,.393-.035,3.734,3.734,0,0,1,.4-.032l1.095,0a2.311,2.311,0,0,1,.393.039c.205.035.411.067.62.1a2.786,2.786,0,0,0,.39.046c.592.021,1.187.025,1.782.021a3.8,3.8,0,0,1,.535.035,3.536,3.536,0,0,0,.393.028l.953.014v16.1h.7l.074.018.344.106a7.015,7.015,0,0,0,1.165.167l.326.007a4.929,4.929,0,0,1,.627.053l.882.131c.163,0,.329.007.485,0s.294-.043.45-.06a2.852,2.852,0,0,0,.556-.1l.457-.142c.223-.067.478-.124.747-.177h1.622c.251.046.5.089.762.12a2.935,2.935,0,0,1,.4.085,3.381,3.381,0,0,1,.843.3,1.4,1.4,0,0,0,.344.1c.195.042.411.071.63.1l.6.067.1-.772c.025-.181.046-.365.071-.553v-.492c-.071-.379-.067-.843-.128-1.233a3.157,3.157,0,0,1-.039-.468V85.026a5.715,5.715,0,0,1,.05-.793,2.279,2.279,0,0,0,.021-.315l.021-1.148a2.909,2.909,0,0,1,.028-.312l.124-.889a2.164,2.164,0,0,0,.028-.3,8.1,8.1,0,0,1,.117-1.236,8.4,8.4,0,0,0,.1-1.261l.007-1.144L51.331,70.9a5.714,5.714,0,0,0-.05-.793,2.845,2.845,0,0,1-.025-.315c-.025-.815-.032-1.636-.011-2.451a2.752,2.752,0,0,1,.028-.312,4.559,4.559,0,0,0,.06-.783l-.011-1.8c0-.166-.018-.315-.032-.471s-.032-.319-.032-.478l0-1.311a3.242,3.242,0,0,1,.039-.468c.032-.248.067-.5.1-.747a3.814,3.814,0,0,0,.046-.464c.018-.708.021-1.417.018-2.129a6.3,6.3,0,0,1,.035-.641c.018-.152.032-.315.035-.475l.011-1.148a4.98,4.98,0,0,1,.06-.783,2.148,2.148,0,0,0,.025-.315l.018-.981a5.836,5.836,0,0,1,.05-.627,2.911,2.911,0,0,0,.028-.312l.007-.981c0-.5.011-.981.025-1.474,0-.17.028-.315.043-.471s.028-.312.035-.475c.011-.326.032-.634.071-.942.05-.347.053-.744.117-1.073l.021-.485c.007-.163.007-.329.028-.475a7.425,7.425,0,0,0,.071-.949c.007-.159.021-.322.043-.468a5,5,0,0,0,.05-.631l0-.135.042-1.923-2.019-.05-.584-.018c-.117,0-.237-.014-.347-.028a12.342,12.342,0,0,0-2.015-.007,1.221,1.221,0,0,0-.17.025,5.326,5.326,0,0,1-.886.067q-.377.011-.744.032a1.582,1.582,0,0,0-.56.124c-.089.042-.106.1-.184.138a1.423,1.423,0,0,1-.574.181c-.166.021-.308.057-.471.074-.34.039-.609.1-.935.145s-.7.039-1.052.064a1.3,1.3,0,0,0-.514.117.256.256,0,0,0-.092.078.439.439,0,0,1-.1.078.826.826,0,0,1-.166.074c-.375.106-.517.237-.857.337a3.986,3.986,0,0,0-.531.181c-.067.032-.131.064-.138.1a.156.156,0,0,1-.032.106,1.144,1.144,0,0,1-.12.1h-.344V62.095H28.176a3.213,3.213,0,0,1,.032-.379c.032-.248.067-.5.1-.747a3.826,3.826,0,0,0,.043-.464c.021-.708.025-1.417.021-2.129a5.428,5.428,0,0,1,.035-.641c.018-.152.028-.315.032-.475l.014-1.148a4.992,4.992,0,0,1,.057-.783,1.738,1.738,0,0,0,.028-.315l.018-.981a5.84,5.84,0,0,1,.05-.627,2.221,2.221,0,0,0,.025-.312l.007-.981c0-.5.014-.981.028-1.474,0-.17.025-.315.043-.471s.028-.312.032-.475c.011-.326.035-.634.074-.942.046-.347.053-.744.117-1.073l.021-.485a4.021,4.021,0,0,1,.028-.475,8.132,8.132,0,0,0,.071-.949c.007-.159.021-.322.042-.468.025-.2.043-.407.05-.631l0-.135.043-1.923-2.019-.05-.584-.018c-.12,0-.237-.014-.347-.028a12.344,12.344,0,0,0-2.015-.007,1.221,1.221,0,0,0-.17.025,5.34,5.34,0,0,1-.889.067c-.248.007-.5.018-.74.032a1.562,1.562,0,0,0-.56.124c-.089.042-.11.1-.184.138a1.424,1.424,0,0,1-.577.181c-.163.021-.3.057-.471.074-.337.039-.609.1-.932.145s-.708.039-1.056.064a1.28,1.28,0,0,0-.51.117.306.306,0,0,0-.1.078.354.354,0,0,1-.1.078.827.827,0,0,1-.166.074c-.375.106-.517.237-.857.337a3.985,3.985,0,0,0-.531.181c-.067.032-.131.064-.138.1a.156.156,0,0,1-.032.106c-.035.035-.081.071-.12.1h-.344V62.095H9.785V64.56l-.018.057c-.032.1-.067.195-.1.287a5.136,5.136,0,0,0-.166.978l-.011.273a3.022,3.022,0,0,1-.05.521c-.043.251-.089.492-.131.737,0,.138-.007.28,0,.411s.043.244.06.372a2.084,2.084,0,0,0,.1.468l.142.383a5.191,5.191,0,0,1,.174.62v1.36c-.043.209-.085.414-.117.638a2.622,2.622,0,0,1-.085.329,2.673,2.673,0,0,1-.3.708.92.92,0,0,0-.1.287,4.457,4.457,0,0,0-.1.524l-.081.581ZM27.744,75.76c-.007.159-.028.312-.042.468-.007.1-.018.209-.018.319l-.011,2.129-.014,1.64a2.139,2.139,0,0,1-.025.312,4.8,4.8,0,0,0-.067.779l-.014,1.144a3.766,3.766,0,0,1-.057.62c-.007.05-.014.1-.018.149-.011.11-.028.227-.06.244s-.046-.106-.053-.22c-.018-.209-.018-.432-.05-.627a4.511,4.511,0,0,1-.05-.634c-.011-.545-.011-1.091.007-1.636,0-.1.018-.209.028-.312l.021-.149a4.125,4.125,0,0,0,.007-1.105,7.427,7.427,0,0,1-.071-.949v-.793l.007-.517a7.145,7.145,0,0,1,.085-1.095,9.688,9.688,0,0,0,.113-1.017l.351-.011c-.043.414-.053.839-.071,1.261m22.609.861a6.714,6.714,0,0,1,.089-1.095,9.088,9.088,0,0,0,.135-1.381c0-.156.035-.3.046-.464l.021-.485c0-.163-.039-.237-.1-.156-.028.046-.06.078-.092.081-.053.011-.1-.152-.081-.315.035-.368.089-.7.145-1.027a3,3,0,0,0,.028-.475,4.916,4.916,0,0,0-.046-.8,1.1,1.1,0,0,1,.007-.3l.042-.3c.011-.113.032-.213.06-.209s.06.081.081.17a1.961,1.961,0,0,1,.053.266,3.7,3.7,0,0,0,.237,1.024,1.351,1.351,0,0,1,.053.436,3.574,3.574,0,0,1-.021.482,6.819,6.819,0,0,0-.06.79l-.018.978c0,.163,0,.34-.021.485-.06.46-.064.953-.085,1.442-.007.159-.028.312-.039.468a3.073,3.073,0,0,0-.021.319l-.007,2.129-.014,1.64a2.123,2.123,0,0,1-.028.312,4.8,4.8,0,0,0-.067.779l-.011,1.144a4.18,4.18,0,0,1-.06.62l-.018.149c-.011.11-.028.227-.06.244s-.046-.106-.053-.22c-.018-.209-.018-.432-.05-.627a4.512,4.512,0,0,1-.05-.634c-.011-.545-.007-1.091.007-1.636,0-.1.018-.209.028-.312l.021-.149a4.125,4.125,0,0,0,.007-1.105,7.437,7.437,0,0,1-.067-.949v-.793c0-.021,0-.244,0-.517" transform="translate(22.894 107.969)" fill="#99003f"/>
      <path id="Caminho_58" data-name="Caminho 58" d="M25.022,34.787a1.175,1.175,0,0,0,.025.166,6.859,6.859,0,0,1,.071.893c0,.244.014.5.032.74a1.511,1.511,0,0,0,.124.563c.042.089.092.106.135.184a1.389,1.389,0,0,1,.181.577c.021.163.057.3.074.471.039.34.106.613.145.939s.039.7.067,1.052a1.317,1.317,0,0,0,.113.517c.025.05.053.06.081.092a.808.808,0,0,1,.078.1.687.687,0,0,1,.071.166c.106.375.241.517.336.861a4.326,4.326,0,0,0,.184.531c.032.071.064.131.1.138a.151.151,0,0,1,.106.032,1.172,1.172,0,0,1,.106.12v.344h5.82V65.288l-.018.085-.106.414c-.032.142-.074.443-.11.747l-.025.209.259.028c.241.025.485.046.659.053l.393.007a7.2,7.2,0,0,1,.754.053l1.059.131c.195,0,.4.007.588,0s.354-.043.538-.06a4.545,4.545,0,0,0,.673-.1l.553-.142c.266-.071.574-.124.9-.177h1.973c.3.043.6.081.9.12a4.087,4.087,0,0,1,.482.085,4.576,4.576,0,0,1,1.017.3,2.163,2.163,0,0,0,.414.1c.234.042.492.071.758.1l.62.06.078-.762.071-.666v-.592c-.067-.457-.064-1.013-.128-1.488a4.616,4.616,0,0,1-.035-.563V59.472a7.632,7.632,0,0,1,.05-.96c.014-.12.018-.244.021-.379l.018-1.381c0-.128.014-.255.028-.372l.128-1.073a3.121,3.121,0,0,0,.025-.372,11.044,11.044,0,0,1,.12-1.484,12.188,12.188,0,0,0,.092-1.516l.007-1.385L45.6,43.274H67.814V65.15l-.018.089-.1.411a7.97,7.97,0,0,0-.128.886l-.025.227.273.021c.195.021.379.035.517.043l.393.007a7.132,7.132,0,0,1,.751.053l1.059.131c.195,0,.4.007.584,0s.354-.043.538-.06a4.422,4.422,0,0,0,.669-.1l.553-.142c.266-.071.574-.124.9-.177h1.966c.3.043.6.081.9.12a4.222,4.222,0,0,1,.482.085,4.5,4.5,0,0,1,1.009.3,2.163,2.163,0,0,0,.414.1c.234.042.5.071.758.1l.62.06L80,66.535l.071-.662v-.592c-.067-.457-.064-1.017-.128-1.484a4.585,4.585,0,0,1-.039-.563V59.49a7.524,7.524,0,0,1,.053-.956,3.24,3.24,0,0,0,.018-.379L80,56.777c0-.128.014-.255.028-.372l.128-1.07a3.171,3.171,0,0,0,.025-.372,10.942,10.942,0,0,1,.12-1.481,12.847,12.847,0,0,0,.092-1.512l.007-1.381-.018-8.08a9.064,9.064,0,0,0-.05-.953c-.014-.117-.021-.248-.028-.375-.028-.981-.032-1.969-.011-2.951,0-.128.014-.259.028-.379a7.654,7.654,0,0,0,.064-.935l-.011-2.168c0-.2-.025-.379-.035-.57s-.032-.379-.032-.57l0-1.576a4.633,4.633,0,0,1,.039-.563l.1-.9a4.649,4.649,0,0,0,.046-.556q.027-1.28.021-2.561c0-.266.011-.521.035-.769.014-.184.025-.379.028-.574l.014-1.378a7.845,7.845,0,0,1,.06-.942,3.061,3.061,0,0,0,.028-.375l.014-1.18c0-.266.025-.514.05-.758a3.1,3.1,0,0,0,.028-.372l.007-1.18c0-.6.011-1.183.025-1.771.007-.2.028-.379.042-.563s.028-.379.035-.57c.011-.4.035-.765.074-1.137.046-.414.05-.893.113-1.289l.021-.581c.007-.195.007-.4.032-.574.05-.358.053-.751.067-1.141.007-.191.025-.386.043-.56a7.3,7.3,0,0,0,.05-.758L81.3,10.2c0-.128.018-.251.028-.372A9.511,9.511,0,0,0,81.384,8.6l-.018-2.129L79.3,6.521l-1.01.021c-.071,0-.138.014-.2.018a8.533,8.533,0,0,1-1.073.064c-.294,0-.6.011-.886.025a2.347,2.347,0,0,0-.694.12c-.11.046-.142.092-.237.138a2.034,2.034,0,0,1-.719.184c-.191.025-.386.053-.577.074-.411.039-.747.11-1.141.149s-.854.043-1.275.071a1.945,1.945,0,0,0-.63.12.531.531,0,0,0-.128.085c-.042.025-.074.053-.131.081a.927.927,0,0,1-.213.071c-.468.113-.659.251-1.084.351a6.644,6.644,0,0,0-.673.188c-.089.035-.17.064-.181.1s-.018.074-.06.1a1.936,1.936,0,0,1-.166.11h-.411V31.256h-.166a5.73,5.73,0,0,1-.8-.05,2.966,2.966,0,0,0-.315-.018l-1.151-.025a3,3,0,0,1-.312-.025l-.889-.128a1.751,1.751,0,0,0-.308-.025,8.082,8.082,0,0,1-1.236-.12,8.471,8.471,0,0,0-1.261-.1l-1.151-.007-6.737.021a5.748,5.748,0,0,0-.793.05,2.919,2.919,0,0,1-.315.025c-.818.028-1.636.035-2.458.011a2.179,2.179,0,0,1-.312-.025,4.549,4.549,0,0,0-.783-.064l-1.806.011c-.17,0-.319.021-.475.035s-.315.028-.478.032h-.443l.039-.375a4.585,4.585,0,0,0,.046-.56c.021-.85.025-1.707.021-2.561,0-.269.011-.524.035-.772.018-.184.028-.383.032-.574l.011-1.381a7.136,7.136,0,0,1,.064-.946c.014-.117.021-.241.025-.375l.014-1.183c0-.269.025-.517.05-.758A3.225,3.225,0,0,0,45.991,21L46,19.815c0-.6.014-1.183.028-1.775,0-.2.025-.379.039-.563s.032-.379.035-.574c.011-.4.035-.765.074-1.137.046-.418.05-.9.113-1.293l.025-.584c.007-.195,0-.4.028-.574a10.807,10.807,0,0,0,.067-1.148c.007-.188.025-.383.046-.56.025-.241.042-.489.046-.758l.021-.783c0-.128.018-.255.028-.372a8.636,8.636,0,0,0,.057-1.1V6.518H44.528c-.386,0-.779.014-1.169.028a1.784,1.784,0,0,0-.2.018,9.241,9.241,0,0,1-1.07.064c-.3,0-.6.011-.893.025a2.21,2.21,0,0,0-.691.12c-.11.046-.142.092-.237.138a2.035,2.035,0,0,1-.719.184c-.191.025-.386.053-.577.074-.411.039-.747.11-1.141.149s-.854.043-1.275.071a1.99,1.99,0,0,0-.634.117.624.624,0,0,0-.124.085c-.043.025-.078.053-.135.081a.94.94,0,0,1-.209.074c-.471.113-.662.248-1.087.347a6.392,6.392,0,0,0-.673.188c-.089.035-.17.064-.184.1s-.018.074-.06.1a1.935,1.935,0,0,1-.166.11h-.411V30.335c-.05-.007-.1-.007-.152-.014-.156-.011-.315-.025-.475-.032-.329-.011-.638-.035-.946-.074-.347-.046-.747-.05-1.077-.113l-.485-.025a4.086,4.086,0,0,1-.478-.028,8.144,8.144,0,0,0-.949-.067,4.646,4.646,0,0,1-.468-.046,5.056,5.056,0,0,0-.63-.05l-.159,0-1.923-.043-.053,2.023-.014.556c0,.117-.018.237-.032.351a12.387,12.387,0,0,0-.007,2.019m20.286,8.49c0,.195,0,.393-.018.581a8.78,8.78,0,0,0-.06.942l-.018,1.183c-.007.2,0,.411-.025.581-.06.56-.06,1.155-.085,1.739-.007.191-.028.375-.039.567-.007.124-.018.251-.021.379l-.007,2.572-.014,1.969A3.1,3.1,0,0,1,45,54.17a6.933,6.933,0,0,0-.071.939l-.011,1.378a6.051,6.051,0,0,1-.057.747l-.021.181c-.007.131-.025.273-.06.294s-.043-.128-.053-.262c-.014-.259-.018-.524-.05-.762a6.459,6.459,0,0,1-.046-.758c-.014-.659-.011-1.318.007-1.973,0-.128.018-.251.028-.375l.021-.181a6.474,6.474,0,0,0,.007-1.335,9.746,9.746,0,0,1-.071-1.137v-.956l.007-.623a10.3,10.3,0,0,1,.085-1.318,13.155,13.155,0,0,0,.135-1.668c0-.188.035-.368.046-.556l.021-.584c.007-.2-.035-.29-.092-.191-.032.053-.06.092-.1.1-.053.011-.1-.184-.081-.379.035-.443.092-.843.145-1.24.011-.074.011-.156.014-.234h.5ZM79.4,49.384a10.18,10.18,0,0,1,.089-1.314,13.041,13.041,0,0,0,.135-1.665c0-.184.035-.365.046-.556l.021-.581c0-.195-.035-.287-.092-.191-.032.057-.064.1-.1.1-.053.011-.1-.184-.081-.383.035-.439.092-.836.145-1.233a3.8,3.8,0,0,0,.032-.57,7.635,7.635,0,0,0-.05-.96,1.439,1.439,0,0,1,.011-.368L79.6,41.3c.011-.135.032-.255.06-.251s.06.1.081.2a2.906,2.906,0,0,1,.057.322,5.017,5.017,0,0,0,.234,1.229,1.937,1.937,0,0,1,.053.524c0,.2,0,.4-.018.577a8.854,8.854,0,0,0-.06.949l-.021,1.18c0,.195,0,.4-.021.577-.06.556-.064,1.151-.085,1.732-.007.191-.028.375-.039.567-.011.124-.018.251-.021.379l-.007,2.564L79.8,53.822a2.575,2.575,0,0,1-.028.379,7.526,7.526,0,0,0-.067.932l-.014,1.378a5.359,5.359,0,0,1-.053.744l-.021.181c-.007.135-.025.276-.06.294s-.043-.128-.053-.262c-.018-.255-.018-.521-.05-.758a7.24,7.24,0,0,1-.05-.758c-.011-.659-.011-1.311.011-1.966,0-.128.018-.251.028-.375l.018-.177a5.984,5.984,0,0,0,.007-1.332,10.722,10.722,0,0,1-.067-1.137v-.953c0-.035,0-.3,0-.627M52.448,31.426a1.845,1.845,0,0,1,.266-.057,3.682,3.682,0,0,0,1.024-.234,1.271,1.271,0,0,1,.439-.057,3.655,3.655,0,0,1,.485.021,6.755,6.755,0,0,0,.786.06l.985.021c.159,0,.337,0,.482.021.464.057.956.06,1.442.081.163.007.315.032.471.043.106.011.213.021.319.021l2.136,0,1.644.014a2.169,2.169,0,0,1,.312.028,4.786,4.786,0,0,0,.779.071l1.148.011a4.245,4.245,0,0,1,.623.057l.149.021c.11.007.227.025.244.06s-.106.043-.223.05c-.209.018-.432.018-.627.05a4.411,4.411,0,0,1-.634.053c-.545.011-1.095.007-1.64-.011-.106,0-.205-.018-.312-.028l-.149-.021a4.152,4.152,0,0,0-1.109-.007,6.878,6.878,0,0,1-.949.071h-.793c-.028,0-.248,0-.521,0a6.671,6.671,0,0,1-1.095-.092,9.666,9.666,0,0,0-1.389-.135c-.156,0-.308-.035-.464-.043l-.485-.021c-.166,0-.241.035-.159.092a.181.181,0,0,1,.085.092c.007.057-.156.1-.319.081-.368-.032-.7-.089-1.031-.142a2.586,2.586,0,0,0-.475-.032,5.811,5.811,0,0,0-.8.046.9.9,0,0,1-.308-.007c-.1-.014-.2-.025-.3-.039s-.213-.035-.209-.064.081-.057.17-.078" transform="translate(63.51 16.443)" fill="#99003f"/>
      <path id="Caminho_59" data-name="Caminho 59" d="M46.432,56.182a1.69,1.69,0,0,0,.025.269l.007.074-.181.007.028,1.927c.007.251.007.5,0,.747-.007.166-.007.336,0,.5.021.623.011,1.247.007,1.87l.011,3.627a3.749,3.749,0,0,0,.046.606c.011.074.018.159.021.237l.032,1.374.014.372a10.01,10.01,0,0,1,.06,1.6c.011,1.293.011,2.582,0,3.875a2.147,2.147,0,0,1-.025.368,3.648,3.648,0,0,0-.05.606c0,.666-.021,1.332-.007,2l-.007.623,0,.5c0,.921,0,1.835,0,2.752l-.007.5a2.36,2.36,0,0,1-.035.365,2.224,2.224,0,0,0-.035.358l.007,1.123c0,.081.014.163.025.237a3.693,3.693,0,0,1,.032.489l.011,2.5c0,.12.011.244.018.368a.253.253,0,0,0,.028.1c.007.011.028-.014.042-.039.032-.081.071-.163.106-.244s.06-.089.078-.046a.426.426,0,0,1,.025.106l.007.5a3.656,3.656,0,0,1-.057.6,2.737,2.737,0,0,0,0,.85,4.144,4.144,0,0,1,.05.6,2.425,2.425,0,0,1-.035.489,3.246,3.246,0,0,1-.11.553,3.559,3.559,0,0,0-.089.439,1.427,1.427,0,0,0-.035.358v.56l.011,1.874,1.845-.018.354,0a1.646,1.646,0,0,0,.266-.025,3.776,3.776,0,0,1,.538-.039,2.036,2.036,0,0,0,.836-.145.819.819,0,0,1,.1-.035,1.322,1.322,0,0,1,.372-.057l.963-.021a2.614,2.614,0,0,1,.538.042,2.847,2.847,0,0,0,.535.043,4.292,4.292,0,0,0,.932-.078,1.742,1.742,0,0,1,.248-.035l.542-.043A3.426,3.426,0,0,0,54.9,92.3a4.205,4.205,0,0,1,.507-.064c.588-.035,1.169-.074,1.771-.085.17,0,.336-.014.5-.032.184.007.368.011.56.011.46-.007.917,0,1.367.011,1.505.046,3.028.06,4.548.081l2.433.035a4.888,4.888,0,0,1,.708.06,2.532,2.532,0,0,0,.592.007,7.652,7.652,0,0,1,.907-.05l6.394.043h.152c1.109.042,2.228.035,3.34.057.1,0,.195.014.29.025a4.91,4.91,0,0,0,.577.043l2.281.035a2.938,2.938,0,0,1,.443.028,5.4,5.4,0,0,0,.882.057l1.828.018a5.465,5.465,0,0,1,.886.06,3.029,3.029,0,0,0,.446.025l2.536.028,1.867.018.021-1.909,0-.347a3.459,3.459,0,0,1,.025-.432,4.2,4.2,0,0,0,.039-.57l.014-2.954.014-2.214a3.581,3.581,0,0,1,.053-.567c.011-.089.025-.184.028-.28.021-.836.021-1.668,0-2.508a3.934,3.934,0,0,0-.039-.425,3.153,3.153,0,0,1-.039-.425l-.014-.733-.035-2-1.938.025c-.294,0-.588,0-.886-.007-.195,0-.4-.007-.588,0-.74.021-1.477.011-2.214.007l-.776,0c0-.135,0-.269,0-.4q.043-2.46.078-4.913l.035-2.625a6.33,6.33,0,0,1,.06-.769,2.973,2.973,0,0,0,.011-.641,8.065,8.065,0,0,1-.05-.978l.043-6.907v-.163c.039-1.2.032-2.405.057-3.606a2.943,2.943,0,0,1,.021-.312,5.836,5.836,0,0,0,.05-.627l.035-2.465a3.475,3.475,0,0,1,.021-.478,6.3,6.3,0,0,0,.064-.953l.018-1.973a6.369,6.369,0,0,1,.057-.956,4.214,4.214,0,0,0,.025-.482L84.942,45a3.824,3.824,0,0,1,.025-.457l.2-1.644L83.05,42.63l-.025,0a4.334,4.334,0,0,0-.62-.042l-3.195-.011-2.4-.018a4.729,4.729,0,0,1-.609-.046,2.7,2.7,0,0,0-.3-.028c-.9-.025-1.81-.021-2.713,0a3.783,3.783,0,0,0-.46.039c-.149.014-.3.028-.46.032l-.8.014-1.994.035.021,1.941c.007.322.007.638,0,.96q-.011.319,0,.638c.021.8.011,1.6.007,2.4l.011,4.637a6.143,6.143,0,0,0,.046.779c.011.092.018.205.021.308l0,.117c-1.031,0-2.058.007-3.089,0a2.59,2.59,0,0,1-.372-.021,4.3,4.3,0,0,0-.616-.05c-.677,0-1.353-.018-2.026-.007l-.638,0-.507-.007c-.932,0-1.86,0-2.791,0l-.507,0a2.448,2.448,0,0,1-.368-.039,1.922,1.922,0,0,0-.361-.035l-1.144.007a1.355,1.355,0,0,0-.241.025,3.27,3.27,0,0,1-.5.035l-2.536.007c-.128,0-.251.011-.375.018a.31.31,0,0,0-.1.025c-.011.011.014.032.039.043.081.039.159.074.248.11.064.028.085.06.046.078a.268.268,0,0,1-.113.025l-.5.007a3.381,3.381,0,0,1-.609-.06,2.83,2.83,0,0,0-.864,0,3.457,3.457,0,0,1-.613.053,2.516,2.516,0,0,1-.5-.035,4.12,4.12,0,0,1-.56-.11,3.807,3.807,0,0,0-.446-.092,1.971,1.971,0,0,0-.365-.032l-.882,0-1.874.011.021,1.845Zm.74,34.355a.616.616,0,0,1-.057-.205,1.7,1.7,0,0,1,.067-.652l.064.942c-.025,0-.046-.021-.074-.085m5.674,1.328a1.082,1.082,0,0,0-.386.007,3.849,3.849,0,0,1-.489.071,5.709,5.709,0,0,0-.762.078,1.11,1.11,0,0,1-.266,0,4.8,4.8,0,0,0-.652-.053l-.8-.011a1.776,1.776,0,0,1-.471-.085,1.993,1.993,0,0,1-.273-.106,1.5,1.5,0,0,0-.251-.113.813.813,0,0,0-.209-.043l-.74-.014.014-.712a.717.717,0,0,0-.043-.237c-.035-.1-.067-.145-.106-.156,0-.117-.007-.237,0-.358a6.229,6.229,0,0,0,.014-.631l0-.046.035.011c.071.007.124-.11.131-.287.007-.081.014-.166.014-.244a3.127,3.127,0,0,1,.142-.91c.06-.2.128-.379.191-.577a1.129,1.129,0,0,0,.046-.347l0-.5a3.967,3.967,0,0,1,.089-.96,1.027,1.027,0,0,0,.025-.241l.011-.747-.021-3.875a1.006,1.006,0,0,0-.028-.234,4.244,4.244,0,0,0-.177-.744,1.554,1.554,0,0,1-.067-.457l-.018-.871c0-.081-.018-.149-.025-.227l.007-.007h-.007a2.951,2.951,0,0,0-.039-.365,2.076,2.076,0,0,1-.025-.368V76.461c0-.446.011-.825.014-1.2a1.787,1.787,0,0,1,.025-.241,3.045,3.045,0,0,0,.043-.482V73.79a1.048,1.048,0,0,0-.025-.241c-.067-.287-.067-.638-.128-.935a2.422,2.422,0,0,1-.028-.365l-.025-.368a4.922,4.922,0,0,1-.089-1.087,1.244,1.244,0,0,0-.028-.237,3,3,0,0,1-.06-.726v-.248a3.675,3.675,0,0,1,.12-.939c.007-.035.021-.064.028-.092a.33.33,0,0,1,.043-.064.888.888,0,0,0,.135-.266.087.087,0,0,0,.046.039.9.9,0,0,0,.273.06c.085,0,.163.007.241.014v9.394l-.514.514.514.011V90.884h.081l-.025.007a.694.694,0,0,0-.266.135c-.124.117-.244.23-.354.347-.018.021.021.046.071.064a1.215,1.215,0,0,0,.326.06c.142.007.283.011.429.018a4.887,4.887,0,0,1,.535.042c.117.018.255.032.4.039a8.067,8.067,0,0,1,.815.067c.283.035.652.039.921.092l.429.021c.195.011.383.021.549.042a2.727,2.727,0,0,0,.407.035l.446.014a4.022,4.022,0,0,1,.492.039H53.5a3.3,3.3,0,0,1-.655-.043m8.993-22.8,2.1.032a3.591,3.591,0,0,1,.613.06,1.8,1.8,0,0,0,.517.011,5.192,5.192,0,0,1,.783-.05l3.726.025q0,1.562,0,3.124l-.007.638a3.855,3.855,0,0,1-.035.464,3.683,3.683,0,0,0-.035.457l.007,1.442c0,.1.014.205.021.3a5.048,5.048,0,0,1,.035.623l0,1.286c-.581-.007-1.162-.011-1.746,0l-.737,0-.592-.007c-1.084,0-2.161,0-3.248,0l-.588,0a3.156,3.156,0,0,1-.425-.039,2.713,2.713,0,0,0-.425-.035h-.5l.032-1.916a3.923,3.923,0,0,1,.064-.6,1.858,1.858,0,0,0,.007-.507,5.614,5.614,0,0,1-.046-.772l.028-4.541Zm-.56,10.081,1.18-.007a2.363,2.363,0,0,0,.283-.021,7.238,7.238,0,0,0,.878-.181,1.937,1.937,0,0,1,.535-.071l1.034-.018a4.861,4.861,0,0,0,.7-.057,2.485,2.485,0,0,1,.432-.028h1.243c.528.007.971.011,1.413.014.1,0,.195.014.283.025s.209.018.308.025l0,.524h-8.3c0-.071,0-.138,0-.205m9.96.205v-.007a1.672,1.672,0,0,0,.025-.308l0-.248.191-.025v.588Zm.145-10.2h.074v8.4h-.188l-.018-4.435a1.709,1.709,0,0,0-.028-.3,6.874,6.874,0,0,0-.177-.949,2.47,2.47,0,0,1-.067-.581l-.018-1.119a5.273,5.273,0,0,0-.064-.769c-.011-.078-.011-.159-.014-.248Zm-.135-13.06a1,1,0,0,0,.113-.475l.014-.124c.025.018.057.028.081.046v.634H71.2a.453.453,0,0,1,.05-.081M48.284,61.967c-.025-.113-.053-.227-.078-.344a1.4,1.4,0,0,1-.007-.485c.028-.138.06-.273.085-.411Zm-.1,5.143a2.213,2.213,0,0,1,.1-.489v1.112a.647.647,0,0,0-.213.117c-.113.113-.234.223-.336.337a1.5,1.5,0,0,0,.06-.22.6.6,0,0,1,.1-.251c.064-.071.113-.166.177-.237a.62.62,0,0,0,.113-.368M89.451,85.2a.367.367,0,0,1,.021-.12c.021-.039.05,0,.074.078a1.4,1.4,0,0,1,.067.372l.014.57a4.007,4.007,0,0,1-.046.7c-.014.089-.025.174-.039.266a.559.559,0,0,1-.06.213,1.076,1.076,0,0,1-.043-.213c-.007-.287-.011-.57-.018-.868.011-.326.021-.659.028-1m-.1,5.607c.014-.287.128-.545.2-.517.05.018.1.014.142.074a1.762,1.762,0,0,1,.181.251.661.661,0,0,1,.039.191l.1.978-1.169.092-.05,0c-.145.007-.3.007-.446.007a2.33,2.33,0,0,1-.535-.071c-.12-.035-.2-.074-.227-.124a.352.352,0,0,1-.035-.244c.011-.057.209-.124.383-.128l.329-.007h.581l.475.025ZM89,90.661c.018-.067.046-.113.074-.078a.219.219,0,0,1,.028.191l-.011.028-.131.287-.113-.039c-.05-.018-.06-.039-.028-.067l.028-.018.2-.074-.032-.089-.021-.046a.755.755,0,0,1,.007-.1m-3.319-11.4c.166.025.326.057.485.089H84.7c.135-.028.266-.06.407-.078a1.82,1.82,0,0,1,.57-.011M83.557,45.4c.007-.326.131-.627.2-.6.05.021.1.018.142.081a1.908,1.908,0,0,1,.181.28,1.035,1.035,0,0,1,.046.266c.011.159.007.322.007.482a2.491,2.491,0,0,1-.074.581c-.035.128-.071.216-.12.241a.336.336,0,0,1-.244.039c-.057-.014-.128-.23-.131-.418,0-.156,0-.315,0-.354Zm-.354-.188c.018-.074.05-.124.074-.085a.247.247,0,0,1,.028.2c-.018.085-.046.11-.074.067a.433.433,0,0,1-.035-.081.827.827,0,0,1,.007-.1m-5.448-1.371a1.568,1.568,0,0,1,.4-.067l.62-.014a4.355,4.355,0,0,1,.754.05c.092.011.188.025.283.035a.646.646,0,0,1,.234.057,1.207,1.207,0,0,1-.23.05c-.312,0-.62.011-.942.014-.351-.007-.712-.018-1.073-.028a.446.446,0,0,1-.135-.021c-.035-.021,0-.05.089-.074m-6.379,4.134c.028-.181.06-.354.085-.531v1.587c-.025-.145-.053-.287-.078-.443a2.224,2.224,0,0,1-.007-.613m-23.906,8.2.4-1.063.414.244.117.05a.549.549,0,0,0,.436-.007c.163-.053.2-.1.128-.174l-.06-.039c-.071-.06-.06-.081.046-.128A.665.665,0,0,1,49.163,55a1.478,1.478,0,0,1,.786.1.176.176,0,0,1,.113.138c.007.032-.025.067-.025.1-.007.071.11.124.29.135.081,0,.166.011.251.011a3.148,3.148,0,0,1,.924.142c.2.057.383.128.584.188a1.066,1.066,0,0,0,.351.046l.507,0a4.242,4.242,0,0,1,.971.092,1.079,1.079,0,0,0,.248.021l.758.011,3.935-.021a1.259,1.259,0,0,0,.237-.021,5.127,5.127,0,0,0,.754-.181,1.47,1.47,0,0,1,.464-.071l.889-.018a3.625,3.625,0,0,0,.606-.057,1.821,1.821,0,0,1,.372-.028h1.066c.457.007.836.011,1.218.018a1.74,1.74,0,0,1,.241.021,3.144,3.144,0,0,0,.492.043l.762,0a1.3,1.3,0,0,0,.241-.021c.294-.071.652-.067.956-.131.106-.018.244-.018.368-.025l.375-.025a4.8,4.8,0,0,1,1.1-.092,1.258,1.258,0,0,0,.241-.025,2.73,2.73,0,0,1,.347-.05l.011.723,0,.156H48.284v.315l-.956.021c.025-.071.053-.142.078-.2s.043-.085.064-.138" transform="translate(117.656 107.949)" fill="#99003f"/>
      <path id="Caminho_60" data-name="Caminho 60" d="M16.292,17.814a5.168,5.168,0,0,0-.811,1.095l-.081.142a4.625,4.625,0,0,1-.333.517L14.149,20.8c-.191.234-.336.475-.5.669a6.492,6.492,0,0,0-.482.68,5.809,5.809,0,0,0-.7,1.335,3.982,3.982,0,0,1-.152.39l-.361.8c-.089.2-.181.4-.248.6-.071.262-.149.531-.251.815l-.475,1.342c-.138.453-.244.917-.375,1.374a6.849,6.849,0,0,0-.3,1.484c-.025.351-.06.687-.113,1.059a21.921,21.921,0,0,0-.23,3.046,1.444,1.444,0,0,0,.021.39c.018.078.05.124.085.057a1.162,1.162,0,0,0,.071-.319c.039-.347.053-.716.074-1.073.014-.216.028-.429.06-.631.039-.259.074-.531.131-.818l.209-1.282c.039-.22.089-.411.138-.6a6.858,6.858,0,0,0,.255-1.006c.043-.266.081-.521.156-.808a24.306,24.306,0,0,1,1.817-4.619,3.944,3.944,0,0,1,.553-.878,3.045,3.045,0,0,0,.322-.528c.11-.237.22-.471.368-.726.209-.383.464-.708.669-1.063a2.829,2.829,0,0,1,.251-.333c.23-.251.443-.51.68-.79l.886-.946a3.722,3.722,0,0,1,.574-.507,1.834,1.834,0,0,1,.383-.227,3.562,3.562,0,0,0,.383-.195,1.567,1.567,0,0,0,.542-.5c.166-.223.184-.308.046-.276-.032.007-.067.025-.1.035-.128.043-.131.014-.028-.145a1.97,1.97,0,0,1,.23-.28,3.258,3.258,0,0,1,1.119-.754c.142-.053.2-.039.241-.007s0,.078.018.106c.035.064.23-.014.471-.184l.347-.244a6.273,6.273,0,0,1,1.381-.7c.322-.128.616-.227.924-.34a4.035,4.035,0,0,0,.542-.213l.754-.368c.251-.124.507-.237.754-.347a5.785,5.785,0,0,1,.751-.2,3.244,3.244,0,0,0,.383-.113l1.18-.418a25.257,25.257,0,0,1,3.145-.719c.531-.067,1.059-.188,1.6-.22l1.612-.089c.142-.011.269-.025.4-.046.432-.057.878-.06,1.243-.131a4.36,4.36,0,0,1,.772-.028,10.243,10.243,0,0,1,1.466.152c.354.05.687.078,1.009.092a3.073,3.073,0,0,1,.613.085c.616.159,1.233.319,1.729.443.733.2,1.314.468,1.913.68.128.05.255.106.372.163.244.1.471.248.73.368l1.141.549a2.883,2.883,0,0,0,.375.152c.457.177.963.5,1.431.712.163.071.361.195.545.3a5.552,5.552,0,0,1,.524.344,13.807,13.807,0,0,1,1.537,1.038,3.931,3.931,0,0,0,.319.259,8.845,8.845,0,0,1,.96.786l.315.287a8.169,8.169,0,0,1,1.013,1.257,1.446,1.446,0,0,1,.078.138.826.826,0,0,1,.046.11,4.364,4.364,0,0,0,.414.8,1.4,1.4,0,0,1,.174.4c.025.131.078.294.1.422a1.486,1.486,0,0,0,.276.563,2.889,2.889,0,0,1,.361.677,23.172,23.172,0,0,0-42.5,12.783c0,.138.007.273.011.411-.043-.071-.081-.131-.124-.209-.067-.128-.131-.184-.2-.188a2.859,2.859,0,0,0-.492,0c-.032,0-.06.089-.078.184a2.889,2.889,0,0,0-.046.542l.007.641c.011.287.007.556-.007.825a2.807,2.807,0,0,0,.025.616c.05.425.092.832.113,1.243a13.428,13.428,0,0,0,.17,1.427l.138.63c.067.283.128.56.166.825a2.648,2.648,0,0,0,.145.613l.22.62a7.449,7.449,0,0,1,.3,1,2.461,2.461,0,0,0,.2.6l.379.79c.195.4.386.793.581,1.187l.666,1.133a4.566,4.566,0,0,1,.283.553,4.254,4.254,0,0,0,.545.907c.174.234.351.475.531.7.205.259.4.531.613.779l.666.737a15.827,15.827,0,0,0,1.13,1.208l1.222,1.112a15.743,15.743,0,0,0,1.307,1.017,12.731,12.731,0,0,0,1.357.946l1.509.921,1.594.769c.34.163.634.34.949.478a4.657,4.657,0,0,0,.811.3c.4.1.8.237,1.226.372a24.589,24.589,0,0,0,9.16.963l.22-.011a8.069,8.069,0,0,0,1.2-.124l1.2-.177a9.065,9.065,0,0,0,1.187-.251l1.18-.294c.138-.035.283-.064.418-.089a7.307,7.307,0,0,0,.818-.244l1.566-.563,1.5-.708a5.311,5.311,0,0,1,.6-.259,10,10,0,0,0,1.141-.613c.375-.237.765-.45,1.133-.7l1.073-.79c.354-.273.73-.51,1.052-.762.163-.12.333-.273.5-.421A17.52,17.52,0,0,0,52.7,52.038l.719-.783a7.486,7.486,0,0,0,.684-.808c.135-.177.273-.354.414-.507.184-.205.368-.429.553-.673a25.333,25.333,0,0,0,2.232-3.875l.365-.762.294-.786c.191-.524.4-1.052.577-1.58.078-.3.166-.56.262-.822.046-.124.1-.266.135-.4l.248-.924c.081-.3.11-.627.166-.939.089-.634.2-1.261.255-1.9.007-.23,0-.439-.007-.648s-.011-.418,0-.648c.007-.407.035-.818.032-1.226l-.053-1.233c-.011-.3-.025-.6-.046-.893-.032-.56-.163-1.109-.23-1.665a13.657,13.657,0,0,0-.3-1.651l-.4-1.58a16.04,16.04,0,0,0-.524-1.537,22.894,22.894,0,0,0-1.314-2.972,5.222,5.222,0,0,0-.574-.924c-.081-.106-.166-.23-.244-.354l-.652-1.038c-.237-.333-.492-.652-.74-.978l-.407-.524c-.3-.351-.631-.694-.956-1.045s-.648-.712-.967-1.066c-.414-.4-.85-.776-1.272-1.162-.216-.191-.422-.39-.645-.57l-.691-.521c-.468-.333-.907-.708-1.392-1.013l-1.47-.9c-.191-.117-.379-.234-.563-.337-.29-.181-.613-.351-.953-.517a24.4,24.4,0,0,0-3.312-1.332l-1.077-.287-.864-.227a9.883,9.883,0,0,0-1.2-.227l-1.218-.188A8.758,8.758,0,0,0,36.34,9.9l-1.226-.053a8.347,8.347,0,0,0-.893-.025c-.227.011-.439,0-.645,0a6.376,6.376,0,0,0-.641-.007l-1.006.057-1,.152c-.142.021-.287.057-.418.089-.276.067-.56.12-.861.17-.73.142-1.445.354-2.168.535a7.909,7.909,0,0,0-1.063.344l-1.048.386c-.205.078-.411.163-.609.244a.559.559,0,0,0-.156.1c-.014.018.032.018.074.011.138-.032.3-.039.45-.06.12-.011.163,0,.1.046a.944.944,0,0,1-.17.085c-.28.1-.531.248-.8.368-.337.163-.659.29-.981.411a5.368,5.368,0,0,0-.691.3,7.2,7.2,0,0,0-.63.418c-.287.205-.56.4-.882.6-.259.149-.51.3-.737.446-.283.163-.592.372-.85.5-.205.1-.457.266-.684.4a2.476,2.476,0,0,0-.514.383l-1.151,1.056a3.992,3.992,0,0,0-.3.3c-.177.216-.351.443-.556.662M52.7,49.559a.435.435,0,0,1-.138.227c-.085.071-.128.074-.117.018a.578.578,0,0,1,.043-.1c.032-.035.06-.081.085-.1.074-.067.135-.1.128-.039m.6.531a1.1,1.1,0,0,1-.184.3c-.135.163-.283.322-.429.482a4.374,4.374,0,0,1-.57.521.636.636,0,0,1-.308.156.27.27,0,0,1-.213-.124c-.032-.053.106-.3.266-.489l.308-.347c.248-.276.39-.432.531-.584.276-.319.6-.574.634-.5.021.05.064.078.046.177a3.349,3.349,0,0,1-.081.4m3.6-7.02a2.847,2.847,0,0,1-.124.528,7.054,7.054,0,0,1-.287.776,7.932,7.932,0,0,1-.478.882l-.2.326a1.187,1.187,0,0,1-.188.255,1.914,1.914,0,0,1,.092-.3c.174-.372.347-.744.524-1.13.227-.411.358-.875.545-1.314a.928.928,0,0,1,.081-.159c.039-.039.046.014.032.135m.429-12.621c0,.181.007.361.014.538-.1-.57-.213-1.137-.351-1.693.05.124.1.241.156.375a2.306,2.306,0,0,1,.181.779" transform="translate(25.317 24.932)" fill="#99003f"/>
      <path id="Caminho_61" data-name="Caminho 61" d="M.213,16.756l.011.071a2.521,2.521,0,0,1,.053.521,2.09,2.09,0,0,1-.032.425,3.351,3.351,0,0,1-.106.492,2.177,2.177,0,0,0-.085.4,1.364,1.364,0,0,0-.032.322l.018.776a1.293,1.293,0,0,0,.028.209,1.992,1.992,0,0,1,.05.422,1.176,1.176,0,0,0,.152.638L.3,21.1a.78.78,0,0,1,.057.287l.028.765a1.71,1.71,0,0,1-.039.429,2.158,2.158,0,0,0-.035.432,2.6,2.6,0,0,0,.078.726,1.417,1.417,0,0,1,.035.191c.014.142.025.28.039.422a2.548,2.548,0,0,0,.039.3,2.486,2.486,0,0,1,.064.39c.032.46.067.917.074,1.4a3.371,3.371,0,0,0,.074.708,3.59,3.59,0,0,1,.067.482l.1,1.452a.29.29,0,0,0,.039.159c.018.021.043.018.064-.035a.745.745,0,0,0,.032-.195c.007-.181,0-.354-.011-.528a2.462,2.462,0,0,1,.007-.322,3.556,3.556,0,0,0,.018-.432L1.017,27.1a1.946,1.946,0,0,1,.025-.322,1.617,1.617,0,0,0-.011-.51,1.778,1.778,0,0,1-.06-.368L.882,23.482a2.183,2.183,0,0,1,.039-.528.732.732,0,0,0-.007-.3,1.882,1.882,0,0,1-.067-.372,4.255,4.255,0,0,0-.081-.592.589.589,0,0,1,0-.209,3.606,3.606,0,0,0,.046-.524l.011-.641a1.267,1.267,0,0,1,.078-.39,1.254,1.254,0,0,1,.1-.23,1.814,1.814,0,0,0,.11-.22.406.406,0,0,0-.007-.361c-.057-.124-.106-.149-.174-.078l-.043.057c-.053.067-.078.06-.124-.021A.4.4,0,0,1,.7,18.9a1.172,1.172,0,0,1,.1-.673.2.2,0,0,1,.138-.106c.032-.007.067.018.1.018.074,0,.124-.1.135-.248,0-.067.011-.135.011-.205a2.116,2.116,0,0,1,.142-.751c.021-.064.046-.124.071-.181l.248-.57.227.1c.092.035.188.078.276.117a.741.741,0,0,0,.276.046l.393,0a2.516,2.516,0,0,1,.758.089.536.536,0,0,0,.188.025l.592.011,3.06-.021a.8.8,0,0,0,.188-.025,3.053,3.053,0,0,0,.584-.181,1,1,0,0,1,.361-.067l.691-.018a2.289,2.289,0,0,0,.475-.06A1.082,1.082,0,0,1,10,16.168h.829c.354.007.652.011.946.014a1.66,1.66,0,0,1,.191.025,1.881,1.881,0,0,0,.379.046l.6,0a.65.65,0,0,0,.188-.025c.227-.071.507-.071.74-.128a1.487,1.487,0,0,1,.287-.028l.294-.025a3.064,3.064,0,0,1,.857-.089.8.8,0,0,0,.188-.028,1.881,1.881,0,0,1,.57-.06h.2a2.333,2.333,0,0,1,.74.12.363.363,0,0,1,.074.028l.05.043a.863.863,0,0,0,.411.209.352.352,0,0,1,.2.1c.057.06.135.11.188.174a.432.432,0,0,0,.29.113,1.281,1.281,0,0,1,.386.1H1.867v11.59h.2l-.195.085a.721.721,0,0,0-.223.131q-.186.181-.351.351c-.021.021,0,.046.025.064a.534.534,0,0,0,.2.057l.287.021a2.426,2.426,0,0,1,.347.046,1.807,1.807,0,0,0,.259.039,3.389,3.389,0,0,1,.535.067c.184.039.436.046.6.1.1.007.191.014.287.025a2.089,2.089,0,0,1,.361.046,1.2,1.2,0,0,0,.273.039l.3.014a1.563,1.563,0,0,1,.443.064,1.2,1.2,0,0,0,.273.039l.411.007c.422,0,.825.021,1.229.043a1.026,1.026,0,0,1,.262.046,1.971,1.971,0,0,0,.46.067c.135.007.276.011.414.011.319,0,.63,0,.935.014,1.027.043,2.069.06,3.1.085l1.665.035a2.522,2.522,0,0,1,.482.06,1.1,1.1,0,0,0,.4.007,3.667,3.667,0,0,1,.623-.046l4.371.025h.106c.754.043,1.516.032,2.278.053a1.171,1.171,0,0,1,.195.021,2.065,2.065,0,0,0,.4.046l1.559.025a1.454,1.454,0,0,1,.3.025,2.154,2.154,0,0,0,.347.053l1.7.113.067-1.877.007-.237.014-1.183a2.352,2.352,0,0,1,.053-.577,1.124,1.124,0,0,0,.025-.29l.028-1.874a1.515,1.515,0,0,1,.028-.287A1.919,1.919,0,0,0,27,23.511l.011-1.976.018-1.477a1.632,1.632,0,0,1,.05-.379,1.041,1.041,0,0,0,.028-.188c.025-.556.021-1.119,0-1.675a1.821,1.821,0,0,0-.039-.283,1.77,1.77,0,0,1-.035-.283l-.014-.492-.057-2.012-1.92.039c-.195,0-.393,0-.592-.007a3.64,3.64,0,0,0-.393,0c-.492.021-.985.011-1.481.007-.953,0-1.909,0-2.862.011a2.33,2.33,0,0,0-.478.046,1.129,1.129,0,0,1-.191.021l-1.084.035-.294.011a6.257,6.257,0,0,1-1.265.06c-1.02.011-2.04.007-3.06,0a1.581,1.581,0,0,1-.29-.021,2.1,2.1,0,0,0-.478-.053c-.524,0-1.052-.018-1.58-.007-.163,0-.326,0-.492-.007-.131,0-.262-.007-.393,0-.723.018-1.449-.007-2.171,0l-.393-.007a1.248,1.248,0,0,1-.287-.035,1.446,1.446,0,0,0-.283-.032l-.886.007a1.668,1.668,0,0,0-.191.018,2.263,2.263,0,0,1-.386.039l-1.973.007c-.1,0-.195.011-.29.018a.17.17,0,0,0-.081.028c-.007.007.011.032.028.043a2.108,2.108,0,0,1,.195.11c.053.028.067.057.035.074a.242.242,0,0,1-.085.025l-.393.007a2.32,2.32,0,0,1-.475-.057,1.659,1.659,0,0,0-.606-.014L0,15.385Zm25.436,3.91a.226.226,0,0,1,.021-.081c.021-.025.05,0,.074.053a.655.655,0,0,1,.067.248c.011.128.011.255.014.383a1.8,1.8,0,0,1-.046.464c-.014.06-.025.12-.035.174a.355.355,0,0,1-.06.149.575.575,0,0,1-.046-.145c-.007-.191-.011-.383-.018-.581.011-.216.021-.439.028-.662m-.1,3.765c.011-.2.128-.383.2-.365a.291.291,0,0,1,.145.053,1.252,1.252,0,0,1,.177.163.387.387,0,0,1,.046.163c.007.1.007.195.007.29a.932.932,0,0,1-.074.358.253.253,0,0,1-.12.149.529.529,0,0,1-.244.028c-.057-.011-.124-.138-.128-.255l-.007-.216c0-.174-.007-.269,0-.368m-.354-.113c.018-.046.05-.074.078-.05a.106.106,0,0,1,.025.124c-.014.05-.043.064-.074.039a.178.178,0,0,1-.035-.05.317.317,0,0,1,.007-.064m-2.267-7.651c.113.028.223.06.333.089h-.988c.092-.028.177-.057.273-.078a.825.825,0,0,1,.383-.011" transform="translate(0 37.481)" fill="#99003f"/>
      <path id="Caminho_62" data-name="Caminho 62" d="M3.9,14.035a.79.79,0,0,0,.159-.113c.135-.124.248-.251.368-.383a1.752,1.752,0,0,1,.234-.223,2.736,2.736,0,0,0,.315-.29l.439-.46a2.336,2.336,0,0,1,.244-.213,1.47,1.47,0,0,0,.351-.365,1.922,1.922,0,0,1,.216-.3L7.877,9.916a2.514,2.514,0,0,1,.4-.351.674.674,0,0,0,.209-.216A2.061,2.061,0,0,1,8.7,9.038a3.943,3.943,0,0,0,.361-.478.64.64,0,0,1,.145-.149,3.022,3.022,0,0,0,.4-.34l.457-.446A1.5,1.5,0,0,1,10.4,7.4a1.2,1.2,0,0,1,.237-.085,1.987,1.987,0,0,0,.23-.081.385.385,0,0,0,.248-.259c.05-.128.035-.181-.064-.177l-.067.007c-.089.011-.1-.011-.074-.1a.34.34,0,0,1,.078-.156,1.084,1.084,0,0,1,.542-.4.2.2,0,0,1,.174.018c.028.018.032.057.057.081.05.05.159.014.269-.085.05-.043.1-.085.152-.135a2.255,2.255,0,0,1,.63-.432A1.943,1.943,0,0,1,13,5.52l.577-.23.092.23c.035.092.078.188.113.28a.653.653,0,0,0,.159.223l.283.276a2.713,2.713,0,0,1,.471.6.518.518,0,0,0,.113.152l.414.425L17.4,9.626a.638.638,0,0,0,.149.113,3.243,3.243,0,0,0,.542.29.907.907,0,0,1,.3.205l.5.475a2.4,2.4,0,0,0,.375.294,1.216,1.216,0,0,1,.223.181c.209.213.418.422.588.588.244.259.453.468.659.684a.985.985,0,0,1,.117.149,1.843,1.843,0,0,0,.237.3l.418.418a.63.63,0,0,0,.152.113c.213.11.407.312.616.432a1.744,1.744,0,0,1,.223.188l.223.188a2.98,2.98,0,0,1,.669.542.738.738,0,0,0,.152.113,2.145,2.145,0,0,1,.446.365l.138.138a2.385,2.385,0,0,1,.443.606.244.244,0,0,1,.028.074l.007.067a.89.89,0,0,0,.145.436.39.39,0,0,1,.067.213c0,.081.014.174.007.255a.442.442,0,0,0,.128.29,1.265,1.265,0,0,1,.2.337L13.328,5.853,5.135,14.046l.142.145-.2-.074a.736.736,0,0,0-.255-.067c-.166,0-.333-.007-.492,0-.028,0-.032.032-.028.064a.574.574,0,0,0,.1.181c.064.078.124.145.188.22a2.386,2.386,0,0,1,.216.28c.043.064.1.135.156.209a3.642,3.642,0,0,1,.329.425c.1.159.276.337.358.492.06.074.124.145.184.22a2.245,2.245,0,0,1,.227.29,1.151,1.151,0,0,0,.163.216l.205.223a1.668,1.668,0,0,1,.266.361,1.089,1.089,0,0,0,.166.22l.283.3c.294.3.567.6.839.9a1.179,1.179,0,0,1,.152.22,1.825,1.825,0,0,0,.28.372c.089.1.184.2.287.3.227.22.443.446.648.669.694.758,1.42,1.505,2.136,2.256l1.151,1.2a2.3,2.3,0,0,1,.294.383,1.174,1.174,0,0,0,.283.294,3.668,3.668,0,0,1,.475.4l3.071,3.114.074.074c.507.56,1.052,1.095,1.573,1.647a1.065,1.065,0,0,1,.128.156,2.752,2.752,0,0,0,.248.315l1.084,1.116a1.461,1.461,0,0,1,.195.23,1.849,1.849,0,0,0,.213.283L21.4,32.961l1.371-1.282.177-.159.847-.832a2.4,2.4,0,0,1,.446-.365,1.19,1.19,0,0,0,.22-.188l1.346-1.3a1.568,1.568,0,0,1,.223-.188,1.7,1.7,0,0,0,.3-.237l1.4-1.392,1.059-1.034a1.545,1.545,0,0,1,.3-.23,1.094,1.094,0,0,0,.152-.117c.411-.375.8-.772,1.183-1.183a1.286,1.286,0,0,0,.174-.227A2.037,2.037,0,0,1,30.777,24l.336-.361L32.5,22.175l-1.385-1.328c-.142-.138-.28-.276-.414-.422a3.439,3.439,0,0,0-.276-.28c-.365-.333-.7-.694-1.052-1.041-.673-.68-1.346-1.353-2.033-2.019a2.154,2.154,0,0,0-.372-.3.924.924,0,0,1-.149-.12l-.79-.74-.216-.2a6.1,6.1,0,0,1-.935-.857c-.733-.708-1.452-1.435-2.161-2.164a1.121,1.121,0,0,1-.191-.22,2.145,2.145,0,0,0-.3-.375c-.368-.372-.73-.758-1.109-1.119-.12-.117-.23-.237-.347-.354-.089-.092-.177-.195-.273-.283-.524-.5-1.02-1.027-1.541-1.534l-.273-.28a1.31,1.31,0,0,1-.177-.227,1.287,1.287,0,0,0-.174-.227l-.634-.62a.963.963,0,0,0-.149-.12,2.166,2.166,0,0,1-.3-.248L15.843,5.7a2.83,2.83,0,0,0-.22-.191.138.138,0,0,0-.074-.039c-.014,0-.014.028-.007.05.018.071.039.142.057.213s.007.092-.028.081a.245.245,0,0,1-.078-.043l-.28-.273a2.12,2.12,0,0,1-.3-.379,1.835,1.835,0,0,0-.418-.443l-1.52-1.116-.818,1.116-.043.06a2.721,2.721,0,0,1-.329.407,1.8,1.8,0,0,1-.326.276,3.576,3.576,0,0,1-.422.276,2.618,2.618,0,0,0-.344.216,1.34,1.34,0,0,0-.248.209l-.538.56a1.129,1.129,0,0,0-.124.166,2.044,2.044,0,0,1-.266.329,1.265,1.265,0,0,0-.347.567.34.34,0,0,1-.025.071.775.775,0,0,1-.163.244l-.521.56a2.029,2.029,0,0,1-.329.28,1.887,1.887,0,0,0-.333.28,2.639,2.639,0,0,0-.46.563.852.852,0,0,1-.106.163c-.092.11-.181.22-.273.326a1.841,1.841,0,0,0-.184.244,2.844,2.844,0,0,1-.237.319c-.3.351-.6.694-.928,1.038a3.586,3.586,0,0,0-.45.553,3.627,3.627,0,0,1-.294.39l-.956,1.1a.321.321,0,0,0-.085.138c0,.028.021.046.071.021m20.668,13.68a.116.116,0,0,1-.067.11c-.05.021-.078.014-.085-.028l.014-.06a.252.252,0,0,1,.046-.043c.046-.014.089-.014.092.021m.468.723a2.825,2.825,0,0,1-.2.213.889.889,0,0,1-.3.2.264.264,0,0,1-.188.021.592.592,0,0,1-.195-.152c-.032-.046.007-.188.089-.273.064-.067.135-.142.149-.159.12-.12.188-.191.262-.259.145-.135.361-.181.4-.117.028.046.064.078.064.138a1.357,1.357,0,0,1,.011.241.38.38,0,0,1-.085.149m2.437-2.958a.783.783,0,0,1-.131.227c-.081.1-.174.188-.259.28a1.733,1.733,0,0,1-.361.294c-.057.035-.1.071-.152.1a.3.3,0,0,1-.142.06.4.4,0,0,1,.067-.135l.4-.418c.159-.149.326-.3.489-.45a.148.148,0,0,1,.074-.043c.032,0,.035.032.018.085m.811-4.8c.06.1.113.195.166.29l-.691-.691c.081.043.166.085.248.138a.757.757,0,0,1,.276.262" transform="translate(9.731 9.063)" fill="#99003f"/>
      <path id="Caminho_63" data-name="Caminho 63" d="M16.836,26.807l1.187.011a2.524,2.524,0,0,1,.574.057,1.29,1.29,0,0,0,.29.021l1.87.032a1.3,1.3,0,0,1,.29.025,1.689,1.689,0,0,0,.383.043l1.973.011,1.481.018a1.415,1.415,0,0,1,.375.05,1.717,1.717,0,0,0,.188.028c.56.021,1.119.021,1.675,0a1.709,1.709,0,0,0,.283-.039,1.513,1.513,0,0,1,.283-.035l.5-.014,2.012-.057-.039-1.92c0-.2,0-.393,0-.592.007-.131.007-.262,0-.393-.021-.492-.011-.988-.011-1.481.007-.953.007-1.906-.007-2.862a2.6,2.6,0,0,0-.05-.478,1.6,1.6,0,0,1-.021-.188l-.032-1.084-.011-.3a5.966,5.966,0,0,1-.06-1.261c-.014-1.02-.011-2.044,0-3.064a1.338,1.338,0,0,1,.021-.29,2.294,2.294,0,0,0,.05-.475c.007-.528.021-1.052.007-1.58,0-.166,0-.329.007-.492,0-.135.007-.266.007-.4-.018-.723.007-1.445-.007-2.168l.007-.393a1.408,1.408,0,0,1,.035-.283,1.514,1.514,0,0,0,.035-.287l-.007-.889a.854.854,0,0,0-.025-.188,2.3,2.3,0,0,1-.032-.386l-.011-1.973c0-.1-.011-.195-.018-.287a.221.221,0,0,0-.025-.085c-.011-.007-.032.011-.043.028-.035.067-.074.131-.11.195s-.06.067-.078.039a.292.292,0,0,1-.025-.089l-.007-.393a2.6,2.6,0,0,1,.057-.475,1.584,1.584,0,0,0,.018-.606L29.556,0,28.185.209l-.074.014a2.8,2.8,0,0,1-.524.053,1.864,1.864,0,0,1-.425-.032,3.961,3.961,0,0,1-.489-.106,2.561,2.561,0,0,0-.4-.089,1.526,1.526,0,0,0-.319-.028l-.776.014a1.293,1.293,0,0,0-.209.028,1.964,1.964,0,0,1-.422.05,1.257,1.257,0,0,0-.641.152A.441.441,0,0,1,23.835.3a.96.96,0,0,1-.29.057l-.762.025a1.571,1.571,0,0,1-.429-.035,2.193,2.193,0,0,0-.436-.035A2.714,2.714,0,0,0,21.2.386a1.015,1.015,0,0,1-.191.039c-.142.014-.28.028-.422.039a1.984,1.984,0,0,0-.3.039,2.944,2.944,0,0,1-.393.064C19.429.6,18.972.63,18.5.638a3.553,3.553,0,0,0-.708.078,3.237,3.237,0,0,1-.482.064l-1.452.1A.32.32,0,0,0,15.7.917c-.021.018-.018.046.032.067a.972.972,0,0,0,.195.032c.184.007.354,0,.531-.011a1.934,1.934,0,0,1,.319.007,2.536,2.536,0,0,0,.432.018l.634-.014a1.946,1.946,0,0,1,.322.025,1.516,1.516,0,0,0,.51-.011,1.738,1.738,0,0,1,.368-.06L21.455.882a2.9,2.9,0,0,1,.528.035.8.8,0,0,0,.3,0,1.651,1.651,0,0,1,.372-.071,4.255,4.255,0,0,0,.592-.081.816.816,0,0,1,.209,0,3.651,3.651,0,0,0,.524.046l.641.007a1.209,1.209,0,0,1,.39.081,1.054,1.054,0,0,1,.23.1,1.582,1.582,0,0,0,.22.106.377.377,0,0,0,.358-.007c.124-.053.152-.1.078-.17a.349.349,0,0,0-.053-.043c-.067-.057-.064-.078.021-.124A.4.4,0,0,1,26.035.7,1.127,1.127,0,0,1,26.7.8a.2.2,0,0,1,.106.138c.007.032-.018.064-.014.1,0,.067.1.124.248.131.067,0,.135.011.2.011A2.12,2.12,0,0,1,28,1.321c.064.025.124.046.184.071l.567.251-.1.22c-.039.092-.081.191-.117.28a.72.72,0,0,0-.05.273l.007.4a2.624,2.624,0,0,1-.092.754.636.636,0,0,0-.021.188l-.011.592.021,3.06a.8.8,0,0,0,.025.188,3.053,3.053,0,0,0,.177.584.938.938,0,0,1,.071.361l.018.687a1.853,1.853,0,0,0,.06.475,1.3,1.3,0,0,1,.025.29v.829c0,.354-.011.648-.014.946a1.178,1.178,0,0,1-.025.191,1.853,1.853,0,0,0-.042.379v.592a.753.753,0,0,0,.025.188c.071.227.067.507.131.744a1.8,1.8,0,0,1,.025.287l.025.29a2.95,2.95,0,0,1,.092.857,1.085,1.085,0,0,0,.025.191,1.985,1.985,0,0,1,.064.57l0,.2a2.439,2.439,0,0,1-.117.74.43.43,0,0,1-.032.071l-.043.053a.864.864,0,0,0-.205.407.4.4,0,0,1-.1.2c-.06.053-.113.131-.174.184a.419.419,0,0,0-.117.294,1.341,1.341,0,0,1-.1.386V1.863H16.6v.209c-.028-.067-.06-.128-.089-.2a.7.7,0,0,0-.131-.223c-.117-.124-.234-.244-.351-.351-.021-.021-.046,0-.064.025a.534.534,0,0,0-.057.2l-.021.283a1.917,1.917,0,0,1-.046.351,1.824,1.824,0,0,0-.035.259,3.373,3.373,0,0,1-.071.535c-.039.181-.043.436-.1.6-.007.1-.014.191-.025.287a2.135,2.135,0,0,1-.046.361,1.46,1.46,0,0,0-.035.269l-.014.3a1.73,1.73,0,0,1-.064.446,1.032,1.032,0,0,0-.039.273L15.4,5.9c0,.418-.021.822-.043,1.226a.94.94,0,0,1-.046.266,1.975,1.975,0,0,0-.064.457c-.007.138-.014.276-.011.418,0,.319,0,.623-.014.932-.046,1.024-.064,2.069-.085,3.106L15.1,13.97a2.514,2.514,0,0,1-.064.482,1.184,1.184,0,0,0-.007.4,3.363,3.363,0,0,1,.05.623l-.028,4.371v.106c-.039.751-.032,1.516-.053,2.274a1.173,1.173,0,0,1-.021.2,2.879,2.879,0,0,0-.046.4l-.025,1.555a1.712,1.712,0,0,1-.025.3,2.282,2.282,0,0,0-.053.347l-.113,1.7L16.6,26.8Zm3.836-1.541a.106.106,0,0,1-.124.025c-.05-.018-.067-.043-.039-.074.007-.014.032-.025.05-.035a.186.186,0,0,1,.064.007c.046.018.074.05.05.078m.149.616a1.1,1.1,0,0,1-.163.177.4.4,0,0,1-.163.05c-.1.007-.2.007-.294.007a.882.882,0,0,1-.351-.074c-.078-.035-.135-.071-.152-.12a.521.521,0,0,1-.025-.244c.007-.057.135-.124.248-.128l.22-.007c.17,0,.269,0,.368,0,.2.011.383.131.365.2-.014.05-.011.1-.053.142m3.482-.145a.674.674,0,0,1-.248.067c-.128.011-.255.011-.383.014a1.532,1.532,0,0,1-.464-.046c-.064-.014-.12-.025-.177-.039a.3.3,0,0,1-.145-.057.551.551,0,0,1,.142-.046c.195-.007.383-.011.581-.018.22.011.443.018.666.028.028,0,.067.011.078.025.028.021,0,.046-.05.071m3.96-3.2a.809.809,0,0,1,.007.379c-.025.117-.057.227-.085.336v-.985c.025.085.053.177.078.269" transform="translate(37.415 0)" fill="#99003f"/>
      <path id="Caminho_64" data-name="Caminho 64" d="M2.113,26.2a8.231,8.231,0,0,1,.96-2.49l3.16,1.4a8.783,8.783,0,0,0-.854,2.054,7.992,7.992,0,0,0-.322,2.189,3.451,3.451,0,0,0,.174,1.286.56.56,0,0,0,.524.383c.269,0,.471-.166.606-.5A10.4,10.4,0,0,0,6.8,28.852a18,18,0,0,1,.673-2.479,4.191,4.191,0,0,1,1.172-1.725,3.178,3.178,0,0,1,2.214-.737,3.812,3.812,0,0,1,2.2.68,4.507,4.507,0,0,1,1.562,2.03,8.443,8.443,0,0,1,.567,3.276,12.03,12.03,0,0,1-.283,2.6,8.152,8.152,0,0,1-.836,2.249l-3.142-1.3a7.96,7.96,0,0,0,.956-3.581c0-1.112-.269-1.672-.808-1.672-.259,0-.45.163-.577.5a10.042,10.042,0,0,0-.414,1.636A16.927,16.927,0,0,1,9.456,32.8a4.317,4.317,0,0,1-1.162,1.753,3.132,3.132,0,0,1-2.2.744,3.774,3.774,0,0,1-2.2-.677,4.581,4.581,0,0,1-1.562-2.03,8.305,8.305,0,0,1-.577-3.276A13.369,13.369,0,0,1,2.113,26.2" transform="translate(4.454 60.271)" fill="#99003f"/>
      <path id="Caminho_65" data-name="Caminho 65" d="M15.738,35.231a5.971,5.971,0,0,1,.5-.882c.135-.209.237-.375.3-.507a.8.8,0,0,0,.1-.372A.741.741,0,0,0,16.4,32.9a1.072,1.072,0,0,0-.662-.255V30.673a3.859,3.859,0,0,1,2.324.712,2.195,2.195,0,0,1,.857,1.824,2.339,2.339,0,0,1-.188.956,5.326,5.326,0,0,1-.492.882,3.426,3.426,0,0,0-.315.5.914.914,0,0,0-.092.379.766.766,0,0,0,.23.57,1,1,0,0,0,.616.255V38.72a3.733,3.733,0,0,1-2.267-.7,2.208,2.208,0,0,1-.857-1.831,2.418,2.418,0,0,1,.184-.953M4.077,37.105V32.217l-2.242-.861V26.95l12.858,5.618v4.261L1.835,42.45V37.966ZM7.2,35.912l3.234-1.25L7.2,33.414Z" transform="translate(4.665 68.51)" fill="#99003f"/>
      <path id="Caminho_66" data-name="Caminho 66" d="M2.616,34.85a6.454,6.454,0,0,1,5.859-3.524,6.454,6.454,0,0,1,5.859,3.524,8.48,8.48,0,0,1,0,7.46,6.449,6.449,0,0,1-5.859,3.528A6.449,6.449,0,0,1,2.616,42.31a8.48,8.48,0,0,1,0-7.46M5.655,40.04a2.808,2.808,0,0,0,1.119,1.038,3.563,3.563,0,0,0,1.7.386,3.563,3.563,0,0,0,1.7-.386,2.808,2.808,0,0,0,1.119-1.038,2.883,2.883,0,0,0,0-2.919,2.833,2.833,0,0,0-1.119-1.038,3.6,3.6,0,0,0-1.7-.386,3.6,3.6,0,0,0-1.7.386,2.833,2.833,0,0,0-1.119,1.038,2.9,2.9,0,0,0,0,2.919" transform="translate(4.454 79.634)" fill="#99003f"/>
      <path id="Caminho_67" data-name="Caminho 67" d="M14.1,46.718A4.447,4.447,0,0,1,9.844,49.47a4.6,4.6,0,0,1-2.572-.716,4.542,4.542,0,0,1-1.69-2.037,7.572,7.572,0,0,1-.588-3.106V41.759H1.835V37.423H14.693v6.188a7.63,7.63,0,0,1-.588,3.106M8.731,44.66a1.415,1.415,0,0,0,1.112.443,1.407,1.407,0,0,0,1.109-.443,1.913,1.913,0,0,0,.4-1.321v-1.58H8.338v1.58a1.931,1.931,0,0,0,.393,1.321" transform="translate(4.665 95.134)" fill="#99003f"/>
      <path id="Caminho_68" data-name="Caminho 68" d="M4.077,50.8V45.92l-2.242-.864V40.649l12.858,5.618v4.261L1.835,56.149V51.668ZM7.2,49.611l3.234-1.25L7.2,47.113Z" transform="translate(4.665 103.335)" fill="#99003f"/>
      <path id="Caminho_69" data-name="Caminho 69" d="M3.35,46.765a5.941,5.941,0,0,1,4.481-1.651H14.9V49.45H7.959a3.329,3.329,0,0,0-2.054.5,1.978,1.978,0,0,0,0,2.922,3.353,3.353,0,0,0,2.054.5H14.9v4.261H7.831A5.954,5.954,0,0,1,3.35,55.988a6.366,6.366,0,0,1-1.6-4.612,6.361,6.361,0,0,1,1.6-4.612" transform="translate(4.456 114.685)" fill="#99003f"/>
      <path id="Caminho_70" data-name="Caminho 70" d="M14.69,49.209v4.336h-9.5v5.8H1.836V49.209Z" transform="translate(4.667 125.096)" fill="#99003f"/>
      <path id="Caminho_71" data-name="Caminho 71" d="M2.616,55.739a6.449,6.449,0,0,1,5.859-3.528,6.449,6.449,0,0,1,5.859,3.528,8.48,8.48,0,0,1,0,7.46,6.454,6.454,0,0,1-5.859,3.524A6.454,6.454,0,0,1,2.616,63.2a8.48,8.48,0,0,1,0-7.46m3.039,5.189a2.833,2.833,0,0,0,1.119,1.038,3.6,3.6,0,0,0,1.7.383,3.6,3.6,0,0,0,1.7-.383,2.833,2.833,0,0,0,1.119-1.038,2.883,2.883,0,0,0,0-2.919,2.808,2.808,0,0,0-1.119-1.038,3.564,3.564,0,0,0-1.7-.39,3.564,3.564,0,0,0-1.7.39,2.808,2.808,0,0,0-1.119,1.038,2.9,2.9,0,0,0,0,2.919" transform="translate(4.454 132.726)" fill="#99003f"/>
    </g>
  </g>
</svg>
