<svg xmlns="http://www.w3.org/2000/svg" xmlns:xlink="http://www.w3.org/1999/xlink" width="163.509" height="144.467" viewBox="0 0 163.509 144.467"><defs><clipPath id="a"><rect width="163.509" height="144.467" fill="none"/></clipPath></defs><rect width="158.061" height="138.396" transform="translate(2.469 2.944)" fill="#ad144f"/><g clip-path="url(#a)"><path d="M1.427,1.339c.364-.027.937-.04,1.559-.045L15.6,1.2c1.537-.011,2.919-.037,4.322-.075,1.954-.052,4.061-.082,6.189-.081L37.857.968C39.085.958,40.208.931,41.295.9l2.63-.045L47.511.806,49.178.761c1.9-.079,4-.089,6.138-.091,1.231,0,2.392.009,3.46.046s2.238.051,3.466.045L68.588.726C69.488.72,70.351.7,71.05.654L71.7.611C73.106.494,74.866.422,77.17.416c1.228,0,2.382-.029,3.5-.066L82.4.312,88.758.276C89.7.271,90.575.285,91.389.31c1.086.033,2.316.048,3.247.1,1.173.069,2.714.083,4.07.125,1.116.034,2.332.033,3.551.033,1.555,0,2.935-.039,4.353-.081,2.022-.059,4.15-.065,6.189-.01,1.424.039,2.854.068,4.389.064L120.8.526c.276,0,.6-.015.783-.031.288-.026.132-.062-.355-.1L119.413.255c-.171-.014-.354-.04-.271-.054.11-.016.457-.031.734-.035l2.67-.03L140.741.1c1.227,0,2.4-.016,3.546-.049.559-.01,1.157-.022,1.74-.033L154.211,0c.933,0,1.773.022,2.613.047s1.7.045,2.623.048l1.082,0,2.839.009-.006,2.485-.005,2.216.007,17.377c0,1.047-.006,2.1-.008,3.155,0,1.315-.007,2.634-.01,3.943q0,6.324-.011,12.636c0,1.331-.021,2.619-.074,3.83-.032.747-.03,1.54-.032,2.324q0,12.242-.005,24.486c.008,3.383-.055,6.867.089,10.126l.015,2.358.05,8.672c.011.513.022,1.045.033,1.52.05,1.23.07,2.5.072,3.834l.014,22.909.012,11.842c0,1.044,0,2.11,0,3.155q0,2.378-.008,4.742l0,2.6-2.967.011-4.472.019c-.91,0-1.755.021-2.585.048s-1.664.046-2.576.051q-7.621.038-15.241,0c-.579,0-1.169-.018-1.7-.036-1.1-.037-2.21-.064-3.432-.066l-13.459-.021-17.95-.014c-1.217,0-2.368-.019-3.472-.055-.837-.027-1.732-.032-2.627-.034l-17.044-.039c-.89,0-1.806,0-2.627-.033-1.645-.062-3.421-.071-5.227-.073l-10.768-.015c-1.806,0-3.573-.017-5.216-.078-.819-.031-1.741-.029-2.631-.032l-13.456-.031c-1.22,0-2.343-.028-3.467-.059l-1.728-.029-19.727-.048h-.9l-7.757.006-2.357,0v-2.076L.107,115.074c0-1.63-.025-3.141-.083-4.645-.036-.981-.031-2.1.009-3.116.049-1.234.09-2.463.093-3.831l.045-12.79L.3,66.723c.009-2.4.017-4.791.027-7.186.006-1.056.012-2.132.018-3.192.015-1.32.041-2.621.1-3.787.037-.666.069-1.377.077-2.207q.039-4.777.077-9.557c0-1.06.012-2.127.018-3.187.009-.783.023-1.569.062-2.257.064-1.113.095-2.376.107-3.728L.815,29.24c.008-.807.031-1.548.061-2.253.041-.948.062-1.975.076-3.03C.966,23.175.98,22.4.993,21.62c.083-1.561.092-3.527.155-5.16.057-1.45.087-2.943.111-4.509.02-.755.041-1.519.059-2.223.036-.953.061-1.933.074-2.99.011-.782.023-1.568.034-2.333s.05-1.434.091-1.939a1.81,1.81,0,0,1,.094-.6,2.644,2.644,0,0,1,.525.475,2.229,2.229,0,0,1,.2.9c.1.77.2,1.494.289,2.193a7.318,7.318,0,0,0,.154.747,11.806,11.806,0,0,1,.144,1.179c.091.974.171,2.152.249,3.356.133,2.016.311,3.234.446,5.319.026.4.061.727.094,1.021.039.275.07.5.1.744s.075.4.107.711c.068.648.121,1.508.138,2.612.023,1.563.009,3.152.055,4.691.059,1.5.111,2.842.171,4.381.03.753.059,1.436.089,2.183a26.56,26.56,0,0,0,.228,2.854c.055.412.12.6.173,1.053.074.621.135,1.482.157,2.576.012,1.03.025,2.079.039,3.114.008,1.329.037,2.585.1,3.789.01.235.021.479.032.727.051,2.851.116,5.711.033,8.4-.009.46-.019.95-.028,1.441,0,1.023,0,2.056,0,3.088s-.012,2.01-.043,2.954c-.013.694-.027,1.444-.041,2.188-.007,1.533,0,3.087-.062,4.469-.029.687-.022,1.492-.027,2.255l-.016,2.3C4.84,75.11,4.844,77,4.788,78.628c-.049,1.441-.074,2.9-.083,4.455-.014.757-.026,1.506-.04,2.243s-.031,1.429-.049,2.219c-.005,2.33-.009,4.655-.013,7,0,1.56,0,3.124,0,4.682,0,.5-.016,1.009-.034,1.472-.036.955-.063,1.926-.066,2.982l-.013,4.678c0,.536-.012,1.023-.035,1.485-.058,1.153-.082,2.4-.083,3.728q0,2.736-.011,5.47c-.015.761-.031,1.538-.045,2.264-.033.993-.049,1.995-.047,3.049q-.013,5.092-.027,10.171c-.007.778-.031,1.5-.064,2.215-.05,1.164-.1,2.375-.152,3.561-.015.459-.031.922-.048,1.409l-1.513-1.333.958.009,7.174,0,2.6-.041c.856-.018,1.663-.047,2.588-.048l9.868-.011c1.548,0,2.919.032,4.273.081.521.019,1.125.032,1.7.035q6.725.048,13.434-.013l1.717-.033c1.385-.047,2.815-.067,4.336-.068l36.793-.026,6.279.01c2.435,0,4.69.047,6.889.124,2.132.074,4.223.164,6.745.158.562,0,1.165.018,1.7.034l4.859.167,1.7.036,6.268.028c.612,0,1.182.009,1.736.028,1.373.048,2.832.065,4.347.065h17.051c.922,0,1.768-.021,2.564-.05,2.139-.081,4.668-.077,6.757-.169h2.681l3.036.092-1.051.926c.038-1.055.08-2.1.143-3.038.045-.648.083-1.3.152-1.655.182-.95.321-2.447.45-4.052.048-.6.1-1.223.129-1.928.106-2.156.205-4.157.309-6.268.043-.928.034-2.053-.012-3.052-.1-2.142-.221-4.1-.384-5.756-.071-.73-.142-1.477-.212-2.21-.073-.752-.116-1.678-.151-2.684-.03-.737-.057-1.413-.088-2.158,0-.751,0-1.561,0-2.347.064-1.414.13-2.838.195-4.24.046-.956.07-1.957.076-3.021q.008-.788.015-1.572c.021-1.564.156-4.6.25-5.616.053-.562.1-1.09.158-1.659.086-.971.149-2.067.172-3.421a14,14,0,0,1,.174-2.347c.08-.459.18-1.03.261-1.5a11.248,11.248,0,0,0,.156-1.589,25.521,25.521,0,0,1,.309-3.275c.023-.116.043-.26.062-.425s.04-.349.051-.574c.089-1.869.193-3.694.173-5.935,0-.522,0-1.053,0-1.579,0-1.595-.013-3.156-.091-4.573-.026-.469-.034-.972-.039-1.508-.022-2.337,0-4.788-.137-6.86l-.035-2.331c-.013-.774-.009-1.639-.041-2.3-.093-1.89-.089-4.116-.195-5.939-.026-.466-.038-.963-.037-1.51l0-4.735c0-1.069.027-2.069.065-3.057.011-.482.023-1.005.035-1.514.008-2.368.014-4.737.023-7.567,0-1.907,0-4.277,0-6.645,0-.783-.006-1.581-.039-2.311-.054-1.2-.087-2.442-.091-3.787l-.026-5.523c-.005-1.091-.035-2.1-.105-2.877-.109-1.229-.175-2.708-.243-4.186l-.016-.344-.362.012-.576.021c-.553.019-1.1.033-1.713.034l-27.851.029L125,2.333c-.617,0-1.206-.007-1.729-.031-2.13-.094-4.495-.115-6.918-.115l-3.593.007c-.931,0-1.792-.019-2.51-.058L106.024,1.9c-1.984-.1-4.065-.181-6.625-.174l-1.792-.012a6.946,6.946,0,0,1-2.134-.165c0-.041.217-.083.166-.122a1.969,1.969,0,0,0-.89-.172c-1.527-.122-3.439-.155-5.68-.114-.61.011-1.068.037-1.458.07-.738.062-.8.09-.254.158l.445.053c.555.084.305.146-.817.216a22.5,22.5,0,0,1-3.116.012c-.692-.04-1.243-.086-1.8-.134S80.9,1.42,80.195,1.384c-.943-.049-1.994-.091-3.248-.093l-5.425-.007c-1.543,0-2.957-.026-4.388-.057-.525-.011-1.253-.011-1.753,0-1.669.05-3.375.085-5.188.1-1.22.011-2.278.05-3.351.085-.846.027-1.735.03-2.585.005-1.391-.04-2.833-.055-4.374-.048L29.11,1.463c-1.244.005-2.289.04-3.381.07-1.431.039-2.893.039-4.361.007-.831-.018-1.667-.036-2.6-.033l-5.423.007c-1.223,0-2.4-.007-3.516-.031-.859-.018-1.756-.018-2.655-.014l-4.5,0c-.523-.006-1.144-.025-1.4-.046-.3-.026-.149-.062.154-.086M94.052,142.647a12.689,12.689,0,0,0-3.321-.265l-3.352,0-1.98.011a10.952,10.952,0,0,0-2.276.172c-.1.108-.007.216.243.322a6.658,6.658,0,0,0,1.361.159c.935.059,1.99.094,3.213.1l2.655-.009c.538-.007,1.213-.03,1.478-.061.617-.073,1.028-.156,1.513-.235a.755.755,0,0,0,.466-.189m-2.957-.594a6.051,6.051,0,0,0,1.139-.036c.214-.04-.052-.078-.476-.1l-.574-.01c-.157.015-.369.029-.46.046-.232.043-.09.079.371.1m21.239-.468c1.2-.007,2.38-.022,3.446-.064,1.084-.042,2.3-.044,3.446-.064a6.705,6.705,0,0,0,1.2-.072,8.978,8.978,0,0,0-1.337-.077l-.819-.026c-1.065-.041-2.163-.073-3.391-.076l-6.276-.017c-1.537,0-2.926-.038-4.25-.091-.538-.021-1.1-.033-1.713-.034l-8.964-.018-11.663-.011-1.738-.026-2.566-.055c-2.654-.028-5.356-.033-7.889-.113-.789-.025-1.751-.023-2.639-.028l-5.371-.025c-1.53,0-2.925-.037-4.3-.081-.839-.026-1.74-.026-2.639-.026-.934,0-1.839.018-2.388.071-1.468.143-3.24.253-5.594.312-.539.014-1,.047-1.46.073a3.891,3.891,0,0,0-.935.107,5.634,5.634,0,0,0,1.149.081l1.647.052c.587.023,1.133.031,1.68.011,1.379-.049,2.855-.063,4.36-.062.888,0,1.767,0,2.595.039,1.809.074,3.622.148,5.633.192a5.566,5.566,0,0,0,1.726-.107,1.09,1.09,0,0,0-.452-.124c-.453-.074-.036-.129.867-.122l2.644.026c.864.016,1.683.061,2.53.062,2.8,0,5.209.088,7.584.178,1.89.072,3.834.117,5.982.116l2.842.007h4.332c1.811,0,3.5-.035,5.179-.092,1.975-.065,4.06-.056,6.064.01l.818.026,1.7.036q4.469.038,8.956.011m13.377.96c-.129-.016-.48-.028-.746-.03l-6.034-.036-5.27.019c-.458,0-.867.041-1.3.064.329.037.772.063,1.312.077l1.607.048c1.33.05,2.741.068,4.216.063l3.475-.018c.857-.01,1.63-.043,2.266-.088.488-.034.7-.071.473-.1" transform="translate(0 0)" fill="#ad144f"/></g></svg>