<svg id="Grupo_48" data-name="Grupo 48" xmlns="http://www.w3.org/2000/svg" xmlns:xlink="http://www.w3.org/1999/xlink" width="286.733" height="68.593" viewBox="0 0 286.733 68.593">
  <defs>
    <clipPath id="clip-path">
      <rect id="Ret창ngulo_31" data-name="Ret창ngulo 31" width="286.733" height="68.593" fill="#fff"/>
    </clipPath>
  </defs>
  <rect id="Ret창ngulo_30" data-name="Ret창ngulo 30" width="280.766" height="61.97" transform="translate(2.713 3.208)" fill="#fff"/>
  <g id="Grupo_35" data-name="Grupo 35">
    <g id="Grupo_34" data-name="Grupo 34" clip-path="url(#clip-path)">
      <path id="Caminho_117" data-name="Caminho 117" d="M2.429.689C3.029.675,3.978.669,5,.666L25.852.618C28.394.613,30.678.6,32.995.581c3.229-.027,6.71-.042,10.23-.041L62.644.5C64.675.5,66.531.486,68.325.468L72.671.444,78.6.422,81.352.4C84.495.359,87.96.354,91.492.354c2.035,0,3.956,0,5.723.023s3.7.026,5.734.023L113.434.382c1.488,0,2.913-.015,4.068-.037l1.069-.021c2.319-.06,5.224-.1,9.032-.1,2.03,0,3.937-.015,5.785-.034l2.846-.02L146.749.152c1.552,0,3.006,0,4.352.017,1.8.017,3.833.024,5.376.052,1.943.035,4.49.043,6.737.064C165.06.3,167.071.3,169.086.3c2.568,0,4.85-.02,7.191-.042,3.337-.03,6.855-.034,10.229-.006,2.357.02,4.724.035,7.26.032l5.979-.009c.456,0,1-.008,1.291-.016.473-.013.213-.032-.594-.052L197.425.138c-.284-.007-.588-.021-.452-.027.18-.009.751-.016,1.21-.018L202.6.077,232.673.052c2.028,0,3.968-.009,5.86-.026.916-.008,1.9-.016,2.874-.017L254.938,0c1.541,0,2.935.012,4.324.024s2.817.023,4.342.023l6.007,0,12.074,0h4.8l0,1.289.006,5.561c0,.528-.011,1.06-.016,1.591,0,.663-.009,1.328-.016,1.989q-.009,3.189-.017,6.371a13.767,13.767,0,0,1-.127,1.931,9.1,9.1,0,0,0-.054,1.172L286.249,32.3A37.625,37.625,0,0,0,286.4,37.4l.026,1.189q.042,2.187.084,4.373a7.064,7.064,0,0,0,.056.766,15.233,15.233,0,0,1,.123,1.933l.023,11.551q.012,2.988.02,5.971c0,.527,0,1.064,0,1.591q0,1.2-.011,2.391l-.008,1.344-5.027.007-7.4.01c-1.505,0-2.9.012-4.274.025s-2.752.024-4.262.026q-12.6.021-25.2,0c-.959,0-1.934-.01-2.815-.019-1.813-.019-3.653-.034-5.675-.035L209.8,68.517,180.12,68.51c-2.014,0-3.915-.01-5.742-.029-1.386-.014-2.863-.016-4.345-.017l-28.184-.02c-1.471,0-2.987,0-4.344-.017-2.72-.032-5.657-.037-8.644-.038l-17.808-.008c-2.984,0-5.9-.009-8.624-.04-1.355-.016-2.88-.015-4.352-.017l-22.253-.016c-2.016,0-3.874-.014-5.733-.03l-2.859-.015-32.621-.025H33.127L4.21,68.247H.2l0-1.078L.189,58.1a17.563,17.563,0,0,0-.146-2.343A6.282,6.282,0,0,1,.056,54.18a14.643,14.643,0,0,0,.155-1.935l.068-6.456L.5,33.689c.016-1.212.031-2.419.045-3.628.011-.533.022-1.076.033-1.611a13.565,13.565,0,0,1,.18-1.913,7.7,7.7,0,0,0,.132-1.114q.065-2.411.133-4.824c.011-.535.023-1.074.033-1.608a7.86,7.86,0,0,1,.107-1.139,11.757,11.757,0,0,0,.185-1.882l.042-1.2a10,10,0,0,1,.106-1.137c.07-.479.1-1,.132-1.529.022-.394.047-.786.071-1.179.141-.788.158-1.779.267-2.6.1-.731.149-1.484.191-2.275.034-.381.068-.766.1-1.122.061-.481.1-.974.126-1.507.02-.394.04-.791.059-1.177A5.3,5.3,0,0,1,2.6,1.262c.043-.16.107-.312.16-.3a6.736,6.736,0,0,1,.889.246c.119.039.231.176.341.455.158.4.321.766.489,1.109a1.926,1.926,0,0,0,.261.378,2.21,2.21,0,0,1,.245.6c.154.492.29,1.087.424,1.694.227,1.017.531,1.633.76,2.684a3.416,3.416,0,0,0,.161.516c.067.14.119.253.178.375a2.945,2.945,0,0,1,.18.359,4.631,4.631,0,0,1,.237,1.317c.04.788.017,1.588.1,2.363.1.758.191,1.432.295,2.207.053.38.1.724.152,1.1A4.439,4.439,0,0,0,7.86,17.8c.1.207.2.3.3.53a4.263,4.263,0,0,1,.267,1.3c.023.519.047,1.047.07,1.569A12.65,12.65,0,0,0,8.667,23.1c.016.117.034.241.053.366A25.6,25.6,0,0,1,8.781,27.7c-.016.231-.031.478-.047.725v1.555a13.023,13.023,0,0,1-.074,1.488c-.022.349-.045.727-.07,1.1a19.057,19.057,0,0,1-.107,2.251,9.581,9.581,0,0,0-.047,1.136l-.028,1.157c-.135.773-.129,1.725-.225,2.545-.084.726-.129,1.462-.144,2.245-.023.382-.047.759-.068,1.13s-.056.72-.085,1.118c-.008,1.174-.017,2.345-.026,3.528q0,1.179.006,2.358a5.989,5.989,0,0,1-.059.742,12.406,12.406,0,0,0-.115,1.5l-.025,2.357a4.691,4.691,0,0,1-.062.749,11.558,11.558,0,0,0-.143,1.88q-.012,1.379-.023,2.757c-.008.385-.037.778-.078,1.142A12.735,12.735,0,0,0,7.277,62.7q-.019,2.237-.034,4.467L4.21,66.356l2.477,0c1.477,0,2.852.015,4.2.03l6.745.069c1.356.014,2.739.025,4.251.025H33.749l4.3-.021c1.414-.01,2.752-.024,4.28-.025l16.32-.007c2.559,0,4.826.017,7.064.042.863.01,1.861.016,2.82.018q11.12.024,22.217-.007l2.838-.017c2.291-.024,4.654-.034,7.171-.035l60.844-.012,10.384.005c4.027,0,7.756.023,11.392.063,3.524.039,6.984.085,11.154.082.93,0,1.927.009,2.807.017l8.036.087c.883.009,1.856.017,2.812.018l10.365.015c1.012,0,1.955,0,2.871.015,2.269.024,4.682.034,7.188.034h28.2c1.527,0,2.924-.011,4.24-.027,3.538-.042,7.719-.04,11.174-.087h4.434l5.023.047-1.785.479c.065-.532.137-1.058.244-1.531a3.088,3.088,0,0,1,.258-.835,7.949,7.949,0,0,0,.764-2.043,8.133,8.133,0,0,0,.216-.972c.182-1.088.349-2.1.526-3.16a5.235,5.235,0,0,0-.022-1.539,18.319,18.319,0,0,0-.65-2.9c-.12-.368-.241-.745-.36-1.115a7.067,7.067,0,0,1-.253-1.353c-.051-.372-.1-.712-.152-1.088,0-.378,0-.787-.006-1.183.112-.713.223-1.432.332-2.138a10.955,10.955,0,0,0,.129-1.523c.009-.265.017-.53.026-.793a16.686,16.686,0,0,1,.422-2.832c.092-.284.178-.55.27-.837a7.4,7.4,0,0,0,.29-1.726,2.349,2.349,0,0,1,.295-1.182c.135-.23.306-.52.442-.755a1.968,1.968,0,0,0,.265-.8,4.417,4.417,0,0,1,.525-1.651,1.057,1.057,0,0,0,.1-.214,1.4,1.4,0,0,0,.087-.29,14.911,14.911,0,0,0,.3-2.993c0-.263,0-.531,0-.8a12.944,12.944,0,0,0-.154-2.306,5.262,5.262,0,0,1-.067-.761,19.362,19.362,0,0,0-.231-3.459l-.062-1.176c-.02-.39-.014-.826-.068-1.161-.157-.953-.151-2.075-.329-3a3.9,3.9,0,0,1-.064-.761l0-2.388a11.991,11.991,0,0,1,.11-1.541c.019-.244.039-.507.059-.764.012-1.194.025-2.388.039-3.815,0-.962,0-2.157,0-3.351a7.947,7.947,0,0,0-.067-1.166,13.675,13.675,0,0,1-.152-1.909l-.034-2.028,0-.335h-1.235l-2.829,0c-2.055,0-3.959.016-5.419.048-2.573.055-5.737.087-8.821.121-.911.011-1.813.017-2.829.018l-46.056.016L206.817,1.2c-1.021,0-2,0-2.862-.015-3.531-.049-7.441-.06-11.448-.06l-5.941,0c-1.541,0-2.966-.01-4.154-.03L175.406.98c-3.285-.049-6.732-.093-10.964-.09L161.478.885c-2.1,0-3.548-.038-3.54-.085,0-.021.354-.042.265-.062A10.017,10.017,0,0,0,156.72.651c-2.533-.063-5.7-.08-9.4-.058-1.007.006-1.761.019-2.405.036-1.215.032-1.313.046-.41.08l.74.027c.922.042.517.075-1.336.11-2.075.04-3.25.04-5.151.006-1.147-.02-2.061-.044-2.983-.069s-1.949-.047-3.108-.065c-1.564-.025-3.3-.047-5.377-.048l-8.972,0c-2.55,0-4.887-.013-7.257-.03-.868-.005-2.073,0-2.9,0-2.756.025-5.574.044-8.57.052C97.577.7,95.831.717,94.059.735c-1.4.014-2.868.015-4.275,0C87.484.717,85.1.71,82.55.713L48.21.757c-2.056,0-3.782.02-5.587.036-2.364.02-4.78.02-7.21,0-1.375-.009-2.758-.018-4.3-.017l-8.968,0c-2.022,0-3.965,0-5.815-.017C14.9.755,13.419.755,11.933.757H4.488C3.624.755,2.6.745,2.177.733,1.676.72,1.931.7,2.429.689M171.752,67.653c.27-.048-2.5-.13-5.494-.137h-5.542l-3.274.005c-1.715,0-3.655.049-3.765.088-.157.056-.011.112.4.167.255.034,1.1.06,2.25.083,1.547.03,3.29.048,5.314.05l4.392,0c.889,0,2.005-.016,2.443-.032,1.02-.037,1.7-.08,2.5-.121a3.021,3.021,0,0,0,.771-.1m-4.892-.307c.646.01,1.465.005,1.884-.019.355-.02-.087-.041-.788-.053l-.948,0c-.259.008-.61.015-.76.024-.383.022-.149.04.613.053m35.123-.242c1.988,0,3.936-.012,5.7-.033,1.792-.022,3.8-.022,5.7-.034,1.023-.006,2.1-.021,1.99-.037-.149-.022-1.214-.033-2.211-.04l-1.353-.014c-1.761-.021-3.576-.037-5.609-.039L195.819,66.9c-2.54,0-4.839-.019-7.027-.046-.888-.011-1.816-.018-2.832-.018l-14.825-.009-19.287-.006-2.873-.013-4.243-.028c-4.392-.015-8.858-.017-13.047-.058-1.305-.013-2.894-.012-4.364-.015l-8.882-.013c-2.53,0-4.839-.019-7.117-.041-1.387-.014-2.877-.014-4.362-.013-1.546,0-3.042.009-3.948.037-2.432.074-5.359.131-9.252.161-.891.007-1.648.024-2.415.038-.793.014-1.512.033-1.546.056s.881.032,1.9.041L94.422,67c.971.012,1.873.015,2.778.005,2.28-.025,4.722-.032,7.21-.032,1.468,0,2.922,0,4.293.02,2.991.038,5.989.077,9.314.1,1.473.01,2.939-.018,2.854-.055a4.946,4.946,0,0,0-.746-.064c-.75-.038-.059-.067,1.432-.064l4.373.014c1.428.008,2.783.031,4.185.032,4.623,0,8.611.045,12.539.092,3.126.037,6.341.06,9.892.06l4.7,0h7.165c2.994,0,5.795-.018,8.563-.046,3.265-.034,6.714-.03,10.028,0l1.352.014,2.817.019q7.386.019,14.81.006m22.122.5c-.213-.008-.795-.015-1.235-.015l-9.979-.019-8.714.01c-.756,0-1.434.021-2.146.033.545.019,1.276.032,2.168.04l2.658.025c2.2.025,4.533.035,6.971.032l5.745-.01c1.42,0,2.7-.022,3.749-.045.807-.018,1.153-.037.782-.051" transform="translate(0 0)" fill="#fff"/>
    </g>
  </g>
</svg>
