<svg xmlns="http://www.w3.org/2000/svg" xmlns:xlink="http://www.w3.org/1999/xlink" width="221" height="122.467" viewBox="0 0 221 122.467"><defs><clipPath id="a"><rect width="221" height="122.467" fill="none"/></clipPath></defs><rect width="215.033" height="115.843" transform="translate(3.254 3.415)" fill="#f8e075"/><g clip-path="url(#a)"><path d="M219.128,121.236c-.462.025-1.194.036-1.986.041l-16.068.086c-1.958.01-3.719.033-5.506.068-2.488.048-5.171.074-7.884.073l-14.968.063c-1.565.01-3,.033-4.379.065l-3.348.041-4.569.04-2.122.041c-2.423.071-5.093.08-7.817.081-1.567,0-3.048-.008-4.41-.042s-2.854-.047-4.42-.042l-8.082.032c-1.147.006-2.245.027-3.135.066l-.824.039c-1.787.107-4.026.173-6.961.178-1.565,0-3.033.027-4.458.06l-2.194.036-8.1.033c-1.2,0-2.316-.008-3.353-.03-1.386-.03-2.954-.043-4.143-.092-1.5-.063-3.462-.077-5.194-.115-1.423-.032-2.972-.03-4.525-.029-1.981,0-3.739.036-5.544.074-2.57.055-5.282.061-7.884.01-1.817-.034-3.641-.061-5.6-.058l-4.607.017c-.353,0-.77.014-1,.028-.366.023-.165.057.458.093l2.325.127c.218.012.453.037.348.048-.139.016-.58.029-.933.033l-3.4.028-23.183.043c-1.563,0-3.058.016-4.515.046-.707.016-1.469.03-2.216.031l-10.429.016c-1.188,0-2.262-.02-3.332-.043s-2.17-.041-3.347-.042l-4.629-.006-9.306,0H.195v-2.3l0-9.93c0-.943.008-1.893.013-2.84,0-1.184.007-2.371.011-3.55Q.22,98.067.227,92.386c0-1.2.028-2.358.1-3.448.043-.672.039-1.387.042-2.092Q.371,75.824.374,64.8c-.012-3.047.071-6.183-.117-9.116L.236,53.563Q.205,49.658.172,45.755c0-.463-.019-.944-.044-1.369-.065-1.107-.09-2.253-.094-3.452L.017,20.31Q.008,14.977,0,9.649c0-.94,0-1.9,0-2.84Q.008,4.669.012,2.54L.018.139,3.892.127l5.7-.016c1.16,0,2.237-.021,3.294-.045S15.009.023,16.172.019q9.716-.037,19.425,0c.738,0,1.49.016,2.169.033,1.4.034,2.817.06,4.375.062L59.294.135,82.173.147c1.553,0,3.018.018,4.426.051,1.068.025,2.207.029,3.349.031L111.67.266c1.134,0,2.3,0,3.349.029,2.1.058,4.36.066,6.661.068l13.726.013c2.3,0,4.552.016,6.648.073,1.044.028,2.219.027,3.354.029l17.15.028c1.554,0,2.986.026,4.418.054l2.2.027,25.144.045h1.144L217.755.618l3.091,0V2.54l.01,16.2c0,1.469.036,2.83.111,4.183a25.884,25.884,0,0,1-.008,2.808c-.065,1.113-.117,2.221-.121,3.455l-.053,11.526-.167,21.6c-.012,2.164-.024,4.319-.036,6.477-.008.951-.017,1.922-.024,2.876-.022,1.191-.054,2.363-.139,3.415-.049.6-.09,1.24-.1,1.989q-.05,4.3-.1,8.613c-.01.955-.018,1.917-.026,2.872-.012.706-.03,1.414-.083,2.033-.085,1-.127,2.142-.142,3.361l-.032,2.146c-.01.728-.039,1.4-.08,2.03-.054.854-.081,1.78-.1,2.73-.018.7-.036,1.4-.055,2.1-.11,1.407-.123,3.177-.206,4.648-.075,1.3-.116,2.65-.147,4.06-.028.681-.054,1.368-.079,2-.047.858-.08,1.739-.1,2.692-.016.7-.031,1.413-.047,2.1s-.066,1.29-.12,1.745c-.033.286-.083.556-.123.539a3.358,3.358,0,0,1-.685-.438c-.092-.069-.179-.315-.263-.812-.122-.718-.249-1.368-.378-1.98a4.875,4.875,0,0,0-.2-.675,7.532,7.532,0,0,1-.188-1.063c-.12-.879-.225-1.94-.328-3.025-.173-1.815-.408-2.916-.586-4.793-.035-.364-.079-.655-.123-.92s-.093-.452-.138-.671-.1-.364-.14-.642a18.532,18.532,0,0,1-.182-2.35c-.032-1.407-.014-2.836-.077-4.22-.078-1.354-.146-2.556-.226-3.941-.041-.677-.078-1.292-.118-1.964a16.48,16.48,0,0,0-.3-2.568c-.073-.37-.158-.541-.228-.947a16.582,16.582,0,0,1-.207-2.317c-.018-.926-.036-1.869-.053-2.8-.012-1.194-.05-2.324-.133-3.407-.013-.21-.027-.431-.041-.654-.071-2.562-.157-5.133-.048-7.549.012-.413.025-.854.037-1.295V68.945c0-.939.017-1.809.057-2.656.017-.623.035-1.3.054-1.968.01-1.378,0-2.775.083-4.019.038-.618.029-1.341.036-2.028l.02-2.067c.105-1.379.1-3.08.173-4.544.065-1.3.1-2.609.112-4.009.017-.681.035-1.355.053-2.018s.042-1.284.065-2c.007-2.1.013-4.188.02-6.3q0-2.1,0-4.21c0-.45.023-.908.045-1.324.049-.86.086-1.735.09-2.685l.019-4.209c0-.482.017-.921.047-1.336.077-1.039.11-2.162.111-3.357q.009-2.462.018-4.922c0-.689.028-1.389.06-2.038.044-.895.066-1.8.063-2.745q.014-3.994.028-7.977l2.336,1.453-1.909-.008c-1.137-.006-2.2-.026-3.238-.054l-5.2-.123c-1.047-.025-2.111-.045-3.276-.045l-9.144,0L191.67,3.8c-1.09.016-2.121.042-3.3.043l-12.578.012c-1.974,0-3.721-.03-5.446-.076-.665-.017-1.433-.029-2.173-.033q-8.571-.042-17.123.013l-2.188.03c-1.766.042-3.588.061-5.527.062l-46.9.023-8-.009c-3.1,0-5.978-.042-8.781-.114-2.718-.069-5.383-.152-8.6-.146-.716,0-1.486-.016-2.164-.031L62.7,3.424c-.681-.017-1.431-.03-2.169-.033l-7.988-.026c-.781,0-1.507-.008-2.213-.026-1.75-.044-3.609-.061-5.542-.061H23.06c-1.176,0-2.252.02-3.268.048-2.726.075-5.95.071-8.611.155H7.763L3.892,3.395,5.267,2.54c-.05.95-.1,1.889-.188,2.735a11.4,11.4,0,0,1-.2,1.49,27.451,27.451,0,0,0-.588,3.648c-.062.538-.128,1.1-.167,1.736-.139,1.942-.268,3.742-.405,5.643a21.77,21.77,0,0,0,.017,2.747c.129,1.928.289,3.689.5,5.182.091.657.184,1.33.276,1.99.1.676.152,1.51.2,2.416.039.664.077,1.272.116,1.943,0,.674,0,1.405,0,2.113-.086,1.273-.171,2.555-.256,3.818-.06.86-.091,1.761-.1,2.719-.007.472-.013.946-.019,1.414-.028,1.408-.2,4.138-.327,5.057-.069.506-.136.982-.207,1.494A29.14,29.14,0,0,0,3.7,51.765a8.868,8.868,0,0,1-.228,2.111c-.1.411-.234.93-.341,1.348a7.066,7.066,0,0,0-.2,1.431A15.989,15.989,0,0,1,2.523,59.6c-.028.1-.055.234-.079.383s-.051.315-.066.517c-.118,1.682-.254,3.325-.228,5.343,0,.469,0,.948,0,1.421,0,1.437.018,2.842.118,4.117.033.423.044.875.051,1.358.029,2.1,0,4.31.178,6.175l.047,2.1c.017.7.012,1.475.054,2.073.121,1.7.116,3.706.254,5.348.035.419.049.866.049,1.358l0,4.264c0,.964-.036,1.863-.085,2.752-.014.434-.03.905-.045,1.363-.01,2.131-.019,4.264-.031,6.812,0,1.718,0,3.851,0,5.983,0,.7.008,1.422.051,2.081.071,1.078.114,2.2.118,3.408l.025,3.622,0,.6.953,0,2.179-.006c1.584,0,3.053-.029,4.178-.086,1.983-.1,4.421-.154,6.8-.216.7-.019,1.4-.031,2.181-.032l35.5-.029,6.871.011c.787,0,1.538.006,2.207.028,2.72.086,5.735.106,8.824.106l4.579-.007c1.187,0,2.285.018,3.2.054l5.4.219c2.532.087,5.189.166,8.452.159l2.285.01a12.37,12.37,0,0,1,2.728.151c0,.038-.273.075-.206.112a3.437,3.437,0,0,0,1.143.156c1.953.112,4.391.142,7.244.1.777-.011,1.359-.034,1.854-.064.938-.057,1.013-.082.317-.144l-.571-.048c-.71-.077-.4-.134,1.029-.2,1.6-.071,2.5-.071,3.971-.011.884.037,1.588.079,2.3.123s1.5.084,2.4.117c1.2.045,2.545.083,4.143.085l6.915.007c1.966,0,3.768.024,5.593.053.669.01,1.6.009,2.234,0,2.124-.045,4.3-.078,6.6-.091,1.555-.01,2.9-.045,4.268-.077,1.077-.025,2.21-.028,3.294-.005,1.774.037,3.611.051,5.575.045l26.468-.079c1.586,0,2.916-.036,4.307-.064,1.822-.035,3.684-.034,5.557-.005,1.06.016,2.124.033,3.318.032l6.911-.007c1.559,0,3.056.008,4.482.03,1.1.016,2.239.016,3.385.013h5.738c.667.005,1.458.022,1.781.042.388.025.191.057-.194.079M88.623,1.678a21.941,21.941,0,0,0,4.234.245h4.271l2.524-.01a19.118,19.118,0,0,0,2.9-.158c.122-.1.008-.2-.31-.3a11.7,11.7,0,0,0-1.734-.147c-1.193-.054-2.536-.087-4.094-.089l-3.385.008c-.687.006-1.545.028-1.884.057-.786.067-1.31.143-1.928.216a1.161,1.161,0,0,0-.594.174m3.769.549a10.637,10.637,0,0,0-1.452.033c-.273.036.067.073.608.094l.732.009c.2-.014.469-.026.586-.042.3-.039.114-.072-.474-.094m-27.071.431c-1.531.007-3.033.022-4.392.06-1.383.039-2.928.04-4.392.06A11.579,11.579,0,0,0,55,2.844a16.174,16.174,0,0,0,1.7.072l1.043.024c1.358.038,2.757.067,4.324.07l8,.016c1.958,0,3.73.034,5.416.083.685.019,1.4.03,2.184.032L89.1,3.158l14.865.01,2.215.024,3.27.051c3.384.025,6.826.029,10.055.1,1.006.024,2.232.022,3.365.026l6.845.024c1.95,0,3.73.034,5.484.074,1.069.025,2.219.025,3.364.025,1.191,0,2.344-.017,3.043-.066,1.873-.132,4.129-.234,7.131-.288.687-.013,1.269-.042,1.86-.067a6.537,6.537,0,0,0,1.191-.1,10.058,10.058,0,0,0-1.464-.074l-2.1-.048c-.749-.021-1.444-.028-2.141-.009-1.758.045-3.64.058-5.558.057-1.132,0-2.251-.005-3.307-.036-2.306-.068-4.616-.137-7.179-.177a9.752,9.752,0,0,0-2.2.1,1.764,1.764,0,0,0,.574.115c.578.068.047.12-1.1.113l-3.369-.025c-1.1-.015-2.146-.056-3.226-.057-3.564,0-6.637-.081-9.666-.165-2.408-.066-4.887-.107-7.623-.107L99.8,2.653H94.28c-2.307,0-4.466.032-6.6.083-2.518.06-5.174.052-7.729-.009L78.908,2.7l-2.172-.033q-5.693-.033-11.415-.01m-17.05-.885c.164.014.611.025.951.028l7.691.033,6.716-.019c.584,0,1.105-.038,1.655-.058-.42-.035-.983-.059-1.671-.072l-2.05-.045c-1.695-.045-3.493-.062-5.372-.057L51.764,1.6c-1.093.008-2.078.039-2.89.081-.621.032-.889.066-.6.091" transform="translate(0 0)" fill="#f8e075"/></g></svg>