<svg xmlns="http://www.w3.org/2000/svg" xmlns:xlink="http://www.w3.org/1999/xlink" width="25" height="36" viewBox="0 0 25 36">
  <defs>
    <clipPath id="clip-path">
      <rect id="Retângulo_52" data-name="Retângulo 52" width="25" height="36" fill="#1ca8b0"/>
    </clipPath>
  </defs>
  <g id="Grupo_83" data-name="Grupo 83" transform="translate(0 0)">
    <g id="Grupo_81" data-name="Grupo 81" transform="translate(0 0)" clip-path="url(#clip-path)">
      <path id="Caminho_187" data-name="Caminho 187" d="M12.048.337C5.653.337.466,4.877.466,11.2c0,8.048,10.7,23.389,10.7,23.389h1.187S23.63,19.253,23.63,11.2C23.63,4.877,18.445.337,12.048.337" transform="translate(0.52 0.368)" fill="#1ca8b0"/>
      <path id="Caminho_188" data-name="Caminho 188" d="M12.511.01A1.166,1.166,0,0,0,12.274,0a12.172,12.172,0,0,0-1.868.151c-.226.023-.432.054-.643.092a7.424,7.424,0,0,0-.91.19C8.3.628,7.739.785,7.206,1.03c-.106.04-.256.1-.489.184-.118.048-.235.115-.355.176l-.48.249-.228.109a7.117,7.117,0,0,0-.785.5,2.056,2.056,0,0,0-.391.333,4.092,4.092,0,0,1-.377.35,7.493,7.493,0,0,0-.694.649,2.625,2.625,0,0,1-.281.249l-.085.061a2.984,2.984,0,0,0-.588.6c-.11.149-.241.27-.341.41-.068.094-.125.172-.157.214-.169.272-.364.53-.508.818a3.69,3.69,0,0,0-.163.36c-.061.151-.138.32-.176.452-.087.291-.118.389-.173.582-.044.159-.11.329-.173.5-.087.218-.133.421-.212.62a3.421,3.421,0,0,0-.212.9c-.015.211-.036.423-.07.647a3.836,3.836,0,0,0-.068.534.74.74,0,0,1-.017.117c-.013.044-.028.019-.038-.052L.1,10.317c0-.025-.008-.054-.017-.042a.37.37,0,0,0-.023.111c-.011.151-.021.289-.032.4A13.511,13.511,0,0,0,.157,13.5c.019.123.038.245.08.513.015.109.03.2.036.251a11.607,11.607,0,0,0,.254,1.164c.023.073.066.195.121.356l.123.356.148.5c.277.913.618,1.8.952,2.679l.2.471c.085.2.165.389.25.59.248.641.558,1.248.844,1.867.091.195.186.381.286.55.11.214.131.249.173.333q.885,1.768,1.826,3.5c.26.477.561.952.772,1.434l.184.333c.228.4.459.8.692,1.212l.114.218c.087.178.182.36.294.542.633,1.053,1.28,2.1,1.953,3.127l1.051,1.6c.106.155.182.268.29.425l.021.027.317.446.542,0,1.187,0,.527,0,.322-.429.106-.144c.051-.061.125-.155.233-.289l.228-.289c.427-.584.836-1.178,1.231-1.779.023-.042.068-.115.121-.209.074-.136.154-.274.248-.419l1.041-1.6,1.35-2.156a4.391,4.391,0,0,0,.237-.431c.1-.19.135-.249.178-.329.413-.691.819-1.388,1.206-2.1.061-.111.127-.224.173-.331a6.967,6.967,0,0,1,.338-.659l.713-1.354a7.078,7.078,0,0,0,.317-.672c.04-.109.1-.226.152-.341l.823-1.729c.04-.1.1-.255.18-.463.038-.1.07-.18.089-.23.387-.854.732-1.735,1.043-2.625.015-.044.03-.08.044-.119a18.489,18.489,0,0,0,1.2-5.381A7.7,7.7,0,0,0,25,11.146a3.392,3.392,0,0,0-.028-.525c-.021-.209-.059-.414-.1-.643a11.866,11.866,0,0,0-.482-2.11,10.815,10.815,0,0,0-1.98-3.542,10.424,10.424,0,0,0-.821-.9,3.471,3.471,0,0,0-.391-.375c-.176-.142-.351-.28-.52-.394-.146-.1-.256-.178-.313-.218a15.019,15.019,0,0,0-1.369-.867l-.474-.262a1.9,1.9,0,0,0-.36-.144,6.386,6.386,0,0,1-.6-.222A3.164,3.164,0,0,0,17.184.8C17.11.779,17,.747,16.812.7l-.5-.136a2.97,2.97,0,0,0-.387-.09c-.459-.075-.514-.082-.869-.14L14.294.262,13.916.232c-.161-.013-.328,0-.506-.006L13.019.22a2.112,2.112,0,0,0-.334.025c-.057.01-.11.025-.112.04a1.743,1.743,0,0,0,0,.257c0,.036.036.069.116.1L13,.8a.417.417,0,0,1,.1.077.553.553,0,0,0,.165.075c.14.05.313.092.489.138.292.1.448.2.745.3a.926.926,0,0,1,.14.059l.1.061.087.061a1.422,1.422,0,0,0,.364.14c.228.061.474.1.692.172.163.073.444.195.6.262l.3.128a1.3,1.3,0,0,1,.343.245c.044.042.053.075.1.119a1.275,1.275,0,0,0,.317.2c.142.059.269.149.4.218a4.546,4.546,0,0,1,.474.287c.032.023.072.05.085.061.3.209.338.232,1.015.7.074.052.138.1.173.126.135.1.245.193.358.28.072.065.169.153.328.293.1.094.19.17.243.216.173.151.307.337.459.479s.161.182.222.251a2.149,2.149,0,0,1,.212.268c.235.308.286.37.461.6a5.547,5.547,0,0,1,.343.571c.04.069.1.18.169.291a2.632,2.632,0,0,1,.144.3,6.658,6.658,0,0,1,.355.984c.061.222.121.44.184.674.011.04.028.119.049.216.044.2.076.347.1.44a4.3,4.3,0,0,1,.087.7c0,.046.011.1.025.224a4.473,4.473,0,0,1,.059.563c-.019.27-.038.538-.059.823,0,.077-.006.19-.011.343a1.834,1.834,0,0,1-.036.463c-.1.507-.195.975-.309,1.541-.015.069-.04.178-.078.339-.04.2-.074.364-.112.548-.038.161-.066.276-.083.343a9.343,9.343,0,0,1-.313.936c-.032.071-.087.2-.144.331s-.112.257-.144.327c-.165.423-.313.852-.51,1.264a5.7,5.7,0,0,0-.209.555c-.038.1-.066.176-.08.222a17.313,17.313,0,0,1-.8,1.687c-.025.048-.061.111-.116.207-.1.167-.195.341-.288.532Q19.011,24.31,17.7,26.52l-.446.754c-.171.293-.317.574-.457.848a7.9,7.9,0,0,1-.444.833c-.021.04-.063.115-.114.209-.1.2-.207.41-.309.609-.051.092-.093.165-.116.207-.161.257-.315.5-.468.743-.028.048-.055.094-.121.209-.091.172-.2.345-.315.521l-1.341,1.978a3.287,3.287,0,0,1-.224.28c-.2.228-.4.519-.6.735l-.2.278.328-.165h-.028l-.918.088a1.429,1.429,0,0,0-.241.044l.226.115-.021-.015a3.133,3.133,0,0,1-.5-.444l-.207-.232c-.193-.23-.438-.527-.643-.774a2.369,2.369,0,0,1-.26-.412,6.837,6.837,0,0,1-.383-.844l-.125-.337a3.406,3.406,0,0,0-.184-.389c-.047-.088-.125-.241-.157-.306l-.195-.318c-.138-.18-.271-.356-.413-.54-.093-.123-.184-.253-.273-.4-.042-.065-.085-.132-.135-.211a8.434,8.434,0,0,0-.531-.726l-.182-.2a3.287,3.287,0,0,1-.33-.44,1.17,1.17,0,0,0-.241-.293l-.2-.163a.954.954,0,0,1-.173-.195,1.928,1.928,0,0,0-.353-.4l-.051-.048L6.3,27.043a5.857,5.857,0,0,1-.516-.8c-.042-.082-.08-.149-.121-.224a6.183,6.183,0,0,1-.317-.659c-.057-.123-.08-.172-.1-.22a6.84,6.84,0,0,1-.463-1l-.159-.339-.152-.335c-.106-.285-.269-.6-.366-.879a1.888,1.888,0,0,0-.089-.224l-.319-.691c-.049-.092-.118-.226-.226-.433-.051-.094-.091-.172-.112-.216-.169-.339-.311-.693-.489-1.109-.116-.283-.264-.632-.41-.984a2.219,2.219,0,0,1-.123-.35c-.047-.186-.1-.379-.176-.582-.1-.272-.195-.559-.29-.837a2.018,2.018,0,0,1-.118-.448c-.019-.224-.072-.49-.118-.749-.025-.119-.042-.188-.053-.234A16.046,16.046,0,0,1,.91,11.883a4.339,4.339,0,0,1-.006-.76,1.856,1.856,0,0,0,0-.243,3.419,3.419,0,0,1,.053-.973l.083-.5c.008-.059.023-.151.051-.35s.04-.417.057-.6a3.168,3.168,0,0,1,.233-.917c.025-.069.057-.159.089-.243.057-.174.08-.3.047-.306-.017,0-.049.019-.061.006s-.032-.05-.013-.136A3,3,0,0,1,1.769,6.1.767.767,0,0,1,1.9,5.921c.083-.082.1-.086.083-.008l-.013.063c-.011.084.034.061.15-.065a1.128,1.128,0,0,0,.248-.377c.028-.075.057-.159.089-.245a1.991,1.991,0,0,1,.1-.253,3.055,3.055,0,0,1,.258-.391,7.4,7.4,0,0,1,.5-.617c.091-.1.239-.266.427-.477a1.655,1.655,0,0,1,.18-.184C4.2,3.15,4.4,3,4.536,2.895a3.664,3.664,0,0,1,.41-.287,2.007,2.007,0,0,0,.313-.214,5.822,5.822,0,0,1,.51-.383A12.725,12.725,0,0,1,8.549.762,3.64,3.64,0,0,1,9.038.638,3.636,3.636,0,0,0,9.66.49c.157-.044.294-.086.362-.1.258-.057.523-.082.785-.123.178-.027.345-.057.5-.094a3.25,3.25,0,0,1,.385-.033l.66-.04a.928.928,0,0,0,.2-.038c.04-.017.011-.036-.038-.046m5.564,27.726c-.044,0,.021-.232.148-.454.072-.121.127-.216.241-.406.015-.025.083-.134.148-.237.076-.123.19-.249.22-.243a.134.134,0,0,1,.1.094.36.36,0,0,1-.044.2,2.606,2.606,0,0,1-.2.408c-.066.1-.11.176-.2.32a1.112,1.112,0,0,1-.127.167c-.07.059-.129.092-.19.136a.118.118,0,0,1-.1.017m.008-.477a.3.3,0,0,1-.093.13c-.03.019-.025-.021,0-.077s.025-.048.038-.071l.049-.046c.032-.019.034,0,.008.065M16.361,29.7a4.779,4.779,0,0,1-.283.394c-.159.218-.193.266-.286.391-.049.071-.11.142-.114.128a.474.474,0,0,1,.074-.174c.015-.025.036-.063.055-.1a4.425,4.425,0,0,1,.233-.414l.465-.747a4.984,4.984,0,0,0,.283-.525l.116-.209.647-1.076.829-1.407c.023-.048.068-.132.11-.216l.159-.322c.173-.331.358-.659.5-.982.1-.19.121-.237.169-.329l.343-.668c.1-.19.18-.368.254-.546.1-.2.121-.245.163-.329a1.822,1.822,0,0,1,.18-.283,3.793,3.793,0,0,0,.455-.647l.116-.17c.038-.057.078-.1.1-.1s-.011.08-.04.159-.051.132-.083.216a1.249,1.249,0,0,1-.1.214c-.1.163-.195.35-.292.536a3.543,3.543,0,0,0-.157.329c-.114.276-.226.55-.3.733-.051.113-.129.211-.15.193s-.017-.04-.015-.077c0-.071-.042-.029-.1.084s-.1.188-.165.331c-.051.111-.087.222-.146.324a10.2,10.2,0,0,0-.461.959,7.3,7.3,0,0,1-.374.754c-.1.176-.188.327-.2.345-.182.306-.248.412-.311.521-.131.218-.264.414-.4.607a5.354,5.354,0,0,0-.438.726c-.019.036-.038.075-.053.1-.04.075-.091.165-.114.209-.25.4-.429.695-.662,1.068m-.7,1.783a.533.533,0,0,1,.047-.094c.157-.247.3-.484.451-.72.14-.209.262-.4.41-.62.036-.052.08-.092.121-.14a.831.831,0,0,1-.074.172c-.034.063-.066.123-.108.2a5,5,0,0,1-.3.511c-.089.132-.163.245-.273.408a1.787,1.787,0,0,1-.2.249c-.051.05-.078.067-.07.033" transform="translate(-0.001 0)" fill="#1ca8b0"/>
    </g>
  </g>
</svg>
