<svg xmlns="http://www.w3.org/2000/svg" xmlns:xlink="http://www.w3.org/1999/xlink" width="261" height="113.8" viewBox="0 0 261 113.8"><defs><clipPath id="a"><rect width="261" height="113.8" fill="none"/></clipPath></defs><rect width="255.033" height="107.177" transform="translate(2.713 3.208)" fill="#b7d167"/><g clip-path="url(#a)"><path d="M2.211,1.144c.547-.023,1.41-.034,2.345-.038l18.976-.079c2.314-.009,4.393-.031,6.5-.063,2.94-.045,6.108-.069,9.312-.068L57.022.836c1.849-.009,3.539-.03,5.172-.06L66.149.737,71.544.7,74.051.663C76.912.6,80.066.588,83.281.587c1.852,0,3.6.008,5.21.039s3.369.044,5.22.039l9.544-.03c1.355-.006,2.651-.025,3.7-.062l.973-.035c2.11-.1,4.755-.161,8.221-.166,1.848,0,3.584-.025,5.266-.056l2.591-.032,9.571-.03c1.413,0,2.736.007,3.961.028,1.636.028,3.489.04,4.893.086,1.769.058,4.087.071,6.132.106,1.681.03,3.512.028,5.345.028,2.338,0,4.414-.034,6.546-.07,3.037-.05,6.24-.057,9.311-.01,2.146.032,4.3.057,6.608.054L181.818.46c.415,0,.908-.013,1.175-.027.431-.021.194-.053-.541-.086L179.707.229c-.258-.011-.535-.035-.411-.044.164-.015.684-.027,1.1-.03l4.016-.026L211.791.087c1.846,0,3.612-.015,5.334-.043.833-.014,1.733-.027,2.616-.029L232.058,0c1.4,0,2.671.019,3.936.04s2.564.038,3.952.039l5.468.006,10.99,0,4.365,0V2.217l.006,9.226c0,.876-.01,1.759-.014,2.639,0,1.1-.008,2.2-.014,3.3q-.009,5.29-.016,10.57c0,1.115-.033,2.192-.116,3.2-.049.625-.045,1.289-.049,1.945l-.008,20.484c.014,2.831-.085,5.745.138,8.471l.024,1.972q.038,3.628.076,7.256c0,.43.023.877.051,1.271.078,1.03.106,2.094.112,3.208l.021,19.164q.011,4.957.018,9.907c0,.874,0,1.766,0,2.64q0,1.988-.01,3.966l-.007,2.231-4.575.011-6.734.016c-1.37,0-2.642.019-3.89.041s-2.5.04-3.879.044q-11.472.035-22.94,0c-.873,0-1.76-.016-2.562-.031-1.65-.032-3.325-.056-5.166-.057l-20.26-.018-27.019-.012c-1.834,0-3.564-.017-5.227-.048-1.261-.023-2.606-.027-3.955-.029l-25.655-.033c-1.339,0-2.719,0-3.954-.028-2.476-.054-5.149-.061-7.868-.063l-16.21-.013c-2.716,0-5.375-.015-7.85-.067-1.233-.027-2.622-.026-3.961-.028l-20.256-.026c-1.835,0-3.526-.023-5.218-.05l-2.6-.024-29.693-.041H30.154l-26.321.013-3.649,0V111.44L.172,96.384C.174,95.019.13,93.756.04,92.5a18.942,18.942,0,0,1,.011-2.609c.076-1.034.138-2.064.141-3.21L.254,75.967l.2-20.075c.014-2.011.028-4.013.041-6.019.01-.884.02-1.785.03-2.672.024-1.107.064-2.2.164-3.174.057-.558.1-1.153.12-1.848q.059-4,.121-8c.01-.887.021-1.781.03-2.668.014-.656.037-1.314.1-1.89.1-.932.15-1.99.168-3.123L1.263,24.5c.013-.677.048-1.3.1-1.886.064-.794.095-1.654.12-2.536.02-.654.042-1.3.065-1.956.129-1.307.144-2.951.243-4.318.088-1.212.136-2.463.174-3.774.031-.632.062-1.271.093-1.861.055-.8.093-1.616.114-2.5.018-.654.037-1.313.054-1.953a15.551,15.551,0,0,1,.143-1.622c.04-.266.1-.517.145-.5A4.233,4.233,0,0,1,3.32,2c.109.064.21.292.311.755.144.667.292,1.271.445,1.839a3.948,3.948,0,0,0,.237.627,5.644,5.644,0,0,1,.223.989c.14.816.264,1.8.386,2.81.206,1.687.483,2.709.692,4.454.041.339.095.609.147.855s.109.42.162.623.113.339.164.6A13.466,13.466,0,0,1,6.3,17.734c.037,1.307.016,2.634.089,3.921.093,1.258.174,2.376.268,3.662.048.63.092,1.2.138,1.826a12.345,12.345,0,0,0,.356,2.386c.088.343.186.5.271.879a12.261,12.261,0,0,1,.243,2.153c.021.86.042,1.737.064,2.6.014,1.11.059,2.159.157,3.166.014.195.031.4.048.607.083,2.381.185,4.769.055,7.014-.014.384-.028.793-.042,1.2v2.58c0,.873-.021,1.681-.068,2.468-.02.58-.041,1.206-.064,1.828-.013,1.28-.007,2.579-.1,3.734-.047.574-.035,1.247-.042,1.885l-.025,1.92c-.123,1.282-.117,2.862-.2,4.222-.076,1.205-.117,2.425-.131,3.725-.021.633-.042,1.259-.062,1.875s-.051,1.194-.078,1.855c-.007,1.948-.016,3.891-.024,5.853q0,1.956.006,3.913c0,.419-.025.844-.054,1.231-.057.8-.1,1.611-.1,2.494l-.023,3.911c0,.448-.02.855-.057,1.242-.089.965-.129,2.009-.13,3.119q-.011,2.288-.021,4.574c-.007.639-.034,1.29-.071,1.894-.052.831-.079,1.669-.076,2.551q-.017,3.712-.031,7.412l-2.76-1.35,2.255.008c1.345.006,2.6.024,3.825.05l6.139.115c1.235.023,2.493.042,3.869.042l10.8,0,3.919-.035c1.287-.016,2.5-.04,3.9-.041l14.855-.011c2.329,0,4.393.028,6.43.07.785.016,1.694.027,2.567.03q10.122.039,20.223-.012l2.584-.028c2.085-.039,4.236-.057,6.528-.058L147.1,110.2l9.452.008c3.666,0,7.06.039,10.37.105,3.208.064,6.357.141,10.153.136.846,0,1.754.015,2.555.029l7.315.144c.8.015,1.689.028,2.56.03l9.435.024c.921,0,1.78.008,2.613.025,2.065.04,4.262.056,6.543.056h25.666c1.39,0,2.661-.019,3.859-.044,3.221-.069,7.026-.066,10.171-.144h4.036l4.573.079-1.625.795c.059-.883.124-1.755.222-2.541a8.441,8.441,0,0,1,.234-1.385,20.879,20.879,0,0,0,.7-3.39c.072-.5.151-1.023.2-1.613.165-1.8.318-3.477.479-5.243a15.765,15.765,0,0,0-.02-2.553c-.151-1.792-.34-3.429-.592-4.816-.109-.611-.219-1.236-.328-1.849a20.574,20.574,0,0,1-.23-2.245c-.047-.616-.09-1.182-.138-1.806,0-.627,0-1.306-.006-1.962.1-1.184.2-2.375.3-3.548.071-.8.107-1.636.117-2.526.008-.439.016-.88.024-1.315.031-1.309.24-3.846.384-4.7.083-.471.162-.913.246-1.389a21.647,21.647,0,0,0,.264-2.863,6.54,6.54,0,0,1,.268-1.962c.123-.382.278-.863.4-1.253a5.264,5.264,0,0,0,.242-1.33,11.942,11.942,0,0,1,.478-2.74,2.579,2.579,0,0,0,.093-.355,3.864,3.864,0,0,0,.079-.481,44.537,44.537,0,0,0,.27-4.965c0-.436,0-.88,0-1.321,0-1.335-.021-2.641-.14-3.825-.04-.393-.052-.813-.061-1.262-.034-1.956,0-4-.21-5.738L258,38.516c-.018-.647-.013-1.37-.062-1.926-.143-1.582-.137-3.443-.3-4.97a11.692,11.692,0,0,1-.058-1.262l0-3.962c0-.895.042-1.73.1-2.557.017-.4.035-.842.054-1.267.011-1.98.023-3.962.035-6.33,0-1.6,0-3.578,0-5.559,0-.655-.008-1.322-.061-1.934-.082-1-.133-2.041-.138-3.167l-.031-3.365,0-.556-1.124,0-2.575.006c-1.87,0-3.6.027-4.933.079-2.342.092-5.222.144-8.029.2-.829.018-1.65.029-2.575.03l-41.922.027L188.256,2c-.93,0-1.817-.006-2.6-.026-3.214-.081-6.774-.1-10.421-.1l-5.408.007c-1.4,0-2.7-.017-3.782-.05l-6.377-.2c-2.991-.082-6.128-.154-9.98-.149l-2.7-.01a18.309,18.309,0,0,1-3.222-.14c0-.035.322-.069.242-.1a5.1,5.1,0,0,0-1.35-.145c-2.305-.1-5.184-.132-8.555-.1-.917.01-1.6.031-2.19.059-1.106.053-1.2.076-.373.133l.674.046c.839.07.47.124-1.216.183-1.889.066-2.958.066-4.688.01-1.044-.034-1.876-.073-2.715-.114s-1.774-.077-2.829-.108c-1.424-.042-3.007-.077-4.895-.079L107.7,1.107c-2.321,0-4.448-.022-6.605-.049-.79-.009-1.887-.008-2.637,0-2.509.042-5.074.073-7.8.086-1.838.009-3.427.041-5.04.072-1.271.023-2.611.026-3.892,0-2.093-.035-4.265-.046-6.584-.041l-31.258.073c-1.872,0-3.443.034-5.085.059-2.151.032-4.351.032-6.563,0-1.252-.015-2.51-.03-3.919-.029L20.152,1.3c-1.841,0-3.609-.008-5.293-.028-1.294-.016-2.644-.016-4-.013H4.085c-.787,0-1.722-.021-2.1-.04-.456-.022-.225-.053.229-.073m154.127,111.1a33.046,33.046,0,0,0-5-.227h-5.044l-2.981.009a28.557,28.557,0,0,0-3.427.146c-.143.093-.01.185.366.276a17.269,17.269,0,0,0,2.048.138c1.408.05,2.995.08,4.837.082l4-.007c.809-.006,1.825-.026,2.223-.053.928-.062,1.547-.133,2.279-.2a1.631,1.631,0,0,0,.7-.162m-4.453-.509a16.306,16.306,0,0,0,1.715-.031c.323-.034-.079-.068-.718-.088l-.863-.008c-.236.013-.555.024-.692.039-.349.037-.136.067.558.088m31.97-.4c1.81-.006,3.582-.019,5.189-.055,1.632-.037,3.457-.037,5.187-.056a17.178,17.178,0,0,0,1.811-.062c-.136-.037-1.1-.055-2.013-.066l-1.232-.023c-1.6-.035-3.255-.062-5.105-.064l-9.448-.015c-2.312,0-4.4-.031-6.4-.077-.808-.019-1.653-.029-2.578-.03l-13.495-.015-17.556-.01-2.615-.022-3.862-.047c-4-.024-8.063-.028-11.876-.1-1.188-.021-2.635-.02-3.972-.024l-8.084-.022c-2.3,0-4.4-.032-6.478-.068-1.263-.023-2.619-.023-3.971-.022-1.407,0-2.769.015-3.594.061-2.214.123-4.878.217-8.422.267-.811.012-1.5.04-2.2.063a9.714,9.714,0,0,0-1.407.093,15.082,15.082,0,0,0,1.729.068l2.479.045c.884.019,1.705.026,2.529.009,2.075-.041,4.3-.054,6.563-.053,1.336,0,2.66,0,3.907.033,2.722.064,5.451.128,8.479.164a14.641,14.641,0,0,0,2.6-.091,2.556,2.556,0,0,0-.679-.106c-.682-.064-.054-.112,1.3-.106l3.981.023c1.3.014,2.533.052,3.81.053,4.208,0,7.839.075,11.414.153,2.845.062,5.772.1,9,.1l4.279.006h6.522c2.725,0,5.275-.03,7.795-.077,2.972-.057,6.111-.049,9.128.008l1.23.023,2.564.031q6.723.031,13.481.01m20.137.823c-.194-.014-.723-.024-1.124-.026l-9.083-.031-7.932.017c-.688,0-1.305.035-1.954.055.5.032,1.161.054,1.973.066l2.42.041c2,.042,4.126.058,6.345.053l5.23-.016c1.293-.008,2.455-.037,3.413-.075.735-.03,1.05-.062.712-.084" transform="translate(0 0)" fill="#b7d167"/></g></svg>