<svg id="Grupo_38" data-name="Grupo 38" xmlns="http://www.w3.org/2000/svg" xmlns:xlink="http://www.w3.org/1999/xlink" width="123" height="80.086" viewBox="0 0 123 80.086">
  <defs>
    <clipPath id="clip-path">
      <rect id="Retângulo_35" data-name="Retângulo 35" width="123" height="80.086" fill="none"/>
    </clipPath>
  </defs>
  <g id="Grupo_37" data-name="Grupo 37" transform="translate(0 0)" clip-path="url(#clip-path)">
    <path id="Caminho_118" data-name="Caminho 118" d="M135.606,47.923S120.548,51.84,97.961,51.84s-37.645-3.917-37.645-3.917S67.6,2.75,97.961,2.75s37.645,45.173,37.645,45.173" transform="translate(-12.606 -0.575)" fill="#f8e075"/>
    <path id="Caminho_119" data-name="Caminho 119" d="M133.433,48.183l.009.085,0-.01-.01-.024-.019-.049-.036-.113c-.021-.085-.04-.172-.061-.263-.252-1.274-.554-2.56-.872-3.838a13.6,13.6,0,0,0-.4-1.31c-.209-.589-.4-1.224-.566-1.864-.3-1.188-.673-2.353-1.072-3.508-.125-.364-.253-.7-.4-1.011-.112-.242-.209-.507-.308-.768l-.4-1.048c-.07-.167-.149-.337-.224-.478a16.18,16.18,0,0,1-.744-1.766A8.075,8.075,0,0,1,128,31.21a5.782,5.782,0,0,0-.346-1.009l-.8-1.8a4.376,4.376,0,0,0-.392-.668l-.127-.168a7.592,7.592,0,0,1-.913-1.456,10.029,10.029,0,0,0-.545-.934c-.091-.142-.189-.3-.272-.456l-.958-1.69c-.144-.248-.253-.492-.361-.711-.138-.3-.319-.623-.414-.89-.122-.335-.346-.749-.53-1.118a10.544,10.544,0,0,0-.573-.914,10.716,10.716,0,0,0-.817-1.056,10.022,10.022,0,0,1-1.132-1.5,8.29,8.29,0,0,0-.786-1.066l-.717-.828a.989.989,0,0,0-.176-.161c-.081-.046-.074.007-.009.144l.24.5c.021.047.036.106.009.094a.809.809,0,0,1-.168-.146c-.179-.2-.361-.393-.551-.58-.637-.636-1.224-1.332-1.906-1.912l-.993-.908c-.332-.3-.695-.557-1.039-.838-.283-.224-.561-.429-.842-.614-.137-.089-.3-.166-.436-.263l-.99-.662a8.359,8.359,0,0,0-1.011-.623,7.113,7.113,0,0,1-.636-.41c-.2-.142-.409-.282-.641-.416-.306-.174-.633-.3-.949-.451L106.9,7.125l-1.365-.472-.681-.24c-.23-.07-.467-.115-.7-.175l-1.4-.332a10.429,10.429,0,0,0-1.035-.18l-1.3-.195c-.7-.09-1.409-.073-2.111-.125a15.612,15.612,0,0,0-2.116.013c-.445.022-.879.013-1.288,0-.25.009-.513.05-.773.085A22.953,22.953,0,0,0,86.318,7.82c-.522.22-1.009.539-1.513.807l-.732.432c-.233.159-.45.341-.661.517l-.65.456-.6.419-.568.465-1.137.927c-.129.119-.255.251-.362.371-.279.316-.586.619-.918.926a43.941,43.941,0,0,0-5.095,5.983c-.385.568-.788,1.122-1.161,1.7S72.206,22,71.847,22.585c-.177.32-.36.646-.548.959-.533.865-.981,1.777-1.433,2.687a5.973,5.973,0,0,0-.318.736c-.088.241-.18.485-.3.742q-.5,1.067-.964,2.157c-.325.717-.629,1.447-.939,2.174-.071.165-.153.33-.233.476a7.956,7.956,0,0,0-.444.976c-.506,1.305-.982,2.624-1.418,3.957q-.885,2.664-1.592,5.384c-.1.368-.2.713-.319,1.04a7.378,7.378,0,0,0-.227.79c-.313,1.274-.608,2.609-.828,3.825L60.5,45.754l1.27.308c.267.065.551.121.795.206a12.567,12.567,0,0,0,1.6.4c1.109.221,2.223.433,3.343.625.562.1,1.112.2,1.618.343.252.07.541.114.819.161,1.4.22,2.812.438,4.226.616.384.05.735.118,1.085.192.172.036.358.071.542.1l3.117.35,3.121.312.284.025c3.985.3,7.98.472,11.977.539.582,0,1.121-.017,1.655-.063a6.168,6.168,0,0,1,1.113.012,11.093,11.093,0,0,0,1.373.068c1.523-.024,3.046-.012,4.567-.074,1.428-.043,2.855-.088,4.28-.172,1.426-.063,2.85-.153,4.275-.247q1.284-.069,2.555-.22c.375-.042.758-.075,1.136-.1.472-.034.939-.06,1.368-.053a6.45,6.45,0,0,0,.8-.024c1.137-.1,2.27-.216,3.4-.379l1.13-.143a6.5,6.5,0,0,1,.817-.066,10.023,10.023,0,0,0,1.353-.1l.847-.116a7.94,7.94,0,0,1,.816-.079c.35-.017.719-.059,1.1-.109l.837-.115c.584-.018,1.279-.137,1.879-.191.532-.047,1.073-.115,1.629-.214.273-.047.551-.082.806-.107.351-.034.7-.09,1.079-.16l.826-.159a4.429,4.429,0,0,1,.717-.068h.047s.066-.009-.009.017a.7.7,0,0,0-.244.168c-.126.139-.143.26-.132.274a2.421,2.421,0,0,0,.523.365.3.3,0,0,0,.092.036c.033,0,.044.049-.059.114-.225.172-.425.341-.61.5a.985.985,0,0,0-.18.23,1.192,1.192,0,0,1-.342.252,11.841,11.841,0,0,1-1.079.524c-.663.283-1.016.566-1.714.843a2.151,2.151,0,0,0-.329.165,2.212,2.212,0,0,0-.223.158,1.485,1.485,0,0,1-.21.157,3.14,3.14,0,0,1-.9.3c-.57.112-1.164.185-1.714.32s-1,.274-1.556.4l-.776.2a3.346,3.346,0,0,0-.977.359c-.133.074-.18.149-.328.221a3.275,3.275,0,0,1-.908.268c-.38.066-.771.117-1.157.161a11.534,11.534,0,0,0-1.391.238,2.576,2.576,0,0,1-.263.057,22.775,22.775,0,0,1-3.151.3c-.175,0-.362.006-.549.019l-1.162.078c-.392.028-.76.039-1.122.035-.263,0-.548,0-.831.019-.577.032-1.161.059-1.693.034-.263-.013-.563.009-.851.021l-.865.032c-.589-.035-1.3-.017-1.916-.041-.548-.024-1.1-.026-1.68-.01-.286.006-.567.006-.845-.006s-.537-.029-.835-.026c-.871.008-1.74.016-2.617.046-.581.023-1.165.015-1.747.018-.187,0-.378-.014-.552-.028-.359-.032-.724-.054-1.117-.055-.582,0-1.164,0-1.745-.014a5.156,5.156,0,0,1-.555-.04,11.854,11.854,0,0,0-1.391-.093c-.679-.015-1.359-.013-2.035-.047-.285-.013-.573-.038-.842-.068-.37-.042-.742-.069-1.133-.079-1.261-.028-2.519-.1-3.773-.191-.289-.021-.556-.055-.819-.1l-1.311-.208a7.925,7.925,0,0,0-.827-.108L81.928,52.7c-.283-.022-.567-.028-.844-.034s-.54,0-.838-.028q-1.595-.129-3.185-.3a11.667,11.667,0,0,1-1.367-.227c-.166-.035-.358-.074-.545-.1-1.438-.206-2.878-.378-4.317-.553-.188-.021-.383-.038-.556-.044a13.111,13.111,0,0,1-1.4-.149c-3.128-.486-6.2-1.024-9.347-1.785l-1.266-.306.22-1.3c.146-.863.308-1.661.485-2.481.142-.671.308-1.334.467-2a17.3,17.3,0,0,1,.673-2.148c.242-.655.524-1.282.738-2.074a4.858,4.858,0,0,1,.191-.52l.618-1.463c.07-.16.143-.336.2-.514.221-.641.435-1.285.672-1.921.068-.187.135-.359.213-.523.189-.406.364-.845.541-1.3.635-1.731,1.341-3.438,2.095-5.123.121-.274.21-.535.3-.779.229-.661.581-1.4.8-2.056l.4-.776c.39-.58.769-1.258,1.186-1.764a3.049,3.049,0,0,1,.416-.467,9.3,9.3,0,0,0,1.084-1.093c.151-.165.309-.337.468-.543.483-.634.952-1.2,1.468-1.777a5.362,5.362,0,0,0,.621-.923c.37-.7.742-1.31.991-1.887l.35-.759a7.116,7.116,0,0,1,.542-.838c.161-.223.289-.438.459-.659a7.31,7.31,0,0,1,.572-.656l1.208-1.019c.282-.248.551-.486.838-.738l.436-.384a10.1,10.1,0,0,1,1.694-1.2l.562-.271a7.585,7.585,0,0,0,1.068-.657,2.278,2.278,0,0,1,.793-.354c.174-.023.4-.09.574-.115a1.786,1.786,0,0,0,.546-.206A2.922,2.922,0,0,1,83.9,7.512a1.1,1.1,0,0,0,.158-.028,1.314,1.314,0,0,0,.2-.062c.616-.251,1.2-.513,1.92-.825l.5-.226,1.451-.683a4.668,4.668,0,0,1,.489-.2l1.165-.426c.39-.126.774-.229,1.113-.377l.793-.224c.265-.069.558-.161.789-.207.649-.172,1.432-.282,2.064-.464a1.813,1.813,0,0,1,.532-.085l1.69-.079a5.12,5.12,0,0,1,1.09.035c.17.024.357.044.538.055a22.312,22.312,0,0,1,2.681.225l1.107.158.608.086.611.145a7.8,7.8,0,0,0,.806.161,7.338,7.338,0,0,1,1.325.264l1.87.62c.373.113.7.269.981.319.488.106,1.067.3,1.637.487a4.905,4.905,0,0,1,.49.237,30.865,30.865,0,0,1,7.141,5.213c.422.387.793.827,1.193,1.237a4.147,4.147,0,0,1,.358.418c.4.541.844,1.152,1.351,1.731.248.289.5.576.725.883a4.585,4.585,0,0,1,.432.668l.592,1.2a12.052,12.052,0,0,0,1.016,1.812c.11.151.2.319.292.48.2.345.283.608.2.647-.04.017-.112-.022-.142.009-.044.049-.07.127-.016.314a6.64,6.64,0,0,0,.79,1.567,2.269,2.269,0,0,0,.288.369c.172.176.209.181.192.006,0-.047-.015-.1-.016-.143,0-.185.1-.143.336.137a2.163,2.163,0,0,1,.49.85,4.591,4.591,0,0,1,.126.553,5.177,5.177,0,0,0,.137.57,5.711,5.711,0,0,0,.364.938c.251.5.472,1.025.715,1.535a11.007,11.007,0,0,1,.5,1.266,3.566,3.566,0,0,0,.218.5,15.411,15.411,0,0,1,.735,1.469c.15.354.315.653.478.958a3.533,3.533,0,0,1,.3.754,11.263,11.263,0,0,0,.412,1.3q1.14,3.059,2.062,6.2c.107.377.236.691.361,1.021a6.147,6.147,0,0,1,.346,1.327c.039.255.08.509.15.794l.383,1.659a9.382,9.382,0,0,1,.18,1.076c.026.263.082.537.138.812.092.461.191.926.242,1.373.008.078.013.164.014.239v.053c0,.006,0,.088-.02-.088a1.38,1.38,0,0,1,.081-.616c.147-.335.186-.357.075-.261a1.3,1.3,0,0,0-.292.937M61.691,43.988c-.08-.073-.353.411-.494.972-.071.271-.126.553-.232,1.043-.013.065-.066.343-.12.619-.062.324-.046.708.025.742a.354.354,0,0,0,.324-.016.866.866,0,0,0,.238-.39,6.3,6.3,0,0,0,.3-.972c.057-.274.115-.551.172-.822a2.144,2.144,0,0,0,.047-.468,4.2,4.2,0,0,0-.116-.52c-.029-.128-.092-.138-.144-.187m-.783.785a.652.652,0,0,0,.047-.363c-.022-.075-.079,0-.133.126-.017.042-.034.117-.051.177a1.28,1.28,0,0,0,.01.153c.025.082.069.046.126-.093m1.33-6.7c.1-.373.2-.739.274-1.078s.188-.717.282-1.076c.05-.193.093-.4.057-.391-.051.013-.138.2-.209.385l-.107.244a9.942,9.942,0,0,0-.409,1.02l-.611,1.935a12.866,12.866,0,0,1-.462,1.3,4.6,4.6,0,0,0-.183.524c-.257.933-.508,1.868-.738,2.808-.3,1.225-.567,2.454-.8,3.7l-.06.279-.032.139-.017.071-.008.036,0,.017,0,.009v0h0l.511.782h0c.278.087.531.176.807.249.836.221,1.69.411,2.48.647.246.074.551.134.833.2l1.705.343c.486.092.926.2,1.359.316.263.071.551.12.838.17a3.157,3.157,0,0,0,.774.049,8.839,8.839,0,0,1,1.834-.026,4.494,4.494,0,0,0,.477-.006c.157-.006.3-.021.313-.062s-.161-.086-.355-.13l-.518-.124a2.443,2.443,0,0,0-.533-.093,12.657,12.657,0,0,1-1.4-.157,5.868,5.868,0,0,1-.819-.172c-.562-.17-1.126-.339-1.756-.494-.278-.07-.568-.07-.565,0,0,.044.048.092.121.146.131.1-.012.127-.3.067l-.835-.183c-.271-.064-.521-.164-.789-.217a17.325,17.325,0,0,1-2.357-.677c-.38-.133-.767-.259-1.182-.382l-.128-.038.025-.12c.044-.221.09-.448.138-.681.1-.469.173-.853.183-.9l.29-1.365c.13-.569.215-1.108.3-1.644a8.78,8.78,0,0,1,.492-1.89l.093-.248.178-.52c.274-.923.547-1.841.82-2.765M64.485,34.3a.994.994,0,0,0-.106.214c-.223.605-.456,1.209-.662,1.807-.171.545-.336,1.075-.5,1.6a3.2,3.2,0,0,0-.061.414,1.693,1.693,0,0,0,.194-.377l.2-.474a10.676,10.676,0,0,0,.474-1.256c.115-.35.23-.7.344-1.05a4.1,4.1,0,0,0,.157-.71c.019-.158.007-.233-.042-.175" transform="translate(-12.177 -0.755)" fill="#f8e075"/>
    <rect id="Retângulo_32" data-name="Retângulo 32" width="15.058" height="30.116" transform="translate(77.826 47.349)" fill="#f8e075"/>
    <path id="Caminho_120" data-name="Caminho 120" d="M111.706,88.42a.975.975,0,0,1-.042-.255l-.078-1.761a5.681,5.681,0,0,0-.066-.641,5.413,5.413,0,0,1-.07-.888c0-.517-.025-1.061-.055-1.6a4.013,4.013,0,0,0-.064-.51,3.253,3.253,0,0,1-.041-.382c-.013-.168-.025-.333-.039-.5a1.822,1.822,0,0,0-.041-.252,3.675,3.675,0,0,1-.08-.868,1.468,1.468,0,0,1,.045-.421,1.288,1.288,0,0,0,.044-.425l-.029-.858a1.382,1.382,0,0,0-.067-.369c-.013-.036-.025-.072-.04-.112a2.154,2.154,0,0,1-.18-.833,2.568,2.568,0,0,0-.062-.494,1.808,1.808,0,0,1-.036-.246l-.033-.848a1.177,1.177,0,0,1,.032-.327,1.846,1.846,0,0,1,.094-.374,2.358,2.358,0,0,0,.116-.476,1.927,1.927,0,0,0,.029-.455,3.439,3.439,0,0,0-.078-.612,2.132,2.132,0,0,1-.013-.823,2.456,2.456,0,0,0,.057-.558l-.018-.487a.35.35,0,0,0-.03-.115c-.025-.047-.059-.04-.095.01l-.13.19c-.013.017-.038.032-.05.016a.273.273,0,0,1-.034-.109c-.013-.121-.028-.243-.032-.361l-.06-2.4a2.638,2.638,0,0,0-.052-.479,1.361,1.361,0,0,1-.034-.237l-.027-1.08a1.394,1.394,0,0,1,.041-.335,1.566,1.566,0,0,0,.041-.337l0-.479c-.011-.884-.021-1.76-.032-2.646-.006-.16,0-.32,0-.48,0-.2.01-.4,0-.6-.019-.645,0-1.285,0-1.93a2.552,2.552,0,0,1,.063-.585,1.525,1.525,0,0,0,.028-.356l0-.138,2.329,2.329c-1.276-.017-2.553-.021-3.83,0a7.783,7.783,0,0,0-1.644.078l-.382.014-1.409.042a1.538,1.538,0,0,0-.247.028,3.128,3.128,0,0,1-.623.063c-1.239.018-2.48.017-3.719.011-.641,0-1.282-.017-1.922.011-.17.008-.343.006-.513,0-.257-.012-.513-.012-.77-.006l2.566-2.566.018.639a2.114,2.114,0,0,0,.047.369,2.083,2.083,0,0,1,.05.368c.027.726.029,1.452,0,2.178a1.329,1.329,0,0,1-.036.244,2.217,2.217,0,0,0-.066.49l-.021,1.923-.013,2.566a2.3,2.3,0,0,1-.055.5,1.939,1.939,0,0,0-.033.375l-.039,2.435a1.626,1.626,0,0,1-.031.376,3.073,3.073,0,0,0-.073.747l-.014,1.539a3.138,3.138,0,0,1-.078.745,1.675,1.675,0,0,0-.031.377l-.03,1.922a2.847,2.847,0,0,1-.058.5,1.491,1.491,0,0,0-.028.248c-.021.939,0,1.881-.048,2.818v.128l.031,5.387a3.436,3.436,0,0,0,.081.743,1.252,1.252,0,0,1,0,.5,2.98,2.98,0,0,0-.074.617V89.7l-2.066-2.066.6,0c1.156,0,2.3.009,3.449.067q.519.026,1.024.017c.149,0,.3,0,.456.016a2.527,2.527,0,0,1,.577.1,1.551,1.551,0,0,0,.345.072c.467.034.936.067,1.395.076.151,0,.306.009.463.022a1.564,1.564,0,0,1,.357.059,2.6,2.6,0,0,0,.6.1l.357.026a2.284,2.284,0,0,1,.365.059,3.786,3.786,0,0,0,.491.076c.121.013.246.028.369.042.29.078.585.09.875.151a7.357,7.357,0,0,0,.757.108c.124.012.256.032.382.057a4.492,4.492,0,0,0,.512.071l.382.036a2.072,2.072,0,0,1,.379.082.569.569,0,0,1,.184.084l.452.453c.059.06.082.117.058.174a1.132,1.132,0,0,0-.072.25.31.31,0,0,0,.026.134c.014.047-.021.085-.059.126a1.342,1.342,0,0,1-.335.222c-.223.119-.274.28-.526.4a.271.271,0,0,0-.1.085.317.317,0,0,0-.043.095c-.013.032-.011.066-.039.1a.567.567,0,0,1-.358.13c-.265.025-.564.016-.809.062s-.426.12-.676.165c-.123.021-.22.062-.34.086a.573.573,0,0,0-.379.214c-.041.051-.036.111-.087.161a.646.646,0,0,1-.392.149c-.184.021-.377.034-.57.042a2.767,2.767,0,0,0-.668.1.7.7,0,0,1-.123.029,6.52,6.52,0,0,1-1.589.036,2.655,2.655,0,0,0-.286-.025l-.587,0a3.615,3.615,0,0,1-.574-.043,3.586,3.586,0,0,0-.427-.04A5.161,5.161,0,0,1,102.83,92a2.7,2.7,0,0,0-.427-.029l-.431-.018c-.3-.076-.649-.077-.958-.131a6.07,6.07,0,0,0-.827-.086c-.139-.006-.278-.025-.413-.042s-.263-.045-.407-.051c-.422-.016-.839-.034-1.26-.032h-.229l-1.941,0,.032-1.911.009-.558a1.361,1.361,0,0,1,.034-.243,2.588,2.588,0,0,0,.066-.492l.021-.767a1,1,0,0,1,.034-.245,2.413,2.413,0,0,0,.078-.613l.017-.9a2.6,2.6,0,0,1,.042-.372,2.668,2.668,0,0,0,.044-.5c0-.555,0-1.111.028-1.665a1.851,1.851,0,0,1,.057-.363c.044-.2.087-.388.131-.582a1.671,1.671,0,0,0,.048-.368l0-1.025a2.781,2.781,0,0,0-.041-.373,2.6,2.6,0,0,1-.046-.369l-.013-1.41a2.286,2.286,0,0,1,.081-.61A1.328,1.328,0,0,0,96.59,78a18.724,18.724,0,0,0-.013-1.92,1.517,1.517,0,0,0-.032-.245,2.858,2.858,0,0,1-.066-.619l-.025-5.258.01-.9a4.222,4.222,0,0,1,.12-.984,3.671,3.671,0,0,0,.156-.964,1.075,1.075,0,0,1,.033-.242c.055-.229.11-.466.164-.694a1.283,1.283,0,0,0,.036-.244l.028-.9a1.2,1.2,0,0,1,.028-.248,2.679,2.679,0,0,0,.065-.621V61.732a1.447,1.447,0,0,0-.051-.366c-.079-.306-.076-.668-.165-.966v-.383c.036-.14.062-.288.09-.434l.2-1.046.706.138a3.3,3.3,0,0,1,.493.124.768.768,0,0,1,.269.131,2.114,2.114,0,0,0,.658.388,1.77,1.77,0,0,0,.312.111c.351.078.675.184,1.018.268a1.084,1.084,0,0,0,.5-.011,4.154,4.154,0,0,0,.935-.332l.358-.184a1.614,1.614,0,0,1,.436-.129c.12-.021.229-.063.35-.077a3.59,3.59,0,0,1,.381,0l.688.169a2.217,2.217,0,0,0,.49.066l.255.013a3.617,3.617,0,0,1,.912.216l.27.138a1.589,1.589,0,0,0,.555.147.564.564,0,0,1,.381.151c.07.078.171.148.243.225a.5.5,0,0,0,.258.135,1.119,1.119,0,0,1,.532.267.378.378,0,0,0,.069.054.383.383,0,0,0,.094.044,3.105,3.105,0,0,0,.963.15l.257,0a2.636,2.636,0,0,0,.742-.078,1.092,1.092,0,0,1,.245-.034,4,4,0,0,0,1.114-.118l.378-.031a2.579,2.579,0,0,0,.374-.036,4.187,4.187,0,0,1,.532-.085l-.772-.773a2.566,2.566,0,0,0,.082.426.784.784,0,0,1,.032.241l0,.757a2.409,2.409,0,0,1-.056.486,1.388,1.388,0,0,0-.03.24c-.006.377-.011.754-.018,1.2,0,.3,0,.681,0,1.058a1.729,1.729,0,0,0,.035.373,2.857,2.857,0,0,1,.078.613l.025.885a1.266,1.266,0,0,0,.091.475,4.729,4.729,0,0,1,.228.8,1.119,1.119,0,0,1,.033.248l.032,3.954-.01.76a.815.815,0,0,1-.028.235,3.039,3.039,0,0,0-.108.934l.007.509a.808.808,0,0,1-.055.329c-.073.168-.157.314-.223.489a2.067,2.067,0,0,0-.162.841c0,.083-.006.162-.011.243-.009.17-.07.259-.154.214-.038-.021-.077-.07-.115-.082a.127.127,0,0,0-.16.036.976.976,0,0,0-.105.711.826.826,0,0,0,.065.234c.058.133.085.156.148.118a.57.57,0,0,1,.049-.032c.079-.032.138.036.2.227a.491.491,0,0,1,.011.435.747.747,0,0,1-.126.172.749.749,0,0,0-.12.182.94.94,0,0,0-.088.387l-.007.729a3.109,3.109,0,0,1-.055.556.781.781,0,0,0,0,.238,6.579,6.579,0,0,1,.093.768,3.681,3.681,0,0,0,.078.513.834.834,0,0,1,0,.354,2.118,2.118,0,0,0-.047.554l.069,2.869a3.691,3.691,0,0,0,.065.519,1.758,1.758,0,0,1,0,.594,1.5,1.5,0,0,0-.035.317l0,.734a2.306,2.306,0,0,1-.034.437,1.682,1.682,0,0,0-.017.339c0,.206.013.421,0,.6-.006.063-.024.125-.046.133s-.062-.051-.084-.116M98.793,69.082c-.092-.024-.248.216-.26.474-.006.127,0,.255,0,.479,0,.03.006.157.01.283,0,.149.093.316.167.325a.7.7,0,0,0,.316-.035.329.329,0,0,0,.157-.195,1.193,1.193,0,0,0,.094-.459,3.561,3.561,0,0,0-.009-.38.471.471,0,0,0-.06-.211,1.949,1.949,0,0,0-.23-.216.364.364,0,0,0-.185-.066m-.583.422a.152.152,0,0,0-.036-.163c-.039-.03-.078.008-.1.068a.356.356,0,0,0-.009.082.272.272,0,0,0,.045.066c.042.033.077.013.1-.053m-.46-3.035a2.233,2.233,0,0,0-.064-.493,4.1,4.1,0,0,1-.064-.492c-.01-.089-.039-.182-.07-.172s-.064.105-.076.191c-.006.04-.017.079-.026.117a1.988,1.988,0,0,0-.074.484l-.017.9a2.345,2.345,0,0,1-.089.607,1.008,1.008,0,0,0-.034.244l-.017,1.281L97.209,70.8a2.184,2.184,0,0,1-.025.248c-.017.123-.045.242-.054.367a8.231,8.231,0,0,1-.11,1.127,2.289,2.289,0,0,0-.028.377c-.009.257-.017.513-.025.768a3.176,3.176,0,0,1-.078.615,1.8,1.8,0,0,0-.026.377.654.654,0,0,0,.07.341,2,2,0,0,1,.306.8,1.064,1.064,0,0,0,.072.209c.027.068.063.131.106.134s.062-.077.078-.165.031-.16.051-.235a.48.48,0,0,0,.01-.24,2.513,2.513,0,0,1-.06-.623,1.408,1.408,0,0,1,.038-.371,6.367,6.367,0,0,0,.188-.8c.02-.127-.034-.254-.1-.247a.229.229,0,0,0-.123.064c-.073.065-.127.006-.12-.123s.012-.255.026-.377a3.159,3.159,0,0,0,.06-.361,4.362,4.362,0,0,1,.176-1.084,3.333,3.333,0,0,0,.114-.855c0-.212.006-.385.006-.406,0-.362,0-.49,0-.619a3.53,3.53,0,0,0-.089-.74,1.968,1.968,0,0,1,.009-.867c.009-.039.017-.081.026-.116a2.259,2.259,0,0,0,.036-.244q.036-.638.011-1.28m.941-1.912a.235.235,0,0,0-.029.107c-.012.29-.023.579-.035.863.006.255.013.5.019.752a.694.694,0,0,0,.062.186.423.423,0,0,0,.077-.187c.016-.075.03-.149.047-.229a2.207,2.207,0,0,0,.061-.6c0-.166-.006-.333-.018-.5a.88.88,0,0,0-.086-.324c-.034-.07-.07-.1-.1-.068" transform="translate(-20.051 -12.234)" fill="#f8e075"/>
    <path id="Caminho_121" data-name="Caminho 121" d="M117.708,63.611c0,2.509-5.963,4.543-13.319,4.543S91.07,66.121,91.07,63.611s5.963-4.543,13.319-4.543,13.319,2.034,13.319,4.543" transform="translate(-19.034 -12.345)" fill="#f8e075"/>
    <path id="Caminho_122" data-name="Caminho 122" d="M115.719,63.686c-.04,0-.059.011-.061.017a.023.023,0,0,0,.01.028c-.017,0-.028-.008-.032-.015.023,0-.067-.066-.1-.115-.012-.037-.1-.071-.179-.091a.845.845,0,0,1-.3-.172,2.422,2.422,0,0,0-.678-.412.6.6,0,0,0-.26-.059.717.717,0,0,1-.2-.051l-.26-.089a.364.364,0,0,0-.138-.013.9.9,0,0,1-.482-.112.743.743,0,0,1-.233-.161.565.565,0,0,0-.25-.149l-.5-.151a.387.387,0,0,0-.222.012.4.4,0,0,0-.066.028.611.611,0,0,1-.494.06.7.7,0,0,0-.3-.02.474.474,0,0,1-.15,0l-.527-.1a.521.521,0,0,1-.207-.09,1.356,1.356,0,0,1-.248-.162,1.476,1.476,0,0,0-.318-.2.848.848,0,0,0-.3-.093.987.987,0,0,0-.385.013.861.861,0,0,1-.533-.072,1.171,1.171,0,0,0-.369-.123c-.1-.014-.211-.016-.317-.02a.128.128,0,0,0-.072.023c-.028.023-.018.062.02.1l.141.157c.013.015.026.044.017.055a.112.112,0,0,1-.068.028,1.631,1.631,0,0,1-.233,0c-.522-.047-1.046-.081-1.574-.1a1.018,1.018,0,0,0-.31.028.579.579,0,0,1-.151.024l-.712,0a.693.693,0,0,1-.227-.051.782.782,0,0,0-.228-.051c-.106-.006-.211-.009-.316,0-.581.025-1.164,0-1.74.06-.1.009-.211.006-.316.009a3.248,3.248,0,0,0-.393.017c-.416.058-.838.063-1.254.109a1.117,1.117,0,0,1-.384-.017.675.675,0,0,0-.233,0,18.283,18.283,0,0,0-2.367.414,2.685,2.685,0,0,0-.918.313l-.206.078c-.248.1-.515.176-.745.286a.444.444,0,0,0-.116.075.969.969,0,0,1-.3.176,7.9,7.9,0,0,0-1.475.8,1.281,1.281,0,0,1-.165.146.027.027,0,0,1,0,.023c-.006,0-.024.014.02-.017a.1.1,0,0,0,.03-.1.594.594,0,0,0,.036-.257.527.527,0,0,0-.011-.271c-.023-.049.016-.067.025-.107a.1.1,0,0,0,0-.1c-.024-.032.019-.021.013-.028.009,0-.021,0,.028.03.074.047.078.106.2.195a.192.192,0,0,1,.051.078.351.351,0,0,0,.11.161,7.164,7.164,0,0,0,.8.433,5.859,5.859,0,0,0,.626.263,6.926,6.926,0,0,0,.673.235.771.771,0,0,1,.254.135.552.552,0,0,0,.2.094c.458.128.911.267,1.39.369a.578.578,0,0,1,.213.077.989.989,0,0,0,.429.154l.92.165a1.194,1.194,0,0,1,.445.133.622.622,0,0,0,.225.059c.388.066.783.106,1.178.15a1.081,1.081,0,0,1,.3.084.629.629,0,0,0,.151.041l1.754.12h.08c1.122.021,2.245-.037,3.358-.116a1.414,1.414,0,0,0,.452-.121.49.49,0,0,1,.308-.027,1.1,1.1,0,0,0,.388.037c.418-.057.842-.1,1.255-.161.778-.122,1.547-.275,2.3-.441a4.206,4.206,0,0,0,.66-.189,1.987,1.987,0,0,1,.285-.091.907.907,0,0,1,.369-.032.444.444,0,0,0,.216-.009,4.977,4.977,0,0,0,.815-.307,2.743,2.743,0,0,1,.254-.119.434.434,0,0,1,.2-.04.565.565,0,0,0,.315-.077l.178-.089a.629.629,0,0,1,.182-.054.667.667,0,0,0,.221-.084l.165-.079c.132-.01.216-.1.345-.131a.56.56,0,0,0,.225-.129.719.719,0,0,1,.1-.056.287.287,0,0,0,.108-.07c.035-.025.013-.039.034-.055a.313.313,0,0,1,.111-.043.645.645,0,0,1,.121-.02l.64,0a.4.4,0,0,1,.236.07c.1.074.21.156.316.247a1.3,1.3,0,0,0,.168.113.462.462,0,0,1,.14.186,1.623,1.623,0,0,1,.084.523,3.034,3.034,0,0,1-.006.907.734.734,0,0,0-.017.186,1.219,1.219,0,0,0,.017.161.49.49,0,0,1-.171.51c-.171.184-.373.316-.522.46s-.255.324-.416.475c-.077.064-.133.142-.209.209a.687.687,0,0,0-.218.372,1.879,1.879,0,0,1-.034.218.5.5,0,0,1-.24.278,4.057,4.057,0,0,1-.373.181,1.668,1.668,0,0,0-.431.262.391.391,0,0,1-.077.056,2.661,2.661,0,0,1-1.024.329.915.915,0,0,0-.185.016l-.374.089a1.472,1.472,0,0,1-.371.047,1.682,1.682,0,0,0-.274.016,2.088,2.088,0,0,1-.547.047,1.152,1.152,0,0,0-.273.028c-.092.015-.183.028-.274.035a5.363,5.363,0,0,0-.619-.022,2.562,2.562,0,0,0-.533.009,2.114,2.114,0,0,1-.265,0,1.819,1.819,0,0,0-.264-.01c-.268.023-.536.053-.8.092l-.533.058a.66.66,0,0,1-.172-.013,1.294,1.294,0,0,0-.346-.024c-.178.018-.355.021-.532.032a.494.494,0,0,1-.172-.019,1.188,1.188,0,0,0-.429-.041c-.206.015-.412.031-.617.028a1.262,1.262,0,0,1-.258-.028,1.293,1.293,0,0,0-.346-.026,8.589,8.589,0,0,1-1.141.009.913.913,0,0,1-.25-.051l-.4-.125a.9.9,0,0,0-.25-.047l-.7-.009a1.318,1.318,0,0,0-.255.036,1.261,1.261,0,0,1-.254.042l-.962-.034a1.12,1.12,0,0,1-.412-.1.69.69,0,0,0-.163-.046,9.172,9.172,0,0,0-1.308-.1.71.71,0,0,0-.17.012,1.372,1.372,0,0,1-.43.013,25.581,25.581,0,0,1-3.584-.64l-.607-.169a2.166,2.166,0,0,1-.63-.321,2.436,2.436,0,0,0-.595-.373.536.536,0,0,1-.149-.092c-.136-.11-.266-.214-.4-.33a.728.728,0,0,0-.144-.1l-.568-.29a.558.558,0,0,1-.146-.111,1.447,1.447,0,0,0-.361-.276,5.736,5.736,0,0,1-1.448-1.16,1.241,1.241,0,0,0-.229-.219c-.237-.144-.371-.482-.568-.721a1.511,1.511,0,0,1-.091-.388,4.818,4.818,0,0,1,.044-.5,2.035,2.035,0,0,1,.177-.44c.057-.093.1-.188.18-.214a3.089,3.089,0,0,0,.57-.331c.068-.044.155-.072.221-.123a2.221,2.221,0,0,1,.648-.33.475.475,0,0,0,.227-.222,2.648,2.648,0,0,0,.314-.63c.032-.1.077-.187.115-.282a.839.839,0,0,1,.2-.26c.063-.06.11-.135.179-.189a1.1,1.1,0,0,1,.239-.119l.5-.044a1.505,1.505,0,0,0,.333-.07l.166-.05a1.757,1.757,0,0,1,.647-.012l.214.075a.8.8,0,0,0,.394.033.31.31,0,0,1,.28.07l.213.171a.34.34,0,0,0,.2.086.671.671,0,0,1,.4.174.288.288,0,0,0,.055.041.189.189,0,0,0,.068.027,1.423,1.423,0,0,0,.623,0c.051-.014.106-.021.158-.031a1.085,1.085,0,0,0,.443-.172.453.453,0,0,1,.145-.065,1.831,1.831,0,0,0,.677-.238l.234-.069a1.006,1.006,0,0,0,.23-.074c.182-.112.414-.131.592-.247a.357.357,0,0,1,.153-.051l.492-.063a1.012,1.012,0,0,1,.325.026.583.583,0,0,0,.161.016l.791-.048.7-.038a.726.726,0,0,0,.24-.047,1.2,1.2,0,0,1,.394-.1l.581-.032a.534.534,0,0,0,.3-.1,2.045,2.045,0,0,1,.5-.237.456.456,0,0,1,.161-.031q1.3,0,2.6.074l.5.057a.386.386,0,0,1,.158.044,1.6,1.6,0,0,0,.626.18l.332.036a.42.42,0,0,1,.221.089c.119.095.224.2.346.29a1.244,1.244,0,0,0,.563.278,1.376,1.376,0,0,1,.159.04c.111.03.175.111.155.2a1.2,1.2,0,0,0-.04.121.261.261,0,0,0,.042.188.562.562,0,0,0,.465.222.248.248,0,0,0,.141-.041c.078-.047.091-.074.061-.155l-.026-.063c-.027-.1.009-.155.125-.2a.2.2,0,0,1,.276.051.924.924,0,0,1,.121.173.872.872,0,0,0,.127.171.573.573,0,0,0,.246.176l.452.142a1.063,1.063,0,0,1,.342.175.27.27,0,0,0,.143.047,1.805,1.805,0,0,1,.458.046,1.358,1.358,0,0,0,.3.016.281.281,0,0,1,.2.081.879.879,0,0,0,.318.2c.271.1.519.23.781.342a7.907,7.907,0,0,1,.682.4.677.677,0,0,0,.243.084.266.266,0,0,1,.211.2.358.358,0,0,0,.076.147c.1.078.093.151.154.217a.09.09,0,0,1,.006.133c-.021.031-.017.049-.006.065.029.031-.013.032-.021.042a.249.249,0,0,1-.059.006l-.119,0m-19.862,2.6c-.04.086.063.276.222.328.075.026.157.041.3.077l.177.035a.231.231,0,0,0,.24-.112,1.108,1.108,0,0,0,.051-.313.276.276,0,0,0-.08-.184.513.513,0,0,0-.252-.161,1.36,1.36,0,0,0-.23-.051.228.228,0,0,0-.142.027,2.046,2.046,0,0,0-.191.187.518.518,0,0,0-.091.166m.1.632a.076.076,0,0,0-.112.009c-.03.032-.016.075.016.108a.194.194,0,0,0,.05.023.3.3,0,0,0,.054-.033.069.069,0,0,0-.008-.106m-2.032-.187a1.4,1.4,0,0,0-.327-.07,1.781,1.781,0,0,1-.327-.08c-.059-.014-.129-.015-.136.016s.037.087.085.123a.425.425,0,0,1,.062.057,1,1,0,0,0,.274.206c.184.092.376.16.564.239a1.161,1.161,0,0,1,.359.229.389.389,0,0,0,.149.084l.829.277,1.093.291a.933.933,0,0,1,.159.059c.078.033.151.077.232.1a4.077,4.077,0,0,1,.729.262,1.09,1.09,0,0,0,.248.069l.509.109a1.5,1.5,0,0,1,.4.145.859.859,0,0,0,.251.058.337.337,0,0,0,.239-.041,1.146,1.146,0,0,1,.573-.237.561.561,0,0,0,.146-.054c.049-.021.094-.052.1-.095s-.044-.067-.1-.092a1.428,1.428,0,0,1-.149-.07.213.213,0,0,0-.157-.031,1.169,1.169,0,0,1-.42.009.634.634,0,0,1-.24-.069,4.42,4.42,0,0,0-.5-.267.124.124,0,0,0-.179.078.262.262,0,0,0,.024.127c.031.079-.017.126-.1.106s-.167-.04-.246-.067a1.429,1.429,0,0,0-.228-.1,1.867,1.867,0,0,1-.676-.313,1.556,1.556,0,0,0-.531-.228l-.259-.073-.4-.1a1.967,1.967,0,0,0-.5-.043.881.881,0,0,1-.549-.18l-.066-.047a1.108,1.108,0,0,0-.142-.082,6.744,6.744,0,0,0-.794-.306m-.7-1.368a.1.1,0,0,0,.041.057,3.777,3.777,0,0,0,.452.264l.429.174a.324.324,0,0,0,.131-.017.224.224,0,0,0-.08-.111c-.036-.033-.074-.066-.108-.1a.83.83,0,0,0-.3-.206l-.277-.108a.362.362,0,0,0-.2-.017c-.052.01-.085.032-.081.066" transform="translate(-18.785 -12.418)" fill="#f8e075"/>
    <path id="Caminho_123" data-name="Caminho 123" d="M48.391,32.877S44.02,2.761,25.8,2.761,3.218,32.877,3.218,32.877s7.519,3.915,22.586,3.915c15.05,0,22.587-3.915,22.587-3.915" transform="translate(-0.673 -0.577)" fill="#ad144f"/>
    <path id="Caminho_124" data-name="Caminho 124" d="M48.627,33.767c-.05.036-.1.07-.155.1l-.078.044-.007.006-.032.027L48.28,34a1.756,1.756,0,0,1-.181.1,26.5,26.5,0,0,1-2.515,1.01c-.306.108-.577.225-.853.346a6.535,6.535,0,0,1-1.233.426l-2.369.612a7.19,7.19,0,0,0-.691.214,5.313,5.313,0,0,1-.531.15l-.725.177a2.509,2.509,0,0,0-.336.1,5.964,5.964,0,0,1-1.247.287,3.051,3.051,0,0,1-.71.036,3.267,3.267,0,0,0-.709.034c-.432.06-.863.133-1.295.181a2,2,0,0,0-.5.123c-.046.019-.094.038-.132.058a2.937,2.937,0,0,1-1.118.309,5.311,5.311,0,0,0-.717.113,2.637,2.637,0,0,1-.354.062l-1.3.112a2.366,2.366,0,0,1-.539-.013,5.712,5.712,0,0,1-.663-.087,6.736,6.736,0,0,0-.829-.1A4.581,4.581,0,0,0,28,38.231a6.665,6.665,0,0,0-.893.085,4.641,4.641,0,0,1-1.265.015,7.5,7.5,0,0,0-.894-.066l-.74,0a.535.535,0,0,0-.161.027c-.061.024-.031.062.067.1l.364.149c.034.015.07.043.053.055a.417.417,0,0,1-.153.031c-.181.008-.365.017-.548.015-1.243,0-2.486-.059-3.731-.121-.252-.011-.494-.01-.731,0a3.219,3.219,0,0,1-.361,0L17.33,38.4a3,3,0,0,1-.531-.1,4,4,0,0,0-.533-.107l-.744-.093c-1.368-.15-2.728-.385-4.093-.617-.247-.042-.494-.089-.739-.147l-.923-.2c-.991-.194-1.971-.448-2.95-.732a5.073,5.073,0,0,1-.872-.316,3.947,3.947,0,0,0-.531-.193c-.642-.206-1.282-.426-1.925-.673-.32-.117-.644-.251-.967-.384-.34-.146-.622-.263-1.046-.475L0,33.621l.254-1.654c.1-.679.206-1.264.324-1.884a22.238,22.238,0,0,0,.436-2.369l.116-.549c.151-.669.308-1.338.477-2a3.045,3.045,0,0,0,.067-.356,5.923,5.923,0,0,1,.194-.894q.743-2.625,1.748-5.184c.342-.883.729-1.75,1.088-2.633.1-.232.21-.465.324-.691L5.95,13.51c.085-.176.151-.345.218-.513a4.776,4.776,0,0,1,.227-.509c.253-.486.519-.967.816-1.434s.584-.937.919-1.384a3.017,3.017,0,0,1,.24-.286,6.635,6.635,0,0,0,.483-.579l.91-1.171L10.74,6.5c.439-.5.935-.963,1.4-1.445.513-.445,1-.912,1.548-1.33a5.739,5.739,0,0,1,.67-.436,4.985,4.985,0,0,0,.5-.332c.558-.345,1.11-.7,1.689-1.014a19.772,19.772,0,0,1,1.8-.836A4.232,4.232,0,0,1,18.936.92C19.315.839,19.7.695,20.113.6L21.327.283c.41-.079.824-.134,1.236-.2A3.981,3.981,0,0,1,23.769.029a4.3,4.3,0,0,0,.606,0L25.146,0l.771.044a12.54,12.54,0,0,1,1.537.141,7.106,7.106,0,0,1,.781.181c.122.034.255.068.386.092a16.237,16.237,0,0,1,4.242,1.517l.184.091a21.086,21.086,0,0,1,6.5,5.232c.261.3.53.562.785.823a2.822,2.822,0,0,1,.461.6c.153.264.31.521.492.8.6.842,1.138,1.712,1.66,2.589a41.492,41.492,0,0,1,2.523,5.1c.219.521.434,1.035.656,1.558.1.229.2.463.274.7a5.238,5.238,0,0,1,.236.871,3.027,3.027,0,0,0,.12.513l.69,2.129c.078.235.16.471.223.711a2.8,2.8,0,0,1,.1.526,4.763,4.763,0,0,0,.161.872l.138.539a3.19,3.19,0,0,1,.092.527,5.941,5.941,0,0,0,.117.71l.105.539c.008.385.121.828.144,1.224.024.349.074.7.131,1.062a4.282,4.282,0,0,1,.052.528,6.688,6.688,0,0,0,.068.71c.026.184.055.366.072.548a1.734,1.734,0,0,1-.019.486c-.013.068-.012-.021-.025.364a.719.719,0,0,1-.144.408c-.228-.006-.388-.172-.58-.279-.059-.025-.136-.318-.24-.349a4.3,4.3,0,0,0-.418-.383.792.792,0,0,0-.206-.108.674.674,0,0,1-.21-.206,6.013,6.013,0,0,1-.414-.652c-.227-.4-.479-.595-.71-1a.92.92,0,0,0-.146-.188,1.237,1.237,0,0,0-.144-.123.836.836,0,0,1-.145-.114A1.354,1.354,0,0,1,45.2,28.8c-.1-.336-.147-.7-.271-1.016s-.264-.577-.386-.9c-.061-.157-.138-.29-.2-.444a1.316,1.316,0,0,0-.371-.531c-.077-.066-.15-.081-.227-.157a1.261,1.261,0,0,1-.29-.5l-.21-.661a4.045,4.045,0,0,0-.312-.779,1.025,1.025,0,0,1-.071-.145,10.328,10.328,0,0,1-.57-1.785,2.782,2.782,0,0,0-.074-.318L42,20.917a4.509,4.509,0,0,1-.183-.639,4.1,4.1,0,0,0-.131-.477,8.854,8.854,0,0,1-.3-.956,3.679,3.679,0,0,0-.163-.479l-.186-.477c-.071-.348-.243-.73-.344-1.087a7.9,7.9,0,0,0-.363-.927c-.07-.153-.129-.312-.187-.466s-.112-.3-.192-.456c-.237-.456-.46-.922-.741-1.353l-.533-.878a2.279,2.279,0,0,1-.153-.286,4.674,4.674,0,0,0-.316-.577c-.182-.29-.377-.567-.582-.837a1.726,1.726,0,0,1-.17-.278,3.031,3.031,0,0,0-.442-.687l-.76-.908c-.106-.126-.217-.251-.308-.379a4.628,4.628,0,0,0-.429-.5c-.25-.271-.532-.494-.8-.741s-.529-.5-.816-.71a3.08,3.08,0,0,1-.343-.327,5.617,5.617,0,0,0-.543-.547,2.767,2.767,0,0,0-.38-.293L32.065,5.3,31.468,5c-.146-.07-.3-.125-.448-.18s-.293-.1-.453-.151A12.361,12.361,0,0,0,28.855,4.1a3.744,3.744,0,0,1-.738-.283,2.083,2.083,0,0,0-.3-.083c-.407-.074-.814-.158-1.225-.2L25.34,3.5a1.133,1.133,0,0,0-.317.026,4.486,4.486,0,0,1-.8.108,13.6,13.6,0,0,0-6.363,2.024c-.323.215-.672.382-.98.626a8.91,8.91,0,0,1-1.1.686,6.487,6.487,0,0,0-1.062.73,2.133,2.133,0,0,1-.253.207l-.773.554a1.567,1.567,0,0,0-.253.215l-.818.907c-.08.087-.157.168-.236.245a4.909,4.909,0,0,0-.568.637,31.917,31.917,0,0,0-1.868,2.79,1.985,1.985,0,0,0-.212.462c-.137.408-.387.84-.505,1.243l-.24.471c-.255.339-.513.736-.765,1.052a1.253,1.253,0,0,1-.277.282,3.145,3.145,0,0,0-.74.674,3.04,3.04,0,0,0-.275.36c-.265.425-.551.8-.8,1.221a2.151,2.151,0,0,0-.248.657,6.421,6.421,0,0,0-.152,1.351v.535a2.891,2.891,0,0,1-.074.622c-.033.166-.043.323-.085.489s-.112.336-.164.506c-.149.29-.3.578-.451.87a3.8,3.8,0,0,0-.259.641l-.113.34a7.79,7.79,0,0,1-.553,1.178l-.233.331a2.993,2.993,0,0,0-.337.725,1.039,1.039,0,0,1-.276.488c-.1.078-.2.2-.3.283a.853.853,0,0,0-.217.327,1.944,1.944,0,0,1-.427.683.638.638,0,0,0-.074.085.688.688,0,0,0-.071.121,5.791,5.791,0,0,0-.425,1.328l-.07.363A4.87,4.87,0,0,0,1.5,32.017c0,.047,0,.088,0,.13L1.489,33l.568.237.248.1a6.149,6.149,0,0,0,1.57.527l.527.164a4.818,4.818,0,0,0,.524.143c.445.073.94.229,1.375.266a1.675,1.675,0,0,1,.346.072l1.062.293c.24.068.459.148.675.233a3.205,3.205,0,0,0,.335.112c.532.145,1.069.271,1.713.408.433.095.972.207,1.516.3a3.405,3.405,0,0,0,.535.06,7.587,7.587,0,0,1,.878.07l1.27.162a2.075,2.075,0,0,0,.672,0,8.275,8.275,0,0,1,1.1-.107,1.985,1.985,0,0,1,.348.006c1.869.2,3.745.3,5.621.368l1.089.031a1.7,1.7,0,0,1,.349.036,6.338,6.338,0,0,0,1.393.138l.728-.017a1.854,1.854,0,0,1,.5.052c.287.075.549.163.847.232a4.24,4.24,0,0,0,1.338.142c.12-.007.242,0,.363,0,.256,0,.433.059.429.153,0,.042-.046.087-.036.128.015.062.052.123.178.17a2.334,2.334,0,0,0,1.154.07.984.984,0,0,0,.3-.093c.15-.075.163-.105.053-.169-.028-.017-.065-.032-.089-.049-.112-.081-.061-.15.168-.24a.91.91,0,0,1,.631-.057,2.8,2.8,0,0,1,.365.116,2.415,2.415,0,0,0,.381.111,2.158,2.158,0,0,0,.66.049l1.1-.1a7.115,7.115,0,0,1,.893-.023,1.445,1.445,0,0,0,.355-.048,9.742,9.742,0,0,1,1.05-.246,5.23,5.23,0,0,0,.675-.181,1.558,1.558,0,0,1,.522-.089,4.9,4.9,0,0,0,.887-.084q2.1-.392,4.171-.946a4.974,4.974,0,0,0,.665-.257A3.46,3.46,0,0,1,44.361,35a3.531,3.531,0,0,0,.524-.1l1.076-.343a5.14,5.14,0,0,1,.706-.195,2.947,2.947,0,0,0,.532-.171c.3-.115.6-.251.907-.36a1.415,1.415,0,0,1,.172-.05l.04-.008a1.725,1.725,0,0,0,.263-.142A2.106,2.106,0,0,0,49,33.274c.2-.237.224-.27.184-.152a1.678,1.678,0,0,1-.553.645M15.56,4.361c.025.093.393.007.729-.173l.6-.371.347-.229c.191-.1.371-.292.35-.365a.485.485,0,0,0-.194-.255.5.5,0,0,0-.339-.006,2.018,2.018,0,0,0-.649.278c-.165.1-.335.2-.488.315a1,1,0,0,0-.24.221,1.485,1.485,0,0,0-.139.373c-.03.1.01.146.027.211M16.4,4.5a.283.283,0,0,0-.18.153c-.015.055.053.059.14.032a.708.708,0,0,0,.1-.055.45.45,0,0,0,.055-.087c.018-.06-.026-.074-.119-.044m-3.01,3.109a3.977,3.977,0,0,0-.437.537,6.787,6.787,0,0,1-.4.565c-.071.1-.134.219-.1.229s.143-.069.231-.152l.126-.107a5.706,5.706,0,0,0,.5-.452l.88-.872a3.517,3.517,0,0,1,.679-.494,1.724,1.724,0,0,0,.274-.2c.428-.4.929-.7,1.387-1.062a15.676,15.676,0,0,1,1.945-1.147c.1-.05.209-.088.311-.127l.465-.172a12.188,12.188,0,0,1,1.449-.43,4.049,4.049,0,0,0,.494-.1c.332-.072.658-.169.993-.229A5.348,5.348,0,0,1,23,3.345a3.073,3.073,0,0,0,.494-.053,1.344,1.344,0,0,0,.445-.1A3.192,3.192,0,0,1,25,2.83l.282-.071c.093-.022.18-.054.184-.1s-.1-.067-.225-.091-.221-.029-.324-.045a.9.9,0,0,0-.332.007,4.871,4.871,0,0,1-.857.1c-.175,0-.346.023-.511.018-.361-.016-.73-.031-1.136-.011-.181,0-.339.11-.313.175a.2.2,0,0,0,.112.095c.1.048.034.123-.137.162s-.339.08-.505.109-.335.028-.5.07a14.031,14.031,0,0,1-1.467.346,4.069,4.069,0,0,0-1.125.408l-.513.249-.737.459a3.762,3.762,0,0,0-.81.65,4.2,4.2,0,0,1-.97.725l-.138.088c-.093.064-.19.125-.28.2l-.687.578c-.213.21-.42.429-.625.649M10.886,9.051A.437.437,0,0,0,11,8.946c.258-.331.559-.631.831-.94.24-.286.471-.566.721-.827a1.326,1.326,0,0,0,.146-.237.825.825,0,0,0-.248.144l-.271.209a4.18,4.18,0,0,0-.626.626l-.462.565a1.592,1.592,0,0,0-.224.427c-.035.1-.032.158.017.138" transform="translate(0 0)" fill="#ad144f"/>
    <path id="Caminho_125" data-name="Caminho 125" d="M86.454,70.939s-7.529,3.916-22.587,3.916-22.586-3.916-22.586-3.916,4.37-30.116,22.586-30.116S86.454,70.939,86.454,70.939" transform="translate(-8.628 -8.532)" fill="#dc6c34"/>
    <path id="Caminho_126" data-name="Caminho 126" d="M84.3,71.167c0,.036.013.153.006.123l-.008-.013-.016-.03-.026-.069a1.358,1.358,0,0,1-.039-.162c-.146-.791-.322-1.6-.5-2.4a6.556,6.556,0,0,0-.248-.816,7.761,7.761,0,0,1-.339-1.165c-.157-.749-.372-1.479-.6-2.207a5.093,5.093,0,0,0-.249-.63c-.072-.151-.123-.32-.184-.483l-.236-.657a2.334,2.334,0,0,0-.137-.3,5.413,5.413,0,0,1-.44-1.108,3.919,3.919,0,0,1-.151-.645,2.815,2.815,0,0,0-.162-.644c-.134-.385-.291-.762-.444-1.138a1.781,1.781,0,0,0-.238-.422c-.028-.036-.058-.074-.086-.1a2.564,2.564,0,0,1-.585-.9,3.053,3.053,0,0,0-.319-.591,2.632,2.632,0,0,1-.168-.284c-.178-.358-.333-.731-.524-1.081a2.449,2.449,0,0,1-.182-.458,4.864,4.864,0,0,1-.169-.593,4.918,4.918,0,0,0-.24-.731,3.975,3.975,0,0,0-.286-.6,4.245,4.245,0,0,0-.486-.668,4.868,4.868,0,0,1-.616-.978,4.984,4.984,0,0,0-.4-.714,5.537,5.537,0,0,0-.4-.538.445.445,0,0,0-.112-.1c-.053-.028-.066.016-.044.109l.085.346c.006.032,0,.074-.015.069a.339.339,0,0,1-.11-.088c-.107-.121-.216-.243-.315-.371a22.068,22.068,0,0,0-2.159-2.447,2.268,2.268,0,0,0-.486-.394,2.315,2.315,0,0,1-.249-.178l-.539-.467-.566-.418a2.532,2.532,0,0,1-.331-.309,1.615,1.615,0,0,0-.348-.284l-.521-.334c-.48-.309-1-.517-1.5-.784l-.78-.3-.391-.149-.4-.1c-.2-.047-.388-.109-.582-.165a3.773,3.773,0,0,0-.742-.155,16.625,16.625,0,0,0-2.435-.211,3.953,3.953,0,0,1-.747-.025,2.742,2.742,0,0,0-.456-.006,12.282,12.282,0,0,0-4.534,1.344,6.358,6.358,0,0,0-1.673,1.08l-.367.294A13.693,13.693,0,0,0,54.2,47.256a2.129,2.129,0,0,0-.211.222,5.567,5.567,0,0,1-.5.6,26.419,26.419,0,0,0-2.95,3.725,23.725,23.725,0,0,0-1.289,2.169c-.1.2-.219.395-.327.592a18.71,18.71,0,0,0-.825,1.682,3.686,3.686,0,0,0-.167.467,3.791,3.791,0,0,1-.161.465c-.373.9-.739,1.8-1.112,2.7a2.5,2.5,0,0,1-.146.3,4.2,4.2,0,0,0-.289.6c-.3.814-.584,1.635-.845,2.466q-.527,1.659-.959,3.352a4.778,4.778,0,0,1-.216.642,3.568,3.568,0,0,0-.15.49c-.263,1.071-.5,2.157-.7,3.22a2.729,2.729,0,0,1-.11.471l-.015.038L41.965,69a2.769,2.769,0,0,0,.706.381c.6.255,1.235.486,1.875.709a6.648,6.648,0,0,1,.923.371,2.456,2.456,0,0,0,.472.175c.823.249,1.661.468,2.5.677a5.6,5.6,0,0,1,.645.2,3.012,3.012,0,0,0,.323.1c1.245.284,2.517.482,3.781.7l.174.025c2.438.321,4.9.5,7.371.587a6.357,6.357,0,0,0,1.026-.062,2.333,2.333,0,0,1,.687.011,5.655,5.655,0,0,0,.85.087l2.827-.039,2.644-.135c.876-.079,1.758-.123,2.632-.212.526-.051,1.048-.115,1.569-.193l.693-.1a4.529,4.529,0,0,1,.844-.044,2.73,2.73,0,0,0,.5-.01c.691-.108,1.386-.211,2.07-.363l.683-.147a2.474,2.474,0,0,1,.5-.057,3.274,3.274,0,0,0,.827-.106l.51-.115a3.974,3.974,0,0,1,.5-.076,5.223,5.223,0,0,0,.664-.119l.506-.112c.36-.026.77-.156,1.139-.207a8.5,8.5,0,0,0,.977-.232,4.268,4.268,0,0,1,.48-.121,3.9,3.9,0,0,0,.638-.176l.474-.172a1.612,1.612,0,0,1,.422-.084h.057a1.15,1.15,0,0,0-.2.175c-.124.15-.142.276-.13.287a2.076,2.076,0,0,0,.56.309.329.329,0,0,0,.119.022c.018,0,.044.009.052.027a.526.526,0,0,1-.038.085c-.1.172-.183.339-.262.5a.827.827,0,0,0-.058.227.634.634,0,0,1-.164.252,4.487,4.487,0,0,1-.587.54c-.371.3-.543.58-.948.864a1.121,1.121,0,0,0-.184.17,1.582,1.582,0,0,0-.115.161.849.849,0,0,1-.109.161,1.434,1.434,0,0,1-.539.308c-.355.125-.733.212-1.074.343s-.611.291-.956.418c-.169.059-.313.136-.48.2a1.53,1.53,0,0,0-.588.368c-.077.076-.1.149-.185.224a1.35,1.35,0,0,1-.562.265c-.241.062-.49.118-.737.166a6.116,6.116,0,0,0-.883.241,1.363,1.363,0,0,1-.166.055,8.792,8.792,0,0,1-2.021.3,3.384,3.384,0,0,0-.355.012L74.1,76.9a4.012,4.012,0,0,1-.723.03,5.088,5.088,0,0,0-.536.006,8.049,8.049,0,0,1-1.087.033c-.17-.014-.361.016-.546.018L70.651,77c-.381-.051-.833-.021-1.23-.049-.35-.021-.7-.028-1.074-.028-.183,0-.362-.008-.539-.018s-.343-.03-.533-.028l-1.665.025-1.111.009a2.664,2.664,0,0,1-.351-.028,5.464,5.464,0,0,0-.709-.055l-1.109-.039a1.949,1.949,0,0,1-.352-.039,4.887,4.887,0,0,0-.882-.093c-.43,0-.862-.036-1.292-.066a4.956,4.956,0,0,1-.533-.067,5.528,5.528,0,0,0-.717-.078c-.8-.03-1.6-.123-2.394-.207a3.545,3.545,0,0,1-.516-.1l-.822-.225a3.486,3.486,0,0,0-.52-.108c-.489-.055-.978-.11-1.465-.182-.179-.024-.361-.029-.536-.037s-.346,0-.536-.031c-.672-.089-1.34-.225-2.011-.333a3.912,3.912,0,0,1-.85-.25,2.682,2.682,0,0,0-.338-.107l-2.708-.63a3.194,3.194,0,0,0-.352-.064,4.993,4.993,0,0,1-.887-.182c-.732-.216-1.462-.448-2.188-.708a22.186,22.186,0,0,1-2.217-.914l-.9-.437.155-1.024c.161-1.06.356-2.037.573-3.044l.3-1.26a7.526,7.526,0,0,1,.458-1.347,8.241,8.241,0,0,0,.511-1.3,1.776,1.776,0,0,1,.127-.326l.437-.91a3.336,3.336,0,0,0,.136-.322l.414-1.214a2.437,2.437,0,0,1,.14-.328,5.482,5.482,0,0,0,.347-.821c.39-1.095.8-2.184,1.255-3.256a2.812,2.812,0,0,0,.161-.5c.1-.437.317-.909.422-1.335l.234-.5c.252-.364.519-.781.792-1.1a1.285,1.285,0,0,1,.291-.284,3.837,3.837,0,0,0,.8-.637,3.287,3.287,0,0,0,.313-.333c.3-.4.653-.724.973-1.093a2.6,2.6,0,0,0,.365-.594,7.933,7.933,0,0,0,.474-1.281l.162-.517a3,3,0,0,1,.278-.576c.088-.15.149-.3.247-.448s.237-.281.358-.421l.776-.64a5.345,5.345,0,0,0,.54-.46l.265-.253a4.663,4.663,0,0,1,1.1-.733l.377-.15a5.542,5.542,0,0,0,.7-.378.959.959,0,0,1,.517-.2c.124,0,.277-.023.4-.019a1.006,1.006,0,0,0,.365-.093,1.706,1.706,0,0,1,.753-.154.484.484,0,0,0,.105,0,.524.524,0,0,0,.128-.028,10.573,10.573,0,0,0,1.189-.468l.3-.15a7.825,7.825,0,0,0,.87-.437,1.762,1.762,0,0,1,.289-.148,13.466,13.466,0,0,0,1.376-.528,3.482,3.482,0,0,1,.483-.142,4.216,4.216,0,0,0,.485-.112,11.245,11.245,0,0,1,1.263-.322,1.536,1.536,0,0,1,.329-.05,10.154,10.154,0,0,1,1.04-.032,4.793,4.793,0,0,1,.668.091,2.544,2.544,0,0,0,.328.047,14.951,14.951,0,0,1,1.631.24c.413.055.9.231,1.4.349l.49.12a5,5,0,0,1,.8.224,9.3,9.3,0,0,1,1.112.486,2.137,2.137,0,0,0,.611.2,6.628,6.628,0,0,1,1.011.356,1.892,1.892,0,0,1,.306.151,20.762,20.762,0,0,1,4.1,3.705c.236.271.465.545.674.838a1.75,1.75,0,0,1,.185.292,10.029,10.029,0,0,0,.713,1.178l.409.586a1.416,1.416,0,0,1,.219.449c.08.281.135.545.223.828a6.228,6.228,0,0,0,.488,1.21c.058.1.106.208.159.312.11.222.131.4.044.437-.038.016-.1,0-.131.022a.244.244,0,0,0-.084.226,2.212,2.212,0,0,0,.377,1.031.923.923,0,0,0,.192.225c.119.107.152.108.174-.015l.016-.1c.032-.128.119-.113.278.062a.857.857,0,0,1,.265.552,2.389,2.389,0,0,1,.011.37,2.3,2.3,0,0,0,.022.378,2.466,2.466,0,0,0,.147.618l.39.98a6.519,6.519,0,0,1,.24.817,1.347,1.347,0,0,0,.123.318,7.711,7.711,0,0,1,.441.927,5.354,5.354,0,0,0,.3.6,1.464,1.464,0,0,1,.159.482,4.61,4.61,0,0,0,.2.827q.631,1.938,1.143,3.915a4.527,4.527,0,0,0,.235.637,2.691,2.691,0,0,1,.186.836,3.855,3.855,0,0,0,.057.5l.206,1.042a3.754,3.754,0,0,1,.073.677,3.3,3.3,0,0,0,.061.511,7.194,7.194,0,0,1,.123.857,1.015,1.015,0,0,1,0,.148l0,.034,0,.016a1.22,1.22,0,0,1-.021-.149,1.459,1.459,0,0,1,.051-.5c.089-.28.11-.31.028-.221a1.265,1.265,0,0,0-.215.766M42.6,67.172c-.081-.052-.313.237-.4.587-.039.174-.077.347-.146.654-.008.04-.04.214-.072.389-.038.2,0,.45.072.478a.516.516,0,0,0,.32.016c.07-.017.139-.106.209-.233a2.32,2.32,0,0,0,.224-.6c.04-.171.08-.345.106-.514a.906.906,0,0,0,0-.3,2.232,2.232,0,0,0-.154-.344c-.04-.085-.1-.1-.159-.134m-.7.445a.279.279,0,0,0,.017-.231c-.027-.051-.078-.008-.121.07a.762.762,0,0,0-.034.11.455.455,0,0,0,.025.1c.031.055.071.035.114-.05m.639-4.257a5.234,5.234,0,0,0,.139-.687c.026-.221.1-.456.148-.685.027-.123.04-.258.006-.255s-.105.123-.153.236c-.025.048-.05.1-.075.151a3.956,3.956,0,0,0-.278.636l-.374,1.221a4.728,4.728,0,0,1-.314.811,2,2,0,0,0-.124.328c-.157.588-.318,1.175-.46,1.768-.188.77-.355,1.545-.516,2.322-.024.116-.06.232-.093.343-.051.169-.107.333-.149.507l-.2.943-.11.509.528.306.617.358a3.681,3.681,0,0,0,.5.24c.342.156.688.289,1.036.425a7.3,7.3,0,0,1,.818.365,2.789,2.789,0,0,0,.513.193,1.28,1.28,0,0,0,.492.079,4.313,4.313,0,0,1,1.19.025,1.931,1.931,0,0,0,.306.01c.1,0,.2-.012.212-.051s-.089-.089-.206-.138l-.308-.138a.975.975,0,0,0-.327-.1,4.2,4.2,0,0,1-.867-.2,2.806,2.806,0,0,1-.494-.192c-.327-.187-.653-.373-1.023-.549-.163-.081-.35-.094-.365-.024a.218.218,0,0,0,.044.147c.062.1-.037.122-.209.051s-.339-.137-.5-.219-.3-.185-.459-.253a4.96,4.96,0,0,1-.772-.42l-.243-.162.057-.2c.067-.236.145-.45.224-.665a7.4,7.4,0,0,0,.335-1.17l.122-.562.186-.857a8.258,8.258,0,0,0,.149-1.04,3.687,3.687,0,0,1,.305-1.19c.022-.051.044-.1.066-.154.04-.107.086-.212.123-.324.18-.575.343-1.156.5-1.74m1.711-2.275a.428.428,0,0,0-.075.131c-.145.377-.282.758-.408,1.133-.1.343-.211.674-.293,1.01a1.256,1.256,0,0,0-.013.267A.746.746,0,0,0,43.6,63.4c.044-.1.087-.2.135-.293a4.267,4.267,0,0,0,.311-.782l.2-.661A1.673,1.673,0,0,0,44.3,61.2c0-.1-.021-.154-.062-.12" transform="translate(-8.216 -8.706)" fill="#dc6c34"/>
    <rect id="Retângulo_33" data-name="Retângulo 33" width="15.058" height="45.173" transform="translate(17.594 32.292)" fill="#ad144f"/>
    <path id="Caminho_127" data-name="Caminho 127" d="M35.434,84.431a1.588,1.588,0,0,1-.042-.332l-.071-2.364c-.008-.286-.031-.562-.064-.851A9.587,9.587,0,0,1,35.19,79.7c.006-.7-.022-1.436-.051-2.167-.009-.23-.031-.453-.061-.678-.025-.172-.032-.34-.041-.509-.011-.225-.024-.449-.036-.677a3.077,3.077,0,0,0-.04-.334,6.54,6.54,0,0,1-.076-1.166,2.851,2.851,0,0,1,.045-.583A2.52,2.52,0,0,0,34.975,73l-.028-1.164a2.262,2.262,0,0,0-.065-.49c-.012-.047-.025-.095-.039-.145a3.6,3.6,0,0,1-.176-1.105,4.889,4.889,0,0,0-.059-.666,3.125,3.125,0,0,1-.035-.331l-.032-1.154a2.178,2.178,0,0,1,.032-.45,3.523,3.523,0,0,1,.092-.524,4.537,4.537,0,0,0,.115-.664,3.716,3.716,0,0,0,.028-.623,6.1,6.1,0,0,0-.076-.825,4.049,4.049,0,0,1-.013-1.121,4.617,4.617,0,0,0,.056-.764l-.019-.661a.562.562,0,0,0-.029-.154c-.025-.062-.059-.051-.093.021l-.127.269c-.012.025-.037.047-.048.025a.455.455,0,0,1-.033-.146c-.013-.163-.027-.329-.031-.49l-.063-3.28a4.973,4.973,0,0,0-.052-.653,2.757,2.757,0,0,1-.035-.323L34.215,56.1a2.581,2.581,0,0,1,.04-.456,2.971,2.971,0,0,0,.04-.46v-.652c-.013-1.2-.027-2.4-.041-3.6l0-.653,0-.816c-.022-.876-.009-1.747-.006-2.621a4.593,4.593,0,0,1,.06-.789,2.914,2.914,0,0,0,.026-.481c.013-1.669.015-3.343,0-5.017l2.326,2.326-.087,0a13.621,13.621,0,0,0-2.192.077l-.51.013L32,43.015a2.56,2.56,0,0,0-.329.028,5.621,5.621,0,0,1-.83.063l-4.96.012c-.854,0-1.709-.018-2.563.009-.226.008-.457.006-.683,0-.343-.011-.686-.01-1.027-.006l2.566-2.566.018.853a3.747,3.747,0,0,0,.047.493,3.673,3.673,0,0,1,.05.491c.027.967.03,1.936,0,2.9a2.351,2.351,0,0,1-.036.324,3.891,3.891,0,0,0-.066.654l-.021,2.564-.013,3.419a3.957,3.957,0,0,1-.055.662,3.435,3.435,0,0,0-.033.5l-.038,3.246a2.945,2.945,0,0,1-.032.5,5.367,5.367,0,0,0-.072,1L23.9,60.214a5.536,5.536,0,0,1-.077.993,2.876,2.876,0,0,0-.032.5l-.03,2.564a4.9,4.9,0,0,1-.058.66,2.612,2.612,0,0,0-.028.33c-.021,1.252,0,2.508-.048,3.758v.171l.031,7.181a6.056,6.056,0,0,0,.081.99,2.217,2.217,0,0,1,0,.667,5.241,5.241,0,0,0-.074.823l0,2.736,0,4.139L21.6,83.667l.894.014q.694.015,1.378,0c.2-.006.407,0,.611.009a3.818,3.818,0,0,1,.747.092,2.271,2.271,0,0,0,.444.072c.618.031,1.237.062,1.849.071.2,0,.409.009.615.023a2.336,2.336,0,0,1,.46.063,3.915,3.915,0,0,0,.773.111l.472.031a3.334,3.334,0,0,1,.471.064,5.736,5.736,0,0,0,.638.083l.483.047c.365.085.756.1,1.129.167.331.058.653.093.984.121.162.013.333.036.5.063.223.036.442.062.666.078l.5.04a3.262,3.262,0,0,1,.483.089.693.693,0,0,1,.22.084c.163.152.306.3.451.453.058.061.07.118.019.173a1.3,1.3,0,0,0-.179.252A.228.228,0,0,0,36.2,86c0,.047-.055.088-.119.127a2.781,2.781,0,0,1-.513.23c-.334.123-.45.289-.82.42a.521.521,0,0,0-.158.09.492.492,0,0,0-.086.1c-.026.033-.033.07-.079.1a1.094,1.094,0,0,1-.513.14c-.358.029-.751.023-1.089.074s-.6.131-.944.178c-.169.024-.309.066-.476.093a1.094,1.094,0,0,0-.562.226c-.07.055-.08.117-.161.17a1.241,1.241,0,0,1-.561.157c-.25.022-.509.036-.766.044a5.089,5.089,0,0,0-.915.1,1.1,1.1,0,0,1-.171.03,10.72,10.72,0,0,1-2.114.024c-.12-.014-.247-.027-.373-.031L25,88.265a5.835,5.835,0,0,1-.748-.053c-.175-.024-.365-.041-.551-.048a8.311,8.311,0,0,1-1.111-.082,4.483,4.483,0,0,0-.555-.037l-.433-.021-2.416-.12.122-2.174.006-.117c.083-.343.089-.759.149-1.119a8.48,8.48,0,0,0,.1-.984c.007-.167.026-.332.045-.494s.047-.313.053-.489c.019-.511.038-1.02.036-1.535l.009-1.024a2.393,2.393,0,0,1,.034-.325,4.4,4.4,0,0,0,.066-.655l.021-1.024a1.753,1.753,0,0,1,.034-.326,4.186,4.186,0,0,0,.078-.818l.017-1.2a4.557,4.557,0,0,1,.042-.5,4.707,4.707,0,0,0,.044-.667c0-.741,0-1.482.028-2.221a3.22,3.22,0,0,1,.057-.483c.044-.263.087-.518.131-.778a2.918,2.918,0,0,0,.048-.49l0-1.367c0-.166-.022-.334-.04-.5a4.412,4.412,0,0,1-.047-.493L20.2,66.251a4.022,4.022,0,0,1,.081-.814,2.325,2.325,0,0,0,.035-.325c.03-.854.023-1.708-.013-2.56a2.641,2.641,0,0,0-.032-.327,5.049,5.049,0,0,1-.066-.827l-.024-7.01.009-1.2a7.424,7.424,0,0,1,.12-1.312,6.338,6.338,0,0,0,.156-1.285,1.894,1.894,0,0,1,.033-.324c.055-.306.11-.619.164-.925a2.236,2.236,0,0,0,.036-.324l.028-1.194a2,2,0,0,1,.028-.331,4.826,4.826,0,0,0,.064-.829V43.42a2.629,2.629,0,0,0-.05-.489c-.08-.407-.077-.889-.165-1.287v-.511c.031-.2.061-.388.09-.579l.16-1.018.75.11a5.639,5.639,0,0,1,.657.124,1.178,1.178,0,0,1,.358.131,3.064,3.064,0,0,0,.877.388,2.785,2.785,0,0,0,.418.112c.468.078.9.183,1.356.268a1.92,1.92,0,0,0,.661-.011,6.9,6.9,0,0,0,1.247-.332l.478-.183a2.605,2.605,0,0,1,.581-.13c.161-.022.3-.063.467-.078s.338,0,.508,0l.918.168a3.905,3.905,0,0,0,.653.066l.341.013a6.221,6.221,0,0,1,1.215.215l.361.138a2.687,2.687,0,0,0,.74.148.884.884,0,0,1,.508.151c.093.078.228.148.324.225a.771.771,0,0,0,.345.134,1.693,1.693,0,0,1,.708.267.537.537,0,0,0,.093.053.523.523,0,0,0,.123.044,6.068,6.068,0,0,0,1.121.152l-1.154-1.154,0,.161,0,.336a4.507,4.507,0,0,0,.079.974,1.718,1.718,0,0,1,.033.322,6.932,6.932,0,0,0,.119,1.466l.032.5a4.493,4.493,0,0,0,.036.494c.08.409.077.884.168,1.282a1.481,1.481,0,0,1,.032.327l0,1.014a4.211,4.211,0,0,1-.055.647,2.592,2.592,0,0,0-.029.32c-.006.506-.01,1.011-.017,1.614,0,.407,0,.914,0,1.42a3,3,0,0,0,.035.5,5.131,5.131,0,0,1,.078.826l.025,1.187a2.342,2.342,0,0,0,.09.638,8.131,8.131,0,0,1,.225,1.065,1.916,1.916,0,0,1,.033.333l.032,5.284-.01,1.016a1.52,1.52,0,0,1-.027.316,5.656,5.656,0,0,0-.106,1.256l.007.682a1.516,1.516,0,0,1-.053.445c-.071.233-.153.435-.22.678a3.91,3.91,0,0,0-.159,1.147c0,.108-.006.218-.01.327-.007.231-.069.358-.151.307-.037-.024-.075-.085-.112-.1-.056-.02-.111-.017-.157.07a1.859,1.859,0,0,0-.1.975,1.414,1.414,0,0,0,.064.308c.058.171.083.2.145.139a.494.494,0,0,1,.048-.051c.078-.053.134.028.2.278a.883.883,0,0,1,.01.585,1.207,1.207,0,0,1-.123.25,1.3,1.3,0,0,0-.119.265,1.793,1.793,0,0,0-.085.537l-.009.988a5.751,5.751,0,0,1-.054.762,1.427,1.427,0,0,0,0,.323c.045.34.078.677.09,1.02a6.534,6.534,0,0,0,.076.676,1.565,1.565,0,0,1,0,.478,4.085,4.085,0,0,0-.048.761l.062,3.863a6.792,6.792,0,0,0,.062.683,3.16,3.16,0,0,1,0,.8,3.146,3.146,0,0,0-.035.438v.993a4.322,4.322,0,0,1-.035.6,3.293,3.293,0,0,0-.018.464c0,.278.012.566-.006.815a.423.423,0,0,1-.046.2c-.027.023-.062-.047-.084-.128M22.52,53.22c-.092-.031-.248.288-.26.634,0,.169,0,.339,0,.638,0,.04.006.209.01.378,0,.2.093.421.167.433a.529.529,0,0,0,.316-.047c.064-.029.114-.126.157-.259A2.051,2.051,0,0,0,23,54.385c0-.168,0-.342-.008-.506a.8.8,0,0,0-.061-.282,2.194,2.194,0,0,0-.23-.289c-.059-.07-.123-.067-.185-.089m-.583.564a.252.252,0,0,0-.036-.218c-.039-.04-.078.01-.1.091a.72.72,0,0,0-.009.109.41.41,0,0,0,.045.088c.042.044.077.017.1-.07m-.46-4.047a3.908,3.908,0,0,0-.063-.657c-.042-.207-.043-.438-.064-.657-.011-.119-.04-.242-.07-.23s-.063.14-.076.255c-.006.054-.017.106-.026.156a3.417,3.417,0,0,0-.074.645l-.017,1.2a4.066,4.066,0,0,1-.089.811,1.739,1.739,0,0,0-.034.326l-.017,1.708-.011,2.222c0,.111-.015.223-.025.331-.017.164-.045.323-.054.49a14.5,14.5,0,0,1-.11,1.5,4.071,4.071,0,0,0-.028.5l-.025,1.024a5.593,5.593,0,0,1-.078.82,3.074,3.074,0,0,0-.025.5,1.126,1.126,0,0,0,.07.456,3.238,3.238,0,0,1,.306,1.065,1.723,1.723,0,0,0,.072.278c.027.092.063.175.106.178s.062-.1.078-.218.033-.206.051-.314a.845.845,0,0,0,.01-.32,4.5,4.5,0,0,1-.06-.83,2.484,2.484,0,0,1,.038-.5c.073-.345.146-.69.188-1.073.02-.169-.034-.339-.1-.329a.216.216,0,0,0-.123.087c-.072.086-.127.006-.12-.165s.012-.34.026-.5.059-.32.061-.483a7.561,7.561,0,0,1,.175-1.445,5.785,5.785,0,0,0,.114-1.139c0-.285.006-.515.006-.542,0-.484,0-.655,0-.826a6.123,6.123,0,0,0-.089-.986,3.478,3.478,0,0,1,.009-1.156c.009-.051.017-.105.026-.156.013-.107.031-.214.036-.324q.036-.851.011-1.706m.942-2.549a.359.359,0,0,0-.029.142c-.013.386-.024.771-.036,1.149.006.34.013.671.019,1a1.114,1.114,0,0,0,.062.248.691.691,0,0,0,.076-.25c.016-.1.031-.2.047-.306a3.894,3.894,0,0,0,.061-.8c-.006-.22-.012-.44-.018-.662a1.508,1.508,0,0,0-.086-.432c-.034-.093-.07-.133-.1-.089" transform="translate(-4.01 -8.263)" fill="#ad144f"/>
    <rect id="Retângulo_34" data-name="Retângulo 34" width="15.058" height="15.058" transform="translate(47.711 62.406)" fill="#dc6c34"/>
    <path id="Caminho_128" data-name="Caminho 128" d="M73.751,92.407a.527.527,0,0,1-.045-.178c-.032-.38-.063-.763-.1-1.142a2.538,2.538,0,0,0-.073-.426,2.48,2.48,0,0,1-.08-.581,10.105,10.105,0,0,0-.07-1.023,1.754,1.754,0,0,0-.071-.335,1.49,1.49,0,0,1-.044-.249c-.015-.108-.028-.21-.044-.324a.9.9,0,0,0-.044-.165,1.541,1.541,0,0,1-.089-.557.515.515,0,0,1,.045-.254.466.466,0,0,0,.044-.258l-.035-.541a.623.623,0,0,0-.07-.24l-.042-.074a1.015,1.015,0,0,1-.191-.539,1.124,1.124,0,0,0-.065-.313.642.642,0,0,1-.038-.155l-.035-.527a.425.425,0,0,1,.032-.2.74.74,0,0,1,.1-.227.991.991,0,0,0,.123-.291A.746.746,0,0,0,73,83.526a1.359,1.359,0,0,0-.079-.385.808.808,0,0,1-.01-.516.97.97,0,0,0,.063-.351c-.006-.1-.011-.2-.017-.305a.138.138,0,0,0-.031-.072c-.025-.029-.062-.023-.1.009l-.138.121c-.013.011-.039.02-.051.011a.123.123,0,0,1-.035-.067,1.59,1.59,0,0,1-.029-.225l-.04-1.5a1,1,0,0,0-.048-.3.523.523,0,0,1-.032-.146l-.013-.675a.587.587,0,0,1,.047-.215.706.706,0,0,0,.046-.217l0-.09,2.447,2.447-.24,0c-.627.014-1.254-.017-1.881.006-.113,0-.227,0-.341-.008-.142,0-.286-.013-.427-.008-.456.016-.912,0-1.368-.01a1.3,1.3,0,0,1-.414-.064.8.8,0,0,0-.252-.028c-.884-.019-1.767-.024-2.65,0a3.443,3.443,0,0,0-1.1.078l-.255.013-.939.042a.672.672,0,0,0-.165.029,1.453,1.453,0,0,1-.414.062c-.827.019-1.653.017-2.48.012-.428,0-.855-.017-1.282.011a2.9,2.9,0,0,1-.342,0,5.047,5.047,0,0,0-.513-.007l2.566-2.566.018.426a.974.974,0,0,0,.047.246.964.964,0,0,1,.05.246,12.342,12.342,0,0,1,0,1.451.633.633,0,0,1-.036.162,1.018,1.018,0,0,0-.066.327l-.021,1.282-.013,1.71a1.042,1.042,0,0,1-.055.331.884.884,0,0,0-.033.251l-.039,1.623a.736.736,0,0,1-.031.251,1.4,1.4,0,0,0-.073.5l-.014,1.025a1.43,1.43,0,0,1-.078.5.758.758,0,0,0-.031.251l-.03,1.282a1.3,1.3,0,0,1-.058.33.675.675,0,0,0-.028.165c-.021.626,0,1.254-.048,1.879v.085l.006.74-2.035-2.035,2.562,0a1.229,1.229,0,0,0,.43-.072.454.454,0,0,1,.3.007,1.3,1.3,0,0,0,.38.08l1.221.039c.763.027,1.521.049,2.3.114q.351.028.683.023a2.713,2.713,0,0,1,.306.015,1.509,1.509,0,0,1,.407.091.941.941,0,0,0,.248.066c.317.031.636.06.94.066.1,0,.2.006.311.017a.925.925,0,0,1,.252.053,1.53,1.53,0,0,0,.422.093l.243.02a1.3,1.3,0,0,1,.256.053,2.084,2.084,0,0,0,.344.066l.254.035c.214.072.41.08.619.134a3.636,3.636,0,0,0,.528.095,2.31,2.31,0,0,1,.268.051,2.589,2.589,0,0,0,.358.064l.26.029a1.3,1.3,0,0,1,.277.079.527.527,0,0,1,.149.081l.452.453a.287.287,0,0,1,.1.174,1.58,1.58,0,0,0,.035.25.56.56,0,0,0,.061.133.151.151,0,0,1,0,.124.592.592,0,0,1-.155.215c-.114.115-.1.269-.233.385a.147.147,0,0,0-.043.081.387.387,0,0,0,0,.091.24.24,0,0,1,0,.092c-.021.059-.084.1-.206.119a4.235,4.235,0,0,0-.53.049c-.149.039-.255.108-.412.146-.077.02-.131.055-.206.078a.254.254,0,0,0-.2.2c-.013.047.006.1-.014.15a.263.263,0,0,1-.224.134,3.732,3.732,0,0,1-.374.034,1.148,1.148,0,0,0-.426.086.284.284,0,0,1-.074.026,3.184,3.184,0,0,1-1.061.029,1.235,1.235,0,0,0-.2-.024h-.394a2,2,0,0,1-.4-.037,1.817,1.817,0,0,0-.3-.036,2.727,2.727,0,0,1-.591-.055,1.424,1.424,0,0,0-.294-.023l-.293-.013c-.223-.068-.456-.065-.678-.113a3.221,3.221,0,0,0-.577-.072,2.606,2.606,0,0,1-.289-.034,2.439,2.439,0,0,0-.286-.044c-.286-.009-.572-.02-.854-.01l-.566,0a.829.829,0,0,1-.185-.029,1.667,1.667,0,0,0-.373-.058l-.564-.01a.616.616,0,0,1-.184-.031,1.4,1.4,0,0,0-.457-.071l-.651-.01a1.418,1.418,0,0,1-.273-.04,1.535,1.535,0,0,0-.365-.041c-.4.006-.8,0-1.2-.023a.972.972,0,0,1-.262-.055l-.417-.131a1.119,1.119,0,0,0-.163-.041l-1.494-.233.186-1.074a.564.564,0,0,0,.008-.091l0-.684a1.255,1.255,0,0,0-.041-.248,1.2,1.2,0,0,1-.046-.247l-.013-.94a1.053,1.053,0,0,1,.081-.407.616.616,0,0,0,.035-.163,8.329,8.329,0,0,0-.013-1.28.684.684,0,0,0-.032-.163,1.306,1.306,0,0,1-.066-.414l-.025-3.5.01-.6a1.94,1.94,0,0,1,.12-.657,1.716,1.716,0,0,0,.156-.642.5.5,0,0,1,.033-.162c.055-.151.111-.311.164-.463a.588.588,0,0,0,.036-.162c.009-.2.019-.4.028-.6a.549.549,0,0,1,.028-.165,1.219,1.219,0,0,0,.065-.414V80.043a.667.667,0,0,0-.051-.244c-.079-.2-.076-.445-.165-.644V78.9c.036-.093.062-.191.09-.289l.317-1.082.592.173a1.66,1.66,0,0,1,.329.124.475.475,0,0,1,.179.131,1.408,1.408,0,0,0,.438.389.975.975,0,0,0,.209.111c.235.078.449.184.679.268a.489.489,0,0,0,.33-.01,2.288,2.288,0,0,0,.623-.332l.239-.184a.809.809,0,0,1,.29-.13c.081-.021.153-.063.234-.077a1.6,1.6,0,0,1,.254,0l.459.168a1.026,1.026,0,0,0,.327.066l.17.013a1.782,1.782,0,0,1,.608.216l.18.137a.816.816,0,0,0,.37.149.321.321,0,0,1,.254.15c.047.078.114.149.163.225a.316.316,0,0,0,.171.134.708.708,0,0,1,.355.267.267.267,0,0,0,.046.054.21.21,0,0,0,.062.043,1.45,1.45,0,0,0,.643.151c.056,0,.113,0,.171,0a1.209,1.209,0,0,0,.5-.079.52.52,0,0,1,.163-.034,1.8,1.8,0,0,0,.742-.118l.252-.03a1.119,1.119,0,0,0,.249-.036c.2-.08.445-.077.643-.167a.364.364,0,0,1,.163-.032l.513,0a1.127,1.127,0,0,1,.331.055.636.636,0,0,0,.164.03l.819.021.72,0a.779.779,0,0,0,.25-.033,1.257,1.257,0,0,1,.41-.079c.2-.008.4-.016.6-.022a.561.561,0,0,0,.312-.092,1.909,1.909,0,0,1,.452-.21l-.325-.326.02.054a.426.426,0,0,1,.033.161l.029,2.618-.011.5a.346.346,0,0,1-.03.157,1.355,1.355,0,0,0-.113.62l.007.336a.365.365,0,0,1-.059.217c-.076.112-.164.207-.233.321a.918.918,0,0,0-.172.545,1.293,1.293,0,0,1-.012.157c-.009.111-.074.165-.162.132-.04-.015-.081-.048-.119-.058a.192.192,0,0,0-.168.017.414.414,0,0,0-.112.449.408.408,0,0,0,.069.153c.06.088.088.106.154.085.018,0,.034-.014.052-.017.082-.015.144.032.212.161.078.144.077.209.012.282a.484.484,0,0,1-.131.1.491.491,0,0,0-.126.107.376.376,0,0,0-.092.24l-.007.465a1.131,1.131,0,0,1-.056.346.329.329,0,0,0,0,.153,2.685,2.685,0,0,1,.1.5,1.843,1.843,0,0,0,.083.341.34.34,0,0,1,.006.227.791.791,0,0,0-.047.346l.086,1.851a1.965,1.965,0,0,0,.07.35.714.714,0,0,1,.007.382.532.532,0,0,0-.033.193l.009.472a.836.836,0,0,1-.032.269.646.646,0,0,0-.014.21,2.48,2.48,0,0,1,0,.383c-.006.039-.023.072-.044.07s-.062-.055-.084-.105M60.838,84.944c-.092-.016-.248.143-.26.316-.006.083,0,.169,0,.319,0,.02.006.1.01.188a.243.243,0,0,0,.167.218,1.015,1.015,0,0,0,.316-.023.272.272,0,0,0,.157-.13.58.58,0,0,0,.094-.306,1.584,1.584,0,0,0-.009-.253.243.243,0,0,0-.06-.141,1.9,1.9,0,0,0-.23-.145.5.5,0,0,0-.185-.044m-.583.282a.08.08,0,0,0-.036-.109c-.039-.02-.078.006-.1.046a.16.16,0,0,0-.009.055.212.212,0,0,0,.045.044.069.069,0,0,0,.1-.035M59.8,83.2a1.03,1.03,0,0,0-.064-.328,1.868,1.868,0,0,1-.064-.328c-.01-.059-.039-.12-.07-.114s-.064.07-.076.127a.7.7,0,0,1-.026.078.918.918,0,0,0-.074.323l-.017.6a1.088,1.088,0,0,1-.089.4.468.468,0,0,0-.034.163l-.017.854-.011,1.111a1,1,0,0,1-.025.166,2.349,2.349,0,0,0-.054.244,3.712,3.712,0,0,1-.11.751,1.035,1.035,0,0,0-.028.252c-.009.173-.017.343-.025.512a1.464,1.464,0,0,1-.078.411.8.8,0,0,0-.026.251.318.318,0,0,0,.07.227,1.131,1.131,0,0,1,.306.533.554.554,0,0,0,.072.139c.027.047.063.087.106.089s.062-.051.078-.109.031-.107.051-.157a.217.217,0,0,0,.01-.16,1.143,1.143,0,0,1-.06-.415.642.642,0,0,1,.038-.248,3.09,3.09,0,0,0,.188-.536c.02-.085-.034-.169-.1-.165a.272.272,0,0,0-.123.043c-.073.044-.127,0-.12-.082s.012-.17.026-.252a1.426,1.426,0,0,0,.06-.24,2.04,2.04,0,0,1,.176-.722,1.541,1.541,0,0,0,.114-.57c0-.142.006-.257.006-.271,0-.243,0-.327,0-.413a1.61,1.61,0,0,0-.089-.493.889.889,0,0,1,.009-.578c.009-.026.018-.055.026-.078a1.051,1.051,0,0,0,.036-.163A6.024,6.024,0,0,0,59.8,83.2m.941-1.274a.12.12,0,0,0-.029.071c-.012.194-.023.386-.035.574.006.17.013.331.019.5a.362.362,0,0,0,.062.123.242.242,0,0,0,.077-.125c.015-.051.028-.1.047-.153a1.006,1.006,0,0,0,.061-.4c0-.111-.006-.222-.018-.331a.448.448,0,0,0-.086-.215c-.034-.047-.07-.066-.1-.045" transform="translate(-12.212 -16.204)" fill="#dc6c34"/>
    <path id="Caminho_129" data-name="Caminho 129" d="M41.56,43.73c0,2.509-5.963,4.543-13.319,4.543S14.922,46.239,14.922,43.73s5.963-4.543,13.319-4.543S41.56,41.221,41.56,43.73" transform="translate(-3.119 -8.19)" fill="#ad144f"/>
    <path id="Caminho_130" data-name="Caminho 130" d="M39.571,43.8c-.04,0-.059.011-.061.017a.022.022,0,0,0,.01.028c-.017,0-.028-.008-.032-.015.022,0-.067-.066-.1-.115-.012-.038-.1-.072-.179-.092a.845.845,0,0,1-.3-.172,2.422,2.422,0,0,0-.678-.412.6.6,0,0,0-.261-.059.692.692,0,0,1-.2-.051l-.26-.089a.351.351,0,0,0-.138-.012.906.906,0,0,1-.482-.112.761.761,0,0,1-.233-.161.56.56,0,0,0-.25-.15l-.5-.151a.387.387,0,0,0-.222.012.4.4,0,0,0-.066.028.608.608,0,0,1-.494.06.7.7,0,0,0-.3-.02.479.479,0,0,1-.15,0l-.526-.1a.51.51,0,0,1-.207-.09,1.33,1.33,0,0,1-.248-.162,1.443,1.443,0,0,0-.318-.2.849.849,0,0,0-.3-.094.987.987,0,0,0-.385.013.861.861,0,0,1-.533-.072,1.17,1.17,0,0,0-.369-.123c-.1-.014-.211-.016-.317-.02a.128.128,0,0,0-.072.023c-.028.023-.018.062.02.1l.141.157c.013.015.026.044.017.055a.107.107,0,0,1-.068.028,1.63,1.63,0,0,1-.233,0q-.783-.071-1.574-.1a1.018,1.018,0,0,0-.31.028.58.58,0,0,1-.152.024l-.711,0a.688.688,0,0,1-.227-.051.782.782,0,0,0-.228-.051c-.106-.006-.211-.009-.316,0-.581.025-1.164,0-1.74.06-.1.01-.211.006-.316.009a3.267,3.267,0,0,0-.394.017c-.415.058-.838.063-1.253.11a1.117,1.117,0,0,1-.384-.017.7.7,0,0,0-.233,0,18.26,18.26,0,0,0-2.367.414,2.685,2.685,0,0,0-.918.313l-.206.079c-.248.1-.515.175-.745.285a.464.464,0,0,0-.116.075.947.947,0,0,1-.3.176,7.95,7.95,0,0,0-1.475.8,1.224,1.224,0,0,1-.165.146.026.026,0,0,1,0,.023c-.006,0-.024.015.02-.017a.1.1,0,0,0,.03-.1.594.594,0,0,0,.036-.257.535.535,0,0,0-.011-.271c-.023-.049.016-.066.025-.107a.1.1,0,0,0,0-.095c-.024-.033.019-.022.012-.028.009,0-.021,0,.029.029.074.047.078.106.2.2a.2.2,0,0,1,.051.078.347.347,0,0,0,.11.161,7.292,7.292,0,0,0,.8.434,6.022,6.022,0,0,0,.626.262,6.925,6.925,0,0,0,.673.235.789.789,0,0,1,.253.135.572.572,0,0,0,.2.095c.458.127.911.266,1.39.369a.592.592,0,0,1,.213.077.99.99,0,0,0,.429.155l.92.165a1.208,1.208,0,0,1,.445.132.623.623,0,0,0,.225.06c.388.066.784.105,1.178.149a1.135,1.135,0,0,1,.3.084.6.6,0,0,0,.151.042l1.754.12h.08c1.122.02,2.245-.037,3.358-.116a1.415,1.415,0,0,0,.452-.122.5.5,0,0,1,.308-.026,1.116,1.116,0,0,0,.388.036c.418-.057.842-.1,1.255-.161.778-.122,1.547-.275,2.3-.44a4.3,4.3,0,0,0,.66-.19,1.987,1.987,0,0,1,.285-.091.918.918,0,0,1,.368-.032.437.437,0,0,0,.217-.009,5.049,5.049,0,0,0,.815-.306,2.551,2.551,0,0,1,.254-.119.445.445,0,0,1,.2-.04.558.558,0,0,0,.315-.077l.178-.089a.652.652,0,0,1,.182-.053.669.669,0,0,0,.221-.085l.165-.079c.132-.009.216-.1.345-.131a.565.565,0,0,0,.225-.128.645.645,0,0,1,.1-.056.3.3,0,0,0,.108-.07c.035-.025.013-.04.034-.056a.316.316,0,0,1,.111-.042.577.577,0,0,1,.121-.02l.64,0a.4.4,0,0,1,.236.07c.1.074.21.156.316.247a1.331,1.331,0,0,0,.168.114.459.459,0,0,1,.14.185,1.628,1.628,0,0,1,.084.524,3.056,3.056,0,0,1-.006.906.74.74,0,0,0-.017.186,1.217,1.217,0,0,0,.017.161.49.49,0,0,1-.171.51c-.171.185-.373.316-.522.46s-.255.324-.416.475c-.077.064-.133.142-.209.209a.687.687,0,0,0-.218.372,1.725,1.725,0,0,1-.034.218.5.5,0,0,1-.24.278,4.059,4.059,0,0,1-.373.181,1.668,1.668,0,0,0-.431.262.336.336,0,0,1-.077.056,2.661,2.661,0,0,1-1.024.329,1.044,1.044,0,0,0-.185.016l-.374.09a1.47,1.47,0,0,1-.371.046,1.778,1.778,0,0,0-.274.017,2.054,2.054,0,0,1-.547.047,1.113,1.113,0,0,0-.273.029c-.092.015-.183.027-.274.034a5.364,5.364,0,0,0-.619-.022,2.561,2.561,0,0,0-.533.009,1.975,1.975,0,0,1-.265,0,1.712,1.712,0,0,0-.264-.011q-.4.034-.8.092l-.533.059a.7.7,0,0,1-.172-.013,1.294,1.294,0,0,0-.346-.023c-.178.017-.355.02-.532.032a.494.494,0,0,1-.172-.02,1.188,1.188,0,0,0-.429-.041c-.206.016-.412.031-.617.029a1.223,1.223,0,0,1-.259-.029,1.253,1.253,0,0,0-.345-.025,8.866,8.866,0,0,1-1.141.009.885.885,0,0,1-.25-.052l-.4-.125a.959.959,0,0,0-.25-.047l-.7-.009a1.317,1.317,0,0,0-.255.036,1.208,1.208,0,0,1-.254.043l-.962-.034a1.136,1.136,0,0,1-.412-.1.724.724,0,0,0-.164-.046,9.036,9.036,0,0,0-1.307-.1.711.711,0,0,0-.17.011,1.372,1.372,0,0,1-.43.013,25.674,25.674,0,0,1-3.584-.639l-.607-.17a2.165,2.165,0,0,1-.63-.321,2.474,2.474,0,0,0-.595-.372.555.555,0,0,1-.149-.092c-.136-.11-.266-.214-.4-.33a.7.7,0,0,0-.144-.1l-.568-.29a.558.558,0,0,1-.146-.111,1.465,1.465,0,0,0-.361-.276,5.722,5.722,0,0,1-1.448-1.16,1.241,1.241,0,0,0-.229-.219c-.237-.144-.371-.482-.568-.721a1.513,1.513,0,0,1-.091-.387,4.83,4.83,0,0,1,.044-.5,2.027,2.027,0,0,1,.177-.439c.057-.093.1-.189.18-.214a3.093,3.093,0,0,0,.57-.332c.068-.044.155-.072.221-.123a2.2,2.2,0,0,1,.648-.329A.477.477,0,0,0,15.8,42.1a2.647,2.647,0,0,0,.314-.63c.032-.1.077-.187.115-.282a.842.842,0,0,1,.2-.261,2.513,2.513,0,0,1,.179-.188,1.106,1.106,0,0,1,.239-.119l.5-.044a1.505,1.505,0,0,0,.333-.07l.166-.049a1.724,1.724,0,0,1,.647-.012l.214.074a.8.8,0,0,0,.394.033.308.308,0,0,1,.28.071l.213.17a.335.335,0,0,0,.2.086.671.671,0,0,1,.4.174.287.287,0,0,0,.055.041.189.189,0,0,0,.068.027,1.411,1.411,0,0,0,.623,0c.051-.014.106-.02.158-.031a1.09,1.09,0,0,0,.443-.172.453.453,0,0,1,.145-.065,1.83,1.83,0,0,0,.677-.238l.234-.069a1.046,1.046,0,0,0,.23-.074c.182-.112.414-.131.592-.248a.357.357,0,0,1,.153-.051l.492-.063a1.035,1.035,0,0,1,.325.026.582.582,0,0,0,.161.016l.791-.048.7-.038a.726.726,0,0,0,.24-.047,1.193,1.193,0,0,1,.394-.1l.581-.032a.534.534,0,0,0,.3-.1,2.014,2.014,0,0,1,.5-.237.44.44,0,0,1,.161-.032q1.3,0,2.6.074l.5.057a.386.386,0,0,1,.158.044,1.6,1.6,0,0,0,.626.18l.332.036a.42.42,0,0,1,.221.089c.119.095.224.2.346.29a1.228,1.228,0,0,0,.563.278,1.377,1.377,0,0,1,.159.04c.111.03.175.111.155.2a1.2,1.2,0,0,0-.04.121.261.261,0,0,0,.042.188.56.56,0,0,0,.465.222.242.242,0,0,0,.141-.041c.078-.047.091-.074.061-.155l-.026-.063c-.027-.1.009-.155.125-.2a.2.2,0,0,1,.276.051.925.925,0,0,1,.121.173.872.872,0,0,0,.127.171.581.581,0,0,0,.246.177c.153.047.3.095.452.142a1.063,1.063,0,0,1,.343.175.264.264,0,0,0,.143.047,1.88,1.88,0,0,1,.458.046,1.409,1.409,0,0,0,.3.017.275.275,0,0,1,.2.081.878.878,0,0,0,.318.2c.271.1.519.23.781.342a7.9,7.9,0,0,1,.682.4.679.679,0,0,0,.242.085.265.265,0,0,1,.212.2.358.358,0,0,0,.076.147c.1.078.093.151.154.217a.09.09,0,0,1,.006.133c-.021.031-.017.049-.006.065.029.031-.013.032-.022.042a.2.2,0,0,1-.059.006l-.119,0m-19.862,2.6c-.04.085.063.275.221.327.076.026.157.042.3.078l.177.035a.231.231,0,0,0,.24-.112,1.1,1.1,0,0,0,.051-.313.273.273,0,0,0-.08-.183.514.514,0,0,0-.252-.162,1.439,1.439,0,0,0-.23-.05.228.228,0,0,0-.142.027,1.944,1.944,0,0,0-.191.187.513.513,0,0,0-.091.167m.1.631a.076.076,0,0,0-.112.009c-.03.032-.016.075.016.108a.171.171,0,0,0,.05.023.233.233,0,0,0,.053-.033.068.068,0,0,0-.007-.106m-2.032-.187a1.445,1.445,0,0,0-.327-.07,1.7,1.7,0,0,1-.327-.079c-.06-.015-.129-.015-.137.016s.038.087.085.123a.38.38,0,0,1,.062.056.972.972,0,0,0,.274.206c.184.092.376.16.564.239a1.148,1.148,0,0,1,.359.229.411.411,0,0,0,.149.084l.829.276,1.093.291a.936.936,0,0,1,.159.059c.078.033.151.077.232.1a4.073,4.073,0,0,1,.729.261,1.052,1.052,0,0,0,.248.069l.509.11a1.5,1.5,0,0,1,.4.144.811.811,0,0,0,.251.058.333.333,0,0,0,.239-.041,1.146,1.146,0,0,1,.573-.237.559.559,0,0,0,.146-.053c.048-.022.094-.053.1-.1s-.044-.067-.1-.092a1.427,1.427,0,0,1-.149-.07.213.213,0,0,0-.157-.03,1.169,1.169,0,0,1-.42.008.629.629,0,0,1-.24-.068,4.246,4.246,0,0,0-.5-.267c-.08-.032-.172.006-.178.078a.259.259,0,0,0,.024.127c.031.079-.017.127-.1.106a2.5,2.5,0,0,1-.246-.067,1.5,1.5,0,0,0-.228-.1,1.861,1.861,0,0,1-.676-.313,1.57,1.57,0,0,0-.531-.227l-.259-.074-.4-.1a2,2,0,0,0-.5-.043.884.884,0,0,1-.55-.18l-.066-.047a1.066,1.066,0,0,0-.143-.082,6.682,6.682,0,0,0-.793-.307m-.7-1.368a.1.1,0,0,0,.041.057,3.716,3.716,0,0,0,.452.264l.429.175c.04.012.087-.011.131-.017a.221.221,0,0,0-.08-.111c-.036-.033-.074-.066-.108-.1a.841.841,0,0,0-.3-.206l-.277-.109a.362.362,0,0,0-.2-.017c-.052.01-.085.033-.081.066" transform="translate(-2.87 -8.263)" fill="#ad144f"/>
    <path id="Caminho_131" data-name="Caminho 131" d="M79.635,81.611c0,2.509-5.963,4.543-13.319,4.543S53,84.12,53,81.611s5.963-4.543,13.319-4.543S79.635,79.1,79.635,81.611" transform="translate(-11.077 -16.107)" fill="#dc6c34"/>
    <path id="Caminho_132" data-name="Caminho 132" d="M77.646,81.686c-.04,0-.059.011-.061.017a.022.022,0,0,0,.01.028c-.017,0-.028-.008-.032-.015.023,0-.067-.066-.1-.115-.012-.038-.1-.072-.179-.092a.845.845,0,0,1-.3-.172,2.429,2.429,0,0,0-.678-.412.6.6,0,0,0-.26-.059.691.691,0,0,1-.2-.051l-.26-.089a.349.349,0,0,0-.138-.012.907.907,0,0,1-.482-.112.77.77,0,0,1-.233-.161.56.56,0,0,0-.25-.15l-.5-.151a.386.386,0,0,0-.222.012.4.4,0,0,0-.066.028.607.607,0,0,1-.494.06.69.69,0,0,0-.3-.019.5.5,0,0,1-.149,0l-.527-.1a.51.51,0,0,1-.207-.09,1.356,1.356,0,0,1-.248-.162,1.443,1.443,0,0,0-.318-.2.844.844,0,0,0-.3-.094.983.983,0,0,0-.384.013.863.863,0,0,1-.534-.072,1.171,1.171,0,0,0-.369-.123c-.1-.014-.211-.016-.317-.02a.128.128,0,0,0-.072.023c-.028.023-.018.062.02.1l.141.157c.013.015.026.044.017.055a.107.107,0,0,1-.068.028,1.631,1.631,0,0,1-.233,0q-.783-.071-1.574-.1a1.01,1.01,0,0,0-.309.028.59.59,0,0,1-.152.024l-.712,0a.693.693,0,0,1-.227-.051.782.782,0,0,0-.228-.051c-.106-.006-.211-.009-.316,0-.581.025-1.164,0-1.74.06-.1.01-.21.006-.316.009a3.248,3.248,0,0,0-.393.017c-.416.058-.838.063-1.254.11a1.116,1.116,0,0,1-.384-.017.7.7,0,0,0-.233,0,18.283,18.283,0,0,0-2.367.414,2.684,2.684,0,0,0-.918.313l-.206.079c-.248.1-.515.175-.745.285a.465.465,0,0,0-.116.075.939.939,0,0,1-.3.176,7.951,7.951,0,0,0-1.475.8,1.224,1.224,0,0,1-.165.146.026.026,0,0,1,0,.023c-.006,0-.024.015.02-.017a.1.1,0,0,0,.031-.1.606.606,0,0,0,.035-.257.518.518,0,0,0-.011-.271c-.023-.049.016-.066.025-.107a.1.1,0,0,0,0-.095c-.024-.033.019-.022.013-.028.009,0-.021,0,.028.029.074.047.078.106.2.2a.187.187,0,0,1,.051.078.349.349,0,0,0,.11.16,7.292,7.292,0,0,0,.8.434,6.1,6.1,0,0,0,.626.262,6.866,6.866,0,0,0,.674.235.806.806,0,0,1,.253.135.568.568,0,0,0,.2.095c.459.127.911.266,1.39.369a.587.587,0,0,1,.213.077.989.989,0,0,0,.429.155l.921.165a1.208,1.208,0,0,1,.444.132.623.623,0,0,0,.225.06c.388.066.783.105,1.178.15a1.137,1.137,0,0,1,.3.084.593.593,0,0,0,.152.042l1.754.12h.08c1.122.02,2.245-.037,3.358-.116a1.415,1.415,0,0,0,.452-.122.5.5,0,0,1,.308-.026,1.116,1.116,0,0,0,.388.036c.418-.057.842-.1,1.256-.161.778-.122,1.546-.275,2.3-.44a4.312,4.312,0,0,0,.659-.19,1.99,1.99,0,0,1,.285-.091.921.921,0,0,1,.369-.032.435.435,0,0,0,.216-.009,5.05,5.05,0,0,0,.815-.306,2.551,2.551,0,0,1,.254-.119.445.445,0,0,1,.2-.04.558.558,0,0,0,.315-.077l.178-.089a.629.629,0,0,1,.182-.054.679.679,0,0,0,.222-.085l.165-.079c.132-.009.216-.1.346-.131a.561.561,0,0,0,.225-.128.645.645,0,0,1,.1-.056.3.3,0,0,0,.108-.07c.035-.025.013-.04.034-.056a.316.316,0,0,1,.111-.042.586.586,0,0,1,.121-.02l.641,0a.4.4,0,0,1,.235.07c.1.074.21.156.316.247a1.456,1.456,0,0,0,.168.114.459.459,0,0,1,.14.185,1.628,1.628,0,0,1,.084.524,3.029,3.029,0,0,1-.006.906.74.74,0,0,0-.017.186,1.217,1.217,0,0,0,.017.161.589.589,0,0,1,.016.146.628.628,0,0,1-.187.364c-.17.185-.373.316-.522.46s-.255.324-.416.475c-.077.064-.133.142-.209.209a.687.687,0,0,0-.218.372,1.881,1.881,0,0,1-.033.218.5.5,0,0,1-.241.278,3.961,3.961,0,0,1-.373.181,1.668,1.668,0,0,0-.431.262.336.336,0,0,1-.077.056,2.662,2.662,0,0,1-1.024.329,1.048,1.048,0,0,0-.186.016l-.374.09a1.466,1.466,0,0,1-.371.046A1.778,1.778,0,0,0,75,87.6a2.052,2.052,0,0,1-.547.047,1.112,1.112,0,0,0-.273.029c-.092.015-.183.027-.274.034a5.381,5.381,0,0,0-.619-.022,2.562,2.562,0,0,0-.533.009,1.971,1.971,0,0,1-.265,0,1.708,1.708,0,0,0-.263-.011c-.269.024-.536.054-.8.092l-.533.059a.7.7,0,0,1-.172-.013,1.294,1.294,0,0,0-.346-.023c-.178.017-.355.02-.532.032a.5.5,0,0,1-.172-.02,1.188,1.188,0,0,0-.429-.041c-.206.016-.412.031-.617.029a1.21,1.21,0,0,1-.258-.029,1.257,1.257,0,0,0-.345-.025,8.883,8.883,0,0,1-1.142.009.885.885,0,0,1-.25-.052l-.4-.125a.958.958,0,0,0-.25-.047l-.7-.009a1.317,1.317,0,0,0-.255.036,1.208,1.208,0,0,1-.254.043l-.962-.034a1.141,1.141,0,0,1-.412-.1.73.73,0,0,0-.163-.046,9.057,9.057,0,0,0-1.308-.1.711.711,0,0,0-.17.011,1.372,1.372,0,0,1-.43.013,25.7,25.7,0,0,1-3.584-.639l-.607-.17a2.165,2.165,0,0,1-.63-.321,2.458,2.458,0,0,0-.595-.372.555.555,0,0,1-.149-.092c-.136-.11-.266-.214-.4-.33a.7.7,0,0,0-.144-.1l-.568-.29a.542.542,0,0,1-.146-.111,1.465,1.465,0,0,0-.361-.276,5.735,5.735,0,0,1-1.448-1.16,1.241,1.241,0,0,0-.229-.219c-.237-.144-.371-.482-.568-.721a1.513,1.513,0,0,1-.091-.387,4.831,4.831,0,0,1,.044-.5,2.027,2.027,0,0,1,.177-.439c.058-.093.1-.189.18-.214a3.067,3.067,0,0,0,.57-.332c.068-.044.155-.072.221-.123a2.2,2.2,0,0,1,.648-.329.477.477,0,0,0,.227-.223,2.647,2.647,0,0,0,.314-.63c.032-.1.077-.187.115-.282a.842.842,0,0,1,.2-.261c.063-.06.11-.134.179-.188a1.106,1.106,0,0,1,.239-.119l.5-.043a1.554,1.554,0,0,0,.333-.07l.166-.049a1.724,1.724,0,0,1,.647-.012l.214.075a.805.805,0,0,0,.394.032.308.308,0,0,1,.28.071l.213.17a.335.335,0,0,0,.2.086.671.671,0,0,1,.4.174.288.288,0,0,0,.055.041.189.189,0,0,0,.068.027,1.412,1.412,0,0,0,.623,0c.051-.014.106-.02.158-.031a1.085,1.085,0,0,0,.443-.172.453.453,0,0,1,.145-.065,1.839,1.839,0,0,0,.678-.238l.233-.069a1.046,1.046,0,0,0,.23-.074c.182-.112.414-.131.592-.248a.357.357,0,0,1,.153-.051L62.135,78a1.035,1.035,0,0,1,.325.026.583.583,0,0,0,.161.016L63.413,78l.694-.038a.726.726,0,0,0,.24-.047,1.2,1.2,0,0,1,.394-.1l.581-.032a.533.533,0,0,0,.3-.1,2.014,2.014,0,0,1,.5-.236.44.44,0,0,1,.161-.032q1.3,0,2.6.074l.5.057a.386.386,0,0,1,.158.044,1.6,1.6,0,0,0,.626.18l.332.036a.42.42,0,0,1,.221.089c.119.095.224.2.346.291a1.238,1.238,0,0,0,.564.278,1.408,1.408,0,0,1,.158.04c.111.03.175.111.155.2a1.208,1.208,0,0,0-.04.121.261.261,0,0,0,.042.188.561.561,0,0,0,.465.222.242.242,0,0,0,.141-.041c.078-.047.092-.074.061-.155l-.026-.063c-.027-.1.009-.155.125-.2a.2.2,0,0,1,.276.051.926.926,0,0,1,.121.173.905.905,0,0,0,.127.171.581.581,0,0,0,.246.177c.153.047.3.095.452.142a1.067,1.067,0,0,1,.343.175.26.26,0,0,0,.143.047,1.878,1.878,0,0,1,.457.046,1.409,1.409,0,0,0,.3.017.275.275,0,0,1,.2.081.878.878,0,0,0,.318.2c.271.1.519.23.781.342a7.908,7.908,0,0,1,.682.4.678.678,0,0,0,.243.085.265.265,0,0,1,.211.2.35.35,0,0,0,.077.147c.1.078.093.151.153.217a.09.09,0,0,1,.006.133c-.021.031-.017.049-.006.065.029.032-.013.032-.021.042a.211.211,0,0,1-.059.006l-.119,0m-19.862,2.6c-.04.085.063.276.222.327.075.026.157.042.3.078l.177.035a.23.23,0,0,0,.24-.112,1.1,1.1,0,0,0,.051-.313.273.273,0,0,0-.08-.183.514.514,0,0,0-.252-.162,1.438,1.438,0,0,0-.23-.05.228.228,0,0,0-.142.027,1.944,1.944,0,0,0-.191.187.521.521,0,0,0-.091.167m.1.632a.075.075,0,0,0-.112.008c-.03.032-.016.075.016.108a.171.171,0,0,0,.05.023.258.258,0,0,0,.054-.033.068.068,0,0,0-.008-.105m-2.032-.188a1.445,1.445,0,0,0-.327-.07,1.718,1.718,0,0,1-.327-.079c-.059-.015-.129-.015-.136.016s.037.087.085.123a.42.42,0,0,1,.062.056.983.983,0,0,0,.274.206c.184.092.376.16.564.239a1.148,1.148,0,0,1,.359.229.411.411,0,0,0,.149.084l.829.276,1.093.291a.936.936,0,0,1,.159.059c.078.033.151.077.232.1a4.073,4.073,0,0,1,.729.261,1.051,1.051,0,0,0,.248.069l.509.11a1.5,1.5,0,0,1,.4.144.811.811,0,0,0,.251.058.333.333,0,0,0,.239-.041,1.153,1.153,0,0,1,.573-.237.559.559,0,0,0,.146-.053c.049-.022.094-.053.1-.1s-.044-.067-.1-.092a1.424,1.424,0,0,1-.149-.07.213.213,0,0,0-.157-.03,1.169,1.169,0,0,1-.42.008.633.633,0,0,1-.24-.068,4.3,4.3,0,0,0-.5-.267.124.124,0,0,0-.179.078.259.259,0,0,0,.024.127c.031.079-.017.127-.1.106A2.5,2.5,0,0,1,60,86.206a1.5,1.5,0,0,0-.228-.1,1.868,1.868,0,0,1-.676-.313,1.57,1.57,0,0,0-.531-.227l-.259-.074-.4-.1a2,2,0,0,0-.5-.043.881.881,0,0,1-.549-.18l-.066-.047a1.109,1.109,0,0,0-.142-.082,6.75,6.75,0,0,0-.794-.307m-.7-1.368a.1.1,0,0,0,.041.057,3.777,3.777,0,0,0,.452.264l.429.175c.04.012.087-.011.131-.017a.221.221,0,0,0-.08-.111c-.036-.033-.074-.066-.108-.1a.828.828,0,0,0-.3-.206l-.277-.109a.355.355,0,0,0-.2-.016c-.052.009-.085.032-.081.065" transform="translate(-10.828 -16.18)" fill="#dc6c34"/>
  </g>
</svg>
