<svg xmlns="http://www.w3.org/2000/svg" xmlns:xlink="http://www.w3.org/1999/xlink" width="81.783" height="63.061" viewBox="0 0 81.783 63.061">
  <defs>
    <clipPath id="clip-path">
      <rect id="Retângulo_29" data-name="Retângulo 29" width="81.783" height="63.061" transform="translate(0 0)" fill="none"/>
    </clipPath>
  </defs>
  <g id="Grupo_33" data-name="Grupo 33" transform="translate(0 0)">
    <g id="Grupo_32" data-name="Grupo 32" clip-path="url(#clip-path)">
      <path id="Caminho_115" data-name="Caminho 115" d="M2.228,22.079s0-19.036,19.037-19.036S40.3,22.079,40.3,22.079s0-19.036,19.036-19.036S78.374,22.079,78.374,22.079c.035,2.486.265,18.893-38.073,38.073,0,0-38.073-19.036-38.073-38.073" fill="#ad144f"/>
      <path id="Caminho_116" data-name="Caminho 116" d="M.038,21.887a2.627,2.627,0,0,1-.03-.678A26.436,26.436,0,0,1,.8,16.218c.148-.586.283-1.124.429-1.7A12.219,12.219,0,0,1,2.1,12.141,24.881,24.881,0,0,1,4.6,7.993l.88-1.168a6.843,6.843,0,0,1,.747-.836c.347-.374.735-.71,1.115-1.048l.532-.488a10.045,10.045,0,0,1,2.16-1.509,10.158,10.158,0,0,1,1.336-.573A11.694,11.694,0,0,0,12.73,1.9a24.765,24.765,0,0,1,2.518-.756c.36-.093.7-.2.984-.3l.26-.1A6.292,6.292,0,0,1,18.714.223L20.138.07c.221-.027.464-.053.7-.062.858-.026,1.714.019,2.575.062a8.733,8.733,0,0,1,1.059.161,7.887,7.887,0,0,1,1.282.33c.448.17,1.062.3,1.586.5.431.161.918.265,1.4.439.614.2,1.179.339,1.75.54A8.422,8.422,0,0,1,32.83,3.209c.488.356.982.7,1.5,1.1.423.29.817.618,1.21.946a1.777,1.777,0,0,0,.28.188c.116.058.1-.018-.023-.187l-.47-.635c-.043-.06-.081-.136-.043-.124a1.27,1.27,0,0,1,.274.174,9.251,9.251,0,0,1,.89.746,20.465,20.465,0,0,1,4.5,6.28l.643,1.335a5.857,5.857,0,0,1,.293.663,26.2,26.2,0,0,1,.966,3.23,8.517,8.517,0,0,1,.158,1.059c.032.344.07.693.122,1.067.072.49.12.986.173,1.484s.083.915.093,1.55H37.208c.011-.735.056-1.227.116-1.817.058-.566.142-1.121.232-1.677A30.768,30.768,0,0,1,38.3,15.3c.142-.474.295-.949.474-1.417.21-.588.464-1.167.707-1.745a20.507,20.507,0,0,1,3.268-5.207A9.6,9.6,0,0,1,44.118,5.6L45,4.857A20.892,20.892,0,0,1,55.866.314c1.59-.187,3.192-.2,4.713-.271.366,0,.731,0,1.1.044A24.282,24.282,0,0,1,65.773.7c.242.057.5.106.724.143a13.619,13.619,0,0,1,1.813.531,18.836,18.836,0,0,1,8.924,6.965,24.7,24.7,0,0,1,2.679,5.1,14.984,14.984,0,0,1,.488,1.426,35.4,35.4,0,0,1,.942,4c.066.373.132.721.207,1.062A9.754,9.754,0,0,1,81.716,21a16.023,16.023,0,0,1-.055,3.439,13.784,13.784,0,0,1-.281,1.67,14.144,14.144,0,0,1-.416,1.6c-.077.237-.169.472-.258.683-.186.432-.346.883-.555,1.345a31.075,31.075,0,0,1-2.48,4.94,33.026,33.026,0,0,1-2.019,2.975,34.943,34.943,0,0,1-2.219,2.765,13.559,13.559,0,0,1-.955.971c-.243.222-.479.48-.715.739-.752.814-1.574,1.538-2.359,2.309l-1.191,1.138-1.251,1.05a9.658,9.658,0,0,1-.793.622,17.115,17.115,0,0,0-1.585,1.222c-1.067.859-2.184,1.637-3.274,2.457a16.792,16.792,0,0,1-1.644,1.106,9.351,9.351,0,0,0-.85.515l-4.253,2.771a10.624,10.624,0,0,1-1.154.608c-.187.089-.388.191-.577.3-2.147,1.208-4.228,2.567-6.447,3.614l-.3.158-4.633,2.463-1.13.6-1.179-.6c-2.7-1.378-5.237-2.808-7.786-4.327-.586-.355-1.149-.648-1.717-.927a6.761,6.761,0,0,1-1.113-.693c-.414-.323-.828-.64-1.314-.95q-2.262-1.459-4.469-3.013a98.863,98.863,0,0,1-8.029-6.215l-2.31-2.016c-.336-.3-.672-.621-1-.939a9.526,9.526,0,0,1-1.107-1.219,7.753,7.753,0,0,0-.621-.742c-.937-1-1.862-2.022-2.76-3.087-.3-.354-.611-.695-.881-1.076a7.708,7.708,0,0,1-.56-.835c-.25-.44-.556-.91-.88-1.415l-.581-.88a5.5,5.5,0,0,1-.479-.9c-.179-.4-.4-.805-.623-1.218-.161-.313-.3-.641-.444-.961-.114-.348-.27-.716-.426-1.091-.131-.387-.266-.778-.369-1.144-.2-.638-.365-1.31-.538-2.01A5.733,5.733,0,0,1,.95,25.8C.913,25.343.861,24.89.788,24.41a6.3,6.3,0,0,1-.075-1.078A4.993,4.993,0,0,1,.782,22.4c.028-.156.075-.307.123-.311a5.935,5.935,0,0,1,.811,0c.108.006.217.1.33.3a7.753,7.753,0,0,0,.49.789.992.992,0,0,0,.248.231,1.363,1.363,0,0,1,.243.4A12.3,12.3,0,0,1,3.605,25c.305.7.737,1.029,1.1,1.708a1.2,1.2,0,0,0,.24.3,2.509,2.509,0,0,0,.231.189,1.435,1.435,0,0,1,.227.174,2.7,2.7,0,0,1,.507.824c.269.529.519,1.095.816,1.595.328.476.671.858,1,1.339a8.393,8.393,0,0,0,.537.646,2.853,2.853,0,0,0,.821.723c.14.082.235.084.391.175a2.9,2.9,0,0,1,.731.67c.256.31.489.64.758.95a9.923,9.923,0,0,0,1.014,1.081l.208.193c.783.812,1.577,1.613,2.27,2.48.114.149.24.305.376.454.283.3.588.592.885.887s.566.594.827.888c.189.213.4.437.626.65.453.437.919.866,1.314,1.3.193.215.446.426.679.637s.467.426.708.631c.439.481,1.035.983,1.528,1.456.438.419.9.818,1.4,1.225.249.195.485.4.718.6s.444.4.706.6c.77.584,1.544,1.164,2.349,1.714l1.6,1.1c.172.117.339.25.49.375a11.552,11.552,0,0,0,.995.754l1.628,1.07a4.9,4.9,0,0,1,.5.364,10.563,10.563,0,0,0,1.275.9l1.944,1.187c.271.168.541.348.789.522a12,12,0,0,0,1.075.68L40.559,58.1c.212.117.416.241.59.356h-1.7l.2-.079,1.389-.545a8.731,8.731,0,0,0,.857-.383l2.311-1.225c.281-.151.551-.323.815-.487s.508-.334.806-.492c1.048-.578,2.061-1.214,3.091-1.821a11.717,11.717,0,0,1,1.391-.7c.175-.076.372-.174.557-.277a41.976,41.976,0,0,0,4.1-2.646c.173-.122.348-.254.5-.378a14.391,14.391,0,0,1,1.264-.936,79.91,79.91,0,0,0,10.179-8.432,21.452,21.452,0,0,0,1.57-1.594,20.094,20.094,0,0,1,1.742-1.729,12.343,12.343,0,0,0,1.622-1.769,5.366,5.366,0,0,1,.4-.456,15.641,15.641,0,0,0,1.134-1.313c.12-.149.248-.316.362-.486.2-.311.417-.617.61-.934l.525-.978a5.451,5.451,0,0,1,.315-.53A6,6,0,0,0,75.9,28.9a17.1,17.1,0,0,0,1.457-5.733,3.9,3.9,0,0,0-.036-.885,15.812,15.812,0,0,0-.387-2.3c-.046-.309-.088-.619-.147-.926-.032-.75-.175-1.577-.242-2.283a3.65,3.65,0,0,1-.029-.686,5.612,5.612,0,0,0-.083-1.72,7.712,7.712,0,0,0-.176-.79,21.546,21.546,0,0,0-.91-2.476,4.209,4.209,0,0,0-.716-1.068,9.131,9.131,0,0,0-1.841-1.585l-.807-.465c-.267-.159-.6-.348-.923-.583-.237-.179-.5-.273-.746-.44s-.5-.36-.776-.515a14.777,14.777,0,0,0-1.383-1.009,6.4,6.4,0,0,0-1.089-.563,5.974,5.974,0,0,0-.594-.237c-.3-.1-.726-.31-1.142-.469s-.809-.318-1-.417c-.214-.119-.42-.2-.645-.3a5.252,5.252,0,0,0-1.392-.395,2.465,2.465,0,0,1-.969-.287c-.175-.122-.434-.217-.62-.32a2.023,2.023,0,0,0-.675-.192,6.775,6.775,0,0,1-1.42-.337,1.216,1.216,0,0,0-.187-.06,1.549,1.549,0,0,0-.253-.047,10.108,10.108,0,0,0-2.628.043l-.7.114a9.113,9.113,0,0,0-1.975.537l-.634.238a9.957,9.957,0,0,0-2.791,1.291,10.262,10.262,0,0,0-.9.531c-.288.193-.623.389-.852.58a16.039,16.039,0,0,0-1.932,1.808,4.848,4.848,0,0,1-.448.494,15.864,15.864,0,0,0-1.369,1.564c-.287.357-.558.695-.843,1.047a4.026,4.026,0,0,0-.39.54,19.557,19.557,0,0,0-1.524,2.942,22.025,22.025,0,0,0-.939,2.738,6.67,6.67,0,0,0-.209.983c-.063.519-.133,1.052-.23,1.625a23.477,23.477,0,0,0-.258,2.376,5.68,5.68,0,0,0,.006.816h1.5a2.931,2.931,0,0,0-.088-.476c-.166-.673-.325-1.314-.488-1.974a5.828,5.828,0,0,1-.14-.625A21.84,21.84,0,0,0,36.383,9.5a19.483,19.483,0,0,0-1.3-1.547,4.469,4.469,0,0,1-.436-.48,8.573,8.573,0,0,0-1.923-1.756c-.369-.264-.772-.478-1.157-.719a6.719,6.719,0,0,1-.8-.5,13.438,13.438,0,0,0-1.328-.929,8.049,8.049,0,0,0-2.351-.975L26.42,2.4c-.476-.105-.786-.239-.75-.355.016-.051.114-.088.109-.143-.008-.082-.06-.172-.283-.277A5.5,5.5,0,0,0,23.314,1.2a2,2,0,0,0-.586.054c-.3.071-.33.107-.135.205.051.025.117.05.16.076.194.12.082.2-.363.273a2.64,2.64,0,0,1-1.195-.025,6.633,6.633,0,0,1-.669-.164,6.292,6.292,0,0,0-.708-.156,4.8,4.8,0,0,0-1.255-.043,19.155,19.155,0,0,0-2.117.264c-.6.083-1.15.212-1.713.288a2.775,2.775,0,0,0-.676.2c-.636.258-1.274.527-1.942.838a7.339,7.339,0,0,0-1.193.684c-.3.182-.606.36-.911.507a7.365,7.365,0,0,0-1.51.9,18.5,18.5,0,0,0-5.326,6.4,9.053,9.053,0,0,0-.514,1.264,12.752,12.752,0,0,1-.648,1.588,6.494,6.494,0,0,0-.388.933c-.222.675-.41,1.357-.577,2.044-.107.467-.223.907-.343,1.32A7.206,7.206,0,0,0,.5,19.66C.418,20.248.369,20.847.3,21.436A3.2,3.2,0,0,1,.183,22c-.051.171-.112.016-.145-.118M70.6,40.5c-.054-.134-.586.233-1.089.684l-.9.871c-.054.055-.288.289-.521.525-.274.273-.51.66-.464.746a.457.457,0,0,0,.34.227.958.958,0,0,0,.5-.214,6.218,6.218,0,0,0,.956-.762c.242-.233.489-.471.713-.709a1.845,1.845,0,0,0,.341-.449,4.618,4.618,0,0,0,.17-.627c.039-.157-.024-.207-.054-.292m-1.285.306a.6.6,0,0,0,.262-.334c.017-.093-.083-.052-.211.043a1.945,1.945,0,0,0-.16.14,1.085,1.085,0,0,0-.081.158c-.023.1.046.091.19-.007m4.517-6.421a11.59,11.59,0,0,0,.609-1.108c.165-.364.41-.734.6-1.107.091-.207.168-.434.124-.432-.062,0-.194.2-.308.383a2.78,2.78,0,0,1-.185.235,9.787,9.787,0,0,0-.738.987,18.882,18.882,0,0,1-1.3,1.862,12.015,12.015,0,0,1-1.018,1.158,4.685,4.685,0,0,0-.408.466c-.7.823-1.445,1.611-2.162,2.421-.942,1.044-2.01,1.98-3.009,2.974-.152.147-.316.282-.475.416l-.754.556c-.759.6-1.511,1.229-2.275,1.748-.238.161-.5.389-.752.592l-1.581,1.147a15.644,15.644,0,0,1-1.313.857,9.053,9.053,0,0,0-.786.546,3.215,3.215,0,0,0-.644.592,8.024,8.024,0,0,1-1.478,1.451,4.752,4.752,0,0,0-.394.37c-.127.126-.234.252-.211.3s.206-.043.407-.149l.539-.28a2.456,2.456,0,0,0,.521-.329c.382-.337.842-.625,1.276-.965a7.044,7.044,0,0,1,.79-.531c.585-.322,1.173-.646,1.8-1.045.276-.177.5-.425.426-.486a.308.308,0,0,0-.226-.022c-.189.027-.109-.12.16-.311l.8-.552a7.408,7.408,0,0,0,.762-.528,21.858,21.858,0,0,1,2.259-1.627,9.762,9.762,0,0,0,1.732-1.355c.394-.377.716-.686.755-.722l1.141-1.109a8.84,8.84,0,0,0,1.223-1.456,10.089,10.089,0,0,1,1.484-1.653l.225-.2a4.3,4.3,0,0,0,.421-.461,32.8,32.8,0,0,0,1.965-2.63m3.523-3.738a1.158,1.158,0,0,0-.165.236c-.369.677-.739,1.354-1.1,2.016-.357.576-.7,1.137-1.048,1.7a3.538,3.538,0,0,0-.2.459,1.923,1.923,0,0,0,.348-.367l.378-.484a9.09,9.09,0,0,0,.915-1.327l.6-1.2a4.694,4.694,0,0,0,.3-.82c.047-.184.042-.274-.028-.212" fill="#ad144f"/>
    </g>
  </g>
</svg>
