<svg xmlns="http://www.w3.org/2000/svg" xmlns:xlink="http://www.w3.org/1999/xlink" width="85.86" height="85.86" viewBox="0 0 85.86 85.86">
  <defs>
    <clipPath id="clip-path">
      <rect id="Retângulo_42" data-name="Retângulo 42" width="44.944" height="76.48" fill="none"/>
    </clipPath>
  </defs>
  <g id="Grupo_47" data-name="Grupo 47" transform="translate(0 31.78) rotate(-45)">
    <g id="Grupo_46" data-name="Grupo 46" clip-path="url(#clip-path)">
      <path id="Caminho_159" data-name="Caminho 159" d="M21.077,24.176a.27.27,0,0,0-.084.139c0,.036.032.017.077-.024a.752.752,0,0,0,.052-.062.443.443,0,0,0,.027-.062c.007-.037-.019-.032-.072.009" transform="translate(-9.431 -10.846)" fill="#ad144f"/>
      <path id="Caminho_160" data-name="Caminho 160" d="M15.871,45.334a1.389,1.389,0,0,0,.11.475c.031.081.063.153.095.229q-.126-.509-.214-1.033c0,.11.006.219.009.329" transform="translate(-7.126 -20.218)" fill="#ad144f"/>
      <path id="Caminho_161" data-name="Caminho 161" d="M16.417,30.246c.114-.268.194-.551.332-.8l.321-.687a1.39,1.39,0,0,0,.055-.181.771.771,0,0,0-.114.154l-.121.2a4.714,4.714,0,0,0-.291.539,3.842,3.842,0,0,0-.176.472,1.77,1.77,0,0,0-.075.323c-.009.072,0,.106.019.08a.425.425,0,0,0,.05-.1" transform="translate(-7.342 -12.838)" fill="#ad144f"/>
      <path id="Caminho_162" data-name="Caminho 162" d="M20.658,23.19l.323-.355.187-.213c.1-.112.182-.265.164-.3a.164.164,0,0,0-.131-.077.373.373,0,0,0-.187.1,2.49,2.49,0,0,0-.349.319c-.088.1-.178.194-.259.291a.632.632,0,0,0-.114.187,1.74,1.74,0,0,0-.048.244c-.01.06.014.077.028.108s.217-.107.386-.3" transform="translate(-9.093 -9.995)" fill="#ad144f"/>
      <path id="Caminho_163" data-name="Caminho 163" d="M17.1,6.411l-.321.115a1.37,1.37,0,0,0-.315.144c-.237.16-.518.278-.781.442a4.044,4.044,0,0,1-.47.254c-.344.15-.691.3-1.064.493-.169.08-.286.235-.252.265a.159.159,0,0,0,.122.014c.1-.014.056.069-.095.176l-.444.31c-.149.1-.3.174-.442.278l-1.272.913a6.341,6.341,0,0,0-.958.789l-.4.433-.6.665a4.8,4.8,0,0,0-.618.879,5.929,5.929,0,0,1-.757,1l-.1.134c-.068.094-.139.187-.2.288l-.493.785a5.6,5.6,0,0,0-.446.816,6.574,6.574,0,0,0-.27.663c-.071.215-.179.441-.269.66-.048.118-.089.247-.061.244a.709.709,0,0,0,.166-.228l.09-.144a5.664,5.664,0,0,0,.349-.6,10.283,10.283,0,0,1,.6-1.134,6.7,6.7,0,0,1,.5-.711,2.688,2.688,0,0,0,.2-.286,6.3,6.3,0,0,1,.524-.747l.552-.729c.122-.155.232-.321.363-.47l.4-.438.8-.877a1.981,1.981,0,0,1,.267-.232c.138-.11.276-.209.412-.324a8.892,8.892,0,0,1,1.258-.988c.139-.082.294-.2.44-.3.3-.208.584-.427.883-.631a8.655,8.655,0,0,1,.772-.4,4.982,4.982,0,0,0,.463-.261,1.784,1.784,0,0,0,.387-.293,4.768,4.768,0,0,1,.926-.682,2.622,2.622,0,0,0,.247-.175c.08-.059.15-.122.142-.15s-.116.008-.235.052" transform="translate(-2.952 -2.853)" fill="#ad144f"/>
      <path id="Caminho_164" data-name="Caminho 164" d="M44.923,22.453c-.017-.071-.048-.113-.078-.055a1.147,1.147,0,0,0-.064.291c-.037.316-.05.646-.068.973a5.4,5.4,0,0,1-.055.568c-.033.234-.067.483-.118.744l-.191,1.157a5.233,5.233,0,0,1-.123.541,6.563,6.563,0,0,0-.232.912c-.038.239-.07.471-.138.732A22.259,22.259,0,0,1,42.212,32.5a3.686,3.686,0,0,1-.5.794,2.516,2.516,0,0,0-.292.475c-.1.215-.2.429-.334.658-.189.346-.422.639-.606.959a2.462,2.462,0,0,1-.229.3c-.208.226-.4.46-.614.714l-.8.856a3.957,3.957,0,0,1-.52.458,1.688,1.688,0,0,1-.348.2,3.8,3.8,0,0,0-.346.178,1.429,1.429,0,0,0-.49.452c-.15.2-.165.276-.041.248.027-.006.063-.021.093-.031.116-.036.117-.011.024.133a1.615,1.615,0,0,1-.207.253,2.912,2.912,0,0,1-1.014.682c-.127.048-.182.035-.218.007s0-.071-.016-.1c-.032-.057-.206.013-.426.168l-.312.22a5.631,5.631,0,0,1-1.251.637c-.292.117-.556.2-.837.308a3.462,3.462,0,0,0-.491.194l-.681.332c-.23.11-.459.216-.683.31a5.083,5.083,0,0,1-.68.186,2.512,2.512,0,0,0-.347.1l-1.066.375c-.3.072-.6.153-.9.234l.006-.156A20.976,20.976,0,0,0,43.72,22.371c0-.124-.008-.247-.01-.371-.051-.089-.1-.184-.154-.264a.616.616,0,0,0-.136-.14.746.746,0,0,1-.13-.242,6.926,6.926,0,0,1-.235-.718,10.717,10.717,0,0,0-.479-1.094,1.2,1.2,0,0,0-.1-.2,1.343,1.343,0,0,0-.1-.137.834.834,0,0,1-.1-.128,1.722,1.722,0,0,1-.177-.544,9.363,9.363,0,0,0-.266-1.013c-.108-.315-.232-.58-.339-.9-.054-.156-.142-.283-.209-.432a1.7,1.7,0,0,0-.351-.517c-.066-.066-.12-.08-.186-.154a1.63,1.63,0,0,1-.277-.479c-.079-.211-.2-.408-.291-.616a5.707,5.707,0,0,0-.4-.72,1.358,1.358,0,0,1-.083-.133,8.207,8.207,0,0,0-.471-.8,7.477,7.477,0,0,1-.431-.806c-.042-.094-.089-.193-.142-.29l-.393-.555a6.575,6.575,0,0,1-.357-.552c-.077-.134-.166-.278-.261-.415-.214-.263-.446-.517-.621-.779-.088-.129-.209-.26-.318-.391a4.878,4.878,0,0,0-.338-.385c-.218-.273-.527-.56-.77-.837a4.443,4.443,0,0,0-.721-.7c-.134-.106-.26-.217-.385-.327s-.237-.219-.378-.33a10.1,10.1,0,0,0-1.3-.875c-.3-.171-.585-.387-.9-.531-.1-.05-.2-.109-.289-.165-.184-.115-.373-.227-.586-.333a7.267,7.267,0,0,0-.957-.436,2.574,2.574,0,0,1-.307-.137,6.439,6.439,0,0,0-.773-.341,10.409,10.409,0,0,0-1.182-.354c-.167-.046-.334-.1-.489-.156a4.2,4.2,0,0,0-.665-.192L25.517,2.7a9.052,9.052,0,0,0-1.14-.15,4.743,4.743,0,0,1-.5-.064l-.806-.133a1.963,1.963,0,0,0-.512-.041l-1.429.074a3.444,3.444,0,0,0-.515.062c-.167.039-.323.082-.5.111a15.235,15.235,0,0,0-1.925.358,6.324,6.324,0,0,1-.837.158,3.4,3.4,0,0,0-.336.061,12.224,12.224,0,0,0-1.269.426,8.213,8.213,0,0,0-1.23.523c-.1.053-.209.112-.3.169a7.705,7.705,0,0,1-.757.415A20.305,20.305,0,0,0,7.768,9.188l-.422.459-.377.5a13.186,13.186,0,0,1-.886,1.051,10.091,10.091,0,0,0-.792,1.1,2.876,2.876,0,0,1-.2.279c-.21.258-.359.542-.542.818-.058.092-.118.195-.172.3a9.123,9.123,0,0,0-.53,1.149,3.176,3.176,0,0,1-.138.323,7.863,7.863,0,0,0-.345.812,5.833,5.833,0,0,0-.248.827l-.215.838a12.119,12.119,0,0,0-.324,1.7,3.965,3.965,0,0,0-.044.518,9.162,9.162,0,0,0,0,1.369l-.027.539c-.036.214-.075.441-.1.664s-.023.445-.048.647a1.676,1.676,0,0,1-.072.386,4.319,4.319,0,0,0-.223.964,2.511,2.511,0,0,0-.015.457c.008.338.018.672.026,1.006.088.518.193,1.03.318,1.534a9.492,9.492,0,0,0,.421.917,3.681,3.681,0,0,0,.278.455,4.207,4.207,0,0,1,.3.557c.073.156.154.291.223.452s.126.339.188.51c.1.315.213.626.316.938a6.36,6.36,0,0,0,.265.655l.151.335a10.282,10.282,0,0,1,.555,1.2l.123.387c.011.037.033.077.047.115a21,21,0,0,0,12.026,8.675l.006.529-.609-.156c-.664-.177-1.189-.423-1.73-.612-.116-.044-.232-.1-.337-.146-.22-.094-.427-.225-.66-.335l-1.033-.5a2.58,2.58,0,0,0-.34-.138c-.414-.162-.871-.453-1.294-.642-.149-.067-.328-.179-.493-.271a5.061,5.061,0,0,1-.475-.311,11.943,11.943,0,0,1-1.391-.94,3.566,3.566,0,0,0-.289-.23,8.4,8.4,0,0,1-.867-.714l-.286-.263a7.166,7.166,0,0,1-.915-1.136.866.866,0,0,1-.072-.124.646.646,0,0,1-.042-.1,4.1,4.1,0,0,0-.375-.723,1.2,1.2,0,0,1-.156-.365c-.021-.119-.071-.268-.09-.383a1.392,1.392,0,0,0-.249-.509,2.714,2.714,0,0,1-.329-.61A20.83,20.83,0,0,1,2.4,27.418c-.047-.113-.094-.22-.14-.341a2.05,2.05,0,0,1-.164-.706l-.013-.488A20.965,20.965,0,1,1,43.71,22c.038.064.075.12.112.191.061.117.12.168.181.171a3.093,3.093,0,0,0,.446,0c.026,0,.053-.083.069-.166a2.651,2.651,0,0,0,.044-.493l-.01-.577c-.008-.261,0-.506.008-.748a2.5,2.5,0,0,0-.021-.556c-.046-.386-.085-.756-.1-1.125a12.1,12.1,0,0,0-.154-1.293l-.126-.57c-.059-.256-.113-.508-.149-.748a2.348,2.348,0,0,0-.133-.552l-.2-.56a7.213,7.213,0,0,1-.268-.9,2.328,2.328,0,0,0-.182-.541l-.345-.715q-.262-.538-.523-1.072l-.606-1.026a4.823,4.823,0,0,1-.254-.5A3.8,3.8,0,0,0,41,9.4c-.155-.215-.316-.431-.479-.638-.187-.232-.36-.476-.555-.7l-.6-.666A14.325,14.325,0,0,0,38.343,6.3L37.236,5.289c-.363-.344-.788-.612-1.181-.92a11.768,11.768,0,0,0-1.229-.854l-1.366-.83-1.438-.7c-.309-.148-.575-.31-.861-.432a4.247,4.247,0,0,0-.733-.269c-.366-.09-.721-.214-1.11-.335A22.15,22.15,0,0,0,21.03.074l-.2.01A7.856,7.856,0,0,0,19.742.2l-1.087.16a7.933,7.933,0,0,0-1.073.228L16.516.853c-.126.031-.257.057-.378.078a6.691,6.691,0,0,0-.741.22l-1.414.511-1.36.641c-.18.085-.365.176-.54.237a8.484,8.484,0,0,0-1.029.552c-.342.212-.7.406-1.027.634l-.971.718c-.321.247-.659.462-.95.689a5.389,5.389,0,0,0-.452.38A15.059,15.059,0,0,0,6.269,6.84l-.65.706A6.881,6.881,0,0,0,5,8.277c-.122.16-.246.32-.374.46-.169.185-.334.386-.5.606a22.992,22.992,0,0,0-2.021,3.509l-.328.686-.267.713c-.174.476-.361.949-.521,1.43-.071.267-.152.506-.239.74-.042.113-.085.241-.12.368L.4,17.625c-.073.279-.1.567-.15.851-.082.571-.182,1.14-.23,1.713-.008.207,0,.4,0,.585s.01.381,0,.586C.022,21.732,0,22.1,0,22.472s.033.741.05,1.114c.008.268.021.542.041.809.028.506.146,1,.209,1.5a12.7,12.7,0,0,0,.271,1.5l.365,1.426a14.44,14.44,0,0,0,.474,1.392A20.623,20.623,0,0,0,2.6,32.9a4.607,4.607,0,0,0,.519.835c.073.1.149.211.219.323l.59.94c.216.3.447.589.67.883l.369.477c.272.316.571.625.866.942l.875.965c.372.362.768.7,1.151,1.052.194.172.382.353.583.518l.624.468c.421.3.82.642,1.261.918l1.33.817c.171.1.341.212.507.306.263.163.555.317.861.466a22.447,22.447,0,0,0,3,1.205l.975.259.311.082,0,.332c0,.25,0,.5,0,.752,0,.166,0,.335,0,.5.015.626.007,1.252.006,1.879,0,1.211,0,2.422.006,3.633a5.416,5.416,0,0,0,.034.609c.008.075.014.16.015.241l.023,1.375.008.375a13.73,13.73,0,0,1,.041,1.606q.016,1.941,0,3.884a3.113,3.113,0,0,1-.014.368,5.11,5.11,0,0,0-.035.608c0,.668-.013,1.336,0,2,0,.208,0,.417,0,.626,0,.167-.007.334,0,.5.012.919,0,1.838,0,2.757l0,.5a3.546,3.546,0,0,1-.025.361,2.97,2.97,0,0,0-.026.36l0,1.127c0,.081.008.164.017.241a4.54,4.54,0,0,1,.024.489l.006,2.506c0,.123.007.247.013.368a.335.335,0,0,0,.018.1c.007.012.021-.012.029-.035l.078-.247c.021-.066.041-.086.054-.046a.428.428,0,0,1,.016.11l.006.5a5.148,5.148,0,0,1-.04.6,3.965,3.965,0,0,0-.012.767l.2,2.368.959-.268.051-.015a1.133,1.133,0,0,1,.365-.069.821.821,0,0,1,.3.041,1.542,1.542,0,0,1,.344.136,1.209,1.209,0,0,0,.276.111.578.578,0,0,0,.225.04l.541-.023a.479.479,0,0,0,.145-.036.838.838,0,0,1,.294-.062.585.585,0,0,0,.448-.193.423.423,0,0,1,.05-.044.369.369,0,0,1,.2-.073l.533-.034a.688.688,0,0,1,.3.046.782.782,0,0,0,.3.046,1.059,1.059,0,0,0,.507-.1.454.454,0,0,1,.132-.048l.3-.048a.882.882,0,0,0,.213-.051.984.984,0,0,1,.273-.078,8.9,8.9,0,0,1,.971-.094,1.471,1.471,0,0,0,.495-.1,1.3,1.3,0,0,1,.337-.084l1.014-.128a.156.156,0,0,0,.111-.047.059.059,0,0,0-.024-.083.316.316,0,0,0-.135-.04,2.351,2.351,0,0,0-.37.012.818.818,0,0,1-.225-.009,1.243,1.243,0,0,0-.3-.024l-.442.018a.815.815,0,0,1-.225-.029.606.606,0,0,0-.355.014.819.819,0,0,1-.256.075l-1.688.111a.953.953,0,0,1-.368-.047.282.282,0,0,0-.211.006.846.846,0,0,1-.262.087,1.633,1.633,0,0,0-.414.1.264.264,0,0,1-.144,0,1.419,1.419,0,0,0-.368-.06l-.446-.011a.555.555,0,0,1-.273-.1.9.9,0,0,1-.161-.133,1.146,1.146,0,0,0-.153-.138.17.17,0,0,0-.249.009c-.088.07-.105.133-.057.219.011.019.026.036.039.055.047.069.044.1-.014.159a.22.22,0,0,1-.117.069.481.481,0,0,1-.468-.123.274.274,0,0,1-.075-.173,1.159,1.159,0,0,1,.011-.122A.176.176,0,0,0,19.488,75a1.273,1.273,0,0,0-.143-.013.938.938,0,0,1-.524-.18,1.487,1.487,0,0,1-.128-.091l-.4-.314.066-.286c.028-.117.055-.238.082-.352a1.624,1.624,0,0,0,.033-.347l0-.5a5.846,5.846,0,0,1,.063-.961,1.42,1.42,0,0,0,.017-.24l.006-.751-.014-3.883a1.8,1.8,0,0,0-.018-.238,6.841,6.841,0,0,0-.124-.745,1.972,1.972,0,0,1-.049-.456l-.012-.876a4.992,4.992,0,0,0-.042-.6,2.851,2.851,0,0,1-.018-.367c0-.376,0-.752,0-1.054,0-.449.008-.824.012-1.2,0-.08.008-.164.016-.24a4.4,4.4,0,0,0,.03-.485v-.751a1.415,1.415,0,0,0-.017-.239c-.049-.29-.047-.643-.09-.942-.015-.105-.014-.243-.02-.365l-.016-.37a6.9,6.9,0,0,1-.063-1.088,2,2,0,0,0-.018-.239,4.574,4.574,0,0,1-.042-.725v-.25a5.357,5.357,0,0,1,.082-.942.473.473,0,0,1,.023-.091.4.4,0,0,1,.029-.068,1.544,1.544,0,0,0,.143-.519.683.683,0,0,1,.073-.252c.041-.07.08-.169.121-.237a.828.828,0,0,0,.081-.372,2.557,2.557,0,0,1,.068-.488V74.113h8.089v-.26c.02.083.041.162.061.249a1.2,1.2,0,0,0,.094.285c.082.153.162.306.244.444.014.025.031,0,.044-.033a1.062,1.062,0,0,0,.041-.257c0-.125.01-.242.014-.361.006-.166.017-.311.032-.444.012-.1.021-.21.026-.329.01-.244.023-.471.047-.677.028-.232.031-.552.068-.762.006-.122.011-.245.017-.366.006-.166.014-.326.032-.46a3.211,3.211,0,0,0,.026-.342l.009-.384a3.682,3.682,0,0,1,.046-.565,2.544,2.544,0,0,0,.026-.345l.007-.522c0-.531.014-1.044.029-1.558a2.327,2.327,0,0,1,.034-.333,4.7,4.7,0,0,0,.045-.587c0-.171.008-.348.007-.525,0-.4,0-.8.01-1.187.032-1.3.043-2.624.059-3.942l.025-2.109a5.505,5.505,0,0,1,.043-.611,2.549,2.549,0,0,0,0-.515c-.024-.264-.035-.52-.034-.79l.02-5.549v-.132c.028-.958.021-1.929.035-2.892,0-.085.007-.172.015-.252.017-.162.03-.326.031-.506l.019-1.976a3.263,3.263,0,0,1,.017-.387c.019-.142.03-.29.035-.442l.01-.279c.355-.092.709-.187,1.065-.276a7.134,7.134,0,0,0,.962-.31l.949-.35c.187-.069.37-.146.551-.221a.542.542,0,0,0,.14-.09c.014-.017-.03-.017-.067-.01-.126.026-.273.035-.406.052-.11.012-.15,0-.1-.04a.824.824,0,0,1,.155-.079c.251-.084.48-.224.723-.332.3-.146.6-.262.889-.371a5.431,5.431,0,0,0,.626-.273c.2-.118.388-.246.571-.378.256-.187.505-.366.8-.542.231-.135.46-.273.665-.4.256-.149.536-.339.769-.449.186-.087.411-.239.618-.36a2.226,2.226,0,0,0,.465-.346l1.043-.953c.1-.089.187-.186.269-.276.16-.2.317-.4.5-.6a4.636,4.636,0,0,0,.731-.993l.077-.129a4.358,4.358,0,0,1,.3-.465l.833-1.12c.17-.211.3-.428.453-.6a5.92,5.92,0,0,0,.435-.618,5.174,5.174,0,0,0,.631-1.207c.036-.108.085-.231.137-.349l.328-.724c.08-.18.167-.36.227-.538.063-.238.134-.479.225-.735l.43-1.218c.126-.411.221-.831.344-1.245a6.261,6.261,0,0,0,.268-1.342c.022-.316.052-.622.1-.956a20.1,20.1,0,0,0,.209-2.759,1.4,1.4,0,0,0-.019-.35M6.466,8.954a1.184,1.184,0,0,1-.077.092c-.067.061-.121.089-.115.036A.394.394,0,0,1,6.4,8.875c.078-.062.117-.068.106-.013a.593.593,0,0,1-.04.092M5.736,8.6a.942.942,0,0,1,.17-.277c.12-.144.253-.29.384-.432a3.757,3.757,0,0,1,.519-.474.555.555,0,0,1,.278-.143.245.245,0,0,1,.194.115c.027.047-.1.274-.243.44l-.278.317-.48.528c-.251.291-.54.519-.573.449-.02-.046-.057-.07-.042-.16A2.774,2.774,0,0,1,5.736,8.6M2.48,14.955a2.721,2.721,0,0,1,.112-.479,5.871,5.871,0,0,1,.262-.7,7.08,7.08,0,0,1,.432-.8l.18-.3a1.081,1.081,0,0,1,.17-.229,1.971,1.971,0,0,1-.083.27l-.476,1.02c-.2.372-.324.792-.493,1.19a.664.664,0,0,1-.073.143c-.035.039-.042-.012-.029-.118M23.906,43.468a.832.832,0,0,1,.041-.079.186.186,0,0,1,.114-.059,1,1,0,0,1,.2-.008.41.41,0,0,1,.247.093c.008.007.013.014.021.021Zm-8.376-7.592c-.112-.063-.227-.136-.342-.207l-.9-.55c-.3-.186-.565-.413-.849-.618l-.42-.316c-.136-.111-.262-.232-.393-.349-.258-.237-.524-.465-.775-.709l-.589-.65c-.2-.214-.4-.422-.583-.635l-.249-.321c-.15-.2-.305-.393-.451-.6l-.4-.633c-.047-.075-.1-.151-.148-.218a3.091,3.091,0,0,1-.35-.563,13.932,13.932,0,0,1-.8-1.811c-.1-.313-.246-.615-.319-.937l-.246-.961A8.342,8.342,0,0,1,7.538,24.8c-.044-.339-.122-.674-.141-1.014-.014-.18-.022-.364-.028-.545-.012-.252-.023-.5-.034-.75s.014-.5.02-.749c.006-.138,0-.267,0-.394s-.008-.255,0-.394c.031-.387.1-.77.155-1.154.033-.191.051-.386.1-.573l.151-.563c.024-.085.053-.171.081-.247.058-.158.113-.319.161-.5.108-.324.234-.643.351-.964l.18-.48.222-.462a15.438,15.438,0,0,1,1.361-2.364,5.213,5.213,0,0,1,.337-.408c.086-.095.169-.2.252-.31a4.613,4.613,0,0,1,.417-.492l.438-.475a10.272,10.272,0,0,1,.932-.893,3.625,3.625,0,0,1,.305-.256c.2-.154.424-.3.64-.464l.654-.484c.223-.153.462-.284.692-.427a5.819,5.819,0,0,1,.693-.372,3.81,3.81,0,0,0,.363-.16l.916-.432.952-.344a4.572,4.572,0,0,1,.5-.149c.082-.014.17-.031.255-.052l.718-.18a5.328,5.328,0,0,1,.723-.154l.732-.108a5.3,5.3,0,0,1,.733-.075L21.5,7.4a14.933,14.933,0,0,1,5.583.59c.262.082.5.165.747.226a2.871,2.871,0,0,1,.494.181c.192.083.372.191.579.291l.969.47.92.559a7.936,7.936,0,0,1,.828.576c.265.208.551.388.8.62l.746.68a9.661,9.661,0,0,1,.69.735l.4.449c.131.153.247.317.374.474.11.14.218.285.323.43a2.586,2.586,0,0,1,.333.551,3.254,3.254,0,0,0,.171.337l.408.691.352.722.233.482a1.581,1.581,0,0,1,.122.364,5.018,5.018,0,0,0,.181.61l.134.377a1.582,1.582,0,0,1,.089.372c.024.162.061.332.1.5l.085.384a8.081,8.081,0,0,1,.1.87c.013.248.039.5.07.758a1.658,1.658,0,0,1,.014.375c-.008.163-.01.329-.006.5l.007.389a1.832,1.832,0,0,1-.029.332c-.012.056-.029.111-.047.112a2.107,2.107,0,0,1-.3,0c-.04,0-.081-.036-.122-.115-.025-.048-.05-.085-.075-.128,0,.084.007.166.007.25a14.124,14.124,0,0,1-25.9,7.794,1.84,1.84,0,0,0,.221.41.938.938,0,0,1,.169.343c.012.078.046.178.061.258a.8.8,0,0,0,.106.246,2.814,2.814,0,0,1,.252.486.451.451,0,0,0,.028.068.6.6,0,0,0,.048.083,4.8,4.8,0,0,0,.616.766l.193.176a5.518,5.518,0,0,0,.584.481c.064.045.127.1.194.155a8.184,8.184,0,0,0,.937.633,3.4,3.4,0,0,0,.32.209c.111.062.232.137.332.183.285.127.593.323.872.432a1.722,1.722,0,0,1,.229.093l.7.334c.158.074.3.163.444.226.071.034.149.069.227.1.365.127.719.293,1.165.412l1.052.27a1.646,1.646,0,0,0,.374.053,5.839,5.839,0,0,1,.616.057,6.25,6.25,0,0,0,.894.093,2.39,2.39,0,0,0,.469-.019c.224-.042.5-.044.759-.078a2.153,2.153,0,0,1,.242-.028l.983-.053c.327-.021.649-.093.974-.137a15.509,15.509,0,0,0,1.917-.437l.718-.252a1.75,1.75,0,0,1,.234-.07,3.425,3.425,0,0,0,.458-.125c.151-.064.306-.135.46-.209l.458-.224a2.286,2.286,0,0,1,.332-.131c.189-.071.367-.129.563-.208a3.8,3.8,0,0,0,.843-.428l.209-.148c.149-.1.267-.151.288-.113.009.017,0,.053.01.066s.062.028.147,0a1.972,1.972,0,0,0,.683-.459,1.063,1.063,0,0,0,.139-.17c.063-.1.062-.114-.016-.09-.021.007-.045.017-.063.021-.084.019-.074-.031.027-.167a.956.956,0,0,1,.331-.3,2.429,2.429,0,0,1,.232-.12,1.147,1.147,0,0,0,.235-.137,2.657,2.657,0,0,0,.35-.308l.539-.576c.145-.172.273-.329.414-.482a1.561,1.561,0,0,0,.154-.2c.124-.216.281-.413.408-.647.09-.154.157-.3.226-.443a1.669,1.669,0,0,1,.2-.321,2.447,2.447,0,0,0,.336-.535,14.929,14.929,0,0,0,1.108-2.815c.045-.176.067-.332.093-.493a4.445,4.445,0,0,1,.156-.615,3.538,3.538,0,0,0,.083-.364l.128-.779c.035-.176.058-.343.08-.5a3.792,3.792,0,0,0,.036-.383c.012-.22.021-.443.046-.655a.82.82,0,0,1,.043-.2c.02-.04.041-.011.053.037a.987.987,0,0,1,.012.236,13.449,13.449,0,0,1-.141,1.858c-.033.225-.053.432-.068.644a4.166,4.166,0,0,1-.181.9c-.082.279-.146.562-.231.839l-.289.82c-.061.172-.109.334-.151.495-.041.12-.1.241-.153.362l-.22.488c-.035.079-.068.162-.093.235a3.5,3.5,0,0,1-.425.813,3.943,3.943,0,0,1-.293.416c-.1.118-.191.264-.306.407l-.561.755a2.821,2.821,0,0,0-.2.313l-.051.087a3.159,3.159,0,0,1-.493.669c-.125.133-.232.272-.339.4-.055.061-.117.126-.181.186l-.7.642a1.527,1.527,0,0,1-.314.233c-.139.082-.291.184-.416.243-.158.074-.346.2-.518.3-.139.088-.292.181-.449.272-.2.118-.365.239-.537.365-.123.089-.252.175-.384.254a3.557,3.557,0,0,1-.422.184c-.2.073-.394.151-.6.249-.163.073-.317.167-.487.224a.541.541,0,0,0-.1.053c-.036.026-.009.035.064.027.09-.011.189-.017.274-.035.025,0,.054,0,.045.006a.329.329,0,0,1-.094.061c-.122.051-.246.1-.371.149l-.639.236a4.793,4.793,0,0,1-.648.208c-.441.11-.877.241-1.323.328-.181.029-.354.062-.522.1-.082.02-.17.04-.257.054l-.607.094-.614.034a3.859,3.859,0,0,1-.392,0c-.126-.006-.254-.009-.392,0a5.259,5.259,0,0,1-.544-.014l-.747-.036a4.962,4.962,0,0,1-.745-.072l-.74-.113a6.042,6.042,0,0,1-.735-.137l-.527-.139L18.128,37a15.069,15.069,0,0,1-2.019-.812c-.207-.1-.4-.2-.58-.314m3.107,11.985a1.931,1.931,0,0,1-.006-.484c.019-.14.04-.276.062-.413v1.241c-.02-.112-.039-.224-.056-.345" transform="translate(0 0)" fill="#ad144f"/>
      <path id="Caminho_165" data-name="Caminho 165" d="M29.622,15.064A14.117,14.117,0,0,0,15.7,31.555c-.006-.226-.013-.451-.018-.678a1.741,1.741,0,0,1,.01-.308,2.936,2.936,0,0,1,.15-.649,1.193,1.193,0,0,0,.048-.26c.017-.136.025-.285.032-.436s.042-.3.066-.447l.018-.363a6.206,6.206,0,0,1,0-.922,2.807,2.807,0,0,1,.03-.35A8.2,8.2,0,0,1,16.253,26l.144-.565a3.976,3.976,0,0,1,.167-.557,5.292,5.292,0,0,1,.233-.547c.034-.068.063-.139.093-.218a6.146,6.146,0,0,1,.357-.774c.036-.07.077-.139.116-.2.124-.186.224-.378.365-.551a2.054,2.054,0,0,0,.134-.188,6.731,6.731,0,0,1,.533-.738,8.771,8.771,0,0,0,.6-.708l.253-.334.285-.309a13.682,13.682,0,0,1,3.833-3.041,5.053,5.053,0,0,0,.51-.28c.061-.038.131-.078.2-.113a5.444,5.444,0,0,1,.829-.352,8.076,8.076,0,0,1,.855-.287,2.269,2.269,0,0,1,.226-.041,4.226,4.226,0,0,0,.563-.106,10.224,10.224,0,0,1,1.3-.241c.122-.02.228-.049.34-.075a2.315,2.315,0,0,1,.347-.042l.962-.05a1.332,1.332,0,0,1,.345.028l.542.089a3.133,3.133,0,0,0,.337.043,6.129,6.129,0,0,1,.768.1l.767.118a2.819,2.819,0,0,1,.447.13c.1.037.218.074.329.105a6.916,6.916,0,0,1,.8.238,4.25,4.25,0,0,1,.521.23,1.9,1.9,0,0,0,.207.092,4.922,4.922,0,0,1,.645.294c.143.072.271.147.395.225.06.037.126.077.194.111.215.1.4.242.61.358a6.786,6.786,0,0,1,.878.589c.095.075.17.148.255.222s.169.149.259.22a2.979,2.979,0,0,1,.486.469c.164.187.372.38.519.564a3.283,3.283,0,0,1,.227.259c.073.088.155.176.214.263.118.176.274.347.418.525.064.093.124.189.176.279a4.324,4.324,0,0,0,.24.372l.265.374c.036.065.067.132.1.195a4.91,4.91,0,0,0,.291.543,5.532,5.532,0,0,1,.317.538.941.941,0,0,0,.056.089,3.832,3.832,0,0,1,.268.486c.061.139.142.273.2.414a1.092,1.092,0,0,0,.186.323c.044.05.081.06.125.1a1.144,1.144,0,0,1,.237.348c.045.1.1.186.141.291.072.215.155.394.228.606a6.424,6.424,0,0,1,.179.682,1.167,1.167,0,0,0,.12.367.622.622,0,0,0,.068.086.769.769,0,0,1,.069.092.831.831,0,0,1,.069.137,7.2,7.2,0,0,1,.322.737,4.8,4.8,0,0,0,.158.484.5.5,0,0,0,.088.162.431.431,0,0,1,.091.095c.035.053.069.118.1.178A14.121,14.121,0,0,0,29.622,15.064m-5.734,1.518a1.666,1.666,0,0,1-.167.117,3.188,3.188,0,0,0-.623.46,1.179,1.179,0,0,1-.261.2,3.312,3.312,0,0,1-.312.176,5.867,5.867,0,0,0-.52.272c-.2.137-.4.285-.594.425-.1.07-.2.15-.3.2a5.918,5.918,0,0,0-.848.665c-.091.078-.184.145-.278.219a1.314,1.314,0,0,0-.18.156l-.54.59-.27.3c-.088.1-.163.212-.245.317l-.372.491a4.238,4.238,0,0,0-.353.5,1.842,1.842,0,0,1-.135.193,4.576,4.576,0,0,0-.34.479,7.075,7.075,0,0,0-.4.764,3.84,3.84,0,0,1-.235.408l-.06.1a.484.484,0,0,1-.112.154c-.019,0,.008-.085.041-.165.06-.148.133-.3.181-.444a4.521,4.521,0,0,1,.182-.447,3.8,3.8,0,0,1,.3-.55l.333-.529c.044-.068.091-.131.138-.194l.069-.09a3.992,3.992,0,0,0,.51-.675,3.253,3.253,0,0,1,.416-.592l.407-.448.269-.292a4.31,4.31,0,0,1,.645-.531l.857-.615c.094-.07.2-.121.3-.187l.3-.208c.1-.072.133-.128.064-.118-.039,0-.067,0-.082-.009s.055-.124.169-.178c.251-.129.485-.231.717-.332a2.736,2.736,0,0,0,.316-.171c.177-.111.366-.189.526-.3a.953.953,0,0,1,.212-.1l.216-.078c.08-.03.154-.052.158-.035s-.041.061-.1.1" transform="translate(-6.962 -6.767)" fill="#ad144f"/>
      <path id="Caminho_166" data-name="Caminho 166" d="M18.067,50.938a6.984,6.984,0,0,0-.375-.81l-.1-.226a4.291,4.291,0,0,1-.178-.442c-.069-.21-.148-.42-.212-.632-.042-.115-.082-.236-.128-.344s-.1-.2-.149-.3a2.843,2.843,0,0,0-.2-.376,2.369,2.369,0,0,1-.187-.307,6.3,6.3,0,0,1-.284-.617,14.035,14.035,0,0,0,1.931,4.394c-.01-.025-.024-.052-.032-.077Z" transform="translate(-7.3 -21.061)" fill="#ad144f"/>
    </g>
  </g>
</svg>
