<svg xmlns="http://www.w3.org/2000/svg" xmlns:xlink="http://www.w3.org/1999/xlink" width="98.914" height="43.819" viewBox="0 0 98.914 43.819"><defs><clipPath id="a"><rect width="98.914" height="43.819" fill="#f8e075"/></clipPath><clipPath id="b"><rect width="24.736" height="4.835" fill="#ad144f"/></clipPath></defs><g transform="translate(-114.183 -73.584)"><g transform="translate(114.183 73.584)"><rect width="95.645" height="40.198" transform="translate(1.78 1.869)" fill="#f8e075"/><g clip-path="url(#a)"><path d="M98.122,43.38c-.2.009-.518.013-.861.014l-6.962.03c-.848,0-1.612.012-2.386.024-1.079.017-2.241.026-3.416.026l-6.485.022c-.678,0-1.3.012-1.9.023l-1.451.015-1.979.014-.92.015c-1.05.026-2.207.028-3.386.029-.678,0-1.319,0-1.91-.015s-1.236-.017-1.914-.015l-3.5.011c-.5,0-.973.01-1.358.023l-.357.014c-.774.038-1.745.061-3.016.063-.677,0-1.314.009-1.931.021l-.951.013-3.509.012c-.518,0-1,0-1.453-.011-.6-.011-1.278-.015-1.793-.033-.648-.022-1.5-.027-2.25-.04-.617-.011-1.287-.011-1.96-.011-.858,0-1.62.013-2.4.027-1.113.019-2.288.022-3.415,0-.787-.013-1.577-.022-2.424-.02l-2,.006c-.152,0-.333.005-.431.01-.158.008-.071.02.2.033l1.009.045c.094,0,.2.013.15.017s-.251.01-.4.011l-1.472.011-10.041.016c-.676,0-1.324.006-1.955.017l-.959.011-4.517.006c-.514,0-.98-.007-1.444-.015s-.94-.014-1.45-.015l-2.006,0H.086l0-.821L.079,41c0-.352,0-.705,0-1.058,0-.441,0-.883.005-1.322q0-2.121.006-4.237c0-.446.011-.878.04-1.285.018-.25.017-.516.017-.779q0-4.106,0-8.212c0-1.135.029-2.3-.049-3.4L.1,19.915Q.085,18.461.072,17.007c-.006-.172-.013-.351-.018-.51-.027-.413-.038-.839-.04-1.286L.007,7.528Q0,5.542,0,3.557c0-.35,0-.708,0-1.058q0-.8,0-1.59l0-.859,1.614,0L4.092.04c.5,0,.97-.007,1.428-.016S6.44.009,6.944.007q4.211-.013,8.419,0c.32,0,.647.006.941.012.606.012,1.221.021,1.9.022l7.436.007,9.917,0c.673,0,1.309.006,1.919.018.462.009.956.01,1.451.011L48.341.1c.492,0,1,0,1.451.01.908.021,1.89.024,2.887.024l5.95.005c1,0,1.974.006,2.882.026.452.01.962.01,1.454.01L70.4.181c.674,0,1.294.009,1.916.019l.955.01,10.9.016h.5L97.559.22h1.289v.69l0,4.287c0,.547.015,1.053.047,1.557a8.62,8.62,0,0,1,0,1.045c-.026.415-.048.828-.049,1.288l-.02,4.293q-.034,4.024-.068,8.048c0,.806-.01,1.608-.015,2.413,0,.354-.007.716-.01,1.071-.009.444-.022.881-.058,1.273-.02.224-.037.463-.043.742q-.022,1.6-.043,3.208c0,.356-.007.714-.011,1.07,0,.263-.012.527-.034.758-.036.374-.053.8-.06,1.252l-.013.8c0,.271-.017.52-.034.757-.023.319-.034.663-.043,1.018-.007.262-.015.523-.023.784-.046.525-.052,1.184-.087,1.732-.031.486-.048.988-.062,1.514-.011.254-.022.51-.033.746-.019.32-.033.649-.041,1-.006.262-.012.527-.019.783s-.028.481-.05.651c-.014.107-.035.208-.052.2a1.407,1.407,0,0,1-.285-.157c-.038-.025-.074-.115-.109-.3-.051-.266-.1-.507-.157-.734a1.673,1.673,0,0,0-.084-.25,2.507,2.507,0,0,1-.078-.395c-.05-.326-.094-.721-.137-1.124-.072-.675-.171-1.083-.245-1.78-.014-.136-.033-.243-.051-.342s-.039-.168-.058-.249-.04-.135-.058-.238a6.152,6.152,0,0,1-.076-.874c-.014-.524-.007-1.056-.033-1.572s-.061-.951-.1-1.467c-.017-.252-.033-.481-.05-.731a5.513,5.513,0,0,0-.126-.954c-.031-.137-.066-.2-.1-.351a5.491,5.491,0,0,1-.087-.862c-.007-.345-.015-.7-.022-1.043-.005-.445-.022-.866-.056-1.268-.005-.078-.011-.16-.017-.243-.029-.954-.066-1.911-.02-2.812,0-.154.01-.318.015-.483V23.945c0-.35.007-.674.024-.99.007-.232.015-.484.022-.733,0-.514,0-1.034.035-1.5.016-.23.012-.5.015-.756l.009-.77c.044-.515.042-1.148.073-1.694.027-.483.042-.973.047-1.494.007-.254.015-.505.022-.752s.018-.479.028-.744c0-.781.006-1.56.009-2.347q0-.784,0-1.569c0-.168.01-.338.019-.494.02-.32.036-.647.037-1l.009-1.569c0-.18.007-.343.02-.5.031-.388.045-.806.046-1.252q0-.917.009-1.834c0-.257.011-.518.025-.76.019-.334.028-.67.027-1.023V.909l.986.526L93.5,1.426c-.493,0-.953-.009-1.4-.019l-2.254-.044c-.453-.009-.915-.016-1.42-.016H84.457l-1.438.014c-.473.006-.919.015-1.43.016l-5.453,0c-.855,0-1.612-.011-2.36-.027-.288-.006-.622-.01-.942-.012q-3.714-.015-7.422,0l-.949.011c-.765.015-1.554.022-2.4.022l-20.328.008-3.469,0c-1.346,0-2.592-.015-3.807-.04-1.178-.025-2.333-.055-3.726-.053-.311,0-.644-.005-.938-.011l-2.685-.055c-.3-.006-.621-.011-.94-.012L22.711,1.2c-.337,0-.653,0-.959-.009-.758-.016-1.564-.022-2.4-.022H9.93c-.51,0-.977.007-1.416.017-1.182.027-2.579.026-3.734.055H3.3l-1.678-.03L2.193.909c-.021.354-.043.7-.078,1.019a3.8,3.8,0,0,1-.083.555,9.307,9.307,0,0,0-.245,1.359c-.026.2-.053.41-.069.647-.058.723-.112,1.394-.169,2.1a7.182,7.182,0,0,0,.006,1.023c.054.718.121,1.375.209,1.93.039.245.078.5.116.741s.063.563.081.9c.017.247.032.474.049.724,0,.251,0,.523,0,.787-.035.474-.071.952-.107,1.422-.024.321-.038.656-.041,1.013,0,.176,0,.352-.007.527-.012.524-.086,1.541-.136,1.884-.029.188-.057.365-.087.556a9.835,9.835,0,0,0-.093,1.148,2.931,2.931,0,0,1-.1.787c-.043.153-.1.347-.142.5a2.378,2.378,0,0,0-.085.533,5.377,5.377,0,0,1-.168,1.1c-.011.039-.023.087-.034.143S1,22.426.99,22.5c-.049.626-.1,1.239-.094,1.99,0,.175,0,.353,0,.529,0,.535.007,1.059.049,1.534.014.158.018.326.021.506.012.784,0,1.606.075,2.3l.019.782c.007.259,0,.549.023.772.05.634.048,1.38.105,1.992.014.156.021.323.02.506V35c0,.359-.014.694-.035,1.025-.006.162-.012.337-.018.508,0,.794-.009,1.589-.013,2.537,0,.639,0,1.434,0,2.228,0,.263,0,.53.021.775.021.286.036.579.044.892l.005.223.409,0,.709,0,3.477-.008c.686,0,1.323-.01,1.809-.031.858-.035,1.914-.055,2.943-.077.3-.007.605-.011.945-.011l15.385-.01,2.979,0c.341,0,.666,0,.956.01,1.18.031,2.487.038,3.825.038l1.985,0c.515,0,.991.006,1.388.019l2.34.078c1.1.031,2.249.059,3.663.056l.99,0a6.487,6.487,0,0,1,1.182.054c0,.013-.118.027-.089.04a1.807,1.807,0,0,0,.5.055c.846.04,1.9.051,3.138.037.337,0,.589-.012.8-.023.406-.02.439-.029.137-.051l-.246-.017c-.308-.027-.172-.048.446-.07.693-.026,1.085-.026,1.72,0,.383.013.689.028,1,.043s.65.03,1.037.042c.522.016,1.1.03,1.8.031l3,0c.852,0,1.632.009,2.423.019.29,0,.692,0,.968,0,.92-.016,1.862-.028,2.861-.033.675,0,1.258-.016,1.85-.027.466-.009.957-.01,1.426,0,.768.013,1.564.018,2.415.016l11.468-.027c.687,0,1.264-.013,1.867-.023.79-.013,1.6-.012,2.409,0,.458.006.92.012,1.436.011l2.994,0c.675,0,1.324,0,1.941.011.475.006.97.006,1.466.005h2.486c.289,0,.631.008.771.015.167.009.081.02-.086.028M38.35.6a11.569,11.569,0,0,0,1.836.088h1.85l1.095,0A9.975,9.975,0,0,0,44.389.629c.052-.036,0-.071-.134-.106A6.033,6.033,0,0,0,43.5.47C42.986.45,42.4.439,41.728.438l-1.467,0c-.3,0-.67.01-.817.02-.34.024-.567.051-.835.077A.575.575,0,0,0,38.35.6m1.635.2a5.575,5.575,0,0,0-.63.012c-.119.013.029.026.263.034l.316,0c.087,0,.2-.009.255-.015.128-.014.049-.026-.2-.034M28.249.952c-.664,0-1.314.007-1.9.021s-1.269.014-1.9.022a6.038,6.038,0,0,0-.665.024c.05.014.405.021.739.026l.453.009c.588.014,1.194.024,1.873.025l3.468.006c.849,0,1.616.012,2.347.03.3.007.607.011.947.011l4.953.006,6.444,0,.959.009,1.419.018c1.466.009,2.958.01,4.358.037.436.009.967.008,1.458.009l2.967.009c.845,0,1.616.012,2.377.027C59,1.25,59.5,1.25,60,1.25c.516,0,1.017-.006,1.319-.024.811-.047,1.79-.084,3.091-.1.3,0,.55-.015.806-.024a3.469,3.469,0,0,0,.517-.036,5.272,5.272,0,0,0-.636-.027l-.909-.017c-.325-.008-.627-.01-.929,0-.762.016-1.578.021-2.409.02-.491,0-.976,0-1.433-.013-1-.024-2-.049-3.112-.063A5.123,5.123,0,0,0,55.349,1a.913.913,0,0,0,.249.041c.251.024.02.043-.478.041l-1.461-.009c-.477-.005-.93-.02-1.4-.02-1.545,0-2.878-.029-4.189-.059C47.027.966,45.953.951,44.766.951L43.2.949H40.8c-1,0-1.936.011-2.862.03C36.849,1,35.7,1,34.59.976L34.139.967,33.2.955q-2.467-.012-4.948,0M20.859.635c.07.005.264.009.412.01L24.6.656,27.517.65c.253,0,.478-.014.717-.021C28.051.617,27.808.608,27.51.6L26.621.588c-.736-.016-1.515-.022-2.33-.021L22.372.573c-.474,0-.9.014-1.253.029-.269.011-.385.024-.26.033" transform="translate(0 0)" fill="#f8e075"/></g></g><g transform="translate(581 -755.707)"><g transform="translate(-455 855.806)"><rect width="24.171" height="4.208" transform="translate(0.257 0.304)" fill="#ad144f"/><g clip-path="url(#b)"><path d="M.209.049l.222,0,1.8,0,.616,0c.279,0,.579,0,.883,0L5.4.035l.49,0,.375,0,.511,0,.238,0c.271,0,.57,0,.875,0l.494,0,.495,0h.9l.351,0h.092c.2,0,.451-.007.779-.007l.5,0h1.528l.464,0c.168,0,.387,0,.581,0h.507c.222,0,.418,0,.62,0,.288,0,.591,0,.882,0l.626,0h.627c.041,0,.018,0-.051,0L17.032.01l-.039,0h.485l2.595,0,.506,0h1.415l.373,0,.375,0h1.974V.486c0,.037,0,.075,0,.112s0,.094,0,.14q0,.225,0,.449a.8.8,0,0,1-.011.136.526.526,0,0,0,0,.083v.87a2.17,2.17,0,0,0,.013.36l0,.084q0,.154.007.308a.409.409,0,0,0,0,.054.88.88,0,0,1,.011.136l0,.814q0,.211,0,.421c0,.037,0,.075,0,.112q0,.084,0,.169V4.83H23.662l-.369,0-.368,0q-1.087,0-2.174,0h-.243l-.49,0H15.539l-.5,0H11.862c-.235,0-.488,0-.746,0H9.58c-.257,0-.509,0-.744,0h-2.3l-.495,0H5.8l-2.814,0H.017V4.1A1.015,1.015,0,0,0,0,3.93a.363.363,0,0,1,0-.111.848.848,0,0,0,.013-.136l.006-.455.019-.853c0-.085,0-.171,0-.256l0-.114a.787.787,0,0,1,.016-.135.448.448,0,0,0,.011-.079q.006-.17.012-.34c0-.038,0-.076,0-.113A.456.456,0,0,1,.1,1.258a.683.683,0,0,0,.016-.133l0-.085A.58.58,0,0,1,.129.961.981.981,0,0,0,.14.853C.142.825.144.8.146.77.158.714.16.645.169.586s.013-.1.016-.16C.189.4.192.372.195.347A1.065,1.065,0,0,0,.205.241L.211.158A.311.311,0,0,1,.224.089C.228.078.233.067.238.068A.686.686,0,0,1,.315.085c.01,0,.02.012.029.032S.372.171.386.2A.139.139,0,0,0,.409.222.142.142,0,0,1,.43.264C.443.3.455.34.466.383.486.455.512.5.532.572A.21.21,0,0,0,.546.609L.561.635A.2.2,0,0,1,.577.661.274.274,0,0,1,.6.753C.6.809.6.865.606.92l.025.156.013.078a.271.271,0,0,0,.034.1c.008.015.018.021.026.037a.254.254,0,0,1,.023.091l.006.111a.734.734,0,0,0,.015.135l0,.026a1.476,1.476,0,0,1,.005.3L.753,2v.11a.752.752,0,0,1-.006.1c0,.025,0,.051-.006.078a1.1,1.1,0,0,1-.009.159.553.553,0,0,0,0,.08l0,.082c-.012.054-.011.122-.019.179a1.358,1.358,0,0,0-.012.158l-.006.08L.68,3.112c0,.083,0,.165,0,.249q0,.083,0,.166a.347.347,0,0,1-.005.052.718.718,0,0,0-.01.106l0,.166A.272.272,0,0,1,.656,3.9a.669.669,0,0,0-.012.133l0,.194a.743.743,0,0,1-.007.08.736.736,0,0,0-.007.108c0,.105,0,.21,0,.315L.363,4.678H.577l.363,0,.582,0,.367,0H3.283l.369,0H5.06c.221,0,.416,0,.609,0h.243q.959,0,1.917,0h.245l.619,0h6.145c.347,0,.669,0,.983,0s.6.006.962.006h.242l.693.006H19.1l.62,0h2.432l.366,0c.305,0,.666,0,.964-.006h.382l.433,0-.154.034a.93.93,0,0,1,.021-.108.19.19,0,0,1,.022-.059.5.5,0,0,0,.066-.144.486.486,0,0,0,.019-.069l.045-.223a.3.3,0,0,0,0-.108,1.094,1.094,0,0,0-.056-.2l-.031-.079a.418.418,0,0,1-.022-.1L24.2,3.569c0-.027,0-.055,0-.083l.029-.151a.635.635,0,0,0,.011-.107c0-.019,0-.037,0-.056a.978.978,0,0,1,.036-.2l.023-.059a.436.436,0,0,0,.025-.122.143.143,0,0,1,.025-.083l.038-.053a.123.123,0,0,0,.023-.056.274.274,0,0,1,.045-.116.07.07,0,0,0,.009-.015.086.086,0,0,0,.007-.02.866.866,0,0,0,.026-.211c0-.019,0-.037,0-.056a.749.749,0,0,0-.013-.163.305.305,0,0,1-.006-.054,1.12,1.12,0,0,0-.02-.244l-.005-.083a.7.7,0,0,0-.006-.082c-.014-.067-.013-.146-.028-.211a.226.226,0,0,1-.005-.054V1.122a.694.694,0,0,1,.01-.109l.005-.054c0-.084,0-.168,0-.269,0-.068,0-.152,0-.236a.459.459,0,0,0-.006-.082.792.792,0,0,1-.013-.135l0-.143V.071h-.351c-.177,0-.342,0-.468,0-.222,0-.495.006-.761.009H17.595c-.3,0-.642,0-.988,0h-.512l-.358,0-.6-.009c-.283,0-.581-.007-.946-.006H13.93c-.181,0-.306,0-.305-.006s.031,0,.023,0A1.054,1.054,0,0,0,13.52.046c-.218,0-.491-.006-.811,0l-.208,0c-.1,0-.113,0-.035.006l.064,0c.08,0,.045.005-.115.008-.179,0-.28,0-.444,0l-.257,0-.268,0c-.135,0-.285,0-.464,0h-.774l-.626,0h-.25l-.739,0-.478,0H7.745l-.624,0-2.963,0-.482,0c-.2,0-.412,0-.622,0H.387l-.2,0c-.043,0-.021,0,.022,0M14.817,4.769c.023,0-.216-.009-.474-.01h-.761c-.148,0-.315,0-.325.006s0,.008.035.012.095,0,.194.006c.133,0,.284,0,.458,0h.379l.211,0,.216-.009a.315.315,0,0,0,.067-.007m-.422-.022c.056,0,.126,0,.163,0s-.007,0-.068,0h-.082l-.066,0c-.033,0-.013,0,.053,0m3.03-.017.492,0,.492,0c.088,0,.181,0,.172,0s-.1,0-.191,0h-.117l-.484,0h-.9c-.219,0-.417,0-.606,0H12.852l-.366,0c-.379,0-.764,0-1.126,0H10.218L9.6,4.7H9.227c-.133,0-.262,0-.341,0-.21.005-.462.009-.8.011l-.208,0c-.068,0-.13,0-.133,0s.076,0,.164,0l.235,0h.24c.2,0,.407,0,.622,0h.37l.8.007c.127,0,.254,0,.246,0a.52.52,0,0,0-.064,0c-.065,0-.005,0,.124,0h.377l.361,0c.4,0,.743,0,1.082.006.27,0,.547,0,.853,0h1.024c.258,0,.5,0,.739,0,.282,0,.579,0,.865,0h1.637m1.908.035H17.614l-.185,0,.187,0,.229,0c.19,0,.391,0,.6,0h.5l.323,0c.07,0,.1,0,.067,0" transform="translate(0 0)" fill="#ad144f"/></g></g><g transform="translate(-455 848.793)"><rect width="24.171" height="4.208" transform="translate(0.257 0.304)" fill="#ad144f"/><g clip-path="url(#b)"><path d="M.209.049l.222,0,1.8,0,.616,0c.279,0,.579,0,.883,0L5.4.035l.49,0,.375,0,.511,0,.238,0c.271,0,.57,0,.875,0l.494,0,.495,0h.9l.351,0h.092c.2,0,.451-.007.779-.007l.5,0h1.528l.464,0c.168,0,.387,0,.581,0h.507c.222,0,.418,0,.62,0,.288,0,.591,0,.882,0l.626,0h.627c.041,0,.018,0-.051,0L17.032.01l-.039,0h.485l2.595,0,.506,0h1.415l.373,0,.375,0h1.974V.486c0,.037,0,.075,0,.112s0,.094,0,.14q0,.225,0,.449a.8.8,0,0,1-.011.136.526.526,0,0,0,0,.083v.87a2.17,2.17,0,0,0,.013.36l0,.084q0,.154.007.308a.409.409,0,0,0,0,.054.88.88,0,0,1,.011.136l0,.814q0,.211,0,.421c0,.037,0,.075,0,.112q0,.084,0,.169V4.83H23.662l-.369,0-.368,0q-1.087,0-2.174,0h-.243l-.49,0H15.539l-.5,0H11.862c-.235,0-.488,0-.746,0H9.58c-.257,0-.509,0-.744,0h-2.3l-.495,0H5.8l-2.814,0H.017V4.1A1.015,1.015,0,0,0,0,3.93a.363.363,0,0,1,0-.111.848.848,0,0,0,.013-.136l.006-.455.019-.853c0-.085,0-.171,0-.256l0-.114a.787.787,0,0,1,.016-.135.448.448,0,0,0,.011-.079q.006-.17.012-.34c0-.038,0-.076,0-.113A.456.456,0,0,1,.1,1.258a.683.683,0,0,0,.016-.133l0-.085A.58.58,0,0,1,.129.961.981.981,0,0,0,.14.853C.142.825.144.8.146.77.158.714.16.645.169.586s.013-.1.016-.16C.189.4.192.372.195.347A1.065,1.065,0,0,0,.205.241L.211.158A.311.311,0,0,1,.224.089C.228.078.233.067.238.068A.686.686,0,0,1,.315.085c.01,0,.02.012.029.032S.372.171.386.2A.139.139,0,0,0,.409.222.142.142,0,0,1,.43.264C.443.3.455.34.466.383.486.455.512.5.532.572A.21.21,0,0,0,.546.609L.561.635A.2.2,0,0,1,.577.661.274.274,0,0,1,.6.753C.6.809.6.865.606.92l.025.156.013.078a.271.271,0,0,0,.034.1c.008.015.018.021.026.037a.254.254,0,0,1,.023.091l.006.111a.734.734,0,0,0,.015.135l0,.026a1.476,1.476,0,0,1,.005.3L.753,2v.11a.752.752,0,0,1-.006.1c0,.025,0,.051-.006.078a1.1,1.1,0,0,1-.009.159.553.553,0,0,0,0,.08l0,.082c-.012.054-.011.122-.019.179a1.358,1.358,0,0,0-.012.158l-.006.08L.68,3.112c0,.083,0,.165,0,.249q0,.083,0,.166a.347.347,0,0,1-.005.052.718.718,0,0,0-.01.106l0,.166A.272.272,0,0,1,.656,3.9a.669.669,0,0,0-.012.133l0,.194a.743.743,0,0,1-.007.08.736.736,0,0,0-.007.108c0,.105,0,.21,0,.315L.363,4.678H.577l.363,0,.582,0,.367,0H3.283l.369,0H5.06c.221,0,.416,0,.609,0h.243q.959,0,1.917,0h.245l.619,0h6.145c.347,0,.669,0,.983,0s.6.006.962.006h.242l.693.006H19.1l.62,0h2.432l.366,0c.305,0,.666,0,.964-.006h.382l.433,0-.154.034a.93.93,0,0,1,.021-.108.19.19,0,0,1,.022-.059.5.5,0,0,0,.066-.144.486.486,0,0,0,.019-.069l.045-.223a.3.3,0,0,0,0-.108,1.094,1.094,0,0,0-.056-.2l-.031-.079a.418.418,0,0,1-.022-.1L24.2,3.569c0-.027,0-.055,0-.083l.029-.151a.635.635,0,0,0,.011-.107c0-.019,0-.037,0-.056a.978.978,0,0,1,.036-.2l.023-.059a.436.436,0,0,0,.025-.122.143.143,0,0,1,.025-.083l.038-.053a.123.123,0,0,0,.023-.056.274.274,0,0,1,.045-.116.07.07,0,0,0,.009-.015.086.086,0,0,0,.007-.02.866.866,0,0,0,.026-.211c0-.019,0-.037,0-.056a.749.749,0,0,0-.013-.163.305.305,0,0,1-.006-.054,1.12,1.12,0,0,0-.02-.244l-.005-.083a.7.7,0,0,0-.006-.082c-.014-.067-.013-.146-.028-.211a.226.226,0,0,1-.005-.054V1.122a.694.694,0,0,1,.01-.109l.005-.054c0-.084,0-.168,0-.269,0-.068,0-.152,0-.236a.459.459,0,0,0-.006-.082.792.792,0,0,1-.013-.135l0-.143V.071h-.351c-.177,0-.342,0-.468,0-.222,0-.495.006-.761.009H17.595c-.3,0-.642,0-.988,0h-.512l-.358,0-.6-.009c-.283,0-.581-.007-.946-.006H13.93c-.181,0-.306,0-.305-.006s.031,0,.023,0A1.054,1.054,0,0,0,13.52.046c-.218,0-.491-.006-.811,0l-.208,0c-.1,0-.113,0-.035.006l.064,0c.08,0,.045.005-.115.008-.179,0-.28,0-.444,0l-.257,0-.268,0c-.135,0-.285,0-.464,0h-.774l-.626,0h-.25l-.739,0-.478,0H7.745l-.624,0-2.963,0-.482,0c-.2,0-.412,0-.622,0H.387l-.2,0c-.043,0-.021,0,.022,0M14.817,4.769c.023,0-.216-.009-.474-.01h-.761c-.148,0-.315,0-.325.006s0,.008.035.012.095,0,.194.006c.133,0,.284,0,.458,0h.379l.211,0,.216-.009a.315.315,0,0,0,.067-.007m-.422-.022c.056,0,.126,0,.163,0s-.007,0-.068,0h-.082l-.066,0c-.033,0-.013,0,.053,0m3.03-.017.492,0,.492,0c.088,0,.181,0,.172,0s-.1,0-.191,0h-.117l-.484,0h-.9c-.219,0-.417,0-.606,0H12.852l-.366,0c-.379,0-.764,0-1.126,0H10.218L9.6,4.7H9.227c-.133,0-.262,0-.341,0-.21.005-.462.009-.8.011l-.208,0c-.068,0-.13,0-.133,0s.076,0,.164,0l.235,0h.24c.2,0,.407,0,.622,0h.37l.8.007c.127,0,.254,0,.246,0a.52.52,0,0,0-.064,0c-.065,0-.005,0,.124,0h.377l.361,0c.4,0,.743,0,1.082.006.27,0,.547,0,.853,0h1.024c.258,0,.5,0,.739,0,.282,0,.579,0,.865,0h1.637m1.908.035H17.614l-.185,0,.187,0,.229,0c.19,0,.391,0,.6,0h.5l.323,0c.07,0,.1,0,.067,0" transform="translate(0 0)" fill="#ad144f"/></g></g><g transform="translate(-455 841.779)"><rect width="24.171" height="4.208" transform="translate(0.257 0.304)" fill="#ad144f"/><g clip-path="url(#b)"><path d="M.209.049l.222,0,1.8,0,.616,0c.279,0,.579,0,.883,0L5.4.035l.49,0,.375,0,.511,0,.238,0c.271,0,.57,0,.875,0l.494,0,.495,0h.9l.351,0h.092c.2,0,.451-.007.779-.007l.5,0h1.528l.464,0c.168,0,.387,0,.581,0h.507c.222,0,.418,0,.62,0,.288,0,.591,0,.882,0l.626,0h.627c.041,0,.018,0-.051,0L17.032.01l-.039,0h.485l2.595,0,.506,0h1.415l.373,0,.375,0h1.974V.486c0,.037,0,.075,0,.112s0,.094,0,.14q0,.225,0,.449a.8.8,0,0,1-.011.136.526.526,0,0,0,0,.083v.87a2.17,2.17,0,0,0,.013.36l0,.084q0,.154.007.308a.409.409,0,0,0,0,.054.88.88,0,0,1,.011.136l0,.814q0,.211,0,.421c0,.037,0,.075,0,.112q0,.084,0,.169V4.83H23.662l-.369,0-.368,0q-1.087,0-2.174,0h-.243l-.49,0H15.539l-.5,0H11.862c-.235,0-.488,0-.746,0H9.58c-.257,0-.509,0-.744,0h-2.3l-.495,0H5.8l-2.814,0H.017V4.1A1.015,1.015,0,0,0,0,3.93a.363.363,0,0,1,0-.111.848.848,0,0,0,.013-.136l.006-.455.019-.853c0-.085,0-.171,0-.256l0-.114a.787.787,0,0,1,.016-.135.448.448,0,0,0,.011-.079q.006-.17.012-.34c0-.038,0-.076,0-.113A.456.456,0,0,1,.1,1.258a.683.683,0,0,0,.016-.133l0-.085A.58.58,0,0,1,.129.961.981.981,0,0,0,.14.853C.142.825.144.8.146.77.158.714.16.645.169.586s.013-.1.016-.16C.189.4.192.372.195.347A1.065,1.065,0,0,0,.205.241L.211.158A.311.311,0,0,1,.224.089C.228.078.233.067.238.068A.686.686,0,0,1,.315.085c.01,0,.02.012.029.032S.372.171.386.2A.139.139,0,0,0,.409.222.142.142,0,0,1,.43.264C.443.3.455.34.466.383.486.455.512.5.532.572A.21.21,0,0,0,.546.609L.561.635A.2.2,0,0,1,.577.661.274.274,0,0,1,.6.753C.6.809.6.865.606.92l.025.156.013.078a.271.271,0,0,0,.034.1c.008.015.018.021.026.037a.254.254,0,0,1,.023.091l.006.111a.734.734,0,0,0,.015.135l0,.026a1.476,1.476,0,0,1,.005.3L.753,2v.11a.752.752,0,0,1-.006.1c0,.025,0,.051-.006.078a1.1,1.1,0,0,1-.009.159.553.553,0,0,0,0,.08l0,.082c-.012.054-.011.122-.019.179a1.358,1.358,0,0,0-.012.158l-.006.08L.68,3.112c0,.083,0,.165,0,.249q0,.083,0,.166a.347.347,0,0,1-.005.052.718.718,0,0,0-.01.106l0,.166A.272.272,0,0,1,.656,3.9a.669.669,0,0,0-.012.133l0,.194a.743.743,0,0,1-.007.08.736.736,0,0,0-.007.108c0,.105,0,.21,0,.315L.363,4.678H.577l.363,0,.582,0,.367,0H3.283l.369,0H5.06c.221,0,.416,0,.609,0h.243q.959,0,1.917,0h.245l.619,0h6.145c.347,0,.669,0,.983,0s.6.006.962.006h.242l.693.006H19.1l.62,0h2.432l.366,0c.305,0,.666,0,.964-.006h.382l.433,0-.154.034a.93.93,0,0,1,.021-.108.19.19,0,0,1,.022-.059.5.5,0,0,0,.066-.144.486.486,0,0,0,.019-.069l.045-.223a.3.3,0,0,0,0-.108,1.094,1.094,0,0,0-.056-.2l-.031-.079a.418.418,0,0,1-.022-.1L24.2,3.569c0-.027,0-.055,0-.083l.029-.151a.635.635,0,0,0,.011-.107c0-.019,0-.037,0-.056a.978.978,0,0,1,.036-.2l.023-.059a.436.436,0,0,0,.025-.122.143.143,0,0,1,.025-.083l.038-.053a.123.123,0,0,0,.023-.056.274.274,0,0,1,.045-.116.07.07,0,0,0,.009-.015.086.086,0,0,0,.007-.02.866.866,0,0,0,.026-.211c0-.019,0-.037,0-.056a.749.749,0,0,0-.013-.163.305.305,0,0,1-.006-.054,1.12,1.12,0,0,0-.02-.244l-.005-.083a.7.7,0,0,0-.006-.082c-.014-.067-.013-.146-.028-.211a.226.226,0,0,1-.005-.054V1.122a.694.694,0,0,1,.01-.109l.005-.054c0-.084,0-.168,0-.269,0-.068,0-.152,0-.236a.459.459,0,0,0-.006-.082.792.792,0,0,1-.013-.135l0-.143V.071h-.351c-.177,0-.342,0-.468,0-.222,0-.495.006-.761.009H17.595c-.3,0-.642,0-.988,0h-.512l-.358,0-.6-.009c-.283,0-.581-.007-.946-.006H13.93c-.181,0-.306,0-.305-.006s.031,0,.023,0A1.054,1.054,0,0,0,13.52.046c-.218,0-.491-.006-.811,0l-.208,0c-.1,0-.113,0-.035.006l.064,0c.08,0,.045.005-.115.008-.179,0-.28,0-.444,0l-.257,0-.268,0c-.135,0-.285,0-.464,0h-.774l-.626,0h-.25l-.739,0-.478,0H7.745l-.624,0-2.963,0-.482,0c-.2,0-.412,0-.622,0H.387l-.2,0c-.043,0-.021,0,.022,0M14.817,4.769c.023,0-.216-.009-.474-.01h-.761c-.148,0-.315,0-.325.006s0,.008.035.012.095,0,.194.006c.133,0,.284,0,.458,0h.379l.211,0,.216-.009a.315.315,0,0,0,.067-.007m-.422-.022c.056,0,.126,0,.163,0s-.007,0-.068,0h-.082l-.066,0c-.033,0-.013,0,.053,0m3.03-.017.492,0,.492,0c.088,0,.181,0,.172,0s-.1,0-.191,0h-.117l-.484,0h-.9c-.219,0-.417,0-.606,0H12.852l-.366,0c-.379,0-.764,0-1.126,0H10.218L9.6,4.7H9.227c-.133,0-.262,0-.341,0-.21.005-.462.009-.8.011l-.208,0c-.068,0-.13,0-.133,0s.076,0,.164,0l.235,0h.24c.2,0,.407,0,.622,0h.37l.8.007c.127,0,.254,0,.246,0a.52.52,0,0,0-.064,0c-.065,0-.005,0,.124,0h.377l.361,0c.4,0,.743,0,1.082.006.27,0,.547,0,.853,0h1.024c.258,0,.5,0,.739,0,.282,0,.579,0,.865,0h1.637m1.908.035H17.614l-.185,0,.187,0,.229,0c.19,0,.391,0,.6,0h.5l.323,0c.07,0,.1,0,.067,0" transform="translate(0 0)" fill="#ad144f"/></g></g></g><text transform="translate(160 101)" fill="#ad144f" font-size="15" font-family="Montserrat-Bold, Montserrat" font-weight="700"><tspan x="0" y="0">Menu</tspan></text></g></svg>