<svg id="Grupo_28" data-name="Grupo 28" xmlns="http://www.w3.org/2000/svg" xmlns:xlink="http://www.w3.org/1999/xlink" width="110.406" height="82.495" viewBox="0 0 110.406 82.495">
  <defs>
    <clipPath id="clip-path">
      <rect id="Retângulo_26" data-name="Retângulo 26" width="110.406" height="82.495" fill="none"/>
    </clipPath>
  </defs>
  <g id="Grupo_27" data-name="Grupo 27" transform="translate(0 0)" clip-path="url(#clip-path)">
    <path id="Caminho_102" data-name="Caminho 102" d="M29.151,52.116A22.235,22.235,0,1,0,51.386,74.351,22.261,22.261,0,0,0,29.151,52.116" transform="translate(-2.01 -15.144)" fill="#dc6c34"/>
    <path id="Caminho_103" data-name="Caminho 103" d="M28.9,51.11a2.49,2.49,0,0,1,.363,0,20.735,20.735,0,0,1,2.852.228c.345.052.66.09.983.124a8.1,8.1,0,0,1,1.382.3c.428.122.863.219,1.285.35l1.254.45c.262.094.509.175.75.249.179.07.365.16.55.245l.742.345.353.151a6.832,6.832,0,0,1,1.232.668c.237.147.456.289.647.428s.416.275.634.45l1.153.86c.162.124.331.23.466.323l.124.089a8.128,8.128,0,0,1,.983.792c.2.191.411.358.605.528l.276.284.976,1.07a2.766,2.766,0,0,1,.365.468c.134.2.294.432.4.612.131.226.332.511.5.765.144.2.287.439.428.677.182.3.358.563.539.832.13.192.258.391.379.593s.2.426.294.637c.123.3.252.592.4.906a7.761,7.761,0,0,1,.341.746,1.617,1.617,0,0,0,.074.162c.032.059.035.021.012-.087-.031-.131-.052-.277-.094-.4-.011-.037-.018-.078,0-.062a.944.944,0,0,1,.084.148c.072.189.147.38.22.568.222.653.516,1.285.675,1.958s.365,1.334.5,2.012c.043.276.089.54.141.8.024.131.05.265.073.391l.142.923.05.932c.011.212.011.4.011.6s0,.387.01.6a7.155,7.155,0,0,1-.019.827,24.008,24.008,0,0,1-.548,4.515l-.209.8-.262,1a24.188,24.188,0,0,1-1.237,3.071c-.153.314-.305.615-.46.892-.089.175-.2.349-.308.524a25.292,25.292,0,0,1-3.873,5.081c-.328.3-.66.6-.99.9s-.646.607-.983.87l-.491.375-.909.683-.966.6-.336.216a5.592,5.592,0,0,1-.863.516A21.648,21.648,0,0,1,36.84,95.9c-.475.16-.934.375-1.424.487l-1.459.375a12.66,12.66,0,0,1-1.529.28c-.515.065-1.023.187-1.542.211l-.828.043-1.139.053c-.38,0-.759-.026-1.139-.038-.211-.009-.406-.011-.6-.011s-.387,0-.6-.01c-.586-.053-1.168-.16-1.75-.243a11.3,11.3,0,0,1-1.725-.378l-.378-.113c-.243-.079-.489-.154-.763-.226-.492-.165-.975-.355-1.464-.533l-.73-.271-.7-.336a23.53,23.53,0,0,1-3.592-2.067c-.226-.169-.434-.334-.629-.5-.148-.125-.313-.25-.477-.375-.534-.382-.983-.867-1.476-1.3a15.186,15.186,0,0,1-1.363-1.414c-.138-.153-.28-.309-.4-.458-.248-.286-.47-.632-.724-.961l-.739-.995c-.236-.34-.435-.7-.653-1.053s-.427-.7-.59-1.045c-.071-.175-.164-.366-.253-.551l-.665-1.4-.53-1.452c-.093-.264-.179-.508-.245-.757-.03-.129-.06-.262-.089-.388-.167-.734-.413-1.454-.516-2.2s-.262-1.489-.292-2.24l-.011-.206a22.789,22.789,0,0,1,.914-8.541c.126-.385.241-.739.37-1.134a7.96,7.96,0,0,1,.277-.754c.114-.3.273-.576.426-.894l.719-1.481.856-1.407a22.069,22.069,0,0,1,3.99-4.679l.686-.621c.233-.2.487-.377.729-.568l.658-.493a4.829,4.829,0,0,1,.829-.531c.157-.08.321-.167.506-.277l1.054-.632,1.108-.538.738-.357a3.163,3.163,0,0,1,.553-.2c.287-.079.6-.183.925-.3l.577-.207a2.789,2.789,0,0,1,.567-.153c.246-.048.505-.109.77-.173l.588-.14a10.785,10.785,0,0,1,1.332-.2c.38-.036.763-.084,1.164-.138a2.985,2.985,0,0,1,.577-.04c.251,0,.506,0,.778-.012l.6-.019a4.621,4.621,0,0,1,.513.015c.087.007.172.022.175.037a1.14,1.14,0,0,1,0,.265c0,.035-.057.072-.181.111-.179.056-.338.112-.485.168a.7.7,0,0,0-.151.084,1.192,1.192,0,0,1-.261.083c-.221.055-.5.107-.775.157a10.434,10.434,0,0,0-1.2.351,2.065,2.065,0,0,0-.226.077c-.062.024-.1.048-.154.071a1.273,1.273,0,0,1-.145.071,3.443,3.443,0,0,1-.6.148c-.372.072-.751.18-1.107.281l-1,.321c-.172.055-.315.137-.481.2a3.26,3.26,0,0,0-.592.314c-.078.053-.1.092-.191.147a3.267,3.267,0,0,1-.547.26c-.233.085-.452.216-.68.318-.291.139-.559.277-.806.419l-.15.084c-.615.3-1.168.72-1.766,1.012L17,56.5l-.607.441c-.206.15-.4.285-.6.413l-.445.3c-.287.24-.564.5-.837.707-.134.106-.279.237-.42.36a5.532,5.532,0,0,0-.416.378c-.28.259-.592.6-.881.88a5.967,5.967,0,0,0-.737.811c-.114.141-.23.286-.345.431l-.346.424a12.094,12.094,0,0,0-.946,1.429c-.188.333-.421.641-.577.989l-.17.321c-.115.206-.229.416-.343.649a8.208,8.208,0,0,0-.47,1.045c-.045.123-.092.234-.138.338-.118.26-.233.545-.347.851A10.97,10.97,0,0,0,8,68.558l-.155.535a6.294,6.294,0,0,0-.2.724l-.189,1.237A9.46,9.46,0,0,0,7.3,72.292c-.012.191-.029.369-.05.543-.033.292-.066.582-.1.873a2.714,2.714,0,0,0-.028.554l.079,1.544a4.757,4.757,0,0,0,.055.558c.035.182.073.353.1.549A16.719,16.719,0,0,0,7.75,79c.084.321.143.611.2.9.026.12.052.243.078.36.111.47.311.914.468,1.37a9.514,9.514,0,0,0,.557,1.334l.173.328c.146.26.287.533.43.829a21.969,21.969,0,0,0,4.884,6.168l.5.455.538.407c.42.313.793.624,1.161.926.376.263.743.529,1.21.811.1.062.212.137.307.2.286.211.6.354.906.536l.326.173a10.134,10.134,0,0,0,1.239.563c.124.046.24.092.35.14.273.121.569.237.879.35.576.226,1.191.328,1.785.5a12.98,12.98,0,0,0,1.82.348c.2.031.382.05.554.064a10.281,10.281,0,0,0,1.466.054l.581.03c.229.026.474.057.714.072s.477,0,.694.013a3.184,3.184,0,0,1,.411.033,7.49,7.49,0,0,0,1.019.11,3.468,3.468,0,0,0,.481-.021l1.571-.128a3.039,3.039,0,0,0,.748-.171c.513-.169.978-.333,1.362-.493a3.721,3.721,0,0,0,.5-.239c.167-.089.379-.182.609-.28l.492-.214.546-.2c.329-.121.654-.262.979-.389.221-.089.45-.189.69-.3l.355-.165c.336-.2,1.007-.548,1.243-.652l.385-.168a3.507,3.507,0,0,0,.74-.44,2.551,2.551,0,0,1,.51-.3l.36-.153a2.065,2.065,0,0,0,.357-.2c.319-.2.526-.378.7-.458l.1-.057a1.414,1.414,0,0,0,.12-.085A10.91,10.91,0,0,0,45,89.964l.273-.3c.275-.3.541-.6.763-.887.074-.1.157-.192.248-.3.355-.48.737-.979,1.014-1.431a5.589,5.589,0,0,0,.334-.491c.1-.172.215-.359.293-.51.219-.431.524-.909.72-1.329.043-.111.094-.227.154-.351l.523-1.085c.115-.245.248-.465.336-.7l.144-.357c.2-.569.453-1.119.638-1.815l.422-1.638a3.136,3.136,0,0,0,.093-.58c.027-.305.064-.619.114-.956a9.892,9.892,0,0,0,.151-1.393,6.407,6.407,0,0,0,0-.731c-.031-.348-.016-.773-.048-1.187-.013-.123-.026-.243-.033-.379l-.081-1.542c-.032-.514-.145-1.019-.213-1.527a24.309,24.309,0,0,0-.684-3.006l-.4-1.124c-.047-.128-.089-.251-.12-.363-.065-.226-.131-.467-.226-.706-.111-.238-.221-.474-.334-.716l-.348-.718c-.092-.185-.162-.363-.223-.509-.13-.279-.263-.564-.392-.839a8.292,8.292,0,0,0-.717-1.28l-.234-.323c-.165-.229-.256-.4-.22-.414.016-.007.061.023.07.006s.011-.071-.052-.192a4.382,4.382,0,0,0-.741-1.027,2.735,2.735,0,0,0-.245-.229c-.136-.11-.155-.114-.1-.009l.047.085c.05.111-.011.082-.206-.089a2.628,2.628,0,0,1-.471-.515c-.089-.123-.153-.226-.218-.329a2.025,2.025,0,0,0-.243-.33,6.919,6.919,0,0,0-.5-.516l-.895-.826-.757-.618c-.089-.074-.221-.174-.315-.237-.323-.2-.622-.455-.98-.654-.237-.141-.453-.253-.671-.368a4.546,4.546,0,0,1-.5-.3,4.726,4.726,0,0,0-.836-.5,23.1,23.1,0,0,0-4.341-1.715c-.271-.07-.509-.115-.755-.165-.323-.061-.637-.16-.95-.238-.178-.038-.358-.078-.565-.111l-1.2-.192a7.617,7.617,0,0,0-.775-.1c-.187-.021-.388-.034-.591-.045-.339-.019-.682-.034-1.009-.062a1.974,1.974,0,0,1-.3-.045c-.062-.018-.017-.036.056-.045M14.957,91.887c.055-.011-.215-.275-.523-.537l-.553-.5-.331-.3a1.434,1.434,0,0,0-.425-.293c-.046.018-.062.062-.05.131a.889.889,0,0,0,.183.253,6.769,6.769,0,0,0,.511.519l.448.4a1.354,1.354,0,0,0,.276.191c.13.061.226.09.333.131a.158.158,0,0,0,.131,0M14.58,91.3a.7.7,0,0,0,.211.142c.048.016.01-.032-.059-.1l-.1-.079c-.031-.018-.068-.045-.087-.054-.05-.021-.035.011.034.087M18.6,93.727c.24.112.477.22.7.306s.463.2.694.305c.124.055.257.107.25.086a1.377,1.377,0,0,0-.252-.153l-.157-.088c-.2-.116-.414-.233-.656-.35a11.039,11.039,0,0,1-1.213-.639c-.287-.176-.539-.345-.775-.514-.1-.069-.2-.136-.313-.207-.563-.329-1.052-.768-1.583-1.146a8.621,8.621,0,0,1-.973-.817l-.94-.857a2.448,2.448,0,0,1-.255-.281l-.36-.428a11.571,11.571,0,0,1-1.088-1.326c-.094-.143-.22-.311-.334-.466-.226-.316-.465-.624-.685-.944-.172-.284-.318-.551-.458-.816-.086-.16-.187-.328-.288-.494a3.513,3.513,0,0,0-.3-.428,8.724,8.724,0,0,1-.642-1.039c-.056-.1-.111-.187-.165-.274s-.111-.17-.128-.167a.7.7,0,0,0,.079.24l.138.335a2.737,2.737,0,0,0,.157.334c.157.26.277.562.455.841.1.167.2.332.282.494.181.355.363.712.577,1.1.09.176.24.31.253.287s0-.055-.018-.109c-.034-.1.039-.036.155.124l.338.47c.108.155.2.31.312.459.348.505.694.905,1.017,1.317a9.381,9.381,0,0,0,.865.992l.462.424.706.642a6.372,6.372,0,0,0,.915.68,11.268,11.268,0,0,1,1.067.8l.148.1.312.207a17.341,17.341,0,0,0,1.7,1m2.567,1.539a1.344,1.344,0,0,0-.153-.07,13.06,13.06,0,0,1-1.251-.507L18.7,94.185c-.094-.044-.183-.07-.275-.1a1.973,1.973,0,0,0,.25.156l.317.175c.26.148.543.293.843.434a6.459,6.459,0,0,0,.729.28,4.775,4.775,0,0,0,.492.142c.107.025.157.027.113,0" transform="translate(-1.673 -14.85)" fill="#dc6c34"/>
    <path id="Caminho_104" data-name="Caminho 104" d="M41.9,80.931a6.17,6.17,0,1,0-6.17,6.17,6.169,6.169,0,0,0,6.17-6.17" transform="translate(-8.591 -21.725)" fill="#f8e075"/>
    <path id="Caminho_105" data-name="Caminho 105" d="M41.02,80.961a.178.178,0,0,1-.026-.087,5.21,5.21,0,0,0-.072-.673,1.134,1.134,0,0,0-.061-.226,2.518,2.518,0,0,1-.1-.316,2.457,2.457,0,0,0-.188-.59.931.931,0,0,0-.086-.163.889.889,0,0,1-.075-.119l-.092-.165a.377.377,0,0,0-.054-.072,1.574,1.574,0,0,1-.18-.266.564.564,0,0,1-.066-.167.376.376,0,0,0-.074-.166l-.2-.265a.3.3,0,0,0-.1-.087l-.037-.014a.491.491,0,0,1-.249-.162.625.625,0,0,0-.136-.118.431.431,0,0,1-.075-.05l-.241-.216a1.24,1.24,0,0,1-.089-.1.859.859,0,0,1-.1-.136,1.109,1.109,0,0,0-.132-.173.45.45,0,0,0-.143-.117.962.962,0,0,0-.209-.094,1.163,1.163,0,0,1-.28-.157.987.987,0,0,0-.192-.126,1.126,1.126,0,0,0-.173-.074.084.084,0,0,0-.043,0c-.018,0-.017.022,0,.045a.969.969,0,0,1,.062.087c0,.01.009.023,0,.026a.07.07,0,0,1-.039,0c-.044-.011-.089-.021-.131-.037a5.655,5.655,0,0,0-.88-.255.82.82,0,0,0-.181-.008.457.457,0,0,1-.088,0,2.323,2.323,0,0,0-.409-.038.49.49,0,0,1-.131-.026.649.649,0,0,0-.132-.026,1.069,1.069,0,0,0-.184,0,5.111,5.111,0,0,0-1,.125l-.179.043-.223.053c-.226.1-.466.155-.683.271a.908.908,0,0,1-.214.072.346.346,0,0,0-.124.057,4.959,4.959,0,0,0-1.144.868,1.8,1.8,0,0,0-.367.468l-.078.114a2.922,2.922,0,0,0-.267.429.434.434,0,0,0-.036.082c-.021.07-.057.133-.086.206a5.676,5.676,0,0,0-.449,1.237,4.092,4.092,0,0,0-.1.674,1.553,1.553,0,0,1-.009.182,1.94,1.94,0,0,0,0,.5.619.619,0,0,0,.026.13.735.735,0,0,1,.026.128c.05.251.071.506.134.753a.36.36,0,0,1,.007.087.712.712,0,0,0,.017.175,5.407,5.407,0,0,0,.24.638,4.993,4.993,0,0,0,.447.793.683.683,0,0,1,.088.154.636.636,0,0,0,.07.117,5.126,5.126,0,0,0,.59.645.509.509,0,0,1,.092.1.669.669,0,0,0,.193.191,3.694,3.694,0,0,0,.458.319,1.15,1.15,0,0,1,.216.167.528.528,0,0,0,.118.07,4.062,4.062,0,0,0,.642.286,1.176,1.176,0,0,1,.163.084.5.5,0,0,0,.086.033,6.529,6.529,0,0,0,1.019.209h.047a5.272,5.272,0,0,0,1.971-.224,1.007,1.007,0,0,0,.247-.124.4.4,0,0,1,.173-.062.6.6,0,0,0,.219-.064,4.722,4.722,0,0,0,.666-.361,5.593,5.593,0,0,0,1.084-.915,1.765,1.765,0,0,0,.268-.331,1.839,1.839,0,0,1,.113-.153,2.264,2.264,0,0,1,.156-.17.467.467,0,0,0,.091-.1,2.428,2.428,0,0,0,.278-.5l.083-.172a.755.755,0,0,1,.069-.12.728.728,0,0,0,.111-.2l.055-.135c.019-.045.038-.087.059-.127a.919.919,0,0,0,.07-.176c.016-.043.032-.091.048-.137a1.447,1.447,0,0,0,.118-.307,1.88,1.88,0,0,0,.082-.277c.009-.034.021-.08.038-.138a1.062,1.062,0,0,0,.036-.19c.006-.046.011-.091.019-.149a.359.359,0,0,1,.047-.127c.013-.021.033-.043.048-.043h.265a.136.136,0,0,1,.1.05c.045.049.09.1.137.138a.347.347,0,0,0,.074.047.208.208,0,0,1,.067.079,1.492,1.492,0,0,1,.1.238,2.611,2.611,0,0,1,.157.393.3.3,0,0,0,.031.078.4.4,0,0,0,.039.058.3.3,0,0,1,.04.056.407.407,0,0,1,.025.205c-.016.122-.065.24-.077.36s-.009.224-.025.345c-.006.043-.018.121-.025.171a.448.448,0,0,0,.009.236c.011.037.032.058.041.1a.427.427,0,0,1-.018.214,1.728,1.728,0,0,1-.1.236,1.435,1.435,0,0,0-.111.292.274.274,0,0,1-.017.058,2.2,2.2,0,0,1-.368.6,1.037,1.037,0,0,0-.077.094l-.16.2a1.535,1.535,0,0,1-.169.181,1.5,1.5,0,0,0-.128.131,2.045,2.045,0,0,1-.275.25,1.174,1.174,0,0,0-.136.126c-.047.043-.088.089-.138.128-.118.062-.233.162-.347.234l-.3.2c-.051.035-.1.065-.155.094s-.1.053-.156.089c-.15.111-.317.192-.475.292a3.075,3.075,0,0,1-.323.182.7.7,0,0,1-.112.038,1.645,1.645,0,0,0-.226.079,2.958,2.958,0,0,1-.341.14.529.529,0,0,1-.115.028,1.4,1.4,0,0,0-.287.07,3.05,3.05,0,0,1-.412.113,1.409,1.409,0,0,1-.176.027,2.359,2.359,0,0,0-.234.038,5.842,5.842,0,0,1-.782.094.907.907,0,0,1-.172-.015l-.275-.04-.171-.018-.477-.023c-.057,0-.117.006-.175,0a1.2,1.2,0,0,1-.173-.006,5.889,5.889,0,0,1-.651-.113,1.219,1.219,0,0,1-.269-.1.678.678,0,0,0-.106-.043c-.279-.1-.564-.2-.839-.309a1.051,1.051,0,0,0-.109-.038,1.438,1.438,0,0,1-.273-.1A6.671,6.671,0,0,1,30.5,85.44a2.708,2.708,0,0,1-.265-.326,1.992,1.992,0,0,1-.233-.4,1.956,1.956,0,0,0-.178-.416.513.513,0,0,1-.046-.1c-.038-.1-.055-.211-.084-.314a.665.665,0,0,0-.035-.106A3.409,3.409,0,0,1,29.5,83.4a.541.541,0,0,1-.028-.109,1.306,1.306,0,0,0-.072-.273,6.215,6.215,0,0,1-.25-1.07.756.756,0,0,0-.045-.16c-.06-.133-.059-.3-.1-.432L29,81.179a1.821,1.821,0,0,1,.09-.42.336.336,0,0,1,.06-.118.979.979,0,0,0,.175-.278c.018-.041.046-.082.064-.13.052-.126.119-.282.175-.416a.672.672,0,0,0,.041-.206,1.931,1.931,0,0,0-.032-.424,1.212,1.212,0,0,1-.025-.173.707.707,0,0,1,.016-.2c.009-.053.009-.1.023-.158s.038-.106.057-.16l.194-.248a1.014,1.014,0,0,0,.118-.183l.054-.1a1.558,1.558,0,0,1,.283-.3L30.4,77.6a1.165,1.165,0,0,0,.185-.16.241.241,0,0,1,.147-.092l.135-.025a.208.208,0,0,0,.106-.051.385.385,0,0,1,.226-.093.216.216,0,0,0,.035-.006.127.127,0,0,0,.038-.016,1.4,1.4,0,0,0,.306-.238l.076-.067a.992.992,0,0,0,.2-.222.452.452,0,0,1,.063-.077,1.54,1.54,0,0,0,.328-.306,1.51,1.51,0,0,1,.117-.1,1,1,0,0,0,.121-.091c.089-.092.214-.169.3-.262a.343.343,0,0,1,.084-.055l.284-.137a.6.6,0,0,1,.2-.061.6.6,0,0,0,.1-.023c.15-.047.294-.112.475-.155l.426-.11c.049-.016.1-.022.148-.041a1.1,1.1,0,0,1,.243-.07,2.755,2.755,0,0,1,.364-.051.5.5,0,0,0,.191-.047,1.382,1.382,0,0,1,.315-.109.442.442,0,0,1,.1-.008,6.331,6.331,0,0,1,1.652.25c.1.033.2.077.3.115a.358.358,0,0,1,.093.048,2.952,2.952,0,0,0,.358.207l.194.09a.365.365,0,0,1,.121.088l.157.214a1.293,1.293,0,0,0,.28.266l.078.067c.056.047.077.1.052.128-.011.013-.032.02-.041.035a.1.1,0,0,0-.008.087.535.535,0,0,0,.209.233.2.2,0,0,0,.079.033c.048.009.059,0,.057-.039l0-.033c0-.048.031-.057.1-.035a.179.179,0,0,1,.133.117.551.551,0,0,1,.031.11c.008.035.019.071.031.112a.484.484,0,0,0,.087.162l.193.228a1.05,1.05,0,0,1,.118.21.283.283,0,0,0,.057.077,1.092,1.092,0,0,1,.2.212.84.84,0,0,0,.125.143.3.3,0,0,1,.074.123,1.834,1.834,0,0,0,.089.223,5.575,5.575,0,0,1,.422,1.063.853.853,0,0,0,.075.176.474.474,0,0,1,.052.236.655.655,0,0,0,0,.145l.037.3a.463.463,0,0,1-.007.193.654.654,0,0,0-.008.145,1.9,1.9,0,0,1,0,.246.13.13,0,0,1-.026.072c-.015.016-.035,0-.048-.013M31,84.531c-.035.014-.03.134.034.22l.132.145c.008.009.045.047.081.084s.115.069.139.05a.292.292,0,0,0,.084-.1.134.134,0,0,0,0-.1.434.434,0,0,0-.092-.159,1.21,1.21,0,0,0-.1-.106.224.224,0,0,0-.071-.049.839.839,0,0,0-.125-.009.145.145,0,0,0-.077.026m-.084.289a.062.062,0,0,0-.052-.045c-.021,0-.024.023-.016.05a.173.173,0,0,0,.018.03.131.131,0,0,0,.033.009c.023,0,.028-.017.016-.043m-.866-.974a.988.988,0,0,0-.116-.181,1.83,1.83,0,0,1-.117-.182c-.021-.033-.049-.065-.058-.056s0,.052.006.088c0,.013.009.032.013.051a.931.931,0,0,0,.065.206,3.142,3.142,0,0,0,.177.356,1.189,1.189,0,0,1,.109.25.452.452,0,0,0,.045.1c.094.166.218.313.328.47.143.2.326.375.487.565l.073.085c.036.042.068.087.106.126l.355.367a1.14,1.14,0,0,0,.131.111c.091.073.18.148.275.216a1.614,1.614,0,0,1,.221.173.921.921,0,0,0,.142.1.335.335,0,0,0,.148.055,1.019,1.019,0,0,1,.382.044.43.43,0,0,0,.1.014c.033,0,.063,0,.072-.015s-.021-.038-.052-.061l-.084-.063a.228.228,0,0,0-.092-.05.857.857,0,0,1-.256-.1.629.629,0,0,1-.131-.1,3.329,3.329,0,0,0-.259-.248c-.043-.033-.1-.052-.112-.026A.092.092,0,0,0,32,86.2c.006.043-.028.045-.072.009L31.8,86.1a1.585,1.585,0,0,0-.113-.116,1.287,1.287,0,0,1-.316-.361,2.007,2.007,0,0,0-.238-.287c-.06-.068-.111-.125-.116-.132-.106-.116-.143-.157-.18-.2-.081-.079-.146-.16-.228-.228a.9.9,0,0,1-.222-.3c-.006-.017-.013-.035-.017-.05-.014-.033-.026-.066-.043-.1-.083-.165-.191-.316-.274-.481m.037-.89a.084.084,0,0,0,0,.045,3.1,3.1,0,0,0,.114.332c.048.092.092.177.14.272a.3.3,0,0,0,.055.057.177.177,0,0,0,0-.083l-.023-.092a.831.831,0,0,0-.082-.228c-.033-.057-.05-.123-.079-.182a.351.351,0,0,0-.078-.109c-.023-.023-.041-.028-.047-.013" transform="translate(-8.426 -21.774)" fill="#dc6c34"/>
    <path id="Caminho_106" data-name="Caminho 106" d="M124.819,69.038a16.155,16.155,0,1,0,16.155,16.155,16.173,16.173,0,0,0-16.155-16.155" transform="translate(-31.577 -20.062)" fill="#dc6c34"/>
    <path id="Caminho_107" data-name="Caminho 107" d="M124.542,68.029a1.407,1.407,0,0,1,.267-.008,15.145,15.145,0,0,1,2.1.165c.254.037.486.063.725.084a5.243,5.243,0,0,1,1.018.211c.315.092.635.163.946.26l.924.329c.194.069.375.126.555.177.133.05.27.116.406.177l.548.251c.089.04.182.079.262.109a4.4,4.4,0,0,1,.912.485,5.57,5.57,0,0,1,.473.323c.135.109.3.209.462.338l.851.633c.119.091.245.167.348.233l.094.061a4.5,4.5,0,0,1,.738.57c.15.14.3.262.449.385.067.064.14.135.206.206l.721.79a1.876,1.876,0,0,1,.266.349c.1.153.213.323.284.459.09.172.236.383.354.574.1.153.208.326.311.5.133.222.267.414.4.609a3.613,3.613,0,0,1,.5.907c.088.221.179.441.29.671.082.184.188.358.251.548a.955.955,0,0,0,.057.119c.026.043.033.013.02-.068-.018-.1-.028-.209-.055-.3-.006-.028-.009-.059,0-.049a.532.532,0,0,1,.066.108c.055.141.111.281.165.418a18.02,18.02,0,0,1,.868,2.932c.032.2.067.4.11.587.02.1.039.2.057.289l.1.682.038.687c.008.157.006.3,0,.441s0,.287,0,.441a5.506,5.506,0,0,1-.016.612,17.771,17.771,0,0,1-.4,3.334l-.155.592-.2.739a17.55,17.55,0,0,1-.913,2.268c-.113.231-.228.453-.347.655-.068.128-.151.256-.23.386a18.852,18.852,0,0,1-2.857,3.748c-.491.431-.97.9-1.45,1.312l-.362.278-.67.506-.712.445-.246.164a3.889,3.889,0,0,1-.635.387,15.728,15.728,0,0,1-2.033.9,15.3,15.3,0,0,1-2.131.637,9.363,9.363,0,0,1-1.13.206c-.38.048-.756.138-1.139.157l-.612.031-.843.038c-.28,0-.56-.018-.841-.026-.155-.006-.3-.006-.443,0s-.286,0-.443,0a15.084,15.084,0,0,1-2.569-.459c-.1-.026-.192-.057-.279-.087-.178-.062-.36-.12-.562-.174-.364-.121-.721-.262-1.081-.394l-.539-.2-.519-.25a17.413,17.413,0,0,1-2.655-1.528c-.166-.125-.319-.248-.461-.373-.108-.094-.228-.187-.35-.28a16.647,16.647,0,0,1-2.093-2c-.1-.113-.206-.228-.292-.34-.178-.216-.341-.472-.529-.714l-.544-.735c-.173-.25-.321-.518-.482-.778a7.867,7.867,0,0,1-.427-.775c-.05-.131-.118-.271-.183-.408l-.489-1.029-.39-1.071c-.067-.2-.128-.375-.175-.56-.021-.1-.043-.2-.062-.287a17.043,17.043,0,0,1-.59-3.273l-.007-.151a16.755,16.755,0,0,1,.67-6.291c.092-.294.189-.563.264-.839a4.168,4.168,0,0,1,.2-.555c.089-.218.209-.422.321-.656l.53-1.091.631-1.036a16.136,16.136,0,0,1,2.941-3.446,11.218,11.218,0,0,1,1.04-.877l.485-.363a3.221,3.221,0,0,1,.616-.384c.117-.056.24-.118.375-.2l.778-.463.815-.4.543-.263a2.013,2.013,0,0,1,.409-.144,6.84,6.84,0,0,0,.684-.213l.426-.152a1.887,1.887,0,0,1,.418-.107c.182-.032.372-.074.568-.121l.433-.1a8.561,8.561,0,0,1,.98-.134c.28-.021.562-.053.856-.091a2,2,0,0,1,.424-.023c.184,0,.372,0,.57,0l.441-.011a2.467,2.467,0,0,1,.376.022c.064.009.126.023.127.039a1.434,1.434,0,0,1,0,.265c0,.035-.041.071-.131.109-.131.053-.245.108-.351.162a.465.465,0,0,0-.109.082.669.669,0,0,1-.187.079c-.16.052-.358.1-.558.146a7.834,7.834,0,0,0-.857.309,1.229,1.229,0,0,0-.161.067.975.975,0,0,0-.109.065.793.793,0,0,1-.1.065,1.8,1.8,0,0,1-.428.121c-.267.053-.538.127-.793.205l-.709.245c-.122.041-.223.105-.341.155a1.67,1.67,0,0,0-.415.249c-.053.043-.069.078-.129.123a1.645,1.645,0,0,1-.384.2c-.165.062-.321.156-.484.228a5.863,5.863,0,0,0-.572.306l-.106.062c-.437.218-.827.519-1.261.717l-.225.117-.434.312c-.146.106-.288.2-.43.287-.1.064-.214.136-.321.211-.206.17-.4.353-.6.5-.1.072-.2.167-.3.254a3.706,3.706,0,0,0-.3.268c-.207.178-.431.42-.643.617a3.83,3.83,0,0,0-.536.572l-.251.305-.253.3a8.3,8.3,0,0,0-.681,1.022c-.135.238-.3.459-.415.708-.039.079-.084.157-.126.228-.086.145-.17.3-.253.462a5.824,5.824,0,0,0-.339.749c-.033.088-.067.167-.1.241-.091.183-.175.387-.258.607a8.153,8.153,0,0,0-.274.923c-.035.13-.077.262-.116.383a3.723,3.723,0,0,0-.146.519c-.072.594-.214,1.18-.25,1.777-.009.138-.024.265-.043.39-.029.214-.057.419-.086.629a1.726,1.726,0,0,0-.026.4l.057,1.112a3.235,3.235,0,0,0,.044.4c.028.131.058.253.08.394a12.031,12.031,0,0,0,.279,1.5,6.275,6.275,0,0,1,.133.648c.013.08.031.172.052.26a10.367,10.367,0,0,0,.336.988,6.687,6.687,0,0,0,.4.958l.128.235c.11.185.214.381.316.592a15.826,15.826,0,0,0,3.515,4.435l.358.328.387.293c.3.226.568.453.827.677a10.091,10.091,0,0,0,.863.6c.074.045.152.1.219.15.2.157.428.267.645.4.072.043.153.088.234.128a6.985,6.985,0,0,0,.892.409c.09.034.173.067.252.1.2.092.408.178.632.26.416.163.861.236,1.29.36a9.41,9.41,0,0,0,1.315.251,3.962,3.962,0,0,0,.4.041,7.361,7.361,0,0,0,1.06.02l.419.021a8.353,8.353,0,0,0,1.017.086,1.607,1.607,0,0,1,.3.038,4.191,4.191,0,0,0,.741.123,2.243,2.243,0,0,0,.351,0l1.146-.064a1.849,1.849,0,0,0,.543-.125,10.3,10.3,0,0,0,.979-.394,2.693,2.693,0,0,0,.358-.193,4.165,4.165,0,0,1,.436-.217l.353-.163c.133-.049.263-.1.394-.146l.717-.264c.162-.06.329-.131.5-.212l.258-.119a10.02,10.02,0,0,1,.914-.451l.289-.109a2.228,2.228,0,0,0,.547-.305,1.33,1.33,0,0,1,.381-.207l.277-.092a1.147,1.147,0,0,0,.27-.133,4.689,4.689,0,0,1,.532-.311.541.541,0,0,0,.073-.037.744.744,0,0,0,.091-.059,6.451,6.451,0,0,0,.856-.712l.2-.218a8.036,8.036,0,0,0,.553-.656c.052-.071.113-.142.179-.218a12.008,12.008,0,0,0,.731-1.055,3.955,3.955,0,0,0,.241-.361c.071-.126.156-.262.211-.375.153-.319.375-.67.509-.981a2.531,2.531,0,0,1,.111-.258l.381-.792c.084-.179.183-.338.251-.508l.109-.26c.144-.415.331-.817.467-1.324.089-.343.2-.77.307-1.2a2.007,2.007,0,0,0,.065-.425c.016-.223.038-.453.075-.7a7.307,7.307,0,0,0,.108-1.017,3.462,3.462,0,0,0-.011-.534c-.035-.254-.03-.565-.061-.865-.012-.089-.023-.177-.028-.275a17.129,17.129,0,0,0-.714-4.422l-.291-.819a2.609,2.609,0,0,1-.084-.265,4.242,4.242,0,0,0-.4-1.041l-.255-.523a3.758,3.758,0,0,1-.156-.373l-.262-.627a5.011,5.011,0,0,0-.507-.945l-.17-.238c-.12-.168-.18-.3-.145-.314.016-.008.052.012.062,0s.019-.061-.023-.153a2.641,2.641,0,0,0-.532-.763,1.513,1.513,0,0,0-.187-.162c-.1-.076-.121-.077-.087.006l.029.067c.03.087-.021.071-.17-.049a1.39,1.39,0,0,1-.345-.376c-.061-.094-.1-.172-.148-.252a1.3,1.3,0,0,0-.167-.253,3.827,3.827,0,0,0-.358-.387l-.654-.608-.55-.46a2.468,2.468,0,0,0-.231-.175c-.24-.145-.462-.326-.725-.471-.174-.1-.334-.182-.5-.262a2.519,2.519,0,0,1-.363-.223,3.1,3.1,0,0,0-.609-.373,16.952,16.952,0,0,0-3.185-1.257c-.2-.052-.375-.081-.556-.114-.238-.04-.468-.115-.7-.177-.13-.031-.261-.062-.414-.088l-.883-.143c-.2-.038-.388-.062-.568-.082-.137-.019-.284-.03-.433-.038-.249-.013-.5-.024-.741-.048a1.125,1.125,0,0,1-.222-.041c-.044-.018-.012-.036.042-.046M114.348,97.935c.046-.016-.14-.223-.364-.415l-.4-.367-.242-.214c-.126-.113-.293-.215-.323-.2a.12.12,0,0,0-.061.121.515.515,0,0,0,.122.2,3.541,3.541,0,0,0,.368.387l.329.294a.8.8,0,0,0,.206.134,2.243,2.243,0,0,0,.259.077.133.133,0,0,0,.109-.014m-.235-.478a.384.384,0,0,0,.156.1c.038.009.013-.031-.035-.079l-.072-.058a.53.53,0,0,0-.067-.035c-.039-.012-.031.014.018.072m2.952,1.72c.175.081.347.157.508.216s.338.143.507.215c.09.038.188.073.184.055a.627.627,0,0,0-.179-.12c-.034-.021-.074-.044-.112-.067-.145-.089-.3-.176-.472-.261a8.218,8.218,0,0,1-.878-.464c-.207-.128-.388-.255-.555-.382-.068-.051-.141-.1-.224-.152-.406-.239-.76-.558-1.143-.831-.5-.355-.919-.812-1.383-1.212a1.66,1.66,0,0,1-.183-.2c-.084-.1-.175-.216-.256-.315a7.557,7.557,0,0,1-.776-.966c-.067-.1-.157-.226-.239-.339l-.492-.682c-.123-.206-.226-.4-.323-.593-.059-.118-.132-.238-.205-.358a1.775,1.775,0,0,0-.219-.305,4.615,4.615,0,0,1-.5-.734c-.043-.074-.086-.134-.127-.2s-.087-.119-.1-.116.014.087.05.178.062.16.094.245a1.358,1.358,0,0,0,.113.243c.118.187.207.4.335.607a4.081,4.081,0,0,1,.2.36c.123.261.248.524.4.809.064.128.177.222.193.2s.009-.045,0-.086c-.018-.075.04-.035.123.081l.243.343c.077.113.14.228.221.336.252.367.5.662.721.968a5.815,5.815,0,0,0,.619.729l.335.308.513.467a4.205,4.205,0,0,0,.67.485,6.026,6.026,0,0,1,.773.582l.1.077.225.154a11.6,11.6,0,0,0,1.234.724m1.828,1.217a.625.625,0,0,0-.111-.053,9.444,9.444,0,0,1-.912-.375l-.78-.367a1.924,1.924,0,0,0-.2-.07,1.031,1.031,0,0,0,.179.122l.229.133c.189.113.4.22.614.324a4.688,4.688,0,0,0,.534.2,2.729,2.729,0,0,0,.363.1c.079.014.117.012.087-.011" transform="translate(-31.237 -19.765)" fill="#dc6c34"/>
    <path id="Caminho_108" data-name="Caminho 108" d="M93.535,45.6a19.612,19.612,0,0,1,6.2,1V41.3c0-10.793-8.925-13.644-13.644-13.644h-4.83V16.526a4.448,4.448,0,0,1,4.83-4.226V8.753a7.976,7.976,0,0,0-8.375,7.617l0,11.288H56.781L45.537,4.129H57.445V.582H3V4.129h10.1V33.823A29.347,29.347,0,0,0,1.88,44.987l-.872,1.544L4.1,48.274l.871-1.544c.072-.128.152-.248.226-.375.118-.2.237-.4.36-.6s.261-.413.4-.616c.117-.176.238-.349.36-.522.144-.206.287-.413.437-.614.128-.172.263-.34.4-.509q.378-.482.777-.944c.17-.2.338-.394.514-.585.133-.144.27-.284.4-.425.2-.205.4-.408.6-.606.118-.115.236-.228.356-.34q.379-.358.775-.7c.075-.065.15-.131.226-.2A25.761,25.761,0,0,1,53.185,58.148h22A19.73,19.73,0,0,1,93.535,45.6" transform="translate(-0.293 -0.169)" fill="#f8e075"/>
    <path id="Caminho_109" data-name="Caminho 109" d="M93.476,44.716c.243-.014.6-.006.989.013a20.456,20.456,0,0,1,2.627.326l.648.133.518.124c.187.048.285.077.429.123.013-.115,0-.262,0-.39V44.034c-.01-.912-.018-1.744-.027-2.6-.011-.593-.072-1.157-.1-1.756a5.212,5.212,0,0,0-.106-.883l-.144-.883c-.084-.547-.287-1.059-.423-1.59-.172-.519-.422-1-.626-1.509a11.38,11.38,0,0,0-1.906-2.621A11.159,11.159,0,0,0,93.9,30.933c-.409-.24-.809-.547-1.255-.777-.3-.151-.592-.317-.9-.46l-.93-.387c-.306-.111-.631-.2-.9-.288a17.529,17.529,0,0,0-3.39-.607c-.655-.037-1.356-.037-1.973-.057s-1.3-.029-2.034-.029H80.127l0-3.052c0-.535-.009-1.053-.027-1.481-.006-.135-.013-.276-.018-.4-.05-.869-.077-1.93-.074-3.293-.008-.722-.015-1.408-.021-2.087,0-.328-.009-.684-.013-1.028a5.8,5.8,0,0,1,1.456-4.146,4.634,4.634,0,0,1,1.557-1.112,6.177,6.177,0,0,1,1.124-.371c.189-.04.375-.06.551-.087l.065-.009c.013,0,0,0,0,0l.014,0,.038.006c.032.006.069.01.11.013a.326.326,0,0,0,.018-.1l.006-.06,0-.045,0-.156c0-.206.009-.412.013-.612q.006-.322.014-.662c-.006-.074.04-.208-.082-.165a3.054,3.054,0,0,0-.605.085,6.664,6.664,0,0,0-1.109.273A7.2,7.2,0,0,0,80.4,11.495a6.724,6.724,0,0,0-1.344,1.866,7.565,7.565,0,0,0-.632,1.827,3.224,3.224,0,0,0-.063.414c-.016.155.013.079.07-.167a6.751,6.751,0,0,1,.285-.9c.032-.082.07-.167.062-.123-.011.06-.061.236-.1.375a8.025,8.025,0,0,0-.227,1.341l-.009,11.141c0,.421,0,.836,0,1.237l-2.469.017-1.031.013-4.844,0-1.545-.019-1.554-.02-2.152,0H55.853l-1.782-3.721c-.306-.644-.616-1.293-.923-1.941l-1.156-2.426q-1.856-3.889-3.71-7.771c-.391-.819-.763-1.613-1.1-2.366-.219-.469-.446-.952-.673-1.434L43.726,3,56.168,3h.024l0-1.629L53.966,1.4l-1.607.006-5.91.017-1.036.012L42.8,1.466l-15.611,0-8.07,0H16.97l-5.914,0L9.5,1.5l-1.546.021-4.142.009c0-.73,0,2.045-.007,1.325h0l0,.006,0,0,.243,0L6.119,2.9l7.736.007v2.45L13.848,16.12c-.008.726-.015,1.412-.022,2.083,0,.51-.009,1.041-.014,1.576L13.8,30c0,.531-.009,1.073-.013,1.575q-.009.5-.018,1.019c0,.529-.006,1.066-.009,1.608l-1.373.8a28.659,28.659,0,0,0-4.945,3.8c-.755.727-1.464,1.469-2.09,2.19-.319.354-.65.775-.961,1.188-.548.714-1.041,1.467-1.521,2.228l-.931,1.608,1.349.765.184.113.118-.177.5-.846A26.589,26.589,0,0,1,12.4,37.065c.153-.1.305-.211.464-.306a26.484,26.484,0,0,1,22.413-2.894,28.371,28.371,0,0,1,3.009,1.151,12.77,12.77,0,0,1,1.93.986,24.139,24.139,0,0,1,2.241,1.459,26.981,26.981,0,0,1,6.306,6.216A27.592,27.592,0,0,1,52.487,51.1c.187.668.427,1.325.568,2.006l.4,2.047c.068.341.077.69.118,1.036l.073.778c.018.062-.023.2.09.164h.481l4.839-.006h2.15c.893,0,1.775.01,2.58.033l1.51.026,6.454,0H73.9l.415,0,.059,0c.01-.014.017-.033.026-.048l.051-.1a1.676,1.676,0,0,0,.078-.159l.132-.284a5.952,5.952,0,0,1,.291-.583c.216-.387.419-.8.663-1.209.3-.467.574-.957.911-1.4a14.636,14.636,0,0,1,.986-1.258l.7-.788.775-.777c.377-.4.819-.732,1.226-1.1.436-.358.958-.707,1.462-1.083.539-.326,1.057-.7,1.583-.956a21.687,21.687,0,0,1,2.907-1.312,12.63,12.63,0,0,1,1.5-.472c.331-.082.662-.177,1-.253l1.061-.2c.536-.118,1.093-.14,1.624-.209a12.558,12.558,0,0,1,1.4-.038,2.519,2.519,0,0,1,.472.028.4.4,0,0,1-.009.265c-.009.035-.155.075-.491.121a12.525,12.525,0,0,0-1.313.218,3.62,3.62,0,0,0-.407.124c-.12.04-.406.1-.7.153l-.973.248a9.362,9.362,0,0,0-1.08.313l-.831.282-.712.311-.714.321-.8.413a4.631,4.631,0,0,0-.555.309l-.367.254c-.116.082-.189.14-.347.242-.344.2-.776.538-1.388.926-.417.3-.831.619-1.245.932-.386.346-.787.673-1.141,1.027-.333.359-.662.679-.956,1.033S78.6,53.2,78.3,53.6c-.277.4-.543.751-.793,1.163a9.259,9.259,0,0,0-.831,1.587c-.1.231-.118.331-.228.583-.082.171-.146.394-.25.646l-.282.678-.2.462c-.078.142-.092.394-.322.322l-2.75,0c-.919,0-1.779.006-2.592.027l-.493.011c-1.959.01-3.924.026-5.818-.018l-1.009-.016L60.6,59.038l-2.062-.027-1.528-.023c-1.068-.008-2.132-.011-3.12-.037L52.46,58.94h-.371c-.087.027-.068-.062-.077-.121l-.017-.187c-.024-.249-.047-.5-.07-.743l-.176-1.935a13.921,13.921,0,0,0-.255-1.656,13.308,13.308,0,0,0-.365-1.68c-.132-.472-.263-.941-.4-1.417s-.354-.936-.536-1.423a14.443,14.443,0,0,0-.584-1.386l-.672-1.332a8.313,8.313,0,0,0-.593-1l-.632-.984a8.3,8.3,0,0,0-.688-.946L46.3,43.2a13.4,13.4,0,0,0-1.047-1.162c-.37-.367-.7-.78-1.1-1.112l-.736-.66-.726-.657L41.865,39c-.428-.3-.834-.631-1.279-.9l-1.349-.8a7.9,7.9,0,0,0-.873-.481l-1.087-.533a8.011,8.011,0,0,0-1.19-.5l-1.727-.614-1.775-.448a12.437,12.437,0,0,0-1.488-.293,14.7,14.7,0,0,0-2.028-.263,24.824,24.824,0,0,0-6.785.369c-.514.1-.99.2-1.454.309a23.841,23.841,0,0,0-2.3.657c-.456.153-.915.329-1.409.54a24.969,24.969,0,0,0-3.706,1.993c-.424.292-.853.577-1.244.89s-.763.609-1.183.952a25.706,25.706,0,0,0-3.98,4.187c-.54.729-1,1.386-1.432,2.056-.165.261-.355.553-.528.855L4,48.821,0,46.562l.97-1.729c.235-.421.489-.855.741-1.278l.555-.89a23.814,23.814,0,0,1,1.547-2.152,29.585,29.585,0,0,1,4-4.1c.725-.624,1.493-1.195,2.273-1.746.4-.27.79-.538,1.2-.788.2-.128.4-.255.612-.374l.321-.187,0-10.485,0-3.766c0-1.461.019-2.813.05-4.132.03-1.278.066-2.533.064-4.046,0-.334.009-.7.014-1.018.022-.977.045-1.938.067-2.915,0-.323.009-.675.014-1.02l.007-1.61-1.417,0L9.974,4.311c-.823-.02-1.7-.027-2.607-.027H2.378V.09h2.34L6.255.068,10.308,0h1.608L15.808.09c.441.016.885.03,1.129.054C17.583.209,18.6.258,19.7.3l1.314.046L25.283.46c.631.016,1.4.012,2.079,0C28.822.42,30.155.377,31.284.319L32.791.243C33.3.217,33.935.2,34.619.19L36.091.158h1.6l2.89.07,2.058.027,1.071,0c1.066.008,3.132.056,3.827.089L48.667.4c.662.031,1.409.052,2.332.061q1.113.01,1.6.062l1.021.094c.24.025.582.043,1.083.055L56,.722c.287.019.479.04.629.065L56.761.8c0,.013,0,.031,0,.05-.006.08-.011.165-.018.263-.012.417-.024.832-.037,1.256-.007.36-.016.726-.024,1.114H55.117c-1.087,0-2.151,0-3.116.032l-1.027.013-2.4.009-2.513.04-1.4.008.313.645c.292.6.612,1.255.866,1.778l1.808,3.623.456.922,1.391,2.911.878,1.889.433.936,2.215,4.656c.56,1.173,1.258,2.63,1.953,4.086l.692,1.415c.214.432.431.868.655,1.317l1.459-.009,3.764-.01c.743,0,1.432-.013,1.961-.038.933-.043,2.079-.067,3.2-.1l1.027-.013,9.8-.007,0-7.09.006-3.226c0-.367.009-.713.012-1.031a8.993,8.993,0,0,1,1.246-3.815A7.284,7.284,0,0,1,80.1,10.8a6.276,6.276,0,0,1,1.169-.862,8.026,8.026,0,0,1,2.262-.8,8.533,8.533,0,0,1,.851-.123,4.267,4.267,0,0,1,.7-.042l.329-.006c.048.063.009.219.018.326,0,.276,0,.562,0,.863l-.006,1.027c0,.25-.011.455-.023.583-.148,0-.237-.016-.242-.033s.06-.037.033-.052a.714.714,0,0,0-.3-.057.658.658,0,0,0-.084,0c-.018,0-.014,0-.029,0l-.1.011-.4.051a5.873,5.873,0,0,0-.861.245,4.359,4.359,0,0,0-1.744,1.19,4.176,4.176,0,0,0-.574.833c-.221.465-.221.514-.044.221a1.983,1.983,0,0,1,.158-.233c.232-.265.1-.118-.2.57a6.959,6.959,0,0,0-.468,1.966c-.022.385-.04.707-.06,1.036s-.036.689-.058,1.08c-.022.548-.041,1.159-.045,1.9l-.011,3.222c-.011.911-.021,1.742-.032,2.588,0,.472,0,1.118,0,1.581,0,.073,0,.145,0,.22l3.591-.035,2.016-.028.743.02.729.089c.387.048.778.149,1.184.219.4.1.814.2,1.24.322a13.752,13.752,0,0,1,5.16,2.826,11.392,11.392,0,0,1,3.136,4.906c.1.339.2.654.292.965a8.581,8.581,0,0,1,.2.934,12.283,12.283,0,0,1,.232,2.5c.023.463-.013.963-.006,1.516l-.009,2.9a2.951,2.951,0,0,1-.016.4l-.531-.179-.231-.067-.39-.1c-.264-.061-.533-.117-.805-.167a22.323,22.323,0,0,0-2.737-.321l-.824-.05c-.167-.017-.047-.036.155-.046m-80.3-25.56a11.049,11.049,0,0,0-.108,1.992v2.01c0,.123,0,.655,0,1.188a9.628,9.628,0,0,0,.069,1.366c.045.057.088,0,.131-.146a5.9,5.9,0,0,0,.064-.817c.024-.56.038-1.193.04-1.926,0-.532,0-1.073,0-1.593,0-.323-.012-.727-.025-.887-.03-.37-.063-.616-.1-.907a.573.573,0,0,0-.077-.279m-.24,1.774a5.262,5.262,0,0,0-.015-.684c-.016-.128-.032.032-.042.286,0,.088,0,.228,0,.344.006.094.014.206.018.276.018.139.032.054.042-.222m-.19-12.74c-.009-.717-.017-1.416-.026-2.068-.009-.632-.018-1.314-.026-1.971V4.066a4.12,4.12,0,0,0-.58.028,3.881,3.881,0,0,0,.523.029l0,.152c0,.145-.007.285-.01.423-.007.3-.014.6-.022.909,0,.338-.006.687-.009,1.053l-.007,3.765c0,.922-.016,1.756-.037,2.549,0,.329-.009.661-.013,1.028l-.008,5.377,0,7c0,.348-.008.7-.011,1.043-.006.516-.014,1.019-.021,1.539,0,.79-.011,1.587-.015,2.376q-.005.591-.011,1.174-.01.477-.018.946l-.021.011-.506.284c-.238.133-.472.291-.7.431a29.547,29.547,0,0,0-2.66,1.886c-.721.585-1.373,1.128-1.988,1.7-.381.341-.76.737-1.14,1.13A14.122,14.122,0,0,0,4.486,40c-.536.716-1.173,1.583-1.947,2.779-.182.271-.311.517-.455.758a2.565,2.565,0,0,0-.259.5c.006.016.184-.265.393-.572.184-.281.373-.565.563-.817l.588-.824a23.4,23.4,0,0,1,1.626-2.064c.36-.4.715-.79,1.08-1.132A33.614,33.614,0,0,1,8.633,36.4a5.2,5.2,0,0,0,.792-.673.848.848,0,0,0-.245.127c-.231.148-.055-.035.388-.354s.878-.624,1.315-.907.87-.536,1.3-.781l.443-.257c.009-.679.018-1.32.026-1.945.016-.647.03-1.277.045-1.9.029-1.134.047-2.3.047-3.588,0-.891,0-1.618,0-1.7,0-1.523,0-2.062,0-2.6,0-1.086-.013-2.1-.035-3.107-.028-1.185-.024-2.435,0-3.637,0-.164.007-.323.011-.491,0-.338.01-.676.015-1.022q0-2.683,0-5.372M9,3.624c.077.006.287.011.448.012l3.657.013c0,.119,0,.234,0,.349,0,1.154,0,2.279.008,3.395,0,.275.016.52.026.779.016-.2.026-.462.032-.786s.013-.654.019-.965c.007-.393.013-.792.021-1.2,0-.549,0-1.109,0-1.682h-.092l-2.479.007c-.514,0-.978.018-1.36.035C9,3.6,8.87,3.613,9,3.624" transform="translate(0 0)" fill="#f8e075"/>
    <path id="Caminho_110" data-name="Caminho 110" d="M134.934,89.383a5.925,5.925,0,1,0-5.925,5.925,5.925,5.925,0,0,0,5.925-5.925" transform="translate(-35.767 -24.252)" fill="#f8e075"/>
    <path id="Caminho_111" data-name="Caminho 111" d="M134.052,89.413a.161.161,0,0,1-.026-.082,4.978,4.978,0,0,0-.069-.642,1.078,1.078,0,0,0-.06-.215,2.3,2.3,0,0,1-.094-.3,2.306,2.306,0,0,0-.179-.563.871.871,0,0,0-.084-.155.8.8,0,0,1-.072-.113l-.088-.157a.473.473,0,0,0-.051-.068,1.378,1.378,0,0,1-.174-.253.505.505,0,0,1-.062-.161.349.349,0,0,0-.069-.158l-.192-.253a.282.282,0,0,0-.1-.082l-.036-.013a.452.452,0,0,1-.24-.152.574.574,0,0,0-.131-.112.337.337,0,0,1-.072-.047l-.229-.205a.949.949,0,0,1-.086-.1.807.807,0,0,1-.1-.131,1.1,1.1,0,0,0-.123-.168.426.426,0,0,0-.137-.112.939.939,0,0,0-.2-.088,1.041,1.041,0,0,1-.267-.149.931.931,0,0,0-.182-.123,1.061,1.061,0,0,0-.165-.07.094.094,0,0,0-.042,0c-.017,0-.016.021,0,.044a.873.873,0,0,1,.059.086c0,.009.009.023,0,.026a.065.065,0,0,1-.038,0,1.148,1.148,0,0,1-.125-.034,5.4,5.4,0,0,0-.839-.243.781.781,0,0,0-.172-.007.375.375,0,0,1-.084,0,2.239,2.239,0,0,0-.389-.035.455.455,0,0,1-.125-.026.59.59,0,0,0-.125-.026.981.981,0,0,0-.177,0,4.9,4.9,0,0,0-.955.118l-.17.041-.213.05c-.216.094-.444.148-.651.258a.824.824,0,0,1-.2.068.316.316,0,0,0-.118.054,4.708,4.708,0,0,0-1.09.826,1.679,1.679,0,0,0-.349.448l-.073.109a2.835,2.835,0,0,0-.255.409.388.388,0,0,0-.033.078c-.02.067-.055.128-.082.2a5.562,5.562,0,0,0-.427,1.178A3.852,3.852,0,0,0,124,89a1.405,1.405,0,0,1-.009.173,1.818,1.818,0,0,0,0,.477.632.632,0,0,0,.025.124.512.512,0,0,1,.027.121c.049.238.067.482.128.717a.358.358,0,0,1,.006.082.651.651,0,0,0,.015.168,5.162,5.162,0,0,0,.228.607,4.851,4.851,0,0,0,.425.756.643.643,0,0,1,.084.148.53.53,0,0,0,.065.111,4.8,4.8,0,0,0,.561.615.433.433,0,0,1,.087.1.631.631,0,0,0,.183.182,3.557,3.557,0,0,0,.436.3,1.025,1.025,0,0,1,.206.162.5.5,0,0,0,.112.067,3.842,3.842,0,0,0,.612.272,1.161,1.161,0,0,1,.156.082.425.425,0,0,0,.081.031,6.335,6.335,0,0,0,.972.2h.046a5.041,5.041,0,0,0,1.88-.215.927.927,0,0,0,.235-.12.371.371,0,0,1,.164-.06.541.541,0,0,0,.211-.06,4.536,4.536,0,0,0,.635-.344,5.363,5.363,0,0,0,1.035-.873,1.631,1.631,0,0,0,.255-.316,1.792,1.792,0,0,1,.109-.145,1.634,1.634,0,0,1,.15-.161.466.466,0,0,0,.087-.1,2.3,2.3,0,0,0,.266-.478l.079-.165a.753.753,0,0,1,.067-.114.68.68,0,0,0,.108-.192l.051-.129c.019-.044.037-.083.057-.121a.924.924,0,0,0,.069-.167l.045-.131a1.332,1.332,0,0,0,.116-.294,1.713,1.713,0,0,0,.08-.265c.009-.032.021-.076.037-.132a.994.994,0,0,0,.036-.182c.006-.045.011-.086.018-.143a.324.324,0,0,1,.047-.121c.013-.021.033-.041.048-.042h.265a.133.133,0,0,1,.1.048c.045.048.091.091.138.133a.32.32,0,0,0,.074.045.211.211,0,0,1,.066.077,1.377,1.377,0,0,1,.106.229,2.6,2.6,0,0,1,.159.379.3.3,0,0,0,.031.076.571.571,0,0,0,.039.057.3.3,0,0,1,.04.055.371.371,0,0,1,.026.2c-.015.117-.062.231-.073.347s-.007.217-.023.333c0,.043-.016.118-.023.166a.424.424,0,0,0,.013.228c.011.036.033.057.041.1a.4.4,0,0,1-.016.207,1.651,1.651,0,0,1-.1.228,1.3,1.3,0,0,0-.106.282.366.366,0,0,1-.016.056,2.088,2.088,0,0,1-.356.575.73.73,0,0,0-.075.091l-.156.192a1.329,1.329,0,0,1-.164.175,1.394,1.394,0,0,0-.123.126,1.955,1.955,0,0,1-.266.241,1.153,1.153,0,0,0-.132.121,1.7,1.7,0,0,1-.134.123c-.114.059-.224.156-.336.223l-.292.194c-.048.033-.1.062-.15.09s-.1.05-.151.085c-.144.106-.306.184-.458.28a2.944,2.944,0,0,1-.312.175.664.664,0,0,1-.109.038,1.338,1.338,0,0,0-.217.075,2.936,2.936,0,0,1-.329.134.491.491,0,0,1-.112.026,1.288,1.288,0,0,0-.276.067,2.972,2.972,0,0,1-.4.108,1.2,1.2,0,0,1-.17.026c-.075.006-.148.023-.226.035a5.65,5.65,0,0,1-.754.09.906.906,0,0,1-.167-.014l-.265-.041-.165-.018-.46-.022c-.056,0-.113.006-.168,0a1.223,1.223,0,0,1-.167-.006,5.491,5.491,0,0,1-.627-.109,1.117,1.117,0,0,1-.26-.1.572.572,0,0,0-.1-.041c-.269-.1-.543-.189-.809-.3a.724.724,0,0,0-.1-.035,1.328,1.328,0,0,1-.264-.1,6.41,6.41,0,0,1-1.862-1.456,2.728,2.728,0,0,1-.256-.315,1.86,1.86,0,0,1-.223-.386,1.842,1.842,0,0,0-.17-.4.491.491,0,0,1-.043-.1c-.037-.1-.052-.2-.079-.3a.694.694,0,0,0-.033-.1,3.511,3.511,0,0,1-.148-.363.48.48,0,0,1-.026-.106,1.314,1.314,0,0,0-.068-.262,5.968,5.968,0,0,1-.241-1.029.723.723,0,0,0-.044-.155c-.059-.128-.058-.286-.1-.415l-.009-.168a1.761,1.761,0,0,1,.09-.405.339.339,0,0,1,.06-.114.919.919,0,0,0,.175-.267,1.14,1.14,0,0,0,.062-.125c.055-.14.118-.266.172-.4a.593.593,0,0,0,.04-.2,1.847,1.847,0,0,0-.036-.41,1.241,1.241,0,0,1-.026-.166.645.645,0,0,1,.013-.191c.009-.052.009-.1.021-.153s.037-.1.055-.155l.19-.237a.957.957,0,0,0,.114-.175l.052-.1a1.489,1.489,0,0,1,.275-.282l.106-.065a1.073,1.073,0,0,0,.18-.153.225.225,0,0,1,.143-.087l.133-.021a.2.2,0,0,0,.1-.048.367.367,0,0,1,.22-.087.151.151,0,0,0,.034,0,.124.124,0,0,0,.037-.014,1.318,1.318,0,0,0,.3-.227l.072-.064a.9.9,0,0,0,.187-.214.358.358,0,0,1,.06-.074,1.425,1.425,0,0,0,.312-.3,1.4,1.4,0,0,1,.111-.094.863.863,0,0,0,.116-.087c.086-.089.205-.164.288-.254a.3.3,0,0,1,.08-.053l.272-.132a.568.568,0,0,1,.187-.057.557.557,0,0,0,.1-.021c.143-.044.282-.106.455-.148l.407-.105c.048-.016.1-.021.141-.04a1.021,1.021,0,0,1,.233-.068,2.653,2.653,0,0,1,.35-.05.455.455,0,0,0,.181-.046,1.293,1.293,0,0,1,.3-.108.4.4,0,0,1,.1-.009,6.094,6.094,0,0,1,1.585.24c.1.032.194.074.291.111a.316.316,0,0,1,.089.045,2.658,2.658,0,0,0,.344.2l.185.087a.355.355,0,0,1,.116.084c.048.069.1.146.15.21a1.153,1.153,0,0,0,.265.258l.074.064c.052.045.073.1.048.125-.011.013-.031.021-.04.035a.093.093,0,0,0-.009.085.48.48,0,0,0,.2.226.186.186,0,0,0,.077.031c.046.007.058,0,.057-.04v-.033c0-.046.032-.057.1-.037a.168.168,0,0,1,.127.112.5.5,0,0,1,.028.107c.006.034.018.069.028.109a.453.453,0,0,0,.082.157l.184.217a.977.977,0,0,1,.114.2.21.21,0,0,0,.054.073,1,1,0,0,1,.191.2.86.86,0,0,0,.121.135.267.267,0,0,1,.07.118,1.531,1.531,0,0,0,.084.214,5.261,5.261,0,0,1,.4,1.016.844.844,0,0,0,.074.169.44.44,0,0,1,.05.226.553.553,0,0,0,0,.138l.035.284a.432.432,0,0,1-.008.184.6.6,0,0,0-.008.139,1.733,1.733,0,0,1,0,.235.126.126,0,0,1-.026.07c-.015.014-.035,0-.048-.013m-9.584,3.419c-.034.016-.032.132.029.214l.126.14.078.079c.04.043.111.065.136.048a.311.311,0,0,0,.085-.1.13.13,0,0,0,0-.1.4.4,0,0,0-.087-.153,1.125,1.125,0,0,0-.1-.1.21.21,0,0,0-.068-.045.806.806,0,0,0-.123-.006.155.155,0,0,0-.076.026m-.088.284a.057.057,0,0,0-.05-.043c-.02,0-.023.022-.016.048a.135.135,0,0,0,.016.029.126.126,0,0,0,.033.008c.022,0,.028-.016.017-.043m-.838-.931a.927.927,0,0,0-.113-.172,1.61,1.61,0,0,1-.113-.175c-.021-.031-.048-.062-.057-.053s-.006.05.006.085l.011.049a.827.827,0,0,0,.062.2,2.968,2.968,0,0,0,.17.343,1.053,1.053,0,0,1,.1.24.482.482,0,0,0,.043.1c.091.16.211.3.315.452.138.2.314.362.468.544l.07.082c.035.04.065.084.1.123l.341.355a1.071,1.071,0,0,0,.126.108c.087.07.172.143.264.207a1.458,1.458,0,0,1,.214.168.789.789,0,0,0,.136.1.3.3,0,0,0,.143.053.961.961,0,0,1,.37.039.4.4,0,0,0,.094.012c.03,0,.06,0,.069-.016s-.018-.038-.05-.06l-.08-.062a.215.215,0,0,0-.089-.048.835.835,0,0,1-.246-.1.627.627,0,0,1-.126-.1,2.938,2.938,0,0,0-.246-.241c-.043-.032-.094-.05-.109-.023a.1.1,0,0,0-.007.057c0,.041-.028.045-.07.01l-.123-.1c-.038-.037-.067-.082-.107-.113a1.192,1.192,0,0,1-.3-.349,1.888,1.888,0,0,0-.227-.277l-.112-.126L124.3,93.3c-.077-.075-.14-.153-.219-.218a.818.818,0,0,1-.214-.292c-.006-.016-.012-.034-.016-.048a.931.931,0,0,0-.04-.1c-.079-.158-.183-.3-.263-.462m.05-.859a.085.085,0,0,0,0,.043,3.16,3.16,0,0,0,.109.318l.135.261a.24.24,0,0,0,.054.053.162.162,0,0,0,0-.079c-.006-.028-.013-.055-.021-.089a.792.792,0,0,0-.078-.218c-.032-.055-.048-.118-.076-.174a.326.326,0,0,0-.077-.1c-.022-.021-.04-.026-.046-.011" transform="translate(-35.602 -24.301)" fill="#dc6c34"/>
    <path id="Caminho_112" data-name="Caminho 112" d="M27.423,9.253H47.951l8.693,21.6H27.423Z" transform="translate(-7.969 -2.689)" fill="#fff"/>
    <path id="Caminho_113" data-name="Caminho 113" d="M27.113,8.122a1.157,1.157,0,0,1,.238-.021l1.878-.014c.228,0,.436-.011.649-.027.3-.021.612-.03.925-.023.582.012,1.163,0,1.744,0,.182,0,.351-.011.516-.026.126-.011.26-.012.393-.015l.534-.011c.086,0,.175-.009.251-.017a7.544,7.544,0,0,1,.914-.026,4.446,4.446,0,0,1,.507.03A3.882,3.882,0,0,0,36.168,8h.941a2.393,2.393,0,0,0,.369-.028l.1-.017a3.547,3.547,0,0,1,.822-.074c.182,0,.353-.008.521-.022.082-.006.171-.012.257-.013l.94,0a3.62,3.62,0,0,1,.386.019c.158.016.338.023.473.049.169.031.4.04.594.06.162.016.343.017.522.018.23,0,.436-.013.647-.029a5.97,5.97,0,0,1,.915,0c.209.017.419.031.646.031l.536,0a.632.632,0,0,0,.116-.013c.044-.01.022-.026-.049-.041l-.264-.06c-.025-.006-.051-.017-.039-.023a.565.565,0,0,1,.109-.013l.4-.01,3.165,0,.148.367c.129.321.257.624.391.922.04.088.08.175.116.253l.455,1.119c.052.128.089.247.126.365s.077.24.127.367l.2.5,1.107,2.74.2.5.248.624c.267.668.533,1.329.8,1.995.084.211.159.416.219.614.037.122.088.246.138.37l1.552,3.864c.218.532.419,1.09.673,1.585l.155.37.567,1.361c.034.082.072.164.107.236.1.188.182.386.267.6q1,2.467,1.989,4.928h-.289l-3.439,0H53.58c-.493-.009-.984,0-1.476,0-.136,0-.263.009-.387.02s-.248.018-.386.021c-.76.011-1.52.012-2.28,0-.087,0-.175-.008-.255-.015-.164-.015-.331-.026-.513-.027l-2.015-.008-2.687-.006c-.182,0-.355-.009-.52-.023-.126-.011-.259-.013-.393-.013l-2.551-.016c-.133,0-.27,0-.394-.013-.246-.026-.512-.029-.782-.03l-1.612-.006c-.271,0-.535-.006-.78-.032-.123-.012-.262-.011-.394-.012l-2.014-.013c-.182,0-.35-.011-.519-.024l-.259-.012-2.953-.019h-.134l-4.065.007-.006-3.266c0-.273-.011-.527-.033-.778a3.225,3.225,0,0,1,0-.524c.016-.209.03-.416.03-.646v-2.15c0-1.343,0-2.683.006-4.029,0-.4,0-.8-.006-1.207v-.536a6.393,6.393,0,0,1,.032-.643,3.638,3.638,0,0,0,.026-.377c0-.538,0-1.071,0-1.611v-.536a3.342,3.342,0,0,1,.021-.385,5.667,5.667,0,0,0,.035-.637l0-.4c0-.137.009-.263.02-.385.016-.164.021-.339.026-.518,0-.131.008-.265.011-.4.033-.272.032-.6.057-.887.022-.251.033-.507.039-.773,0-.131.012-.262.023-.382.014-.166.024-.334.028-.514,0-.131.007-.262.011-.4a2.3,2.3,0,0,1,.04-.341c.012-.057.031-.114.046-.115a1.561,1.561,0,0,1,.264,0c.035,0,.07.038.1.122.047.122.1.23.144.331a.431.431,0,0,0,.076.1.586.586,0,0,1,.07.181c.044.153.082.343.118.538.061.327.145.511.2.851a1.081,1.081,0,0,0,.043.162,1.07,1.07,0,0,0,.047.115.632.632,0,0,1,.048.109,1.678,1.678,0,0,1,.056.431c.006.267-.006.542.01.8.02.233.043.5.062.735.01.112.023.25.032.367a1.661,1.661,0,0,0,.09.468c.023.065.05.092.072.164a1.693,1.693,0,0,1,.057.429c0,.18,0,.358,0,.536a5.707,5.707,0,0,0,.027.647c0,.043.006.088.01.123a12.834,12.834,0,0,1-.018,1.452c-.006.089-.012.174-.016.251,0,.18-.007.357-.011.534s-.012.349-.027.515c-.011.12-.02.25-.023.381-.008.266-.011.534-.037.778-.013.12-.013.258-.016.39l-.011.4c-.034.27-.037.6-.061.879-.021.251-.035.5-.04.773-.006.123-.012.255-.018.389s-.015.26-.022.384c0,.405-.01.8-.015,1.206l0,.805c0,.087-.007.175-.013.255-.015.166-.026.333-.028.515l-.009.8c0,.092-.006.177-.014.256a6.068,6.068,0,0,0-.033.642l-.006.939c0,.132-.009.265-.018.389-.006.15-.011.276-.018.41v.388l.346.01.216.023.611.054c.123.011.248.021.385.021h1.074l.389-.017c.128-.007.249-.018.388-.018l1.477-.006a6.2,6.2,0,0,1,.639.033c.077.008.168.012.255.014.672.013,1.342.009,2.011,0l.257-.013c.208-.018.421-.027.649-.028l5.506-.01.941,0c.364,0,.7.018,1.031.05a9.392,9.392,0,0,0,1.01.065c.084,0,.174.007.253.014l.727.067c.08.007.169.013.255.015l.938.011c.092,0,.177,0,.26.011.205.02.424.027.651.027h2.552a3.777,3.777,0,0,0,.384-.021c.32-.033.7-.031,1.011-.068h.4c.318.032.675.047.971.089a1.545,1.545,0,0,1,.282.055,3.757,3.757,0,0,0,.688.16c.1.018.208.035.328.046l1.11.111a3.1,3.1,0,0,0,.534,0l.094-.011a9.846,9.846,0,0,0-.486-.868l-.209-.316a2.7,2.7,0,0,1-.2-.346c-.054-.106-.117-.231-.167-.329-.05-.126-.1-.246-.15-.369-.068-.231-.135-.462-.205-.7-.045-.156-.1-.317-.166-.486l-.1-.25a8.976,8.976,0,0,1-.275-.919c-.017-.094-.035-.191-.052-.283a3.852,3.852,0,0,0-.16-.563,1.2,1.2,0,0,1-.092-.394c0-.092-.006-.179-.009-.271a.965.965,0,0,0-.05-.271,2.169,2.169,0,0,1-.106-.558.518.518,0,0,0-.006-.074.726.726,0,0,0-.02-.1,8.063,8.063,0,0,0-.319-.959l-.1-.25a6.721,6.721,0,0,0-.32-.709c-.038-.071-.072-.149-.109-.233a10.557,10.557,0,0,0-.481-1.064l-.16-.363c-.054-.121-.107-.257-.16-.358-.151-.286-.291-.638-.441-.912a1.878,1.878,0,0,1-.109-.233l-.3-.747c-.068-.169-.122-.33-.172-.49-.025-.078-.053-.163-.085-.244l-.472-1.2c-.121-.3-.271-.675-.422-1.049-.05-.124-.1-.248-.16-.36-.094-.182-.184-.373-.271-.585l-.359-.868a3.063,3.063,0,0,0-.217-.44c-.128-.2-.258-.455-.387-.7-.038-.073-.074-.147-.109-.232L47.655,8.733l-1.446,0L45.4,8.731a2.066,2.066,0,0,1-.257-.013,8.769,8.769,0,0,0-1.029-.048l-.537,0a2.4,2.4,0,0,1-.372-.025l-.62-.1a6.461,6.461,0,0,0-.978-.077l-.266-.006c-.187,0-.314-.033-.308-.072,0-.017.037-.035.032-.052s-.034-.052-.123-.074a3.088,3.088,0,0,0-.836-.055,1.246,1.246,0,0,0-.22.028c-.114.026-.124.038-.048.068l.063.023c.077.037.036.063-.135.093a1.165,1.165,0,0,1-.465,0c-.1-.018-.179-.039-.258-.06a2.719,2.719,0,0,0-.27-.059,3.19,3.19,0,0,0-.475-.045l-.8-.011c-.229,0-.436-.016-.646-.032a1.876,1.876,0,0,0-.26,0c-.251.02-.508.034-.778.038-.182,0-.343.018-.5.034a2.107,2.107,0,0,1-.384,0,5.97,5.97,0,0,0-.644-.03l-3.089,0c-.185,0-.345.016-.511.029a3.787,3.787,0,0,1-.647-.006c-.121-.011-.243-.022-.381-.023l-.805-.009c-.182,0-.354-.011-.515-.026-.125-.012-.258-.014-.392-.015-.224,0-.45,0-.667-.011a.887.887,0,0,1-.2-.03c-.041-.016-.012-.036.037-.048m15.71,22.693c.025-.038-.226-.1-.5-.108h-.5l-.3,0a.659.659,0,0,0-.341.07.131.131,0,0,0,.036.13.432.432,0,0,0,.2.065,2.954,2.954,0,0,0,.48.039l.4,0a1.174,1.174,0,0,0,.221-.025,2.152,2.152,0,0,0,.227-.1c.055-.024.052-.05.069-.076m-.442-.241a.347.347,0,0,0,.171-.015c.031-.016-.009-.032-.072-.041l-.086,0a.562.562,0,0,0-.07.018c-.035.018-.013.032.056.042m3.179-.189c.18,0,.356-.009.516-.026s.344-.017.516-.026c.093,0,.19-.017.18-.029a.538.538,0,0,0-.2-.031l-.122-.011c-.16-.016-.324-.029-.508-.031L45,30.223a6.042,6.042,0,0,1-.636-.036,2.385,2.385,0,0,0-.256-.015l-1.342-.006-1.746,0-.26-.011-.384-.022c-.4-.011-.8-.013-1.18-.045-.118-.01-.262-.009-.4-.011l-.8-.011c-.229,0-.438-.014-.644-.033-.126-.01-.26-.01-.394-.01a1.589,1.589,0,0,0-.358.029,4.392,4.392,0,0,1-.838.126c-.08.006-.149.019-.218.03s-.138.026-.14.044.08.026.172.033l.247.021a1.2,1.2,0,0,0,.252,0c.206-.02.427-.026.652-.025a3.835,3.835,0,0,1,.388.015c.271.031.543.06.843.079.133.007.266-.015.258-.044s-.03-.033-.067-.05c-.067-.031,0-.053.13-.05l.4.011c.129.006.252.025.379.025a11.113,11.113,0,0,1,1.134.072,8.459,8.459,0,0,0,.9.047l.426,0h.648c.271,0,.524-.013.775-.037a5.239,5.239,0,0,1,.907,0l.122.011.255.014q.669.016,1.341,0m2,.389a.511.511,0,0,0-.111-.013l-.9-.014-.788.009a1.547,1.547,0,0,0-.194.026.982.982,0,0,0,.2.031l.24.019a5.809,5.809,0,0,0,.631.026l.52-.008a2.1,2.1,0,0,0,.339-.035c.074-.014.1-.028.071-.04" transform="translate(-7.603 -2.273)" fill="#f8e075"/>
  </g>
</svg>
